<?xml version="1.0" standalone="no"?>
<!DOCTYPE svg PUBLIC "-//W3C//DTD SVG 1.1//EN" "http://www.w3.org/Graphics/SVG/1.1/DTD/svg11.dtd">
<svg xmlns="http://www.w3.org/2000/svg">
  <defs>
    <font id="IBMPlexMono" horiz-adv-x="600">
      <font-face font-family="IBM Plex Mono Medium" units-per-em="1000" panose-1="2 11 6 9 5 2 3 0 2 3" ascent="1025" descent="-275" alphabetic="0" />
      <glyph unicode=" " glyph-name="space" horiz-adv-x="600" />
      <glyph unicode="!" glyph-name="exclam" horiz-adv-x="600" d="M281,237L240,495V698H360V495L319,237H281ZM300-10q-46,0-65,19T216,57V81q0,29 19,48t65,19t65-19t19-48V57q0-29-19-48T300-10Z" />
      <glyph unicode="&quot;" glyph-name="quotedbl" horiz-adv-x="600" d="M152,442V740H252V442H152Zm197,0V740H449V442H349Z" />
      <glyph unicode="#" glyph-name="numbersign" horiz-adv-x="600" d="M135,207H13v84H150l20,116H50v84H185l37,207h91L190,0H99l36,207ZM410,698h91L465,491H587V407H450L430,291H550V207H415L378,0H287L410,698Z" />
      <glyph unicode="$" glyph-name="dollar" horiz-adv-x="600" d="M268-11Q188-5 133,26T43,105l72,69q34-41 72-63.5T273,83V312l-23,4q-50,9-85,27t-57,44T76,444.5T66,512q0,85 53,135.5T268,708V811h84V708q66-7 114-33t83-71l-73-66q-24,31-55.5,50T347,612V400l27-4q50-9 85-27t57.5-43.5T549,268t10-68q0-86-53.5-141T352-8V-113H268V-11ZM172,515q0-42 23.5-65.5T273,414V614q-101-12-101-99ZM453,195q0,45-24.5,68.5T347,298V84q52,8 79,36t27,75Z" />
      <glyph unicode="%" glyph-name="percent" horiz-adv-x="600" d="M167,348q-69,0-110.5,46.5T15,529T56.5,663.5T167,710t110.5-46.5T319,529T277.5,394.5T167,348Zm0,68q33,0 51,23.5T236,505v48q0,42-18,65.5T167,642t-51-23.5T98,553V505q0-42 18-65.5T167,416ZM499,698h90L432,398H343L499,698ZM168,300h89L101,0H11L168,300ZM433-12q-69,0-110.5,46.5T281,169t41.5,134.5T433,350t110.5-46.5T585,169T543.5,34.5T433-12Zm0,68q33,0 51,23.5T502,145v48q0,42-18,65.5T433,282t-51-23.5T364,193V145q0-42 18-65.5T433,56Z" />
      <glyph unicode="&amp;" glyph-name="ampersand" horiz-adv-x="600" d="M213-12q-46,0-82,15.5T70.5,46T33,108.5T20,185q0,57 28,109t97,89q-30,39-47.5,76T80,538q0,38 14.5,69.5T134,662t59.5,35.5T267,710q35,0 64-10t51.5-26T420,637.5T443,596l-81-42q-12,31-37,50.5T265,624q-38,0-61.5-23.5T180,540v-7q0-15 4-29t13-30t23.5-35.5T256,392l76-94l63-83h5q7,37 9,85t3,90H569V305H496q-6-42-13.5-77.5T458,150L583,0H462L378,100h-6q-11-51-52.5-81.5T213-12Zm28,89q34,0 61.5,13.5T347,133L192,324q-38-27-52-59.5T126,195v-9q0-51 31.5-80T241,77Z" />
      <glyph unicode="&apos;" glyph-name="quotesingle" horiz-adv-x="600" d="M250,442V740H350V442H250Z" />
      <glyph unicode="(" glyph-name="parenleft" horiz-adv-x="600" d="M192,311q0,73 16.5,140.5t45,125.5T320,681.5T400,760H509q-45-32-85-75t-70-95T306,479.5T288,357V265q0-64 18-122.5T354,32t70-95t85-75H400q-42,31-80,78T253.5,45t-45,125.5T192,311Z" />
      <glyph unicode=")" glyph-name="parenright" horiz-adv-x="600" d="M408,311q0-73-16.5-140.5T346.5,45T280-60t-80-78H91q45,32 85,75t70,95t48,110.5T312,265v92q0,64-18,122.5T246,590t-70,95T91,760H200q42-32 80-78.5T346.5,577t45-125.5T408,311Z" />
      <glyph unicode="*" glyph-name="asterisk" horiz-adv-x="600" d="M182,48l-77,53L225,263L38,326l28,86l186-63V549h96V349l186,63l28-86L375,263L495,101L418,48L300,210L182,48Z" />
      <glyph unicode="+" glyph-name="plus" horiz-adv-x="600" d="M251,62V261H62v89H251V549h98V350H538V261H349V62H251Z" />
      <glyph unicode="," glyph-name="comma" horiz-adv-x="600" d="M244,152H399L275-145H190l54,297Z" />
      <glyph unicode="-" glyph-name="hyphen" horiz-adv-x="600" d="M149,250V359H451V250H149Z" />
      <glyph unicode="." glyph-name="period" horiz-adv-x="600" d="M300-10q-48,0-67.5,20T213,59V85q0,29 19.5,49T300,154t67.5-20T387,85V59q0-29-19.5-49T300-10Z" />
      <glyph unicode="/" glyph-name="slash" horiz-adv-x="600" d="M83-138L420,760h97L180-138H83Z" />
      <glyph unicode="0" glyph-name="zero" horiz-adv-x="600" d="M300-12q-66,0-114.5,24.5T105.5,83T59,196T44,349q0,85 15,152.5T105.5,615t80,70.5T300,710t114.5-24.5t80-70.5T541,501.5T556,349q0-86-15-153T494.5,83t-80-70.5T300-12Zm0,92q76,0 108.5,56.5T441,289V409q0,96-32.5,152.5T300,618q-38,0-65-14.5t-44-42t-24.5-66T159,409V289q0-48 7.5-86.5t24.5-66t44-42T300,80Zm0,210q-35,0-48.5,14T238,338v22q0,20 13.5,34T300,408t48.5-14T362,360V338q0-20-13.5-34T300,290Z" />
      <glyph unicode="1" glyph-name="one" horiz-adv-x="600" d="M88,0V93H284V616h-8L114,443L45,505L223,698H396V93H565V0H88Z" />
      <glyph unicode="2" glyph-name="two" horiz-adv-x="600" d="M545,0H63V107L291,306q54,48 83.5,91T404,488v11q0,55-30,84.5T287,613q-58,0-89.5-31T152,503L54,540q10,33 29,63.5T131.5,658t70,38T295,710q54,0 96.5-15.5T463,652t44-64.5T522,505q0-42-12.5-77.5t-35-68T421,297t-68-60L184,95H545V0Z" />
      <glyph unicode="3" glyph-name="three" horiz-adv-x="600" d="M271,410q67,0 99.5,28.5T403,510v7q0,48-31.5,73.5T287,616q-51,0-86.5-23T141,530L65,595q16,23 37,44t48,36.5t62,25t79,9.5q49,0 91-12t73-35.5t48-57T520,530q0-33-10.5-60t-29-47.5T437,389t-53-19v-5q30-6 57-19.5t48-35t33-51T534,192q0-46-18-83.5T464.5,44T384,2.5T279-12q-49,0-86.5,10.5T126,26.5t-50.5,40T38,113l83,64q26-42 61.5-68.5T280,82q66,0 101,30.5T416,197v8q0,54-36.5,82.5T274,316H199v94h72Z" />
      <glyph unicode="4" glyph-name="four" horiz-adv-x="600" d="M362,0V136H30v96L322,698H469V224h98V136H469V0H362ZM125,224H362V595h-6L125,224Z" />
      <glyph unicode="5" glyph-name="five" horiz-adv-x="600" d="M511,601H194L176,353h8q24,41 58,65.5T335,443q45,0 83.5-15t67-43t45-68.5T547,225q0-52-17-95.5t-49-75t-79-49T295-12q-47,0-83.5,10.5t-65,28T97,66.5T60,113l82,64q13-20 27.5-37.5T202,109t41.5-20T297,82q65,0 99,35.5T430,214v8q0,61-34.5,95T297,351q-47,0-74-17t-47-38L83,309l26,389H511V601Z" />
      <glyph unicode="6" glyph-name="six" horiz-adv-x="600" d="M302-12Q243-12 197,7T119,61.5T70,147T53,260q0,76 23,143t60,123t82,99.5T307,698H457q-60-43-108-83t-83.5-82T206,444.5T169,341l7-2q11,21 26,39.5T237,411t46,22t59,8q45,0 83-15t66-43.5T534.5,314T550,224q0-52-17.5-95.5T482.5,54T404,5.5T302-12Zm-1,90q64,0 99,34.5T435,210v10q0,63-35,97.5T301,352q-63,0-98-34.5T168,220V210q0-63 35-97.5T301,78Z" />
      <glyph unicode="7" glyph-name="seven" horiz-adv-x="600" d="M169,0L428,605H156V476H59V698H540V600L288,0H169Z" />
      <glyph unicode="8" glyph-name="eight" horiz-adv-x="600" d="M300-12Q238-12 191,3.5T112,46T63.5,110T47,191q0,70 39,112t102,59v8q-54,19-87,60T68,531q0,81 60.5,130T300,710t171.5-49T532,531q0-60-33-101t-87-60v-8q63-17 102-59t39-112q0-44-16.5-81T488,46T409,3.5T300-12Zm0,89q66,0 101.5,29T437,188v21q0,53-35.5,82T300,320T198.5,291T163,209V188q0-53 35.5-82T300,77Zm0,329q60,0 91.5,26.5T423,507v13q0,48-31.5,74.5T300,621t-91.5-26.5T177,520V507q0-48 31.5-74.5T300,406Z" />
      <glyph unicode="9" glyph-name="nine" horiz-adv-x="600" d="M547,438q0-76-23-143T464,172T382,72T293,0H143q60,43 108,83t83.5,82T394,253.5T431,357l-7,2q-11-21-26-39.5T363,287t-46-22t-59-8q-45,0-83,15t-66,43.5T65.5,384T50,474q0,52 17.5,95.5t50,74.5T196,692.5T298,710q58,0 104.5-19T481,636.5T530,551t17-113ZM299,346q63,0 98,34.5T432,478v10q0,63-35,97.5T299,620q-64,0-99-34.5T165,488V478q0-63 35-97.5T299,346Z" />
      <glyph unicode=":" glyph-name="colon" horiz-adv-x="600" d="M300-10q-48,0-67.5,20T213,59V85q0,29 19.5,49T300,154t67.5-20T387,85V59q0-29-19.5-49T300-10Zm0,372q-48,0-67.5,20T213,431v26q0,29 19.5,49T300,526t67.5-20T387,457V431q0-29-19.5-49T300,362Z" />
      <glyph unicode=";" glyph-name="semicolon" horiz-adv-x="600" d="M244,152H399L275-145H190l54,297Zm56,210q-48,0-67.5,20T213,431v26q0,29 19.5,49T300,526t67.5-20T387,457V431q0-29-19.5-49T300,362Z" />
      <glyph unicode="&lt;" glyph-name="less" horiz-adv-x="600" d="M85,253V357L515,598V492L184,309v-8L515,119V12L85,253Z" />
      <glyph unicode="=" glyph-name="equal" horiz-adv-x="600" d="M62,367v89H538V367H62Zm0-212v89H538V155H62Z" />
      <glyph unicode="&gt;" glyph-name="greater" horiz-adv-x="600" d="M85,118L416,301v8L85,491V598L515,357V253L85,12V118Z" />
      <glyph unicode="?" glyph-name="question" horiz-adv-x="600" d="M226,223V378q81,3 128,32.5T401,503v14q0,50-29.5,74T293,615q-52,0-84-29.5T165,511L70,549q9,31 27.5,60.5t46,51.5T209,696.5T297,710t90.5-14T457,656.5t44.5-62T517,514q0-45-16-80t-42-60t-59.5-41T331,311V223H226ZM281-10q-46,0-65,19T197,57V81q0,29 19,48t65,19t65-19t19-48V57q0-29-19-48T281-10Z" />
      <glyph unicode="@" glyph-name="at" horiz-adv-x="600" d="M451-112H335q-79,0-133,25.5t-87.5,77T66.5,120T52,302q0,115 16.5,193t48,126t78,68.5T301,710q62,0 106.5-19T481,639t42.5-78.5T537,463V91H451v59h-6q-11-31-34-50.5T347,80q-59,0-94,51.5T218,294t35,162.5T347,508q41,0 64-20t34-50h6v25q0,170-146,170q-41,0-72-14.5T182,571t-30-85.5T142,358V229q0-58 9-106.5T182,39t59.5-54.5T335-35H451v-77ZM381,150q32,0 51,18t19,52V368q0,34-19,52t-51,18q-35,0-54-24.5T308,326V262q0-63 19-87.5T381,150Z" />
      <glyph unicode="A" glyph-name="A" horiz-adv-x="600" d="M462,0L409,186H187L134,0H20L224,698H377L581,0H462ZM302,585h-8L208,279H388L302,585Z" />
      <glyph unicode="B" glyph-name="B" horiz-adv-x="600" d="M83,698H324q95,0 147.5-49T524,515q0-61-30-97t-81-51v-5q61-14 98-53.5T548,197q0-43-14-79T494,55.5t-62.5-41T351,0H83V698ZM317,86q56,0 86,23t30,74v36q0,51-30,74t-86,23H193V86H317ZM301,398q53,0 80.5,20.5T409,487v36q0,48-27.5,68.5T301,612H193V398H301Z" />
      <glyph unicode="C" glyph-name="C" horiz-adv-x="600" d="M320-12Q187-12 122.5,82T58,349t64.5,267T320,710q51,0 88.5-13.5t64.5-37t45.5-55T549,537L448,503q-8,24-18,45t-25,36t-35.5,24T319,617q-74,0-108-56.5T177,408V290q0-96 34-152.5T319,81q30,0 50.5,9T405,114t25,36t18,45l101-34q-12-36-30.5-67.5T473,38.5t-64.5-37T320-12Z" />
      <glyph unicode="D" glyph-name="D" horiz-adv-x="600" d="M82,698H290q134,0 198.5-89T553,349T488.5,89T290,0H82V698ZM283,92q77,0 114.5,51.5T435,291V407q0,96-37.5,147.5T283,606H193V92h90Z" />
      <glyph unicode="E" glyph-name="E" horiz-adv-x="600" d="M86,0V698H523V604H198V401H511V307H198V94H523V0H86Z" />
      <glyph unicode="F" glyph-name="F" horiz-adv-x="600" d="M86,0V698H535V604H198V401H504V307H198V0H86Z" />
      <glyph unicode="G" glyph-name="G" horiz-adv-x="600" d="M430,96h-7q-9-21-21.5-40.5T370.5,21T326-3t-60-9Q157-12 102,81T47,344q0,178 63,272t193,94q51,0 89.5-14T458,658.5t45-55T532,537L431,503q-8,23-18,43.5T388.5,583t-35,25T304,617q-73,0-105.5-56.5T166,408V297q0-48 7-88t23.5-68.5t43-44.5T304,80q61,0 93.5,36.5T430,210v63H295v84H532V0H430V96Z" />
      <glyph unicode="H" glyph-name="H" horiz-adv-x="600" d="M416,307H184V0H72V698H184V401H416V698H528V0H416V307Z" />
      <glyph unicode="I" glyph-name="I" horiz-adv-x="600" d="M80,0V85H244V613H80v85H520V613H356V85H520V0H80Z" />
      <glyph unicode="J" glyph-name="J" horiz-adv-x="600" d="M493,698V187q0-45-15.5-82t-44-63T365,2T276-12q-92,0-146.5,46T59,161l106,22q9-43 34-72t78-29q49,0 76.5,29.5T381,202V604H138v94H493Z" />
      <glyph unicode="K" glyph-name="K" horiz-adv-x="600" d="M274,321L190,216V0H78V698H190V364h5l85,116L451,698H580L350,404L589,0H461L274,321Z" />
      <glyph unicode="L" glyph-name="L" horiz-adv-x="600" d="M108,0V698H220V94H538V0H108Z" />
      <glyph unicode="M" glyph-name="M" horiz-adv-x="600" d="M445,334l3,210h-8L300,185L160,544h-8l3-210V0H56V698H193L300,421h7L415,698H544V0H445V334Z" />
      <glyph unicode="N" glyph-name="N" horiz-adv-x="600" d="M179,537h-9V0H72V698H216L421,161h9V698h98V0H384L179,537Z" />
      <glyph unicode="O" glyph-name="O" horiz-adv-x="600" d="M300-12q-66,0-114.5,24.5T105.5,83T59,196T44,349q0,85 15,152.5T105.5,615t80,70.5T300,710t114.5-24.5t80-70.5T541,501.5T556,349q0-86-15-153T494.5,83t-80-70.5T300-12Zm0,93q75,0 106,56.5T437,291V408q0,96-31,152.5T300,617T194,560.5T163,408V290q0-96 31-152.5T300,81Z" />
      <glyph unicode="P" glyph-name="P" horiz-adv-x="600" d="M84,0V698H345q100,0 152.5-56T550,488T497.5,334T345,278H196V0H84ZM196,371H328q104,0 104,96v43q0,95-104,95H196V371Z" />
      <glyph unicode="Q" glyph-name="Q" horiz-adv-x="600" d="M506-175H378q-68,0-98,35.5T250-46V-8q-53,9-92,37T93.5,102.5T56,210T44,349q0,85 15,152.5T105.5,615t80,70.5T300,710t114.5-24.5t80-70.5T541,501.5T556,349q0-154-50-247T350-8V-91H506v-84ZM300,81q75,0 106,56.5T437,291V408q0,96-31,152.5T300,617T194,560.5T163,408V290q0-96 31-152.5T300,81Z" />
      <glyph unicode="R" glyph-name="R" horiz-adv-x="600" d="M195,0H84V698H345q100,0 152.5-56T550,488q0-80-39-132T399,292L560,0H436L288,282H195V0ZM329,372q104,0 104,95v43q0,95-104,95H195V372H329Z" />
      <glyph unicode="S" glyph-name="S" horiz-adv-x="600" d="M294-12q-91,0-153,32T39,105l72,69q40-48 85-70.5T298,81q66,0 101.5,30T435,197q0,45-26,69.5T320,302l-76,12q-50,8-84,26.5t-55,44t-30.5,57T65,508q0,99 64,150.5T305,710q83,0 141.5-26.5T541,609l-70-70q-29,35-68.5,56.5T305,617q-62,0-94.5-26.5T178,513q0-43 25.5-67.5T294,410l74-13q94-17 137-68.5T548,203q0-48-16.5-88t-49-68t-80-43.5T294-12Z" />
      <glyph unicode="T" glyph-name="T" horiz-adv-x="600" d="M356,604V0H244V604H25v94H575V604H356Z" />
      <glyph unicode="U" glyph-name="U" horiz-adv-x="600" d="M181,698V269q0-43 2.5-78T198,131.5T234,94t66-13t66,13t36,37.5T416.5,191t2.5,78V698H531V289q0-75-8.5-131.5T489,63.5T418.5,7T300-12T181.5,7T111,63.5t-33.5,94T69,289V698H181Z" />
      <glyph unicode="V" glyph-name="V" horiz-adv-x="600" d="M222,0L25,698H146l92-352l61-237h6l61,237l93,352H575L378,0H222Z" />
      <glyph unicode="W" glyph-name="W" horiz-adv-x="600" d="M75,0L25,698h98l25-406l11-179h8l79,416H357l79-416h8l11,179l26,406h94L525,0H375L304,404h-8L225,0H75Z" />
      <glyph unicode="X" glyph-name="X" horiz-adv-x="600" d="M582,0H455L376,138L302,270h-6L220,138L138,0H19L233,358L32,698H159l71-125l72-129h5l72,129l74,125H572L370,358L582,0Z" />
      <glyph unicode="Y" glyph-name="Y" horiz-adv-x="600" d="M244,0V263L12,698H137l89-174l72-149h6l73,149l89,174H588L356,263V0H244Z" />
      <glyph unicode="Z" glyph-name="Z" horiz-adv-x="600" d="M552,0H48V99L415,604H62v94H538V599L171,94H552V0Z" />
      <glyph unicode="[" glyph-name="bracketleft" horiz-adv-x="600" d="M207-138V760H506V682H297V-60H506v-78H207Z" />
      <glyph unicode="\" glyph-name="backslash" horiz-adv-x="600" d="M420-138L83,760h97L517-138H420Z" />
      <glyph unicode="]" glyph-name="bracketright" horiz-adv-x="600" d="M393,760V-138H94v78H303V682H94v78H393Z" />
      <glyph unicode="^" glyph-name="asciicircum" horiz-adv-x="600" d="M475,267L301,601h-7L120,267L37,307L241,698H359L563,307l-88-40Z" />
      <glyph unicode="_" glyph-name="underscore" horiz-adv-x="600" d="M60-179v94H540v-94H60Z" />
      <glyph unicode="`" glyph-name="grave" horiz-adv-x="600" d="M171,745l94,46l91-180l-67-32L171,745Z" />
      <glyph unicode="a" glyph-name="a" horiz-adv-x="600" d="M492,0q-47,0-70.5,24T393,87h-5q-15-47-54.5-73T233-12q-79,0-126,41.5T60,144q0,75 55.5,114.5T286,298h99v40q0,105-111,105q-50,0-81-19.5T141,372L76,425q22,42 74,72.5T284,528q98,0 154-47t56-136V86h65V0H492ZM264,68q53,0 87,24t34,62v75H288q-118,0-118-71V138q0-35 25-52.5T264,68Z" />
      <glyph unicode="b" glyph-name="b" horiz-adv-x="600" d="M79,740H188V428h6q23,47 61,73.5T350,528q91,0 145-68t54-202T495,56T350-12q-57,0-95,26.5T194,88h-6V0H79V740ZM305,77q62,0 95.5,38T434,216v84q0,63-33.5,101T305,439q-24,0-45-6t-37-18t-25.5-29.5T188,344V172q0-24 9.5-41.5T223,101t37-18t45-6Z" />
      <glyph unicode="c" glyph-name="c" horiz-adv-x="600" d="M319-12Q261-12 215.5,7t-77,54t-48,85T74,258T90.5,370t48,85t77,54T318,528q80,0 128.5-34T519,406l-85-46q-14,36-42.5,57T318,438q-62,0-96-37.5T188,301V215q0-61 34-99t98-38q48,0 78.5,22T447,160l80-49q-25-54-76-88.5T319-12Z" />
      <glyph unicode="d" glyph-name="d" horiz-adv-x="600" d="M412,88h-6q-23-47-61-73.5T250-12q-91,0-145,68T51,258t54,202t145,68q57,0 95-26.5T406,428h6V740H521V0H412V88ZM295,77q24,0 45,6t37,18t25.5,29.5T412,172V344q0,24-9.5,41.5T377,415t-37,18t-45,6q-62,0-95.5-38T166,300V216q0-63 33.5-101T295,77Z" />
      <glyph unicode="e" glyph-name="e" horiz-adv-x="600" d="M311-12Q252-12 205,7T126,61T77,145.5T60,257T77.5,369t49,85.5T203,509t100,19q54,0 98-18.5T476,457t47.5-81T540,272V231H170V214q0-61 38-99.5T313,76q50,0 85.5,21.5T456,155l68-60q-26-45-79.5-76T311-12Zm-8,457q-29,0-53.5-10t-42-28.5T180,363t-10-55v-7H429v10q0,61-34.5,97.5T303,445Z" />
      <glyph unicode="f" glyph-name="f" horiz-adv-x="600" d="M78,88H243V428H68v88H243v93q0,58 32,94.5T375,740H549V652H352V516H549V428H352V88H526V0H78V88Z" />
      <glyph unicode="g" glyph-name="g" horiz-adv-x="600" d="M570-56q0-80-67-118T299-212q-67,0-112.5,8.5t-74,24.5t-41,39T59-88q0,42 23.5,65.5T149,12V22q-26,10-41.5,28T92,97q0,38 26,57.5T185,184v5q-47,22-73,62T86,347q0,41 15,74.5t42.5,57t66,36.5T296,528q54,0 97-17v17q0,30 17,50t52,20h94V512H436V488q34-23 52-58.5T506,347q0-41-15-74.5t-42.5-57t-66-36T296,167q-34,0-64,6q-18-5-36-17t-18-33q0-24 23-30t57-6H374q104,0 150-39.5T570-56ZM468-63q0,26-21,41.5T371-6H192q-38-18-38-58q0-29 24.5-50T260-135h81q62,0 94.5,18.5T468-63ZM296,242q53,0 78,25t25,67v27q0,42-25,67t-78,25t-78-25t-25-67V334q0-42 25-67t78-25Z" />
      <glyph unicode="h" glyph-name="h" horiz-adv-x="600" d="M84,740H193V428h5q8,20 20.5,38.5t30.5,32T291,520t56,8q78,0 126-51t48-145V0H412V316q0,123-107,123q-21,0-41-5.5T228,417t-25.5-28T193,350V0H84V740Z" />
      <glyph unicode="i" glyph-name="i" horiz-adv-x="600" d="M332,610q-42,0-58.5,17T257,669v21q0,25 16.5,42T331,749q42,0 58.5-17T406,690V669q0-25-16.5-42T332,610ZM101,88H277V428H101v88H386V88H551V0H101V88Z" />
      <glyph unicode="j" glyph-name="j" horiz-adv-x="600" d="M98-112H326V428H92v88H435V-69q0-58-32.5-94.5T302-200H98v88ZM381,610q-42,0-58.5,17T306,669v21q0,25 16.5,42T380,749q42,0 58.5-17T455,690V669q0-25-16.5-42T381,610Z" />
      <glyph unicode="k" glyph-name="k" horiz-adv-x="600" d="M88,740H197V293h5l81,83L428,516H557L348,313L580,0H449L269,251l-72-67V0H88V740Z" />
      <glyph unicode="l" glyph-name="l" horiz-adv-x="600" d="M75,88H246V652H75v88H355V88H526V0H75V88Z" />
      <glyph unicode="m" glyph-name="m" horiz-adv-x="600" d="M44,0V516h93V449h5q12,33 34.5,56T241,528q41,0 63.5-22.5T333,444h4q14,35 39,59.5T448,528q60,0 83.5-42T555,363V0H462V349q0,54-13,74.5T407,444q-26,0-43.5-17.5T346,374V0H253V349q0,54-12.5,74.5T199,444q-27,0-44.5-17.5T137,374V0H44Z" />
      <glyph unicode="n" glyph-name="n" horiz-adv-x="600" d="M84,0V516H193V428h5q8,20 20.5,38.5t30.5,32T291,520t56,8q78,0 126-51t48-145V0H412V316q0,123-107,123q-21,0-41-5.5T228,417t-25.5-28T193,350V0H84Z" />
      <glyph unicode="o" glyph-name="o" horiz-adv-x="600" d="M300-12Q243-12 197.5,7t-77,54T72,146T55,258T72,370t48.5,85t77,54T300,528t102.5-19t77-54T528,370t17-112T528,146T479.5,61t-77-54T300-12Zm0,86q60,0 95.5,36.5T431,219v78q0,72-35.5,108.5T300,442t-95.5-36.5T169,297V219q0-72 35.5-108.5T300,74Z" />
      <glyph unicode="p" glyph-name="p" horiz-adv-x="600" d="M79,516H188V428h6q23,47 61,73.5T350,528q91,0 145-68t54-202T495,56T350-12q-57,0-95,26.5T194,88h-6V-200H79V516ZM305,77q62,0 95.5,38T434,216v84q0,63-33.5,101T305,439q-24,0-45-6t-37-18t-25.5-29.5T188,344V172q0-24 9.5-41.5T223,101t37-18t45-6Z" />
      <glyph unicode="q" glyph-name="q" horiz-adv-x="600" d="M412,88h-6q-23-47-61-73.5T250-12q-91,0-145,68T51,258t54,202t145,68q57,0 95-26.5T406,428h6v88H521V-200H412V88ZM295,77q24,0 45,6t37,18t25.5,29.5T412,172V344q0,24-9.5,41.5T377,415t-37,18t-45,6q-62,0-95.5-38T166,300V216q0-63 33.5-101T295,77Z" />
      <glyph unicode="r" glyph-name="r" horiz-adv-x="600" d="M76,88H213V428H76v88H322V379h6q7,27 20,52t33,43.5t49,30T498,516h62V412H458q-60,0-98-35.5T322,281V88H509V0H76V88Z" />
      <glyph unicode="s" glyph-name="s" horiz-adv-x="600" d="M301-12q-84,0-144.5,27T59,87l67,60q34-37 76.5-56.5T303,71q53,0 85.5,18T421,145q0,16-6,27t-17,18t-25.5,11T342,207l-82,13q-30,4-61,13t-55.5,25.5t-40,42.5T88,367q0,79 60.5,120T308,528q72,0 124.5-21.5T520,447l-61-64q-20,23-57,42.5T304,445q-109,0-109-69q0-33 23.5-45.5T274,314l82-13q31-5 61.5-13t55-24.5t40-42.5T528,155q0-78-60.5-122.5T301-12Z" />
      <glyph unicode="t" glyph-name="t" horiz-adv-x="600" d="M331,0Q263,0 231,36.5T199,131V428H40v88H153q29,0 41,11.5T206,569V698H308V516H528V428H308V88H528V0H331Z" />
      <glyph unicode="u" glyph-name="u" horiz-adv-x="600" d="M407,88h-5q-8-20-20.5-38.5T351,17.5T309-4t-56-8q-78,0-126,51T79,184V516H188V200Q188,77 295,77q21,0 41,5.5T372,99t25.5,27.5T407,166V516H516V0H407V88Z" />
      <glyph unicode="v" glyph-name="v" horiz-adv-x="600" d="M233,0L48,516H161l71-218L299,91h6l67,207l71,218H552L367,0H233Z" />
      <glyph unicode="w" glyph-name="w" horiz-adv-x="600" d="M20,516h93L163,82h9l77,434H355L431,82h9l51,434h89L508,0H374L305,400h-9L226,0H92L20,516Z" />
      <glyph unicode="x" glyph-name="x" horiz-adv-x="600" d="M45,0L237,262L53,516H180l68-98l54-78h6l53,78l68,98H547L362,266L556,0H428L351,111l-53,76h-6l-52-76L164,0H45Z" />
      <glyph unicode="y" glyph-name="y" horiz-adv-x="600" d="M451,516H561L311-100q-20-50-52.5-75T165-200H78v88H200L247,7L39,516H153l82-216l64-177h6l64,177l82,216Z" />
      <glyph unicode="z" glyph-name="z" horiz-adv-x="600" d="M77,0V96L391,428H88v88H513V420L199,88H523V0H77Z" />
      <glyph unicode="{" glyph-name="braceleft" horiz-adv-x="600" d="M324-138q-53,0-77.5,26.5T222-45V10q0,26 5,46t13.5,35.5T259,119t19,23q17,20 23.5,34.5T308,207q0,65-125,65H100v78h83q125,0 125,65q0,16-6.5,30.5T278,480q-9,11-19,23.5T241,531t-13.5,35T222,612v55q0,40 24.5,66.5T324,760H500V682H312V618q0-20 3-34.5t8.5-26.5t13-22T352,515q17-21 32-45t15-56q0-42-29.5-67.5T286,314v-6q54-7 83.5-32.5T399,208q0-32-15-56t-32-45q-8-10-15.5-20t-13-22T315,38.5T312,4V-60H500v-78H324Z" />
      <glyph unicode="|" glyph-name="bar" horiz-adv-x="600" d="M253-138V760h94V-138H253Z" />
      <glyph unicode="}" glyph-name="braceright" horiz-adv-x="600" d="M276,760q53,0 77.5-26.5T378,667V612q0-26-5.5-46T359,531t-18-27.5T322,480q-17-20-23.5-34.5T292,415q0-65 125-65h83V272H417q-125,0-125-65q0-16 6.5-30.5T322,142q9-12 19-24t18.5-27.5t13.5-35T378,10V-45q0-40-24.5-66.5T276-138H100v78H288V4q0,40-12,61.5T248,107q-17,21-32,45t-15,56q0,42 29.5,67.5T314,308v6q-54,7-83.5,32.5T201,414q0,32 15,56t32,45q16,20 28,41.5T288,618v64H100v78H276Z" />
      <glyph unicode="~" glyph-name="asciitilde" horiz-adv-x="600" d="M398,187q-37,0-66,19.5T278,260q-24,33-42,52.5T199,332q-29,0-46-35.5T125,198L45,214Q61,318 99.5,370.5T202,423q37,0 66-19.5T322,350q24-33 42-52.5T401,278q29,0 46,35.5T475,412l80-16q-16-104-54.5-156.5T398,187Z" />
      <glyph unicode="&#xa0;" glyph-name="uni00A0" horiz-adv-x="600" />
      <glyph unicode="&#xa1;" glyph-name="exclamdown" horiz-adv-x="600" d="M240-182V21l41,258h38L360,21V-182H240Zm60,550q-46,0-65,19t-19,48v24q0,29 19,48t65,19t65-19t19-48V435q0-29-19-48t-65-19Z" />
      <glyph unicode="&#xa2;" glyph-name="cent" horiz-adv-x="600" d="M270-114V-8Q176,7 125,77.5T74,258t51,180.5T270,524V630h84V526q63-8 103.5-40T519,406l-82-44q-11,29-33,49t-54,27V77q35,7 60,28t40,53l77-47q-22-48-64.5-80.5T354-10V-114H270ZM183,215q0-51 23.5-87T275,80V436q-45-12-68.5-48T183,301V215Z" />
      <glyph unicode="&#xa3;" glyph-name="sterling" horiz-adv-x="600" d="M72,0V118q42,17 62,49.5T154,245q0,17-3,34H49v86h76q-12,32-22,64.5T93,501q0,46 17,84.5T158.5,652T234,695t99,15q78,0 132-29.5T554,600l-78-65q-26,36-59.5,57T332,613q-57,0-91-30t-34-95q0-35 9-64.5T236,365H426V279H262q1-7 1.5-13t0.5-13q0-29-7.5-52t-19-41t-26-31.5T183,107v-7H544V0H72Z" />
      <glyph unicode="&#xa4;" glyph-name="currency" horiz-adv-x="600" d="M300,114q-51,0-93,17L141,19L63,64l71,120q-26,31-39.5,72.5T81,349t13.5,92.5T134,514L63,634l78,45l66-112q42,17 93,17t93-17l66,112l78-45L466,514q26-31 39.5-72.5T519,349t-13.5-92.5T466,184L537,64L459,19L393,131q-42-17-93-17Zm0,84q49,0 78,30.5T407,319v60q0,60-29,90.5T300,500t-78-30.5T193,379V319q0-60 29-90.5T300,198Z" />
      <glyph unicode="&#xa5;" glyph-name="yen" horiz-adv-x="600" d="M67,87H247V241H67v87H192L13,698H132L298,328h7L471,698H587L408,328H533V241H353V87H533V0H67V87Z" />
      <glyph unicode="&#xa6;" glyph-name="brokenbar" horiz-adv-x="600" d="M253,401V760h94V401H253Zm0-539V221h94V-138H253Z" />
      <glyph unicode="&#xa7;" glyph-name="section" horiz-adv-x="600" d="M497,3q0-38-15-69t-43-53t-66.5-33.5T287-164q-48,0-96,14t-87,49l58,69q25-23 56.5-35.5T288-80q51,0 80.5,21.5T398,0q0,33-25,52.5T300,85l-70,20q-84,23-120,63.5T74,258q0,46 28.5,82T185,398v10q-40,25-58.5,59.5T108,543q0,38 15,69t43,52.5T232.5,698T318,710q48,0 96-14t87-49l-58-69q-25,23-56.5,35.5T317,626q-51,0-80.5-21.5T207,546q0-33 25-52.5T305,461l70-20q84-23 120-63.5T531,288q0-46-28-82t-83-58V138q40-25 58.5-59.5T497,3ZM433,258q0,36-23.5,60T329,358l-69,18q-9,2-17,5t-16,6q-26-20-40.5-44.5T172,288q0-36 23.5-60T276,188l69-18q9-2 17-5t16-6q26,20 40.5,44.5T433,258Z" />
      <glyph unicode="&#xa8;" glyph-name="dieresis" horiz-adv-x="600" d="M200,607q-37,0-52,15t-15,38v19q0,23 15,38t52,15t52-15t15-38V660q0-23-15-38t-52-15Zm200,0q-37,0-52,15t-15,38v19q0,23 15,38t52,15t52-15t15-38V660q0-23-15-38t-52-15Z" />
      <glyph unicode="&#xa9;" glyph-name="copyright" horiz-adv-x="600" d="M300,18q-63,0-117.5,23t-95,66t-64,104T0,349q0,76 23.5,137.5T87.5,591t95,66T300,680t117.5-23t95-66t64-104.5T600,349q0-77-23.5-138t-64-104t-95-66T300,18Zm0,55q51,0 94.5,19t75,52.5T519,223t18,96v60q0,51-18,96t-49.5,78.5t-75,52.5T300,625t-94.5-19t-75-52.5T81,475T63,379V319q0-51 18-96t49.5-78.5t75-52.5T300,73Zm7,90q-78,0-122.5,50.5T140,349t45.5,135.5T307,535q54,0 87-25t50-65l-66-35q-11,24-27.5,38T308,462q-35,0-55-22.5T233,380V317q0-36 19.5-58.5T309,236q29,0 46.5,15T385,289l65-36q-17-38-51.5-64T307,163Z" />
      <glyph unicode="&#xaa;" glyph-name="ordfeminine" horiz-adv-x="600" d="M429,350q-32,0-49,15t-19,42h-4q-11-28-38.5-46.5T246,342q-54,0-83.5,27.5T133,445q0,54 40,80.5T288,552h67v23q0,73-72,73q-34,0-56-14t-35-35l-48,41q16,28 52,49t94,21q68,0 106.5-33.5T435,579V414h39V350H429ZM288,501q-36,0-55.5-11T213,456V444q0-23 15-33.5T270,400q35,0 60,15.5T355,460v41H288Z" />
      <glyph unicode="&#xab;" glyph-name="guillemotleft" horiz-adv-x="600" d="M272,47L68,219V321L272,493l33-73L165,270L305,120L272,47Zm236,0L304,219V321L508,493l33-73L401,270L541,120L508,47Z" />
      <glyph unicode="&#xac;" glyph-name="logicalnot" horiz-adv-x="600" d="M431,68V261H62v89H522V68H431Z" />
      <glyph unicode="&#xad;" glyph-name="uni00AD" horiz-adv-x="600" d="M149,250V359H451V250H149Z" />
      <glyph unicode="&#xae;" glyph-name="registered" horiz-adv-x="600" d="M300,346q-38,0-71.5,14T170,398t-39,57.5T117,528t14,72.5T170,658t58.5,38T300,710t71.5-14t58-38t39-57.5T483,528t-14.5-72.5t-39-57.5t-58-38T300,346Zm0,41q29,0 53.5,9.5T396,423t28.5,41T435,518v20q0,30-10.5,54T396,633t-42.5,26.5T300,669t-53.5-9.5T204,633t-28.5-41T165,538V518q0-30 10.5-54T204,423t42.5-26.5T300,387Zm-27,49H227V621h88q32,0 48-16.5T379,561q0-20-9.5-33.5T343,507l43-71H335l-36,63H273V436Zm31,97q26,0 26,22v8q0,22-26,22H273V533h31Z" />
      <glyph unicode="&#xaf;" glyph-name="macron" horiz-adv-x="600" d="M155,710H445V628H155v82Z" />
      <glyph unicode="&#xb0;" glyph-name="degree" horiz-adv-x="600" d="M300,354q-38,0-70.5,13.5T173,405t-37.5,56.5T122,532t13.5,70.5T173,659t56.5,37.5T300,710q37,0 69.5-13.5T426,659t38-56.5T478,532t-14-70.5T426,405t-56.5-37.5T300,354Zm0,77q43,0 69,29t26,72t-26,72t-69,29t-69-29t-26-72t26-72t69-29Z" />
      <glyph unicode="&#xb1;" glyph-name="plusminus" horiz-adv-x="600" d="M251,164V350H62v89H251V625h98V439H538V350H349V164H251ZM62,0V89H538V0H62Z" />
      <glyph unicode="&#xb2;" glyph-name="twosuperior" horiz-adv-x="600" d="M443,329H164v70l121,96q33,26 48.5,46T349,586v4q0,24-15.5,36T293,638q-30,0-45-15t-23-38l-69,26q14,38 48,65.5T300,704q64,0 99-31t35-80q0-23-8-43t-22-37t-33-32.5T331,450l-81-57H443V329Z" />
      <glyph unicode="&#xb3;" glyph-name="threesuperior" horiz-adv-x="600" d="M283,551q34,0 49.5,12.5T348,594v4q0,20-15,32t-41,12q-52,0-82-44l-51,44q21,28 52.5,45T294,704q63,0 100.5-26.5T432,606q0-35-22.5-56.5T355,523v-3q35-6 59-28t24-60q0-50-40.5-79.5T290,323q-59,0-92,21t-52,49l59,44q13-23 32.5-37.5T290,385q32,0 48.5,13.5T355,436v4q0,25-18.5,36T285,487H246v64h37Z" />
      <glyph unicode="&#xb4;" glyph-name="acute" horiz-adv-x="600" d="M311,579l-67,32l91,180l94-46L311,579Z" />
      <glyph unicode="&#xb5;" glyph-name="mu" horiz-adv-x="600" d="M84-200V516H193V204Q193,77 297,77q21,0 41,5.5T373,99t24.5,27.5T407,166V516H516V0H407V88h-5q-8-20-18.5-38T357,18T320-4t-48-8q-31,0-53,11T181,36h-5L193-69V-200H84Z" />
      <glyph unicode="&#xb6;" glyph-name="paragraph" horiz-adv-x="600" d="M260,246q-47,0-87.5,17T101,310T52.5,381.5T35,472t17.5,90.5T101,634t71.5,47T260,698H524V-149H432V612H352V-149H260V246Z" />
      <glyph unicode="&#xb7;" glyph-name="periodcentered" horiz-adv-x="600" d="M300,222q-48,0-67.5,20T213,291v26q0,29 19.5,49T300,386t67.5-20T387,317V291q0-29-19.5-49T300,222Z" />
      <glyph unicode="&#xb8;" glyph-name="cedilla" horiz-adv-x="600" d="M313-209q-45,0-71.5,14T203-167l42,47q9-11 24.5-19.5T308-148q19,0 31.5,7T352-119q0,12-14,23.5T281-79l-25,3L276,24h57L316-58l4-4q11,3 21.5,5T363-55q29,0 49.5-16.5T433-123q0-23-10-39t-26.5-26.5t-38-15.5T313-209Z" />
      <glyph unicode="&#xb9;" glyph-name="onesuperior" horiz-adv-x="600" d="M181,329v62H283V628l-94-47l-31,56l120,61h84V391h91V329H181Z" />
      <glyph unicode="&#xba;" glyph-name="ordmasculine" horiz-adv-x="600" d="M300,342q-79,0-124,49T131,526t45,135t124,49t124-49t45-135T424,391T300,342Zm0,63q41,0 62.5,25T384,497v58q0,42-21.5,67T300,647t-62.5-25T216,555V497q0-42 21.5-67T300,405Z" />
      <glyph unicode="&#xbb;" glyph-name="guillemotright" horiz-adv-x="600" d="M60,120L200,270L60,420l33,73L297,321V219L93,47L60,120Zm236,0L436,270L296,420l33,73L533,321V219L329,47l-33,73Z" />
      <glyph unicode="&#xbc;" glyph-name="onequarter" horiz-adv-x="600" d="M39,421h90V636L45,593L18,643l106,55h78V421h80V363H39v58ZM504,698h85L424,398H339L504,698ZM176,300h85L96,0H11L176,300ZM471,64H313v65L450,335h91V117h46V64H541V0H471V64Zm0,53V269h-4L365,117H471Z" />
      <glyph unicode="&#xbd;" glyph-name="onehalf" horiz-adv-x="600" d="M39,421h90V636L45,593L18,643l106,55h78V421h80V363H39v58ZM504,698h85L424,398H339L504,698ZM176,300h85L96,0H11L176,300ZM326,65l110,86q30,24 42.5,43.5T491,237v4q0,18-13,29t-35,11q-25,0-39.5-14T380,230l-62,24q6,17 16,32.5T359.5,314T397,333.5t51,7.5q59,0 90-28.5T569,242q0-21-7.5-38.5t-20.5-34T510,138t-38-30L405,58H578V0H326V65Z" />
      <glyph unicode="&#xbe;" glyph-name="threequarters" horiz-adv-x="600" d="M146,357q-54,0-84.5,21T15,426l54,37q11-21 29-35t47-14q27,0 41.5,12T201,458v7q0,21-17.5,32T136,508H105v55h33q30,0 44,11t14,27v8q0,17-13.5,27.5T146,647q-47,0-75-41L25,646q20,27 48,42.5T147,704q57,0 91-24t34-65q0-32-20.5-51.5T202,539v-4q33-5 54.5-24.5T278,456q0-45-36-72t-96-27ZM504,698h85L424,398H339L504,698ZM176,300h85L96,0H11L176,300ZM471,64H313v65L450,335h91V117h46V64H541V0H471V64Zm0,53V269h-4L365,117H471Z" />
      <glyph unicode="&#xbf;" glyph-name="questiondown" horiz-adv-x="600" d="M303-194q-50,0-90.5,14T143-140.5t-44.5,62T83,2q0,45 16,80t42,60t59.5,41T269,205v88H374V138q-81-3-128-32.5T199,13V-1q0-50 29.5-74T307-99q52,0 84,29.5T435,5l95-38q-9-32-27.5-61t-46-51t-66-35.5T303-194Zm16,562q-46,0-65,19t-19,48v24q0,29 19,48t65,19t65-19t19-48V435q0-29-19-48t-65-19Z" />
      <glyph unicode="&#xc0;" glyph-name="Agrave" horiz-adv-x="600" d="M462,0L409,186H187L134,0H20L224,698H377L581,0H462ZM302,585h-8L208,279H388L302,585ZM171,915l94,46l91-180l-67-32L171,915Z" />
      <glyph unicode="&#xc1;" glyph-name="Aacute" horiz-adv-x="600" d="M462,0L409,186H187L134,0H20L224,698H377L581,0H462ZM302,585h-8L208,279H388L302,585Zm9,164l-67,32l91,180l94-46L311,749Z" />
      <glyph unicode="&#xc2;" glyph-name="Acircumflex" horiz-adv-x="600" d="M462,0L409,186H187L134,0H20L224,698H377L581,0H462ZM302,585h-8L208,279H388L302,585Zm53,359L475,794l-58-42L299,868L180,752l-55,42L245,944H355Z" />
      <glyph unicode="&#xc3;" glyph-name="Atilde" horiz-adv-x="600" d="M462,0L409,186H187L134,0H20L224,698H377L581,0H462ZM302,585h-8L208,279H388L302,585Zm72,189q-25,0-43,7.5T296,797q-23,11-40.5,17T222,820q-17,0-30-6.5T164,794l-41,52q15,23 40.5,40T226,903q25,0 43-7.5T304,880q23-11 40.5-17t33.5-6q17,0 30,6.5T436,883l41-52q-15-23-40.5-40T374,774Z" />
      <glyph unicode="&#xc4;" glyph-name="Adieresis" horiz-adv-x="600" d="M462,0L409,186H187L134,0H20L224,698H377L581,0H462ZM302,585h-8L208,279H388L302,585ZM200,777q-37,0-52,15t-15,38v19q0,23 15,38t52,15t52-15t15-38V830q0-23-15-38t-52-15Zm200,0q-37,0-52,15t-15,38v19q0,23 15,38t52,15t52-15t15-38V830q0-23-15-38t-52-15Z" />
      <glyph unicode="&#xc5;" glyph-name="Aring" horiz-adv-x="600" d="M462,0L409,186H187L134,0H20L224,698H377L581,0H462ZM302,585h-8L208,279H388L302,585Zm-2,150q-27,0-51,9.5t-41,26t-27,40T171,861q0,28 10,51t27,40t41,26.5t51,9.5t51-9.5T392,952t27-40t10-51q0-27-10-50.5t-27-40t-41-26T300,735Zm0,60q55,0 55,53v27q0,53-55,53t-55-53V848q0-53 55-53Z" />
      <glyph unicode="&#xc6;" glyph-name="AE" horiz-adv-x="600" d="M298,187H166L120,0H10L196,698H565V611H403V397H554V310H403V87H565V0H298V187ZM271,620L186,274H298V620H271Z" />
      <glyph unicode="&#xc7;" glyph-name="Ccedilla" horiz-adv-x="600" d="M319,617q-74,0-108-56.5T177,408V290q0-48 8.5-86.5T211,138t44-42t64-15q30,0 50.5,9T405,114t25,36t18,45l101-34q-12-35-29.5-66T476,41T414.5,4T331-12l-9-46l4-4q11,3 21.5,5T368-55q30,0 50.5-16.5T439-123q0-23-10-39t-26.5-26.5t-38-15.5T319-209q-46,0-72,14t-38,28l42,47q9-11 24.5-19.5T314-148q19,0 31.5,7T358-119q0,12-14,23.5T287-79l-25,3L275-9Q164,7 111,98.5T58,349q0,173 64.5,267T320,710q51,0 88.5-13.5t64.5-37t45.5-55T549,537L448,503q-8,24-18,45t-25,36t-35.5,24T319,617Z" />
      <glyph unicode="&#xc8;" glyph-name="Egrave" horiz-adv-x="600" d="M175,915l94,46l91-180l-67-32L175,915ZM86,0V698H523V604H198V401H511V307H198V94H523V0H86Z" />
      <glyph unicode="&#xc9;" glyph-name="Eacute" horiz-adv-x="600" d="M86,0V698H523V604H198V401H511V307H198V94H523V0H86ZM315,749l-67,32l91,180l94-46L315,749Z" />
      <glyph unicode="&#xca;" glyph-name="Ecircumflex" horiz-adv-x="600" d="M359,944L479,794l-58-42L303,868L184,752l-55,42L249,944H359ZM86,0V698H523V604H198V401H511V307H198V94H523V0H86Z" />
      <glyph unicode="&#xcb;" glyph-name="Edieresis" horiz-adv-x="600" d="M86,0V698H523V604H198V401H511V307H198V94H523V0H86ZM204,777q-37,0-52,15t-15,38v19q0,23 15,38t52,15t52-15t15-38V830q0-23-15-38t-52-15Zm200,0q-37,0-52,15t-15,38v19q0,23 15,38t52,15t52-15t15-38V830q0-23-15-38t-52-15Z" />
      <glyph unicode="&#xcc;" glyph-name="Igrave" horiz-adv-x="600" d="M80,0V85H244V613H80v85H520V613H356V85H520V0H80Zm91,915l94,46l91-180l-67-32L171,915Z" />
      <glyph unicode="&#xcd;" glyph-name="Iacute" horiz-adv-x="600" d="M80,0V85H244V613H80v85H520V613H356V85H520V0H80ZM311,749l-67,32l91,180l94-46L311,749Z" />
      <glyph unicode="&#xce;" glyph-name="Icircumflex" horiz-adv-x="600" d="M80,0V85H244V613H80v85H520V613H356V85H520V0H80ZM355,944L475,794l-58-42L299,868L180,752l-55,42L245,944H355Z" />
      <glyph unicode="&#xcf;" glyph-name="Idieresis" horiz-adv-x="600" d="M80,0V85H244V613H80v85H520V613H356V85H520V0H80ZM200,777q-37,0-52,15t-15,38v19q0,23 15,38t52,15t52-15t15-38V830q0-23-15-38t-52-15Zm200,0q-37,0-52,15t-15,38v19q0,23 15,38t52,15t52-15t15-38V830q0-23-15-38t-52-15Z" />
      <glyph unicode="&#xd0;" glyph-name="Eth" horiz-adv-x="600" d="M88,326H17v85H88V698H290q134,0 198.5-89T553,349T488.5,89T290,0H88V326ZM283,92q77,0 114.5,51.5T435,291V407q0,96-37.5,147.5T283,606H199V408H327V328H199V92h84Z" />
      <glyph unicode="&#xd1;" glyph-name="Ntilde" horiz-adv-x="600" d="M374,774q-25,0-43,7.5T296,797q-23,11-40.5,17T222,820q-17,0-30-6.5T164,794l-41,52q15,23 40.5,40T226,903q25,0 43-7.5T304,880q23-11 40.5-17t33.5-6q17,0 30,6.5T436,883l41-52q-15-23-40.5-40T374,774ZM179,537h-9V0H72V698H216L421,161h9V698h98V0H384L179,537Z" />
      <glyph unicode="&#xd2;" glyph-name="Ograve" horiz-adv-x="600" d="M171,915l94,46l91-180l-67-32L171,915ZM300-12q-66,0-114.5,24.5T105.5,83T59,196T44,349q0,85 15,152.5T105.5,615t80,70.5T300,710t114.5-24.5t80-70.5T541,501.5T556,349q0-86-15-153T494.5,83t-80-70.5T300-12Zm0,93q75,0 106,56.5T437,291V408q0,96-31,152.5T300,617T194,560.5T163,408V290q0-96 31-152.5T300,81Z" />
      <glyph unicode="&#xd3;" glyph-name="Oacute" horiz-adv-x="600" d="M311,749l-67,32l91,180l94-46L311,749ZM300-12q-66,0-114.5,24.5T105.5,83T59,196T44,349q0,85 15,152.5T105.5,615t80,70.5T300,710t114.5-24.5t80-70.5T541,501.5T556,349q0-86-15-153T494.5,83t-80-70.5T300-12Zm0,93q75,0 106,56.5T437,291V408q0,96-31,152.5T300,617T194,560.5T163,408V290q0-96 31-152.5T300,81Z" />
      <glyph unicode="&#xd4;" glyph-name="Ocircumflex" horiz-adv-x="600" d="M355,944L475,794l-58-42L299,868L180,752l-55,42L245,944H355ZM300-12q-66,0-114.5,24.5T105.5,83T59,196T44,349q0,85 15,152.5T105.5,615t80,70.5T300,710t114.5-24.5t80-70.5T541,501.5T556,349q0-86-15-153T494.5,83t-80-70.5T300-12Zm0,93q75,0 106,56.5T437,291V408q0,96-31,152.5T300,617T194,560.5T163,408V290q0-96 31-152.5T300,81Z" />
      <glyph unicode="&#xd5;" glyph-name="Otilde" horiz-adv-x="600" d="M300-12q-66,0-114.5,24.5T105.5,83T59,196T44,349q0,85 15,152.5T105.5,615t80,70.5T300,710t114.5-24.5t80-70.5T541,501.5T556,349q0-86-15-153T494.5,83t-80-70.5T300-12Zm0,93q75,0 106,56.5T437,291V408q0,96-31,152.5T300,617T194,560.5T163,408V290q0-96 31-152.5T300,81Zm74,693q-25,0-43,7.5T296,797q-23,11-40.5,17T222,820q-17,0-30-6.5T164,794l-41,52q15,23 40.5,40T226,903q25,0 43-7.5T304,880q23-11 40.5-17t33.5-6q17,0 30,6.5T436,883l41-52q-15-23-40.5-40T374,774Z" />
      <glyph unicode="&#xd6;" glyph-name="Odieresis" horiz-adv-x="600" d="M300-12q-66,0-114.5,24.5T105.5,83T59,196T44,349q0,85 15,152.5T105.5,615t80,70.5T300,710t114.5-24.5t80-70.5T541,501.5T556,349q0-86-15-153T494.5,83t-80-70.5T300-12Zm0,93q75,0 106,56.5T437,291V408q0,96-31,152.5T300,617T194,560.5T163,408V290q0-96 31-152.5T300,81ZM200,777q-37,0-52,15t-15,38v19q0,23 15,38t52,15t52-15t15-38V830q0-23-15-38t-52-15Zm200,0q-37,0-52,15t-15,38v19q0,23 15,38t52,15t52-15t15-38V830q0-23-15-38t-52-15Z" />
      <glyph unicode="&#xd7;" glyph-name="multiply" horiz-adv-x="600" d="M300,241L145,85L80,150L236,305L80,460l65,65L300,369L455,525l65-65L364,305L520,150L455,85L300,241Z" />
      <glyph unicode="&#xd8;" glyph-name="Oslash" horiz-adv-x="600" d="M300-12q-87,0-141,41L110-53L35-10L98,94Q70,140 57,204T44,349q0,85 15,152.5T105.5,615t80,70.5T300,710q87,0 141-41l49,82l75-43L502,603q28-46 41-109.5T556,349q0-86-15-153T494.5,83t-80-70.5T300-12ZM163,290q0-24 1.5-45.5T171,203L392,580q-34,37-92,37q-75,0-106-56.5T163,408V290ZM300,81q75,0 106,56.5T437,290V408q0,24-1.5,45.5T429,495L208,118q34-37 92-37Z" />
      <glyph unicode="&#xd9;" glyph-name="Ugrave" horiz-adv-x="600" d="M171,915l94,46l91-180l-67-32L171,915Zm10-217V269q0-43 2.5-78T198,131.5T234,94t66-13t66,13t36,37.5T416.5,191t2.5,78V698H531V289q0-75-8.5-131.5T489,63.5T418.5,7T300-12T181.5,7T111,63.5t-33.5,94T69,289V698H181Z" />
      <glyph unicode="&#xda;" glyph-name="Uacute" horiz-adv-x="600" d="M181,698V269q0-43 2.5-78T198,131.5T234,94t66-13t66,13t36,37.5T416.5,191t2.5,78V698H531V289q0-75-8.5-131.5T489,63.5T418.5,7T300-12T181.5,7T111,63.5t-33.5,94T69,289V698H181Zm130,51l-67,32l91,180l94-46L311,749Z" />
      <glyph unicode="&#xdb;" glyph-name="Ucircumflex" horiz-adv-x="600" d="M355,944L475,794l-58-42L299,868L180,752l-55,42L245,944H355ZM181,698V269q0-43 2.5-78T198,131.5T234,94t66-13t66,13t36,37.5T416.5,191t2.5,78V698H531V289q0-75-8.5-131.5T489,63.5T418.5,7T300-12T181.5,7T111,63.5t-33.5,94T69,289V698H181Z" />
      <glyph unicode="&#xdc;" glyph-name="Udieresis" horiz-adv-x="600" d="M181,698V269q0-43 2.5-78T198,131.5T234,94t66-13t66,13t36,37.5T416.5,191t2.5,78V698H531V289q0-75-8.5-131.5T489,63.5T418.5,7T300-12T181.5,7T111,63.5t-33.5,94T69,289V698H181Zm19,79q-37,0-52,15t-15,38v19q0,23 15,38t52,15t52-15t15-38V830q0-23-15-38t-52-15Zm200,0q-37,0-52,15t-15,38v19q0,23 15,38t52,15t52-15t15-38V830q0-23-15-38t-52-15Z" />
      <glyph unicode="&#xdd;" glyph-name="Yacute" horiz-adv-x="600" d="M244,0V263L12,698H137l89-174l72-149h6l73,149l89,174H588L356,263V0H244Zm67,749l-67,32l91,180l94-46L311,749Z" />
      <glyph unicode="&#xde;" glyph-name="Thorn" horiz-adv-x="600" d="M84,0V698H196V563H343q100,0 152.5-56T548,354q0-96-52.5-152T343,146H196V0H84ZM196,239H327q105,0 105,94v43q0,94-105,94H196V239Z" />
      <glyph unicode="&#xdf;" glyph-name="germandbls" horiz-adv-x="600" d="M84,0V609q0,58 32,94.5T217,740H363V654H191V516H531V426L373,212q94-10 147-58T573,15q0-105-71-160T311-200H245v86h62q78,0 116,28T461,3V27q0,60-40,85.5T294,138H275v86L427,430H191V0H84Z" />
      <glyph unicode="&#xe0;" glyph-name="agrave" horiz-adv-x="600" d="M492,0q-47,0-70.5,24T393,87h-5q-15-47-54.5-73T233-12q-79,0-126,41.5T60,144q0,75 55.5,114.5T286,298h99v40q0,105-111,105q-50,0-81-19.5T141,372L76,425q22,42 74,72.5T284,528q98,0 154-47t56-136V86h65V0H492ZM264,68q53,0 87,24t34,62v75H288q-118,0-118-71V138q0-35 25-52.5T264,68ZM159,745l94,46l91-180l-67-32L159,745Z" />
      <glyph unicode="&#xe1;" glyph-name="aacute" horiz-adv-x="600" d="M492,0q-47,0-70.5,24T393,87h-5q-15-47-54.5-73T233-12q-79,0-126,41.5T60,144q0,75 55.5,114.5T286,298h99v40q0,105-111,105q-50,0-81-19.5T141,372L76,425q22,42 74,72.5T284,528q98,0 154-47t56-136V86h65V0H492ZM264,68q53,0 87,24t34,62v75H288q-118,0-118-71V138q0-35 25-52.5T264,68Zm35,511l-67,32l91,180l94-46L299,579Z" />
      <glyph unicode="&#xe2;" glyph-name="acircumflex" horiz-adv-x="600" d="M492,0q-47,0-70.5,24T393,87h-5q-15-47-54.5-73T233-12q-79,0-126,41.5T60,144q0,75 55.5,114.5T286,298h99v40q0,105-111,105q-50,0-81-19.5T141,372L76,425q22,42 74,72.5T284,528q98,0 154-47t56-136V86h65V0H492ZM264,68q53,0 87,24t34,62v75H288q-118,0-118-71V138q0-35 25-52.5T264,68Zm79,706L463,624l-58-42L287,698L168,582l-55,42L233,774H343Z" />
      <glyph unicode="&#xe3;" glyph-name="atilde" horiz-adv-x="600" d="M492,0q-47,0-70.5,24T393,87h-5q-15-47-54.5-73T233-12q-79,0-126,41.5T60,144q0,75 55.5,114.5T286,298h99v40q0,105-111,105q-50,0-81-19.5T141,372L76,425q22,42 74,72.5T284,528q98,0 154-47t56-136V86h65V0H492ZM264,68q53,0 87,24t34,62v75H288q-118,0-118-71V138q0-35 25-52.5T264,68Zm98,536q-25,0-43,7.5T284,627q-23,11-40.5,17T210,650q-17,0-30-6.5T152,624l-41,52q15,23 40.5,40T214,733q25,0 43-7.5T292,710q23-11 40.5-17t33.5-6q17,0 30,6.5T424,713l41-52q-15-23-40.5-40T362,604Z" />
      <glyph unicode="&#xe4;" glyph-name="adieresis" horiz-adv-x="600" d="M492,0q-47,0-70.5,24T393,87h-5q-15-47-54.5-73T233-12q-79,0-126,41.5T60,144q0,75 55.5,114.5T286,298h99v40q0,105-111,105q-50,0-81-19.5T141,372L76,425q22,42 74,72.5T284,528q98,0 154-47t56-136V86h65V0H492ZM264,68q53,0 87,24t34,62v75H288q-118,0-118-71V138q0-35 25-52.5T264,68ZM188,607q-37,0-52,15t-15,38v19q0,23 15,38t52,15t52-15t15-38V660q0-23-15-38t-52-15Zm200,0q-37,0-52,15t-15,38v19q0,23 15,38t52,15t52-15t15-38V660q0-23-15-38t-52-15Z" />
      <glyph unicode="&#xe5;" glyph-name="aring" horiz-adv-x="600" d="M492,0q-47,0-70.5,24T393,87h-5q-15-47-54.5-73T233-12q-79,0-126,41.5T60,144q0,75 55.5,114.5T286,298h99v40q0,105-111,105q-50,0-81-19.5T141,372L76,425q22,42 74,72.5T284,528q98,0 154-47t56-136V86h65V0H492ZM264,68q53,0 87,24t34,62v75H288q-118,0-118-71V138q0-35 25-52.5T264,68Zm24,497q-27,0-51,9.5t-41,26t-27,40T159,691q0,28 10,51t27,40t41,26.5t51,9.5t51-9.5T380,782t27-40t10-51q0-27-10-50.5t-27-40t-41-26T288,565Zm0,60q55,0 55,53v27q0,53-55,53t-55-53V678q0-53 55-53Z" />
      <glyph unicode="&#xe6;" glyph-name="ae" horiz-adv-x="600" d="M139-12Q83-12 45,26.5T7,139q0,80 46,120t134,40h54v55q0,53-18.5,76.5T169,454q-33,0-51-20T88,380L18,413q17,51 55,83t98,32q45,0 76-19.5T295,452h4q20,41 51.5,58.5T421,528q78,0 120-61t42-173V234H333V213q0-66 22-106.5T419,66q34,0 52.5,24.5T501,147l75-27q-8-26-21-49.5t-32.5-42T477-1T418-12q-51,0-90.5,29T268,103h-4q-11-60-44-87.5T139-12Zm22,74q42,0 61,29t19,74v69H198q-48,0-73.5-19T99,154V137q0-35 14.5-55T161,62ZM416,456q-41,0-62-30.5T333,338V299H498v39q0,57-21,87.5T416,456Z" />
      <glyph unicode="&#xe7;" glyph-name="ccedilla" horiz-adv-x="600" d="M318,528q80,0 128.5-34T519,406l-85-46q-14,36-42.5,57T318,438q-62,0-96-37.5T188,301V215q0-61 34-99t98-38q48,0 78.5,22T447,160l80-49q-24-54-72.5-87.5T328-12L318-58l4-4q11,3 21.5,5T365-55q29,0 49.5-16.5T435-123q0-23-10-39t-26.5-26.5t-38-15.5T315-209q-45,0-71.5,14T206-167l41,47q9-11 24.5-19.5T310-148q19,0 31.5,7T354-119q0,12-13.5,23.5T283-79l-25,3L272-8Q178,6 126,77T74,258q0,62 16.5,112t48,85t77,54T318,528Z" />
      <glyph unicode="&#xe8;" glyph-name="egrave" horiz-adv-x="600" d="M311-12Q252-12 205,7T126,61T77,145.5T60,257T77.5,369t49,85.5T203,509t100,19q54,0 98-18.5T476,457t47.5-81T540,272V231H170V214q0-61 38-99.5T313,76q50,0 85.5,21.5T456,155l68-60q-26-45-79.5-76T311-12Zm-8,457q-29,0-53.5-10t-42-28.5T180,363t-10-55v-7H429v10q0,61-34.5,97.5T303,445ZM172,745l94,46l91-180l-67-32L172,745Z" />
      <glyph unicode="&#xe9;" glyph-name="eacute" horiz-adv-x="600" d="M312,579l-67,32l91,180l94-46L312,579ZM311-12Q252-12 205,7T126,61T77,145.5T60,257T77.5,369t49,85.5T203,509t100,19q54,0 98-18.5T476,457t47.5-81T540,272V231H170V214q0-61 38-99.5T313,76q50,0 85.5,21.5T456,155l68-60q-26-45-79.5-76T311-12Zm-8,457q-29,0-53.5-10t-42-28.5T180,363t-10-55v-7H429v10q0,61-34.5,97.5T303,445Z" />
      <glyph unicode="&#xea;" glyph-name="ecircumflex" horiz-adv-x="600" d="M356,774L476,624l-58-42L300,698L181,582l-55,42L246,774H356ZM311-12Q252-12 205,7T126,61T77,145.5T60,257T77.5,369t49,85.5T203,509t100,19q54,0 98-18.5T476,457t47.5-81T540,272V231H170V214q0-61 38-99.5T313,76q50,0 85.5,21.5T456,155l68-60q-26-45-79.5-76T311-12Zm-8,457q-29,0-53.5-10t-42-28.5T180,363t-10-55v-7H429v10q0,61-34.5,97.5T303,445Z" />
      <glyph unicode="&#xeb;" glyph-name="edieresis" horiz-adv-x="600" d="M201,607q-37,0-52,15t-15,38v19q0,23 15,38t52,15t52-15t15-38V660q0-23-15-38t-52-15Zm200,0q-37,0-52,15t-15,38v19q0,23 15,38t52,15t52-15t15-38V660q0-23-15-38t-52-15ZM311-12Q252-12 205,7T126,61T77,145.5T60,257T77.5,369t49,85.5T203,509t100,19q54,0 98-18.5T476,457t47.5-81T540,272V231H170V214q0-61 38-99.5T313,76q50,0 85.5,21.5T456,155l68-60q-26-45-79.5-76T311-12Zm-8,457q-29,0-53.5-10t-42-28.5T180,363t-10-55v-7H429v10q0,61-34.5,97.5T303,445Z" />
      <glyph unicode="&#xec;" glyph-name="igrave" horiz-adv-x="600" d="M101,88H277V428H101v88H386V88H551V0H101V88ZM203,745l94,46l91-180l-67-32L203,745Z" />
      <glyph unicode="&#xed;" glyph-name="iacute" horiz-adv-x="600" d="M343,579l-67,32l91,180l94-46L343,579ZM101,88H277V428H101v88H386V88H551V0H101V88Z" />
      <glyph unicode="&#xee;" glyph-name="icircumflex" horiz-adv-x="600" d="M387,774L507,624l-58-42L331,698L212,582l-55,42L277,774H387ZM101,88H277V428H101v88H386V88H551V0H101V88Z" />
      <glyph unicode="&#xef;" glyph-name="idieresis" horiz-adv-x="600" d="M232,607q-37,0-52,15t-15,38v19q0,23 15,38t52,15t52-15t15-38V660q0-23-15-38t-52-15Zm200,0q-37,0-52,15t-15,38v19q0,23 15,38t52,15t52-15t15-38V660q0-23-15-38t-52-15ZM101,88H277V428H101v88H386V88H551V0H101V88Z" />
      <glyph unicode="&#xf0;" glyph-name="eth" horiz-adv-x="600" d="M469,702l-82-54q32-32 60.5-71T498,491t34.5-102T545,271q0-72-17-125.5T479.5,57T403,5T303-12Q244-12 198,6.5t-77.5,52T72,140.5T55,249q0,58 15,104.5T113,433t66,51t85,18q60,0 99-27t63-69l6,3q-20,55-52,101.5T306,597l-96-63l-43,51l87,57q-34,28-71.5,52T103,740H271q15-10 31.5-21T336,694l90,59l43-51ZM301,74q60,0 95.5,35T432,213v63q0,69-36,104t-96,35t-95.5-35T169,276V213q0-69 36-104t96-35Z" />
      <glyph unicode="&#xf1;" glyph-name="ntilde" horiz-adv-x="600" d="M84,0V516H193V428h5q8,20 20.5,38.5t30.5,32T291,520t56,8q78,0 126-51t48-145V0H412V316q0,123-107,123q-21,0-41-5.5T228,417t-25.5-28T193,350V0H84ZM376,604q-25,0-43,7.5T298,627q-23,11-40.5,17T224,650q-17,0-30-6.5T166,624l-41,52q15,23 40.5,40T228,733q25,0 43-7.5T306,710q23-11 40.5-17t33.5-6q17,0 30,6.5T438,713l41-52q-15-23-40.5-40T376,604Z" />
      <glyph unicode="&#xf2;" glyph-name="ograve" horiz-adv-x="600" d="M300-12Q243-12 197.5,7t-77,54T72,146T55,258T72,370t48.5,85t77,54T300,528t102.5-19t77-54T528,370t17-112T528,146T479.5,61t-77-54T300-12Zm0,86q60,0 95.5,36.5T431,219v78q0,72-35.5,108.5T300,442t-95.5-36.5T169,297V219q0-72 35.5-108.5T300,74ZM171,745l94,46l91-180l-67-32L171,745Z" />
      <glyph unicode="&#xf3;" glyph-name="oacute" horiz-adv-x="600" d="M311,579l-67,32l91,180l94-46L311,579ZM300-12Q243-12 197.5,7t-77,54T72,146T55,258T72,370t48.5,85t77,54T300,528t102.5-19t77-54T528,370t17-112T528,146T479.5,61t-77-54T300-12Zm0,86q60,0 95.5,36.5T431,219v78q0,72-35.5,108.5T300,442t-95.5-36.5T169,297V219q0-72 35.5-108.5T300,74Z" />
      <glyph unicode="&#xf4;" glyph-name="ocircumflex" horiz-adv-x="600" d="M355,774L475,624l-58-42L299,698L180,582l-55,42L245,774H355ZM300-12Q243-12 197.5,7t-77,54T72,146T55,258T72,370t48.5,85t77,54T300,528t102.5-19t77-54T528,370t17-112T528,146T479.5,61t-77-54T300-12Zm0,86q60,0 95.5,36.5T431,219v78q0,72-35.5,108.5T300,442t-95.5-36.5T169,297V219q0-72 35.5-108.5T300,74Z" />
      <glyph unicode="&#xf5;" glyph-name="otilde" horiz-adv-x="600" d="M300-12Q243-12 197.5,7t-77,54T72,146T55,258T72,370t48.5,85t77,54T300,528t102.5-19t77-54T528,370t17-112T528,146T479.5,61t-77-54T300-12Zm0,86q60,0 95.5,36.5T431,219v78q0,72-35.5,108.5T300,442t-95.5-36.5T169,297V219q0-72 35.5-108.5T300,74Zm74,530q-25,0-43,7.5T296,627q-23,11-40.5,17T222,650q-17,0-30-6.5T164,624l-41,52q15,23 40.5,40T226,733q25,0 43-7.5T304,710q23-11 40.5-17t33.5-6q17,0 30,6.5T436,713l41-52q-15-23-40.5-40T374,604Z" />
      <glyph unicode="&#xf6;" glyph-name="odieresis" horiz-adv-x="600" d="M200,607q-37,0-52,15t-15,38v19q0,23 15,38t52,15t52-15t15-38V660q0-23-15-38t-52-15Zm200,0q-37,0-52,15t-15,38v19q0,23 15,38t52,15t52-15t15-38V660q0-23-15-38t-52-15ZM300-12Q243-12 197.5,7t-77,54T72,146T55,258T72,370t48.5,85t77,54T300,528t102.5-19t77-54T528,370t17-112T528,146T479.5,61t-77-54T300-12Zm0,86q60,0 95.5,36.5T431,219v78q0,72-35.5,108.5T300,442t-95.5-36.5T169,297V219q0-72 35.5-108.5T300,74Z" />
      <glyph unicode="&#xf7;" glyph-name="divide" horiz-adv-x="600" d="M62,261v89H538V261H62ZM300,42q-40,0-56.5,16.5T227,99v23q0,24 16.5,40.5T300,179t56.5-16.5T373,122V99q0-24-16.5-40.5T300,42Zm0,390q-40,0-56.5,16.5T227,489v23q0,24 16.5,40.5T300,569t56.5-16.5T373,512V489q0-24-16.5-40.5T300,432Z" />
      <glyph unicode="&#xf8;" glyph-name="oslash" horiz-adv-x="600" d="M37-3l68,84Q55,149 55,258q0,62 17,112t48.5,85t77,54T300,528q84,0 141-40l62,76l60-45l-68-84q50-68 50-177q0-62-17-112T479.5,61t-77-54T300-12q-84,0-141,40L97-48L37-3ZM300,442q-60,0-95.5-36.5T169,297V223q0-17 1.5-33.5T177,161L385,415q-32,27-85,27Zm0-368q60,0 95.5,36.5T431,219v74q0,17-1.5,33.5T423,355L215,101q16-14 37.5-20.5T300,74Z" />
      <glyph unicode="&#xf9;" glyph-name="ugrave" horiz-adv-x="600" d="M407,88h-5q-8-20-20.5-38.5T351,17.5T309-4t-56-8q-78,0-126,51T79,184V516H188V200Q188,77 295,77q21,0 41,5.5T372,99t25.5,27.5T407,166V516H516V0H407V88ZM170,745l94,46l91-180l-67-32L170,745Z" />
      <glyph unicode="&#xfa;" glyph-name="uacute" horiz-adv-x="600" d="M310,579l-67,32l91,180l94-46L310,579ZM407,88h-5q-8-20-20.5-38.5T351,17.5T309-4t-56-8q-78,0-126,51T79,184V516H188V200Q188,77 295,77q21,0 41,5.5T372,99t25.5,27.5T407,166V516H516V0H407V88Z" />
      <glyph unicode="&#xfb;" glyph-name="ucircumflex" horiz-adv-x="600" d="M354,774L474,624l-58-42L298,698L179,582l-55,42L244,774H354ZM407,88h-5q-8-20-20.5-38.5T351,17.5T309-4t-56-8q-78,0-126,51T79,184V516H188V200Q188,77 295,77q21,0 41,5.5T372,99t25.5,27.5T407,166V516H516V0H407V88Z" />
      <glyph unicode="&#xfc;" glyph-name="udieresis" horiz-adv-x="600" d="M199,607q-37,0-52,15t-15,38v19q0,23 15,38t52,15t52-15t15-38V660q0-23-15-38t-52-15Zm200,0q-37,0-52,15t-15,38v19q0,23 15,38t52,15t52-15t15-38V660q0-23-15-38t-52-15Zm8-519h-5q-8-20-20.5-38.5T351,17.5T309-4t-56-8q-78,0-126,51T79,184V516H188V200Q188,77 295,77q21,0 41,5.5T372,99t25.5,27.5T407,166V516H516V0H407V88Z" />
      <glyph unicode="&#xfd;" glyph-name="yacute" horiz-adv-x="600" d="M451,516H561L311-100q-20-50-52.5-75T165-200H78v88H200L247,7L39,516H153l82-216l64-177h6l64,177l82,216ZM312,579l-67,32l91,180l94-46L312,579Z" />
      <glyph unicode="&#xfe;" glyph-name="thorn" horiz-adv-x="600" d="M79,740H188V428h6q23,47 61,73.5T350,528q91,0 145-68t54-202T495,56T350-12q-57,0-95,26.5T194,88h-6V-200H79V740ZM305,77q62,0 95.5,38T434,216v84q0,63-33.5,101T305,439q-24,0-45-6t-37-18t-25.5-29.5T188,344V172q0-24 9.5-41.5T223,101t37-18t45-6Z" />
      <glyph unicode="&#xff;" glyph-name="ydieresis" horiz-adv-x="600" d="M451,516H561L311-100q-20-50-52.5-75T165-200H78v88H200L247,7L39,516H153l82-216l64-177h6l64,177l82,216ZM201,607q-37,0-52,15t-15,38v19q0,23 15,38t52,15t52-15t15-38V660q0-23-15-38t-52-15Zm200,0q-37,0-52,15t-15,38v19q0,23 15,38t52,15t52-15t15-38V660q0-23-15-38t-52-15Z" />
      <glyph unicode="&#x2013;" glyph-name="endash" horiz-adv-x="600" d="M60,257v94H540V257H60Z" />
      <glyph unicode="&#x2014;" glyph-name="emdash" horiz-adv-x="600" d="M0,257v94H600V257H0Z" />
      <glyph unicode="&#x2018;" glyph-name="quoteleft" horiz-adv-x="600" d="M306,740h84L336,442H181L306,740Z" />
      <glyph unicode="&#x2019;" glyph-name="quoteright" horiz-adv-x="600" d="M264,740H419L294,442H210l54,298Z" />
      <glyph unicode="&#x201a;" glyph-name="quotesinglbase" horiz-adv-x="600" d="M244,152H399L275-145H190l54,297Z" />
      <glyph unicode="&#x201c;" glyph-name="quotedblleft" horiz-adv-x="600" d="M187,740h84L217,442H62L187,740Zm246,0h84L463,442H308L433,740Z" />
      <glyph unicode="&#x201d;" glyph-name="quotedblright" horiz-adv-x="600" d="M145,740H300L175,442H91l54,298Zm246,0H546L421,442H337l54,298Z" />
      <glyph unicode="&#x201e;" glyph-name="quotedblbase" horiz-adv-x="600" d="M137,152H292L168-145H83l54,297Zm246,0H538L414-145H329l54,297Z" />
      <glyph unicode="&#x2022;" glyph-name="bullet" horiz-adv-x="600" d="M300,173q-74,0-104.5,33T165,289v30q0,25 7,46t23,36.5T237,426t63,9t63-9t42-24.5T428,365t7-46V289q0-50-30.5-83T300,173Z" />
      <glyph unicode="&#x2039;" glyph-name="guilsinglleft" horiz-adv-x="600" d="M375,47L171,219V321L375,493l33-73L268,270L408,120L375,47Z" />
      <glyph unicode="&#x203a;" glyph-name="guilsinglright" horiz-adv-x="600" d="M192,120L332,270L192,420l33,73L429,321V219L225,47l-33,73Z" />
    </font>
</defs>
</svg>
