<?xml version="1.0" standalone="no"?>
<!DOCTYPE svg PUBLIC "-//W3C//DTD SVG 1.1//EN" "http://www.w3.org/Graphics/SVG/1.1/DTD/svg11.dtd">
<svg xmlns="http://www.w3.org/2000/svg">
  <defs>
    <font id="IBMPlexMono" horiz-adv-x="600">
      <font-face font-family="IBM Plex Mono Thin" units-per-em="1000" panose-1="2 11 3 9 5 2 3 0 2 3" ascent="1025" descent="-275" alphabetic="0" />
      <glyph unicode=" " glyph-name="space" horiz-adv-x="600" />
      <glyph unicode="!" glyph-name="exclam" horiz-adv-x="600" d="M294,176l-5,239V698h22V415l-5-239H294ZM300-5q-34,0-34,27v8q0,27 34,27t34-27V22q0-27-34-27Z" />
      <glyph unicode="&quot;" glyph-name="quotedbl" horiz-adv-x="600" d="M223,490V740h24V490H223Zm131,0V740h24V490H354Z" />
      <glyph unicode="#" glyph-name="numbersign" horiz-adv-x="600" d="M182,239H22v19H186l32,182H57v19H221l42,239h22L162,0H140l42,239ZM438,698h22L418,459H578V440H414L382,258H543V239H379L337,0H315L438,698Z" />
      <glyph unicode="$" glyph-name="dollar" horiz-adv-x="600" d="M296-12q-44,1-78.5,9.5T155.5,21T106,57T66,102l18,13q18-24 38-43t45-33t56.5-22T296,8V348l-36,6q-53,9-87.5,27T118,423T90,475.5T82,535q0,88 58,131t156,44V811h20V710q78-3 125-29.5T516,613l-17-14q-29,42-72.5,65T316,690V367l30-5q55-9 90-27.5T491.5,291t28-54t7.5-60q0-92-57-139T316-12V-113H296V-12ZM104,535q0-41 13-69t35-46.5t51-29T265,375l31-5V690q-91-1-141.5-39T104,535ZM505,176q0,43-13.5,72.5t-36,48t-52.5,29T341,341l-25,4V8q90,2 139.5,44.5T505,176Z" />
      <glyph unicode="%" glyph-name="percent" horiz-adv-x="600" d="M173,376q-28,0-53,9.5T76,415T46,466.5T35,543t11,76.5T76,671t44,29.5t53,9.5t53-9.5T270,671t30-51.5T311,543t-11-76.5T270,415t-44-29.5T173,376Zm0,17q22,0 43,7.5t37.5,24t26,42.5t9.5,62v28q0,36-9.5,62t-26,42.5t-37.5,24T173,693q-23,0-43.5-7.5t-37-24T66.5,619T57,557V529q0-36 9.5-62t26-42.5t37-24T173,393ZM551,698h21L393,398H372L551,698ZM207,300h21L49,0H28L207,300ZM427-12q-28,0-53,9.5T330,27T300,78.5T289,155t11,76.5T330,283t44,29.5t53,9.5t53-9.5T524,283t30-51.5T565,155T554,78.5T524,27T480-2.5T427-12Zm0,17q22,0 43,7.5t37.5,24t26,42.5t9.5,62v28q0,36-9.5,62t-26,42.5t-37.5,24T427,305q-23,0-43.5-7.5t-37-24t-26-42.5T311,169V141q0-36 9.5-62t26-42.5t37-24T427,5Z" />
      <glyph unicode="&amp;" glyph-name="ampersand" horiz-adv-x="600" d="M229-12q-44,0-79,13.5t-59,38t-36.5,59T42,174q0,30 6.5,59.5t22.5,57t42.5,52T181,387q-29,33-49.5,74T111,552q0,71 42,114.5T265,710q59,0 97-28.5T418,613l-19-9q-18,35-50.5,60.5T265,690q-61,0-96-35.5T134,556V542q0-38 19-75.5T201,396L412,149h3q6,16 10,35t7,44t5.5,57t4.5,73H544V338H462q-5-77-12-125t-20-82L542,0H516L423,108h-3q-27-55-75.5-87.5T229-12Zm1,20q62,0 107,31.5T406,125L193,372q-38-19-62.5-41.5T91.5,284T71,235t-6-50V162q0-32 11-60t32-49t52-33T230,8Z" />
      <glyph unicode="&apos;" glyph-name="quotesingle" horiz-adv-x="600" d="M288,490V740h24V490H288Z" />
      <glyph unicode="(" glyph-name="parenleft" horiz-adv-x="600" d="M238,311q0,76 15.5,143.5t43,124t64,102T439,760h26q-44-35-82-81T317.5,578t-43-118T259,328V294q0-69 15.5-132t43-118T383-57.5T465-138H439q-42,34-78.5,79.5t-64,102T253.5,167T238,311Z" />
      <glyph unicode=")" glyph-name="parenright" horiz-adv-x="600" d="M362,311q0-77-15.5-144t-43-123.5t-64-102T161-138H135q44,34 82,80.5T282.5,44t43,118T341,294v34q0,69-15.5,132t-43,118T217,679t-82,81h26q42-34 78.5-79.5t64-102t43-124T362,311Z" />
      <glyph unicode="*" glyph-name="asterisk" horiz-adv-x="600" d="M142,51L125,63L283,279L48,353l6,19l236-74V549h21V298l236,74l6-19L318,279L476,63L459,51L300,269L142,51Z" />
      <glyph unicode="+" glyph-name="plus" horiz-adv-x="600" d="M290,62V296H62v19H290V549h21V315H539V296H311V62H290Z" />
      <glyph unicode="," glyph-name="comma" horiz-adv-x="600" d="M283,78h43L247-172H230L283,78Z" />
      <glyph unicode="-" glyph-name="hyphen" horiz-adv-x="600" d="M168,295v20H432V295H168Z" />
      <glyph unicode="." glyph-name="period" horiz-adv-x="600" d="M300-5q-34,0-34,27v8q0,27 34,27t34-27V22q0-27-34-27Z" />
      <glyph unicode="/" glyph-name="slash" horiz-adv-x="600" d="M105-138L476,760h19L124-138H105Z" />
      <glyph unicode="0" glyph-name="zero" horiz-adv-x="600" d="M300-12q-55,0-97.5,20.5t-72,64T86,184.5T71,349T86,513.5t44.5,112t72,64T300,710t97.5-20.5t71.5-64t44.5-112T529,349T513.5,184.5T469,72.5t-71.5-64T300-12Zm0,20Q400,8 452.5,85T505,317v64q0,155-52.5,232T300,690T147.5,613T95,381V317q0-155 52.5-232T300,8Zm0,316q-14,0-19.5,6T275,345v8q0,9 5.5,15t19.5,6t19.5-6t5.5-15v-8q0-9-5.5-15T300,324Z" />
      <glyph unicode="1" glyph-name="one" horiz-adv-x="600" d="M98,0V20H317V682h-3L98,501L85,517L301,698h38V20H550V0H98Z" />
      <glyph unicode="2" glyph-name="two" horiz-adv-x="600" d="M521,0H87V22L356,294q51,51 78.5,101.5T462,502v30q0,34-10.5,63T420,645t-52.5,33T294,690q-78,0-122.5-37.5T107,551l-20,4q19,68 70,111.5T294,710q94,0 143-51.5T486,516q0-67-29.5-123.5T370,279L112,20H521V0Z" />
      <glyph unicode="3" glyph-name="three" horiz-adv-x="600" d="M280,376q38,0 69.5,10.5t54,30t35,46.5T451,522v24q0,32-12,58.5T405.5,650t-52,29.5T287,690q-70,0-110.5-27T113,591l-18,8q21,49 69,80t123,31q86,0 137-47t51-127q0-37-10.5-65.5t-29-49.5t-44-34T335,368v-3q71-9 113-54.5T490,187q0-93-55.5-146T283-12q-73,0-125.5,26T70,95l18,11q32-51 79.5-74.5T283,8q40,0 74,11.5t58,33T452.5,104T466,170v28q0,72-49.5,115T282,356H186v20h94Z" />
      <glyph unicode="4" glyph-name="four" horiz-adv-x="600" d="M412,0V160H47v21L407,698h26V179H550V160H433V0H412ZM69,179H412V670h-2L69,179Z" />
      <glyph unicode="5" glyph-name="five" horiz-adv-x="600" d="M481,678H158L134,344l3-1q30,39 70,54.5T304,413q96,0 148.5-55.5T505,203q0-50-14.5-90T449,45.5T383.5,3T297-12q-73,0-125.5,26T84,95l18,11q32-51 79.5-74.5T297,8q44,0 78,13.5T432.5,59t36,57T481,188v28q0,79-45,128T304,393q-32,0-56.5-4t-44-13T168,354t-31-31l-23,3l26,372H481V678Z" />
      <glyph unicode="6" glyph-name="six" horiz-adv-x="600" d="M300-12q-57,0-97.5,18.5T136.5,57T99,132.5T87,226q0,85 21,156t57.5,129.5T252,616t108,82h32Q270,622 202,529T113,311l3-1q26,54 73.5,80.5T299,417q48,0 87.5-14.5t67-42t42.5-67T511,205t-15-89T453.5,47.5T387,3.5T300-12ZM299,8q44,0 79,13.5T437,59t37,57t13,71v31q0,38-13,70.5T437,345t-59,38t-79,14q-45,0-80-14t-59-38t-36.5-56.5T111,218V190q0-39 13-72.5T161.5,60t59-38T299,8Z" />
      <glyph unicode="7" glyph-name="seven" horiz-adv-x="600" d="M187,0L489,678H99V512H77V698H512V678L211,0H187Z" />
      <glyph unicode="8" glyph-name="eight" horiz-adv-x="600" d="M300-12q-53,0-95,13.5t-71.5,39T88,101T72,180q0,75 41,123.5T226,364v4q-60,12-95,55.5T96,535q0,81 55,128t149,47t149-47t55-128q0-68-35-111.5T374,368v-4q72-12 113-60.5T528,180q0-44-16-79T466.5,40.5t-72-39T300-12Zm0,20q46,0 84,12t64.5,33t41,50.5T504,169v26q0,36-14.5,65.5t-41,50.5T384,344t-84,12q-47,0-84.5-12t-64-33t-41-50.5T96,195V169q0-36 14.5-65.5t41-50.5t64-33T300,8Zm0,368q82,0 131,39.5T480,521v24q0,66-49,105.5T300,690T169,650.5T120,545V521q0-66 49-105.5T300,376Z" />
      <glyph unicode="9" glyph-name="nine" horiz-adv-x="600" d="M516,472q0-85-21-156T437,186.5T350.5,82T243,0H211Q333,76 401,169t89,218l-3,1q-26-54-73.5-80.5T304,281q-48,0-87.5,14.5t-67,42t-42.5,67T92,493t15,89t42.5,68.5t66.5,44T303,710q57,0 97.5-18.5t66-50.5T504,565.5T516,472ZM304,301q45,0 80,14t59,38t36.5,56.5T492,480v28q0,39-13,72.5T441.5,638T382,676t-78,14q-44,0-79-13.5T166,639t-37-57t-13-71V480q0-38 13-70.5T166,353t59-38t79-14Z" />
      <glyph unicode=":" glyph-name="colon" horiz-adv-x="600" d="M300-5q-34,0-34,27v8q0,27 34,27t34-27V22q0-27-34-27Zm0,464q-34,0-34,27v8q0,27 34,27t34-27v-8q0-27-34-27Z" />
      <glyph unicode=";" glyph-name="semicolon" horiz-adv-x="600" d="M283,78h43L247-172H230L283,78Zm17,381q-34,0-34,27v8q0,27 34,27t34-27v-8q0-27-34-27Z" />
      <glyph unicode="&lt;" glyph-name="less" horiz-adv-x="600" d="M85,296v18L515,572V549L108,306v-2L515,61V38L85,296Z" />
      <glyph unicode="=" glyph-name="equal" horiz-adv-x="600" d="M62,385v19H538V385H62Zm0-178v19H538V207H62Z" />
      <glyph unicode="&gt;" glyph-name="greater" horiz-adv-x="600" d="M85,61L492,304v2L85,549v23L515,314V296L85,38V61Z" />
      <glyph unicode="?" glyph-name="question" horiz-adv-x="600" d="M268,176V349q99,2 152.5,48T474,516v26q0,66-44,107.5T306,691q-77,0-121.5-35.5T121,554l-20,5q20,72 71,111.5T306,710q90,0 140.5-49T497,531q0-88-53.5-140T290,330V176H268ZM279-5q-34,0-34,27v8q0,27 34,27t34-27V22q0-27-34-27Z" />
      <glyph unicode="@" glyph-name="at" horiz-adv-x="600" d="M471-106H322q-72,0-116.5,28T136,2T102,128T93,293q0,111 11.5,190t36,129.5t64,74T301,710q55,0 92-20.5T452,635t31-79t9-93V95H472v59h-3q-14-30-39-48.5T362,87q-67,0-103.5,48T222,293t36.5,158T362,499q43,0 68-18.5T469,432h3v31q0,48-8.5,89.5T435,625t-52.5,48.5T302,691q-50,0-85.5-21t-58-66.5T125.5,487T115,317V272q0-80 8.5-146.5T154.5,12t63-73T322-87H471v-19ZM365,105q50,0 78.5,31T472,221V365q0,54-28.5,85T365,481q-27,0-49.5-9t-38-29.5t-24.5-53T244,309V277q0-48 9-80.5t24.5-53t38-29.5t49.5-9Z" />
      <glyph unicode="A" glyph-name="A" horiz-adv-x="600" d="M525,0L447,234H153L75,0H52L285,698h30L548,0H525ZM301,673h-3L159,253H441L301,673Z" />
      <glyph unicode="B" glyph-name="B" horiz-adv-x="600" d="M98,698H320q78,0 121-44.5T484,521q0-69-25.5-108T387,359v-2q65-12 97-57.5T516,182q0-83-44-132.5T342,0H98V698ZM342,20q39,0 67,12t46.5,31.5t27.5,45t9,52.5v42q0,27-9,52.5t-27.5,45T409,332t-67,12H120V20H342ZM320,364q36,0 62.5,11T426,405t25.5,43.5T460,500v42q0,27-8.5,51.5T426,637t-43.5,30T320,678H120V364H320Z" />
      <glyph unicode="C" glyph-name="C" horiz-adv-x="600" d="M325-12Q266-12 220,8.5t-77.5,64T95,184.5T79,349T95,513.5t47.5,112t77.5,64T325,710q71,0 120.5-38T518,569l-19-7q-20,60-65,94T325,690q-109,0-165.5-77T103,381V317q0-155 56.5-232T325,8q64,0 109,34t65,94l19-7Q495,64 445.5,26T325-12Z" />
      <glyph unicode="D" glyph-name="D" horiz-adv-x="600" d="M108,698H290q126,0 182-87.5T528,349T472,87.5T290,0H108V698ZM291,20q56,0 96,20.5T453,99t38.5,93.5T504,317v64q0,69-12.5,124.5T453,599t-66,58.5T291,678H130V20H291Z" />
      <glyph unicode="E" glyph-name="E" horiz-adv-x="600" d="M108,0V698H514V678H130V364H500V344H130V20H514V0H108Z" />
      <glyph unicode="F" glyph-name="F" horiz-adv-x="600" d="M108,0V698H518V678H130V364H490V344H130V0H108Z" />
      <glyph unicode="G" glyph-name="G" horiz-adv-x="600" d="M491,103h-3q-10-24-24-45T429.5,21.5T380.5-3T313-12Q256-12 211.5,8.5T137,72.5t-46,112T75,349T91,513.5t46,112t74.5,64T313,710q69,0 118.5-38T503,569l-19-7q-20,60-64,94T313,690q-105,0-159.5-77T99,381V317q0-155 54.5-232T313,8q42,0 75,14t56,38.5t35,59T491,195V295H313v20H513V0H491V103Z" />
      <glyph unicode="H" glyph-name="H" horiz-adv-x="600" d="M480,344H120V0H98V698h22V364H480V698h22V0H480V344Z" />
      <glyph unicode="I" glyph-name="I" horiz-adv-x="600" d="M92,0V19H289V679H92v19H508V679H311V19H508V0H92Z" />
      <glyph unicode="J" glyph-name="J" horiz-adv-x="600" d="M461,698V189q0-97-49.5-149T277-12q-72,0-119.5,34.5T96,119l21,5q13-54 52.5-85T277,8q77,0 119.5,47T439,191V678H157v20H461Z" />
      <glyph unicode="K" glyph-name="K" horiz-adv-x="600" d="M264,387L130,239V0H108V698h22V269h2L269,421L519,698h26L280,403L548,0H522L264,387Z" />
      <glyph unicode="L" glyph-name="L" horiz-adv-x="600" d="M146,0V698h22V20H528V0H146Z" />
      <glyph unicode="M" glyph-name="M" horiz-adv-x="600" d="M494,667h-3L300,245L109,667h-3V0H85V698h32L299,295h3L483,698h32V0H494V667Z" />
      <glyph unicode="N" glyph-name="N" horiz-adv-x="600" d="M122,668h-3V0H98V698h32L478,30h3V698h21V0H470L122,668Z" />
      <glyph unicode="O" glyph-name="O" horiz-adv-x="600" d="M300-12q-55,0-97.5,20.5t-72,64T86,184.5T71,349T86,513.5t44.5,112t72,64T300,710t97.5-20.5t71.5-64t44.5-112T529,349T513.5,184.5T469,72.5t-71.5-64T300-12Zm0,20Q400,8 452.5,85T505,317v64q0,155-52.5,232T300,690T147.5,613T95,381V317q0-155 52.5-232T300,8Z" />
      <glyph unicode="P" glyph-name="P" horiz-adv-x="600" d="M108,0V698H352q86,0 130-51t44-137T482,373T352,322H130V0H108Zm22,342H352q39,0 67,12.5T465.5,387T493,433.5t9,55.5v42q0,28-9,55t-27.5,47T419,665.5T352,678H130V342Z" />
      <glyph unicode="Q" glyph-name="Q" horiz-adv-x="600" d="M475-136H319q-30,0-30,29v95q-53,2-93.5,23.5T127.5,77t-42,111T71,349q0,96 15,164.5t44.5,112t72,64T300,710t97.5-20.5t71.5-64t44.5-112T529,349q0-94-14.5-161T472,77T403.5,11.5T311-12V-116H475v-20ZM300,8Q400,8 452.5,85T505,317v64q0,155-52.5,232T300,690T147.5,613T95,381V317q0-155 52.5-232T300,8Z" />
      <glyph unicode="R" glyph-name="R" horiz-adv-x="600" d="M130,0H108V698H352q86,0 130-51t44-137T482,373T352,322H314L521,0H495L289,322H130V0ZM352,342q39,0 67,12.5T465.5,387T493,433.5t9,55.5v42q0,28-9,55t-27.5,47T419,665.5T352,678H130V342H352Z" />
      <glyph unicode="S" glyph-name="S" horiz-adv-x="600" d="M304-12q-46,0-82,8.5T157.5,20T107,56T66,102l18,13q18-24 39-43.5t47-34t58.5-22T304,8q96,0 148.5,42.5T505,176q0,43-13.5,72.5t-36,48t-52.5,29T341,341l-80,13q-53,9-87.5,26.5t-55,41.5T90,475t-8,60q0,44 15.5,77t44,54.5T210,699t89,11q85,0 136.5-27T516,613l-17-14q-31,45-79,68T297,690q-91,0-142-38.5T104,535q0-41 13-69t35-46.5t51-29T265,375l80-13q55-9 90.5-27.5T491,291t28-54t8-60q0-94-60.5-141.5T304-12Z" />
      <glyph unicode="T" glyph-name="T" horiz-adv-x="600" d="M311,678V0H289V678H41v20H559V678H311Z" />
      <glyph unicode="U" glyph-name="U" horiz-adv-x="600" d="M120,698V273q0-77 8.5-128t29-81.5t55-43T300,8q52,0 87,12.5t55.5,43t29,81.5T480,273V698h22V273q0-82-10-137T458.5,48T396,1.5T300-12T204,1.5T141.5,48T108,136T98,273V698h22Z" />
      <glyph unicode="V" glyph-name="V" horiz-adv-x="600" d="M285,0L55,698H79L299,25h3L523,698h22L315,0H285Z" />
      <glyph unicode="W" glyph-name="W" horiz-adv-x="600" d="M126,0L58,698H79L145,22h4L287,484h27L452,22h4l66,676h20L474,0H436L302,454h-3L164,0H126Z" />
      <glyph unicode="X" glyph-name="X" horiz-adv-x="600" d="M551,0H524L302,336h-3L75,0H49L287,354L58,698H85L299,375h3L516,698h26L314,357L551,0Z" />
      <glyph unicode="Y" glyph-name="Y" horiz-adv-x="600" d="M289,0V294L28,698H53L299,318h3L548,698h24L311,294V0H289Z" />
      <glyph unicode="Z" glyph-name="Z" horiz-adv-x="600" d="M552,0H48V22L505,678H71v20H529V676L72,20H552V0Z" />
      <glyph unicode="[" glyph-name="bracketleft" horiz-adv-x="600" d="M265-138V760H503V742H285V-120H503v-18H265Z" />
      <glyph unicode="\" glyph-name="backslash" horiz-adv-x="600" d="M476-138L105,760h19L495-138H476Z" />
      <glyph unicode="]" glyph-name="bracketright" horiz-adv-x="600" d="M335,760V-138H97v18H315V742H97v18H335Z" />
      <glyph unicode="^" glyph-name="asciicircum" horiz-adv-x="600" d="M514,322L301,676h-2L86,322L68,332L289,698h22L532,332l-18-10Z" />
      <glyph unicode="_" glyph-name="underscore" horiz-adv-x="600" d="M60-141v19H540v-19H60Z" />
      <glyph unicode="`" glyph-name="grave" horiz-adv-x="600" d="M202,749l19,12L332,607l-15-10L202,749Z" />
      <glyph unicode="a" glyph-name="a" horiz-adv-x="600" d="M454,0q-29,0-29,29V77h-3q-19-36-59.5-62.5T249-12q-83,0-127,36.5T78,130q0,31 9.5,58t32,46T180,264t95,11H425v81q0,78-40,115.5T275,509q-55,0-98-23.5T112,410L95,420q22,50 66.5,79T275,528q81,0 126-44t45-125V19h85V0H454ZM249,7q35,0 67,9t56,26.5t38.5,44T425,148V257H276q-95,0-135-31t-40-80V114q0-52 41-79.5T249,7Z" />
      <glyph unicode="b" glyph-name="b" horiz-adv-x="600" d="M125,740h21V438h3q8,16 22,32.5t34,29T251,520t59,8q100,0 155-67.5T520,258T465,55.5T310-12q-33,0-59,8T205,16.5T171,45T149,78h-3V0H125V740ZM310,7q91,0 139,60.5T497,234v48q0,106-48,166.5T310,509q-32,0-62-10t-52.5-28t-36-43T146,373V143q0-30 13.5-55t36-43T248,17T310,7Z" />
      <glyph unicode="c" glyph-name="c" horiz-adv-x="600" d="M322-12Q222-12 166,55.5T110,258t56,202.5T322,528q68,0 112.5-31.5T496,416l-19-6q-19,48-58.5,73.5T322,509q-91,0-140-60.5T133,282V234q0-106 49-166.5T322,7q60,0 101,28t62,75l18-8q-10-23-26.5-44t-39-36.5T386-3t-64-9Z" />
      <glyph unicode="d" glyph-name="d" horiz-adv-x="600" d="M454,78h-3q-8-17-22-33T395,16.5T349-4t-59-8Q190-12 135,55.5T80,258t55,202.5T290,528q33,0 59-8t46-20.5t34-29T451,438h3V740h21V0H454V78ZM290,7q32,0 62,10t52.5,28t36,43T454,143V373q0,30-13.5,55t-36,43T352,499t-62,10q-91,0-139-60.5T103,282V234q0-106 48-166.5T290,7Z" />
      <glyph unicode="e" glyph-name="e" horiz-adv-x="600" d="M306-12Q204-12 148,55.5T92,258t55,202.5T302,528q51,0 90.5-18.5T458,457t39.5-82T511,267v-7H115V234q0-106 49-166.5T306,7q65,0 110.5,30.5T485,131l18-7q-23-63-72.5-99.5T306-12Zm-4,521q-91,0-139-60.5T115,282v-4H489v4q0,106-48,166.5T302,509Z" />
      <glyph unicode="f" glyph-name="f" horiz-adv-x="600" d="M94,19H287V497H84v19H287V711q0,29 29,29H533V721H307V516H533V497H307V19H510V0H94V19Z" />
      <glyph unicode="g" glyph-name="g" horiz-adv-x="600" d="M543-63q0-77-62-113T304-212q-113,0-163.5,36T90-81q0,46 26.5,76T191,40v3q-28,8-40.5,25.5T138,110q0,35 26,56.5T223,198v3q-43,19-67,58t-24,97q0,78 46,125t127,47q66,0 111-34v40q0,27 29,27H556V542H435V477q20-22 31.5-52.5T478,356q0-39-12.5-71T430,230.5T375.5,196T305,184q-15,0-28,2t-28,5q-91-24-91-80q0-11 3.5-21T175,72.5T202,60t43-5H380q87,0 125-32t38-86Zm-22-1q0,47-31.5,73T377,35H222Q174,23 144-5T114-82q0-53 44.5-82T279-193h49q43,0 78.5,7.5t61,23.5T507-121.5T521-64ZM305,203q72,0 110.5,38.5T454,337v38q0,57-38.5,95.5T305,509T194.5,470.5T156,375V337q0-57 39.5-95.5T305,203Z" />
      <glyph unicode="h" glyph-name="h" horiz-adv-x="600" d="M127,740h21V442h3q13,33 51.5,59.5T309,528q86,0 130-49t44-143V0H462V333q0,93-40.5,134.5T306,509q-31,0-59.5-8.5T196,475t-35-43t-13-60V0H127V740Z" />
      <glyph unicode="i" glyph-name="i" horiz-adv-x="600" d="M332,691q-16,0-22.5,6.5T303,714v8q0,10 6.5,16.5T332,745t22.5-6.5T361,722v-8q0-10-6.5-16.5T332,691ZM117,19H322V497H117v19H343V19H535V0H117V19Z" />
      <glyph unicode="j" glyph-name="j" horiz-adv-x="600" d="M111-181H406V497H96v19H427V-171q0-29-29-29H111v19ZM417,691q-16,0-22.5,6.5T388,714v8q0,10 6.5,16.5T417,745t22.5-6.5T446,722v-8q0-10-6.5-16.5T417,691Z" />
      <glyph unicode="k" glyph-name="k" horiz-adv-x="600" d="M139,740h21V219h3L281,322L505,516h28L301,314L561,0H535L285,300L160,192V0H139V740Z" />
      <glyph unicode="l" glyph-name="l" horiz-adv-x="600" d="M91,19H290V721H91v19H311V19H510V0H91V19Z" />
      <glyph unicode="m" glyph-name="m" horiz-adv-x="600" d="M73,0V516H94V455h3q11,32 36.5,52.5T203,528q88,0 103-82h2q11,35 38,58.5T420,528q54,0 81-32.5T528,400V0H507V397q0,58-23,85t-66,27t-75-31t-32-94V0H290V397q0,58-23,85t-66,27q-21,0-40.5-7.5t-34-23.5T103,438.5T94,384V0H73Z" />
      <glyph unicode="n" glyph-name="n" horiz-adv-x="600" d="M127,0V516h21V442h3q13,33 51.5,59.5T309,528q86,0 130-49t44-143V0H462V333q0,93-40.5,134.5T306,509q-31,0-59.5-8.5T196,475t-35-43t-13-60V0H127Z" />
      <glyph unicode="o" glyph-name="o" horiz-adv-x="600" d="M300-12Q200-12 145,55.5T90,258t55,202.5T300,528t155-67.5T510,258T455,55.5T300-12Zm0,19q91,0 139,60.5T487,234v48q0,106-48,166.5T300,509T161,448.5T113,282V234q0-106 48-166.5T300,7Z" />
      <glyph unicode="p" glyph-name="p" horiz-adv-x="600" d="M125,516h21V438h3q8,16 22,32.5t34,29T251,520t59,8q100,0 155-67.5T520,258T465,55.5T310-12q-33,0-59,8T205,16.5T171,45T149,78h-3V-200H125V516ZM310,7q91,0 139,60.5T497,234v48q0,106-48,166.5T310,509q-32,0-62-10t-52.5-28t-36-43T146,373V143q0-30 13.5-55t36-43T248,17T310,7Z" />
      <glyph unicode="q" glyph-name="q" horiz-adv-x="600" d="M454,78h-3q-8-17-22-33T395,16.5T349-4t-59-8Q190-12 135,55.5T80,258t55,202.5T290,528q33,0 59-8t46-20.5t34-29T451,438h3v78h21V-200H454V78ZM290,7q32,0 62,10t52.5,28t36,43T454,143V373q0,30-13.5,55t-36,43T352,499t-62,10q-91,0-139-60.5T103,282V234q0-106 48-166.5T290,7Z" />
      <glyph unicode="r" glyph-name="r" horiz-adv-x="600" d="M80,19H258V497H80v19H279V416h3q9,21 21.5,39T335,486.5T380,508t61,8H556V497H437q-31,0-59.5-10T327,456.5T292,405t-13-74V19H505V0H80V19Z" />
      <glyph unicode="s" glyph-name="s" horiz-adv-x="600" d="M318-12Q172-12 91,90l15,13q40-51 91-73.5T317,7q81,0 130,32t49,99q0,29-9.5,48t-28,31.5T414,237t-59,12l-80,11q-35,5-64.5,13T160,295.5t-33,37T115,390q0,38 14.5,64T169,496.5t58,24t71,7.5t68.5-7t54-18t42-26T495,447l-14-15q-14,15-30.5,29T412,485.5t-50,17T297,509q-73,0-117-28t-44-90q0-29 9.5-48t28-31.5t44.5-20T277,280l80-11q35-5 64.5-13T472,233.5T505,196t12-57q0-39-15.5-67.5t-42-47T396.5-3T318-12Z" />
      <glyph unicode="t" glyph-name="t" horiz-adv-x="600" d="M266,0q-29,0-29,29V497H36v19H208q29,0 29,29V698h21V516H522V497H258V19H522V0H266Z" />
      <glyph unicode="u" glyph-name="u" horiz-adv-x="600" d="M452,74h-3q-7-17-19.5-32.5T397.5,14t-46-19T291-12q-86,0-130,49T117,180V516h21V183q0-93 40.5-134.5T294,7q31,0 59.5,8.5T404,41t35,42.5T452,144V516h21V0H452V74Z" />
      <glyph unicode="v" glyph-name="v" horiz-adv-x="600" d="M287,0L93,516h22L299,24h3L486,516h21L313,0H287Z" />
      <glyph unicode="w" glyph-name="w" horiz-adv-x="600" d="M38,516H58L152,19h3L285,516h31L446,19h3l94,497h19L465,0H431L302,496h-3L169,0H135L38,516Z" />
      <glyph unicode="x" glyph-name="x" horiz-adv-x="600" d="M89,0L287,259L92,516h26L299,277h2L483,516h25L313,260L511,0H485L301,243h-2L114,0H89Z" />
      <glyph unicode="y" glyph-name="y" horiz-adv-x="600" d="M495,516h22L227-181q-9-19-31-19H94v19H205L289,19L83,516h23L299,49h3L495,516Z" />
      <glyph unicode="z" glyph-name="z" horiz-adv-x="600" d="M102,0V21L465,497H112v19H488V495L125,19H498V0H102Z" />
      <glyph unicode="{" glyph-name="braceleft" horiz-adv-x="600" d="M294-138q-29,0-29,29V-2q0,29 5,50.5t12.5,37t15.5,26T312,129q24,30 31.5,47t7.5,34q0,48-43,70T184,302H116v18h68q81,0 124,22t43,70q0,17-7.5,34T312,493q-6,7-14,17.5t-15.5,26t-12.5,37T265,624V731q0,29 29,29H484V742H285V624q0-29 4.5-49T301,541t14.5-23T328,502q26-32 34.5-51.5T371,411q0-45-33.5-70T252,312v-2q52-4 85.5-29T371,211q0-20-8.5-39.5T328,120q-5-7-12.5-16T301,81T289.5,46.5T285-2V-120H484v-18H294Z" />
      <glyph unicode="|" glyph-name="bar" horiz-adv-x="600" d="M290-138V760h20V-138H290Z" />
      <glyph unicode="}" glyph-name="braceright" horiz-adv-x="600" d="M306,760q29,0 29-29V624q0-29-5-50.5t-12.5-37t-15.5-26T288,493q-24-30-31.5-47T249,412q0-48 43-70t124-22h68V302H416q-81,0-124-22t-43-70q0-17 7.5-34T288,129q6-7 14-17.5t15.5-26t12.5-37T335-2V-109q0-29-29-29H116v18H315V-2q0,28-5,48.5T298.5,81t-14,23T272,120q-26,32-34.5,51.5T229,211q0,45 33.5,70T348,310v2q-52,4-85.5,29T229,411q0,20 8.5,39.5T272,502q5,7 12.5,16t14,23T310,575t5,49V742H116v18H306Z" />
      <glyph unicode="~" glyph-name="asciitilde" horiz-adv-x="600" d="M415,217q-29,0-56.5,18T292,298q-25,27-36,37t-20.5,17t-23,13T184,371q-39,0-66.5-35.5T76,223l-18,4q14,83 47,123.5T185,391q29,0 56.5-18T308,310q25-27 36-37t20.5-17t23-13t28.5-6q39,0 66.5,35.5T524,385l18-4q-14-83-47-123.5T415,217Z" />
      <glyph unicode="&#xa0;" glyph-name="uni00A0" horiz-adv-x="600" />
      <glyph unicode="&#xa1;" glyph-name="exclamdown" horiz-adv-x="600" d="M289-182V101l5,239h12l5-239V-182H289Zm11,641q-34,0-34,27v8q0,27 34,27t34-27v-8q0-27-34-27Z" />
      <glyph unicode="&#xa2;" glyph-name="cent" horiz-adv-x="600" d="M302-114V-11Q211-4 160.5,63T110,258t50.5,195T302,527V630h20V528q68,0 112.5-31.5T496,416l-19-6q-19,48-58.5,73.5T322,509V7q60,0 101,28t62,75l18-8q-10-23-26.5-44t-39-36.5T386-3t-64-9V-114H302ZM133,234q0-100 43.5-159.5T302,8V508q-82-7-125.5-66.5T133,282V234Z" />
      <glyph unicode="&#xa3;" glyph-name="sterling" horiz-adv-x="600" d="M80,0V25q42,32 69,81t27,114q0,25-4,47.5T162,311H67v20h88q-7,21-15,42t-15,43t-11.5,45T109,510q0,47 15.5,84T168,657t67,39.5T321,710q66,0 118.5-27.5T526,597l-19-10q-32,55-79,79T322,690q-88,0-139.5-47.5T131,510q0-51 16-93.5T178,331H401V311H184q6-21 10-43t4-47q0-60-24-112T104,22V20H525V0H80Z" />
      <glyph unicode="&#xa4;" glyph-name="currency" horiz-adv-x="600" d="M300,129q-66,0-111,33L98,47L80,60l92,117q-55,55-55,172t55,172L80,638l18,13l91-115q45,33 111,33t111-33l91,115l18-13L428,521q55-55 55-172T428,177L520,60L502,47L411,162q-45-33-111-33Zm0,19q77,0 118.5,48.5T460,330v38q0,85-41.5,133.5T300,550T181.5,501.5T140,368V330q0-85 41.5-133.5T300,148Z" />
      <glyph unicode="&#xa5;" glyph-name="yen" horiz-adv-x="600" d="M91,19H289V294H91v19H277L28,698H53L299,317h3L548,698h24L323,313H509V294H311V19H509V0H91V19Z" />
      <glyph unicode="&#xa6;" glyph-name="brokenbar" horiz-adv-x="600" d="M290,401V760h20V401H290Zm0-539V221h20V-138H290Z" />
      <glyph unicode="&#xa7;" glyph-name="section" horiz-adv-x="600" d="M460-13q0-36-13.5-63t-37-44t-55-25.5T287-154q-51,0-90,16T133-98l13,15q23-22 57-37t85-15q71,0 111,31t40,91q0,28-10,49T401.5,72t-40,25T315,115l-67,22q-34,11-61.5,24.5t-47,32t-30,43.5T99,296q0,57 31.5,93.5T214,446v3q-35,21-54.5,51T140,569q0,36 13.5,63t37,44t55,25.5T313,710q54,0 91.5-16T467,654l-13-15q-23,22-57,37t-85,15q-71,0-111-31t-40-91q0-29 10-49.5T198.5,484t40-25T285,441l67-22q34-11 62-24.5t47-32T490.5,319T501,260q0-57-31-93.5T386,110v-3q35-21 54.5-51T460-13Zm20,272q0,59-34.5,90.5T344,401l-66,21q-12,4-23,8.5T232,440q-51-21-81.5-55T120,297q0-59 34.5-90.5T256,155l66-21q12-4 23-8.5t23-9.5q51,21 81.5,55T480,259Z" />
      <glyph unicode="&#xa8;" glyph-name="dieresis" horiz-adv-x="600" d="M209,649q-16,0-22.5,6.5T180,672v8q0,10 6.5,16.5T209,703t22.5-6.5T238,680v-8q0-10-6.5-16.5T209,649Zm182,0q-16,0-22.5,6.5T362,672v8q0,10 6.5,16.5T391,703t22.5-6.5T420,680v-8q0-10-6.5-16.5T391,649Z" />
      <glyph unicode="&#xa9;" glyph-name="copyright" horiz-adv-x="600" d="M300,18q-62,0-115.5,23T91,107T28,211T5,349q0,76 23,137.5T91,591t93.5,66T300,680q61,0 115-23t94-66t63-104.5T595,349q0-77-23-138T509,107T415,41T300,18Zm0,17q59,0 109.5,22.5t87,62t57.5,94T575,332v34q0,64-21,118t-57.5,94t-87,62.5T300,663T190.5,640.5t-87-62.5T46,484T25,366V332q0-64 21-118.5t57.5-94t87-62T300,35Zm1,153q-58,0-93,41T173,349t35,120t94,41q41,0 66.5-17.5T404,447l-16-5q-10,24-32,37.5T302,493q-50,0-79.5-34T193,359V339q0-69 30-101.5T302,205q33,0 56,15t35,41l15-8q-12-27-39.5-46T301,188Z" />
      <glyph unicode="&#xaa;" glyph-name="ordfeminine" horiz-adv-x="600" d="M446,374H398q-18,0-18,19v29h-2q-11-21-37.5-38T266,367q-54,0-81.5,24.5T157,458q0,20 6.5,36.5T185,523t39.5,18.5T284,548h96v56q0,45-26,67t-73,22q-33,0-59-13.5T182,635l-15,8q14,31 41.5,49T281,710q57,0 87.5-27T399,607V391h47V374ZM283,531q-57,0-81-18.5T178,465V452q0-33 24.5-50.5T266,384q23,0 43.5,5.5t36.5,17t25,28t9,38.5v58H283Z" />
      <glyph unicode="&#xab;" glyph-name="guillemotleft" horiz-adv-x="600" d="M299,76L85,258v20L299,460l9-15L108,268L308,91l-9-15Zm214,0L299,258v20L513,460l9-15L322,268L522,91l-9-15Z" />
      <glyph unicode="&#xac;" glyph-name="logicalnot" horiz-adv-x="600" d="M501,104V296H62v19H522V104H501Z" />
      <glyph unicode="&#xad;" glyph-name="uni00AD" horiz-adv-x="600" d="M168,295v20H432V295H168Z" />
      <glyph unicode="&#xae;" glyph-name="registered" horiz-adv-x="600" d="M300,346q-38,0-71,13.5t-57.5,38t-38.5,58T119,528t14,72.5t38.5,58t57.5,38T300,710t71-13.5t57.5-38t38.5-58T481,528t-14-72.5t-38.5-58t-57.5-38T300,346Zm0,15q34,0 63.5,12.5t51.5,34T449.5,458T462,520v16q0,33-12.5,62T415,648.5t-51.5,34T300,695t-63.5-12.5t-51.5-34T150.5,598T138,536V520q0-33 12.5-62T185,407.5t51.5-34T300,361Zm-37,75H248V621h67q26,0 41-13t15-42q0-24-13.5-37T323,515l53-79H358l-51,78H263V436Zm51,91q23,0 32,8.5t9,28.5v7q0,20-9,28.5T314,608H263V527h51Z" />
      <glyph unicode="&#xaf;" glyph-name="macron" horiz-adv-x="600" d="M171,686H429V668H171v18Z" />
      <glyph unicode="&#xb0;" glyph-name="degree" horiz-adv-x="600" d="M300,404q-33,0-61,11.5t-48.5,32t-32,48.5T147,557t11.5,61t32,48.5t48.5,32T300,710t61-11.5t48.5-32t32-48.5T453,557t-11.5-61t-32-48.5t-48.5-32T300,404Zm0,19q29,0 53.5,10t42,28t27,42.5T432,557q0,28-9.5,52.5t-27,42.5t-42,28.5T300,691t-53.5-10.5t-42-28.5t-27-42.5T168,557q0-29 9.5-53.5t27-42.5t42-28T300,423Z" />
      <glyph unicode="&#xb1;" glyph-name="plusminus" horiz-adv-x="600" d="M290,115V349H62v19H290V602h21V368H539V349H311V115H290ZM62,0V19H538V0H62Z" />
      <glyph unicode="&#xb2;" glyph-name="twosuperior" horiz-adv-x="600" d="M428,329H172v20L311,464q84,69 84,128v10q0,37-23.5,61T300,687q-47,0-74-21.5T186,609l-17,5q12,37 44,63.5T300,704q57,0 86-30.5T415,599q0-38-22.5-73.5T322,452L192,346H428V329Z" />
      <glyph unicode="&#xb3;" glyph-name="threesuperior" horiz-adv-x="600" d="M288,529q56,0 78.5,21T389,608v6q0,33-23.5,53T297,687q-39,0-61.5-12T196,641l-14,10q16,23 44,38t71,15q54,0 83-25.5T409,609q0-36-19-57t-51-29v-3q77-12 77-89q0-50-32.5-79T291,323q-45,0-74,16.5T171,379l14,11q18-23 41-36.5T291,340q52,0 78.5,22.5T396,427v6q0,38-22.5,58.5T295,512H242v17h46Z" />
      <glyph unicode="&#xb4;" glyph-name="acute" horiz-adv-x="600" d="M282,597l-15,10L378,761l19-12L282,597Z" />
      <glyph unicode="&#xb5;" glyph-name="mu" horiz-adv-x="600" d="M122-200V516h21V190q0-93 40-138T298,7q31,0 60,8.5T409,41t35,42.5T457,144V516h21V0H457V74h-3q-7-17-19.5-32.5T402.5,14t-46-19T296-12Q180-12 143,92h-3l3-124V-200H122Z" />
      <glyph unicode="&#xb6;" glyph-name="paragraph" horiz-adv-x="600" d="M302,246q-54,0-97.5,17t-74,47t-47,71.5T67,472t16.5,90.5t46,71.5t71,47T292,698H472V-149H450V678H324V-149H302V246Z" />
      <glyph unicode="&#xb7;" glyph-name="periodcentered" horiz-adv-x="600" d="M300,273q-34,0-34,27v8q0,27 34,27t34-27v-8q0-27-34-27Z" />
      <glyph unicode="&#xb8;" glyph-name="cedilla" horiz-adv-x="600" d="M310-202q-29,0-50.5,9.5T229-170l13,13q22-27 68-27q27,0 44,13t17,39q0,19-13.5,31.5T310-86l-37,2L294,3h18L293-73l2-2q7,2 15,2.5T325-72q29,0 48-16t19-43q0-29-22-50t-60-21Z" />
      <glyph unicode="&#xb9;" glyph-name="onesuperior" horiz-adv-x="600" d="M192,329v17H321V681L180,609l-8,14l145,75h23V346H458V329H192Z" />
      <glyph unicode="&#xba;" glyph-name="ordmasculine" horiz-adv-x="600" d="M300,367q-68,0-104.5,46T159,540q0,78 37,124t104,46t104-46t37-124q0-81-37-127T300,367Zm0,17q30,0 52.5,11T390,425t22.5,44t7.5,53v34q0,27-7.5,52T390,652t-37.5,30T300,693t-52.5-11T210,652t-22.5-44T180,556V522q0-28 7.5-53T210,425t37.5-30T300,384Z" />
      <glyph unicode="&#xbb;" glyph-name="guillemotright" horiz-adv-x="600" d="M79,91L279,268L79,445l9,15L302,278V258L88,76L79,91Zm214,0L493,268L293,445l9,15L516,278V258L302,76l-9,15Z" />
      <glyph unicode="&#xbc;" glyph-name="onequarter" horiz-adv-x="600" d="M40,380H156V680L31,616l-8,14l130,68h22V380H280V363H40v17ZM551,698h21L383,398H362L551,698ZM217,300h21L49,0H28L217,300ZM505,80H316V98L496,335h28V96h59V80H524V0H505V80Zm0,16V315h-3L336,96H505Z" />
      <glyph unicode="&#xbd;" glyph-name="onehalf" horiz-adv-x="600" d="M40,380H156V680L31,616l-8,14l130,68h22V380H280V363H40v17ZM551,698h21L383,398H362L551,698ZM217,300h21L49,0H28L217,300ZM337,18L464,129q32,28 51.5,56T535,241v8q0,32-19.5,53.5T448,324q-45,0-67-19t-33-50l-17,5q4,14 12.5,28.5t22,26t33.5,19t49,7.5q51,0 79-25.5T555,247q0-34-19-64.5T476,117L360,17H568V0H337V18Z" />
      <glyph unicode="&#xbe;" glyph-name="threequarters" horiz-adv-x="600" d="M143,357q-42,0-68.5,14.5T32,407l14,12q16-20 37.5-32.5T142,374q47,0 71,20.5T237,453v5q0,34-20,53t-71,19H97v17h42q51,0 71,19t20,51v6q0,29-21,46.5T147,687q-32,0-55-11T54,645L40,656q15,21 43,34.5T149,704q48,0 74.5-23.5T250,618q0-32-17-51t-47-26v-3q71-14 71-82q0-46-29.5-72.5T143,357ZM551,698h21L383,398H362L551,698ZM217,300h21L49,0H28L217,300ZM505,80H316V98L496,335h28V96h59V80H524V0H505V80Zm0,16V315h-3L336,96H505Z" />
      <glyph unicode="&#xbf;" glyph-name="questiondown" horiz-adv-x="600" d="M291-194q-44,0-79,13t-59,36.5T116-88T103-15q0,85 55,137.5T310,186V340h22V167q-98-5-152-51.5T126-6V-24q0-68 43.5-109.5T291-175q72,0 122,38T484-26l20-6q-23-78-78.5-120T291-194Zm30,653q-34,0-34,27v8q0,27 34,27t34-27v-8q0-27-34-27Z" />
      <glyph unicode="&#xc0;" glyph-name="Agrave" horiz-adv-x="600" d="M525,0L447,234H153L75,0H52L285,698h30L548,0H525ZM301,673h-3L159,253H441L301,673ZM202,919l19,12L332,777l-15-10L202,919Z" />
      <glyph unicode="&#xc1;" glyph-name="Aacute" horiz-adv-x="600" d="M525,0L447,234H153L75,0H52L285,698h30L548,0H525ZM301,673h-3L159,253H441L301,673Zm-19,94l-15,10L378,931l19-12L282,767Z" />
      <glyph unicode="&#xc2;" glyph-name="Acircumflex" horiz-adv-x="600" d="M525,0L447,234H153L75,0H52L285,698h30L548,0H525ZM301,673h-3L159,253H441L301,673Zm11,250L440,790l-14-11L300,906L174,779l-14,11L288,923h24Z" />
      <glyph unicode="&#xc3;" glyph-name="Atilde" horiz-adv-x="600" d="M525,0L447,234H153L75,0H52L285,698h30L548,0H525ZM301,673h-3L159,253H441L301,673Zm70,135q-17,0-34,6.5T294,838q-22,14-37,20t-29,6q-34,0-65-33l-12,12q35,39 78,39q17,0 34-6.5T306,852q22-14 37-20t29-6q18,0 33.5,8T437,859l12-12q-35-39-78-39Z" />
      <glyph unicode="&#xc4;" glyph-name="Adieresis" horiz-adv-x="600" d="M525,0L447,234H153L75,0H52L285,698h30L548,0H525ZM301,673h-3L159,253H441L301,673ZM209,819q-16,0-22.5,6.5T180,842v8q0,10 6.5,16.5T209,873t22.5-6.5T238,850v-8q0-10-6.5-16.5T209,819Zm182,0q-16,0-22.5,6.5T362,842v8q0,10 6.5,16.5T391,873t22.5-6.5T420,850v-8q0-10-6.5-16.5T391,819Z" />
      <glyph unicode="&#xc5;" glyph-name="Aring" horiz-adv-x="600" d="M525,0L447,234H153L75,0H52L285,698h30L548,0H525ZM301,673h-3L159,253H441L301,673Zm-1,96q-41,0-65.5,25T210,860t24.5,66T300,951t65.5-25T390,860t-24.5-66T300,769Zm0,18q32,0 51,18.5T370,855v10q0,31-19,49.5T300,933t-51-18.5T230,865V855q0-31 19-49.5T300,787Z" />
      <glyph unicode="&#xc6;" glyph-name="AE" horiz-adv-x="600" d="M326,234H137L63,0H39L262,698H549V678H348V364H535V344H348V20H549V0H326V234ZM278,678L143,253H326V678H278Z" />
      <glyph unicode="&#xc7;" glyph-name="Ccedilla" horiz-adv-x="600" d="M325,690q-109,0-165.5-77T103,381V317q0-155 56.5-232T325,8q64,0 109,34t65,94l19-7Q495,64 445.5,26T325-12h-4L306-73l2-2q7,2 15,2.5T338-72q29,0 48-16t19-43q0-29-22-50t-60-21q-29,0-50.5,9.5T242-170l13,13q22-27 68-27q27,0 44,13t17,39q0,19-13.5,31.5T323-86l-37,2l18,73q-54,3-96,25.5T137.5,81T94,191T79,349q0,96 16,164.5t47.5,112t77.5,64T325,710q71,0 120.5-38T518,569l-19-7q-20,60-65,94T325,690Z" />
      <glyph unicode="&#xc8;" glyph-name="Egrave" horiz-adv-x="600" d="M108,0V698H514V678H130V364H500V344H130V20H514V0H108ZM211,919l19,12L341,777l-15-10L211,919Z" />
      <glyph unicode="&#xc9;" glyph-name="Eacute" horiz-adv-x="600" d="M108,0V698H514V678H130V364H500V344H130V20H514V0H108ZM291,767l-15,10L387,931l19-12L291,767Z" />
      <glyph unicode="&#xca;" glyph-name="Ecircumflex" horiz-adv-x="600" d="M108,0V698H514V678H130V364H500V344H130V20H514V0H108ZM321,923L449,790l-14-11L309,906L183,779l-14,11L297,923h24Z" />
      <glyph unicode="&#xcb;" glyph-name="Edieresis" horiz-adv-x="600" d="M108,0V698H514V678H130V364H500V344H130V20H514V0H108ZM218,819q-16,0-22.5,6.5T189,842v8q0,10 6.5,16.5T218,873t22.5-6.5T247,850v-8q0-10-6.5-16.5T218,819Zm182,0q-16,0-22.5,6.5T371,842v8q0,10 6.5,16.5T400,873t22.5-6.5T429,850v-8q0-10-6.5-16.5T400,819Z" />
      <glyph unicode="&#xcc;" glyph-name="Igrave" horiz-adv-x="600" d="M92,0V19H289V679H92v19H508V679H311V19H508V0H92ZM202,919l19,12L332,777l-15-10L202,919Z" />
      <glyph unicode="&#xcd;" glyph-name="Iacute" horiz-adv-x="600" d="M92,0V19H289V679H92v19H508V679H311V19H508V0H92ZM282,767l-15,10L378,931l19-12L282,767Z" />
      <glyph unicode="&#xce;" glyph-name="Icircumflex" horiz-adv-x="600" d="M92,0V19H289V679H92v19H508V679H311V19H508V0H92ZM312,923L440,790l-14-11L300,906L174,779l-14,11L288,923h24Z" />
      <glyph unicode="&#xcf;" glyph-name="Idieresis" horiz-adv-x="600" d="M92,0V19H289V679H92v19H508V679H311V19H508V0H92ZM209,819q-16,0-22.5,6.5T180,842v8q0,10 6.5,16.5T209,873t22.5-6.5T238,850v-8q0-10-6.5-16.5T209,819Zm182,0q-16,0-22.5,6.5T362,842v8q0,10 6.5,16.5T391,873t22.5-6.5T420,850v-8q0-10-6.5-16.5T391,819Z" />
      <glyph unicode="&#xd0;" glyph-name="Eth" horiz-adv-x="600" d="M127,359H33v19h94V698H289q126,0 182-87.5T527,349T471,87.5T289,0H127V359ZM290,20q56,0 96,20.5T452,99t38.5,93.5T503,317v64q0,69-12.5,124.5T452,599t-66,58.5T290,678H149V378H327V359H149V20H290Z" />
      <glyph unicode="&#xd1;" glyph-name="Ntilde" horiz-adv-x="600" d="M122,668h-3V0H98V698h32L478,30h3V698h21V0H470L122,668ZM371,808q-17,0-34,6.5T294,838q-22,14-37,20t-29,6q-34,0-65-33l-12,12q35,39 78,39q17,0 34-6.5T306,852q22-14 37-20t29-6q18,0 33.5,8T437,859l12-12q-35-39-78-39Z" />
      <glyph unicode="&#xd2;" glyph-name="Ograve" horiz-adv-x="600" d="M300-12q-55,0-97.5,20.5t-72,64T86,184.5T71,349T86,513.5t44.5,112t72,64T300,710t97.5-20.5t71.5-64t44.5-112T529,349T513.5,184.5T469,72.5t-71.5-64T300-12Zm0,20Q400,8 452.5,85T505,317v64q0,155-52.5,232T300,690T147.5,613T95,381V317q0-155 52.5-232T300,8ZM202,919l19,12L332,777l-15-10L202,919Z" />
      <glyph unicode="&#xd3;" glyph-name="Oacute" horiz-adv-x="600" d="M300-12q-55,0-97.5,20.5t-72,64T86,184.5T71,349T86,513.5t44.5,112t72,64T300,710t97.5-20.5t71.5-64t44.5-112T529,349T513.5,184.5T469,72.5t-71.5-64T300-12Zm0,20Q400,8 452.5,85T505,317v64q0,155-52.5,232T300,690T147.5,613T95,381V317q0-155 52.5-232T300,8ZM282,767l-15,10L378,931l19-12L282,767Z" />
      <glyph unicode="&#xd4;" glyph-name="Ocircumflex" horiz-adv-x="600" d="M300-12q-55,0-97.5,20.5t-72,64T86,184.5T71,349T86,513.5t44.5,112t72,64T300,710t97.5-20.5t71.5-64t44.5-112T529,349T513.5,184.5T469,72.5t-71.5-64T300-12Zm0,20Q400,8 452.5,85T505,317v64q0,155-52.5,232T300,690T147.5,613T95,381V317q0-155 52.5-232T300,8Zm12,915L440,790l-14-11L300,906L174,779l-14,11L288,923h24Z" />
      <glyph unicode="&#xd5;" glyph-name="Otilde" horiz-adv-x="600" d="M300-12q-55,0-97.5,20.5t-72,64T86,184.5T71,349T86,513.5t44.5,112t72,64T300,710t97.5-20.5t71.5-64t44.5-112T529,349T513.5,184.5T469,72.5t-71.5-64T300-12Zm0,20Q400,8 452.5,85T505,317v64q0,155-52.5,232T300,690T147.5,613T95,381V317q0-155 52.5-232T300,8Zm71,800q-17,0-34,6.5T294,838q-22,14-37,20t-29,6q-34,0-65-33l-12,12q35,39 78,39q17,0 34-6.5T306,852q22-14 37-20t29-6q18,0 33.5,8T437,859l12-12q-35-39-78-39Z" />
      <glyph unicode="&#xd6;" glyph-name="Odieresis" horiz-adv-x="600" d="M300-12q-55,0-97.5,20.5t-72,64T86,184.5T71,349T86,513.5t44.5,112t72,64T300,710t97.5-20.5t71.5-64t44.5-112T529,349T513.5,184.5T469,72.5t-71.5-64T300-12Zm0,20Q400,8 452.5,85T505,317v64q0,155-52.5,232T300,690T147.5,613T95,381V317q0-155 52.5-232T300,8ZM209,819q-16,0-22.5,6.5T180,842v8q0,10 6.5,16.5T209,873t22.5-6.5T238,850v-8q0-10-6.5-16.5T209,819Zm182,0q-16,0-22.5,6.5T362,842v8q0,10 6.5,16.5T391,873t22.5-6.5T420,850v-8q0-10-6.5-16.5T391,819Z" />
      <glyph unicode="&#xd7;" glyph-name="multiply" horiz-adv-x="600" d="M300,292L119,110l-14,13L287,305L105,487l14,13L300,318L481,500l14-13L313,305L495,123l-14-13L300,292Z" />
      <glyph unicode="&#xd8;" glyph-name="Oslash" horiz-adv-x="600" d="M300-12q-51,0-91,17T140,59L95-17L78-8l50,85q-28,44-42.5,111T71,349q0,96 15,164.5t44.5,112t72,64T300,710q51,0 91-17t69-54l45,76l17-9l-50-85q28-44 42.5-111T529,349q0-96-15.5-164.5T469,72.5t-71.5-64T300-12ZM95,317q0-142 45-220L448,619q-51,71-148,71q-100,0-152.5-77T95,381V317ZM300,8Q400,8 452.5,85T505,317v64q0,142-45,220L152,79Q203,8 300,8Z" />
      <glyph unicode="&#xd9;" glyph-name="Ugrave" horiz-adv-x="600" d="M120,698V273q0-77 8.5-128t29-81.5t55-43T300,8q52,0 87,12.5t55.5,43t29,81.5T480,273V698h22V273q0-82-10-137T458.5,48T396,1.5T300-12T204,1.5T141.5,48T108,136T98,273V698h22Zm82,221l19,12L332,777l-15-10L202,919Z" />
      <glyph unicode="&#xda;" glyph-name="Uacute" horiz-adv-x="600" d="M120,698V273q0-77 8.5-128t29-81.5t55-43T300,8q52,0 87,12.5t55.5,43t29,81.5T480,273V698h22V273q0-82-10-137T458.5,48T396,1.5T300-12T204,1.5T141.5,48T108,136T98,273V698h22Zm162,69l-15,10L378,931l19-12L282,767Z" />
      <glyph unicode="&#xdb;" glyph-name="Ucircumflex" horiz-adv-x="600" d="M120,698V273q0-77 8.5-128t29-81.5t55-43T300,8q52,0 87,12.5t55.5,43t29,81.5T480,273V698h22V273q0-82-10-137T458.5,48T396,1.5T300-12T204,1.5T141.5,48T108,136T98,273V698h22ZM312,923L440,790l-14-11L300,906L174,779l-14,11L288,923h24Z" />
      <glyph unicode="&#xdc;" glyph-name="Udieresis" horiz-adv-x="600" d="M120,698V273q0-77 8.5-128t29-81.5t55-43T300,8q52,0 87,12.5t55.5,43t29,81.5T480,273V698h22V273q0-82-10-137T458.5,48T396,1.5T300-12T204,1.5T141.5,48T108,136T98,273V698h22Zm89,121q-16,0-22.5,6.5T180,842v8q0,10 6.5,16.5T209,873t22.5-6.5T238,850v-8q0-10-6.5-16.5T209,819Zm182,0q-16,0-22.5,6.5T362,842v8q0,10 6.5,16.5T391,873t22.5-6.5T420,850v-8q0-10-6.5-16.5T391,819Z" />
      <glyph unicode="&#xdd;" glyph-name="Yacute" horiz-adv-x="600" d="M289,0V294L28,698H53L299,318h3L548,698h24L311,294V0H289Zm-7,767l-15,10L378,931l19-12L282,767Z" />
      <glyph unicode="&#xde;" glyph-name="Thorn" horiz-adv-x="600" d="M108,0V698h22V543H352q86,0 130-51t44-137T482,218T352,167H130V0H108Zm22,187H352q39,0 67,12.5T465.5,232T493,278.5t9,55.5v42q0,28-9,55t-27.5,47T419,510.5T352,523H130V187Z" />
      <glyph unicode="&#xdf;" glyph-name="germandbls" horiz-adv-x="600" d="M140,0V711q0,29 29,29H386V721H161V516H529V496L302,208q129,0 196-46T565,9q0-105-65-157T308-200H244v19h64q116,0 175,44.5T542-5V26q0,44-16.5,75T478,151.5T403.5,180T306,189H279v20L506,497H161V0H140Z" />
      <glyph unicode="&#xe0;" glyph-name="agrave" horiz-adv-x="600" d="M454,0q-29,0-29,29V77h-3q-19-36-59.5-62.5T249-12q-83,0-127,36.5T78,130q0,31 9.5,58t32,46T180,264t95,11H425v81q0,78-40,115.5T275,509q-55,0-98-23.5T112,410L95,420q22,50 66.5,79T275,528q81,0 126-44t45-125V19h85V0H454ZM249,7q35,0 67,9t56,26.5t38.5,44T425,148V257H276q-95,0-135-31t-40-80V114q0-52 41-79.5T249,7ZM178,749l19,12L308,607l-15-10L178,749Z" />
      <glyph unicode="&#xe1;" glyph-name="aacute" horiz-adv-x="600" d="M454,0q-29,0-29,29V77h-3q-19-36-59.5-62.5T249-12q-83,0-127,36.5T78,130q0,31 9.5,58t32,46T180,264t95,11H425v81q0,78-40,115.5T275,509q-55,0-98-23.5T112,410L95,420q22,50 66.5,79T275,528q81,0 126-44t45-125V19h85V0H454ZM249,7q35,0 67,9t56,26.5t38.5,44T425,148V257H276q-95,0-135-31t-40-80V114q0-52 41-79.5T249,7Zm9,590l-15,10L354,761l19-12L258,597Z" />
      <glyph unicode="&#xe2;" glyph-name="acircumflex" horiz-adv-x="600" d="M454,0q-29,0-29,29V77h-3q-19-36-59.5-62.5T249-12q-83,0-127,36.5T78,130q0,31 9.5,58t32,46T180,264t95,11H425v81q0,78-40,115.5T275,509q-55,0-98-23.5T112,410L95,420q22,50 66.5,79T275,528q81,0 126-44t45-125V19h85V0H454ZM249,7q35,0 67,9t56,26.5t38.5,44T425,148V257H276q-95,0-135-31t-40-80V114q0-52 41-79.5T249,7Zm39,746L416,620l-14-11L276,736L150,609l-14,11L264,753h24Z" />
      <glyph unicode="&#xe3;" glyph-name="atilde" horiz-adv-x="600" d="M454,0q-29,0-29,29V77h-3q-19-36-59.5-62.5T249-12q-83,0-127,36.5T78,130q0,31 9.5,58t32,46T180,264t95,11H425v81q0,78-40,115.5T275,509q-55,0-98-23.5T112,410L95,420q22,50 66.5,79T275,528q81,0 126-44t45-125V19h85V0H454ZM249,7q35,0 67,9t56,26.5t38.5,44T425,148V257H276q-95,0-135-31t-40-80V114q0-52 41-79.5T249,7Zm98,631q-17,0-34,6.5T270,668q-22,14-37,20t-29,6q-34,0-65-33l-12,12q35,39 78,39q17,0 34-6.5T282,682q22-14 37-20t29-6q18,0 33.5,8T413,689l12-12q-35-39-78-39Z" />
      <glyph unicode="&#xe4;" glyph-name="adieresis" horiz-adv-x="600" d="M454,0q-29,0-29,29V77h-3q-19-36-59.5-62.5T249-12q-83,0-127,36.5T78,130q0,31 9.5,58t32,46T180,264t95,11H425v81q0,78-40,115.5T275,509q-55,0-98-23.5T112,410L95,420q22,50 66.5,79T275,528q81,0 126-44t45-125V19h85V0H454ZM249,7q35,0 67,9t56,26.5t38.5,44T425,148V257H276q-95,0-135-31t-40-80V114q0-52 41-79.5T249,7ZM185,649q-16,0-22.5,6.5T156,672v8q0,10 6.5,16.5T185,703t22.5-6.5T214,680v-8q0-10-6.5-16.5T185,649Zm182,0q-16,0-22.5,6.5T338,672v8q0,10 6.5,16.5T367,703t22.5-6.5T396,680v-8q0-10-6.5-16.5T367,649Z" />
      <glyph unicode="&#xe5;" glyph-name="aring" horiz-adv-x="600" d="M454,0q-29,0-29,29V77h-3q-19-36-59.5-62.5T249-12q-83,0-127,36.5T78,130q0,31 9.5,58t32,46T180,264t95,11H425v81q0,78-40,115.5T275,509q-55,0-98-23.5T112,410L95,420q22,50 66.5,79T275,528q81,0 126-44t45-125V19h85V0H454ZM249,7q35,0 67,9t56,26.5t38.5,44T425,148V257H276q-95,0-135-31t-40-80V114q0-52 41-79.5T249,7Zm27,592q-41,0-65.5,25T186,690t24.5,66T276,781t65.5-25T366,690t-24.5-66T276,599Zm0,18q32,0 51,18.5T346,685v10q0,31-19,49.5T276,763t-51-18.5T206,695V685q0-31 19-49.5T276,617Z" />
      <glyph unicode="&#xe6;" glyph-name="ae" horiz-adv-x="600" d="M157-12Q97-12 60.5,27T24,135q0,76 46.5,108T205,275h81v88q0,40-8.5,68T254,476t-35,25t-44,8q-26,0-46-8T93.5,480.5T67,452T49,421l-17,8q9,19 21.5,37T84,497.5t40.5,22T176,528q48,0 82-27t44-90h3q18,63 50.5,90T436,528q62,0 100.5-50.5T575,313V258H306V240q0-66 10-110.5t26.5-72t39-39T430,7q42,0 72.5,28.5T550,122l19-5q-8-27-20.5-50.5T519,25.5T479.5-2T429-12q-46,0-81,31T299,121h-3q-8-61-44.5-97T157-12Zm1,19q30,0 53.5,11.5t40,32.5T277,100.5t9,63.5v94H205q-81,0-120-26.5T46,142V124q0-52 30.5-84.5T158,7ZM436,509q-60,0-95-50T306,298V275H554v38q0,57-9,94.5t-25,60t-37.5,32T436,509Z" />
      <glyph unicode="&#xe7;" glyph-name="ccedilla" horiz-adv-x="600" d="M322,528q68,0 112.5-31.5T496,416l-19-6q-19,48-58.5,73.5T322,509q-91,0-140-60.5T133,282V234q0-106 49-166.5T322,7q60,0 101,28t62,75l18-8q-10-23-26.5-44t-39-36.5T386.5-3T324-12L309-73l2-2q7,2 15,2.5T341-72q29,0 48-16t19-43q0-29-22-50t-60-21q-29,0-50.5,9.5T245-170l13,13q22-27 68-27q27,0 44,13t17,39q0,19-13.5,31.5T326-86l-37,2l17,72Q213-7 161.5,60.5T110,258q0,135 56,202.5T322,528Z" />
      <glyph unicode="&#xe8;" glyph-name="egrave" horiz-adv-x="600" d="M306-12Q204-12 148,55.5T92,258t55,202.5T302,528q51,0 90.5-18.5T458,457t39.5-82T511,267v-7H115V234q0-106 49-166.5T306,7q65,0 110.5,30.5T485,131l18-7q-23-63-72.5-99.5T306-12Zm-4,521q-91,0-139-60.5T115,282v-4H489v4q0,106-48,166.5T302,509ZM204,749l19,12L334,607l-15-10L204,749Z" />
      <glyph unicode="&#xe9;" glyph-name="eacute" horiz-adv-x="600" d="M306-12Q204-12 148,55.5T92,258t55,202.5T302,528q51,0 90.5-18.5T458,457t39.5-82T511,267v-7H115V234q0-106 49-166.5T306,7q65,0 110.5,30.5T485,131l18-7q-23-63-72.5-99.5T306-12Zm-4,521q-91,0-139-60.5T115,282v-4H489v4q0,106-48,166.5T302,509Zm-18,88l-15,10L380,761l19-12L284,597Z" />
      <glyph unicode="&#xea;" glyph-name="ecircumflex" horiz-adv-x="600" d="M306-12Q204-12 148,55.5T92,258t55,202.5T302,528q51,0 90.5-18.5T458,457t39.5-82T511,267v-7H115V234q0-106 49-166.5T306,7q65,0 110.5,30.5T485,131l18-7q-23-63-72.5-99.5T306-12Zm-4,521q-91,0-139-60.5T115,282v-4H489v4q0,106-48,166.5T302,509Zm12,244L442,620l-14-11L302,736L176,609l-14,11L290,753h24Z" />
      <glyph unicode="&#xeb;" glyph-name="edieresis" horiz-adv-x="600" d="M306-12Q204-12 148,55.5T92,258t55,202.5T302,528q51,0 90.5-18.5T458,457t39.5-82T511,267v-7H115V234q0-106 49-166.5T306,7q65,0 110.5,30.5T485,131l18-7q-23-63-72.5-99.5T306-12Zm-4,521q-91,0-139-60.5T115,282v-4H489v4q0,106-48,166.5T302,509ZM211,649q-16,0-22.5,6.5T182,672v8q0,10 6.5,16.5T211,703t22.5-6.5T240,680v-8q0-10-6.5-16.5T211,649Zm182,0q-16,0-22.5,6.5T364,672v8q0,10 6.5,16.5T393,703t22.5-6.5T422,680v-8q0-10-6.5-16.5T393,649Z" />
      <glyph unicode="&#xec;" glyph-name="igrave" horiz-adv-x="600" d="M117,19H322V497H117v19H343V19H535V0H117V19ZM234,749l19,12L364,607l-15-10L234,749Z" />
      <glyph unicode="&#xed;" glyph-name="iacute" horiz-adv-x="600" d="M117,19H322V497H117v19H343V19H535V0H117V19ZM314,597l-15,10L410,761l19-12L314,597Z" />
      <glyph unicode="&#xee;" glyph-name="icircumflex" horiz-adv-x="600" d="M117,19H322V497H117v19H343V19H535V0H117V19ZM344,753L472,620l-14-11L332,736L206,609l-14,11L320,753h24Z" />
      <glyph unicode="&#xef;" glyph-name="idieresis" horiz-adv-x="600" d="M117,19H322V497H117v19H343V19H535V0H117V19ZM241,649q-16,0-22.5,6.5T212,672v8q0,10 6.5,16.5T241,703t22.5-6.5T270,680v-8q0-10-6.5-16.5T241,649Zm182,0q-16,0-22.5,6.5T394,672v8q0,10 6.5,16.5T423,703t22.5-6.5T452,680v-8q0-10-6.5-16.5T423,649Z" />
      <glyph unicode="&#xf0;" glyph-name="eth" horiz-adv-x="600" d="M434,738L324,658q36-32 69.5-73T453,493t41.5-112T510,248q0-62-15-110.5T452,56T385.5,5.5T300-12T214.5,5.5T148,56t-43,81.5T90,248t15,110.5T148,440t66.5,50.5T300,508q52,0 92.5-22T461,423l3,2q-35,78-72.5,130T309,647L204,572l-10,14l102,72q-27,23-56.5,42.5T178,740h36q22-14 47-31t50-39l113,82l10-14ZM300,7q41,0 75.5,15t59,43.5t38.5,69T487,226v44q0,51-14,91.5t-38.5,69t-59,43.5T300,489t-75.5-15t-59-43.5t-38.5-69T113,270V226q0-51 14-91.5t38.5-69t59-43.5T300,7Z" />
      <glyph unicode="&#xf1;" glyph-name="ntilde" horiz-adv-x="600" d="M127,0V516h21V442h3q13,33 51.5,59.5T309,528q86,0 130-49t44-143V0H462V333q0,93-40.5,134.5T306,509q-31,0-59.5-8.5T196,475t-35-43t-13-60V0H127ZM376,638q-17,0-34,6.5T299,668q-22,14-37,20t-29,6q-34,0-65-33l-12,12q35,39 78,39q17,0 34-6.5T311,682q22-14 37-20t29-6q18,0 33.5,8T442,689l12-12q-35-39-78-39Z" />
      <glyph unicode="&#xf2;" glyph-name="ograve" horiz-adv-x="600" d="M300-12Q200-12 145,55.5T90,258t55,202.5T300,528t155-67.5T510,258T455,55.5T300-12Zm0,19q91,0 139,60.5T487,234v48q0,106-48,166.5T300,509T161,448.5T113,282V234q0-106 48-166.5T300,7ZM202,749l19,12L332,607l-15-10L202,749Z" />
      <glyph unicode="&#xf3;" glyph-name="oacute" horiz-adv-x="600" d="M300-12Q200-12 145,55.5T90,258t55,202.5T300,528t155-67.5T510,258T455,55.5T300-12Zm0,19q91,0 139,60.5T487,234v48q0,106-48,166.5T300,509T161,448.5T113,282V234q0-106 48-166.5T300,7ZM282,597l-15,10L378,761l19-12L282,597Z" />
      <glyph unicode="&#xf4;" glyph-name="ocircumflex" horiz-adv-x="600" d="M300-12Q200-12 145,55.5T90,258t55,202.5T300,528t155-67.5T510,258T455,55.5T300-12Zm0,19q91,0 139,60.5T487,234v48q0,106-48,166.5T300,509T161,448.5T113,282V234q0-106 48-166.5T300,7Zm12,746L440,620l-14-11L300,736L174,609l-14,11L288,753h24Z" />
      <glyph unicode="&#xf5;" glyph-name="otilde" horiz-adv-x="600" d="M300-12Q200-12 145,55.5T90,258t55,202.5T300,528t155-67.5T510,258T455,55.5T300-12Zm0,19q91,0 139,60.5T487,234v48q0,106-48,166.5T300,509T161,448.5T113,282V234q0-106 48-166.5T300,7Zm71,631q-17,0-34,6.5T294,668q-22,14-37,20t-29,6q-34,0-65-33l-12,12q35,39 78,39q17,0 34-6.5T306,682q22-14 37-20t29-6q18,0 33.5,8T437,689l12-12q-35-39-78-39Z" />
      <glyph unicode="&#xf6;" glyph-name="odieresis" horiz-adv-x="600" d="M300-12Q200-12 145,55.5T90,258t55,202.5T300,528t155-67.5T510,258T455,55.5T300-12Zm0,19q91,0 139,60.5T487,234v48q0,106-48,166.5T300,509T161,448.5T113,282V234q0-106 48-166.5T300,7ZM209,649q-16,0-22.5,6.5T180,672v8q0,10 6.5,16.5T209,703t22.5-6.5T238,680v-8q0-10-6.5-16.5T209,649Zm182,0q-16,0-22.5,6.5T362,672v8q0,10 6.5,16.5T391,703t22.5-6.5T420,680v-8q0-10-6.5-16.5T391,649Z" />
      <glyph unicode="&#xf7;" glyph-name="divide" horiz-adv-x="600" d="M62,296v19H538V296H62ZM300,81q-34,0-34,27v8q0,27 34,27t34-27v-8q0-27-34-27Zm0,387q-34,0-34,27v8q0,27 34,27t34-27v-8q0-27-34-27Z" />
      <glyph unicode="&#xf8;" glyph-name="oslash" horiz-adv-x="600" d="M67-15l69,84Q90,138 90,258q0,135 55,202.5T300,528q99,0 153-67l66,81l14-11l-69-84q46-69 46-189q0-135-55-202.5T300-12q-99,0-153,67L81-26L67-15ZM300,509q-91,0-139-60.5T113,282V234q0-91 36-148L440,445q-24,31-58.5,47.5T300,509ZM300,7q91,0 139,60.5T487,234v48q0,91-36,148L160,71q24-31 58.5-47.5T300,7Z" />
      <glyph unicode="&#xf9;" glyph-name="ugrave" horiz-adv-x="600" d="M452,74h-3q-7-17-19.5-32.5T397.5,14t-46-19T291-12q-86,0-130,49T117,180V516h21V183q0-93 40.5-134.5T294,7q31,0 59.5,8.5T404,41t35,42.5T452,144V516h21V0H452V74ZM199,749l19,12L329,607l-15-10L199,749Z" />
      <glyph unicode="&#xfa;" glyph-name="uacute" horiz-adv-x="600" d="M452,74h-3q-7-17-19.5-32.5T397.5,14t-46-19T291-12q-86,0-130,49T117,180V516h21V183q0-93 40.5-134.5T294,7q31,0 59.5,8.5T404,41t35,42.5T452,144V516h21V0H452V74ZM279,597l-15,10L375,761l19-12L279,597Z" />
      <glyph unicode="&#xfb;" glyph-name="ucircumflex" horiz-adv-x="600" d="M452,74h-3q-7-17-19.5-32.5T397.5,14t-46-19T291-12q-86,0-130,49T117,180V516h21V183q0-93 40.5-134.5T294,7q31,0 59.5,8.5T404,41t35,42.5T452,144V516h21V0H452V74ZM309,753L437,620l-14-11L297,736L171,609l-14,11L285,753h24Z" />
      <glyph unicode="&#xfc;" glyph-name="udieresis" horiz-adv-x="600" d="M452,74h-3q-7-17-19.5-32.5T397.5,14t-46-19T291-12q-86,0-130,49T117,180V516h21V183q0-93 40.5-134.5T294,7q31,0 59.5,8.5T404,41t35,42.5T452,144V516h21V0H452V74ZM206,649q-16,0-22.5,6.5T177,672v8q0,10 6.5,16.5T206,703t22.5-6.5T235,680v-8q0-10-6.5-16.5T206,649Zm182,0q-16,0-22.5,6.5T359,672v8q0,10 6.5,16.5T388,703t22.5-6.5T417,680v-8q0-10-6.5-16.5T388,649Z" />
      <glyph unicode="&#xfd;" glyph-name="yacute" horiz-adv-x="600" d="M495,516h22L227-181q-9-19-31-19H94v19H205L289,19L83,516h23L299,49h3L495,516ZM280,597l-15,10L376,761l19-12L280,597Z" />
      <glyph unicode="&#xfe;" glyph-name="thorn" horiz-adv-x="600" d="M125,740h21V438h3q8,16 21.5,32t34,29t47,21t61.5,8q46,0 84-15.5t65.5-48T505,381t15-123T505,135T462.5,51.5T397,3.5T313-12q-35,0-61.5,8t-47,21t-34,29T149,78h-3V-200H125V740ZM311,7q83,0 134.5,56.5T497,230v56q0,110-51,166.5T311,509q-33,0-62.5-10T196,471t-36.5-43T146,373V143q0-30 13.5-55T196,45t52.5-28T311,7Z" />
      <glyph unicode="&#xff;" glyph-name="ydieresis" horiz-adv-x="600" d="M495,516h22L227-181q-9-19-31-19H94v19H205L289,19L83,516h23L299,49h3L495,516ZM207,649q-16,0-22.5,6.5T178,672v8q0,10 6.5,16.5T207,703t22.5-6.5T236,680v-8q0-10-6.5-16.5T207,649Zm182,0q-16,0-22.5,6.5T360,672v8q0,10 6.5,16.5T389,703t22.5-6.5T418,680v-8q0-10-6.5-16.5T389,649Z" />
      <glyph unicode="&#x2013;" glyph-name="endash" horiz-adv-x="600" d="M60,296v19H540V296H60Z" />
      <glyph unicode="&#x2014;" glyph-name="emdash" horiz-adv-x="600" d="M0,296v19H600V296H0Z" />
      <glyph unicode="&#x2018;" glyph-name="quoteleft" horiz-adv-x="600" d="M321,740h17L285,490H242l79,250Z" />
      <glyph unicode="&#x2019;" glyph-name="quoteright" horiz-adv-x="600" d="M315,740h43L279,490H262l53,250Z" />
      <glyph unicode="&#x201a;" glyph-name="quotesinglbase" horiz-adv-x="600" d="M283,78h43L247-172H230L283,78Z" />
      <glyph unicode="&#x201c;" glyph-name="quotedblleft" horiz-adv-x="600" d="M240,740h17L204,490H161l79,250Zm163,0h17L367,490H324l79,250Z" />
      <glyph unicode="&#x201d;" glyph-name="quotedblright" horiz-adv-x="600" d="M234,740h43L198,490H181l53,250Zm163,0h43L361,490H344l53,250Z" />
      <glyph unicode="&#x201e;" glyph-name="quotedblbase" horiz-adv-x="600" d="M202,78h43L166-172H149L202,78Zm163,0h43L329-172H312L365,78Z" />
      <glyph unicode="&#x2022;" glyph-name="bullet" horiz-adv-x="600" d="M300,218q-47,0-66.5,21.5T214,293v22q0,32 19.5,53.5T300,390t66.5-21.5T386,315V293q0-32-19.5-53.5T300,218Z" />
      <glyph unicode="&#x2039;" glyph-name="guilsinglleft" horiz-adv-x="600" d="M382,76L168,258v20L382,460l9-15L191,268L391,91l-9-15Z" />
      <glyph unicode="&#x203a;" glyph-name="guilsinglright" horiz-adv-x="600" d="M209,91L409,268L209,445l9,15L432,278V258L218,76l-9,15Z" />
    </font>
</defs>
</svg>
