<?xml version="1.0" standalone="no"?>
<!DOCTYPE svg PUBLIC "-//W3C//DTD SVG 1.1//EN" "http://www.w3.org/Graphics/SVG/1.1/DTD/svg11.dtd">
<svg xmlns="http://www.w3.org/2000/svg">
  <defs>
    <font id="IBMPlexMono" horiz-adv-x="600">
      <font-face font-family="IBM Plex Mono Light" units-per-em="1000" panose-1="2 11 4 9 5 2 3 0 2 3" ascent="1025" descent="-275" alphabetic="0" />
      <glyph unicode=" " glyph-name="space" horiz-adv-x="600" />
      <glyph unicode="!" glyph-name="exclam" horiz-adv-x="600" d="M280,211l24,253l39,234h61L365,464L304,211H280ZM257-7Q229-7 217.5,3T206,29q0,10 3,25q4,21 19,33.5T273,100q28,0 39.5-10T324,64q0-10-3-25q-4-21-19-33.5T257-7Z" />
      <glyph unicode="&quot;" glyph-name="quotedbl" horiz-adv-x="600" d="M231,474l44,266h55L285,474H231Zm157,0l44,266h55L442,474H388Z" />
      <glyph unicode="#" glyph-name="numbersign" horiz-adv-x="600" d="M157,226H15l8,46H173l52,154H84l8,46H241l77,226h53L133,0H80l77,226ZM498,698h53L474,472H616l-8-46H458L406,272H547l-8-46H390L313,0H260L498,698Z" />
      <glyph unicode="$" glyph-name="dollar" horiz-adv-x="600" d="M230-10Q155-2 106,29.5T28,108l45,35q29-45 67-70.5T238,41l49,295l-23,6Q110,376 110,509q0,47 17,84t48,63t74,39.5T344,710h6l17,101h44L393,708q72-8 116-36.5T577,601l-43-31q-25,39-60.5,60.5T385,657L338,379l30-6q81-19 118-61t37-106q0-49-17-88.5t-49-68T380,5T279-12h-5L257-113H213L230-10ZM170,512q0-51 28.5-78.5T285,392l12-3l44,270h-5q-77-3-121.5-40.5T170,512ZM463,201q0,50-28,79t-93,43l-13,3L282,40h5q82,4 129,46.5T463,201Z" />
      <glyph unicode="%" glyph-name="percent" horiz-adv-x="600" d="M194,365q-55,0-89.5,34.5T70,500q0,51 14,90t37,65.5T175,696t65,14q55,0 89.5-34.5T364,575q0-51-14-90t-37-65.5T259,379t-65-14Zm2,39q44,0 73,27.5T307,514q3,18 5,30t3,19.5t1.5,12.5t0.5,9q0,44-21.5,65T238,671q-44,0-73-27.5T127,561q-3-18-5-30t-3-19.5T117.5,499t-0.5-9q0-44 21.5-65T196,404ZM599,698h53L435,398H382L599,698ZM196,300h53L32,0H-20L196,300ZM392-12q-55,0-89.5,34.5T268,123q0,51 14,90t37,65.5T373,319t65,14q55,0 89.5-34.5T562,198q0-51-14-90T511,42.5T457,2T392-12Zm2,39q44,0 73,27.5T505,137q3,18 5,30t3,19.5t1.5,12.5t0.5,9q0,44-21.5,65T436,294q-44,0-73-27.5T325,184q-3-18-5-30t-3-19.5T315.5,122t-0.5-9q0-44 21.5-65T394,27Z" />
      <glyph unicode="&amp;" glyph-name="ampersand" horiz-adv-x="600" d="M169-12Q130-12 99.5,1.5T48,38.5T16.5,94T6,164q0,41 9.5,79t32,68T107,361t92,25q-14,25-23,45.5t-15,38t-8.5,34T150,537q0,42 13.5,74.5t36.5,54t55,33T324,710q69,0 114.5-40T484,550q0-50-14-88.5T430.5,396T369,352t-79-25L452,39h12l85,136l39-21L530,53Q510,18 494.5,3T457-12q-20,0-35,9T393,33L337,138h-4q-7-44-23-72.5t-38-46T223.5-5T169-12Zm8,49q54,0 91.5,31.5T318,166L215,356q-38-5-63.5-16.5t-42-28T84,274T71,229q-5-24-6-38t-1-25q0-62 28-95.5T177,37ZM320,663q-49,0-81.5-29T206,538q0-16 2.5-32t8.5-34.5T233.5,431T260,382l15-26q57,13 93.5,41.5T417,476q7,26 9,43.5t2,28.5q0,60-29.5,87.5T320,663Z" />
      <glyph unicode="&apos;" glyph-name="quotesingle" horiz-adv-x="600" d="M309,474l44,266h55L363,474H309Z" />
      <glyph unicode="(" glyph-name="parenleft" horiz-adv-x="600" d="M218,222q0,88 24,169t63.5,150.5t91,125T504,760h62q-50-34-96-78t-84-96T321.5,475.5T284,354l-10-66q-4-20-5.5-39.5T267,209q0-108 41.5-195T416-138H361q-30,29-56,67T259.5,13T229,111.5T218,222Z" />
      <glyph unicode=")" glyph-name="parenright" horiz-adv-x="600" d="M401,400q0-88-24-169T313.5,80.5T222-44.5T115-138H53q50,34 96,78t84,96t64.5,110.5T335,268l10,66q4,20 5.5,39.5T352,413q0,108-41.5,195T203,760h55q30-29 56-67t45.5-84T390,510.5T401,400Z" />
      <glyph unicode="*" glyph-name="asterisk" horiz-adv-x="600" d="M131,53L92,85L260,272L59,343l22,43l203-68l39,230h52L336,319l222,68l8-47L342,269L448,82L405,53L299,243L131,53Z" />
      <glyph unicode="+" glyph-name="plus" horiz-adv-x="600" d="M240,62l37,219H67l8,48H285l37,219h53L338,329H548l-8-48H330L293,62H240Z" />
      <glyph unicode="," glyph-name="comma" horiz-adv-x="600" d="M243,113h94L194-153H146l97,266Z" />
      <glyph unicode="-" glyph-name="hyphen" horiz-adv-x="600" d="M164,275l10,58H451l-10-58H164Z" />
      <glyph unicode="." glyph-name="period" horiz-adv-x="600" d="M257-7Q229-7 217.5,3T206,29q0,10 3,25q4,21 19,33.5T273,100q28,0 39.5-10T324,64q0-10-3-25q-4-21-19-33.5T257-7Z" />
      <glyph unicode="/" glyph-name="slash" horiz-adv-x="600" d="M29-138L532,760h53L82-138H29Z" />
      <glyph unicode="0" glyph-name="zero" horiz-adv-x="600" d="M262-12Q67-12 67,223q0,50 6,105.5t20.5,110t37,103.5t56,86.5T265,688t103,22q195,0 195-235q0-50-6-105.5t-20.5-110T499.5,156t-56-86.5T365,10T262-12Zm3,52q87,0 142,68t75,190l16,93q4,26 5.5,49.5T505,484q0,85-33,129.5T365,658q-87,0-142-68T148,400l-16-93q-4-26-5.5-49.5T125,214q0-85 33-129.5T265,40Zm43,264q-23,0-33,8.5T265,333q0,7 3,22q3,18 15,28.5T322,394q23,0 33-8.5T365,365q0-7-3-22q-3-18-15-28.5T308,304Z" />
      <glyph unicode="1" glyph-name="one" horiz-adv-x="600" d="M45,0l9,52H261L362,654h-6L136,483l-29,39L332,698h96L320,52H515L506,0H45Z" />
      <glyph unicode="2" glyph-name="two" horiz-adv-x="600" d="M487,0H35L45,61L334,298q36,29 61.5,53.5t42,47.5t26,46T478,495q3,18 4,27.5t1,17.5q0,52-34.5,85.5T348,659q-68,0-109.5-34T171,531l-51,20q29,72 85.5,115.5T354,710q45,0 80.5-13t60-35.5t37-53.5T544,540q0-41-11-76t-33-68.5t-55-66T369,262L109,52H496L487,0Z" />
      <glyph unicode="3" glyph-name="three" horiz-adv-x="600" d="M297,391q76,0 121.5,33T475,516q2,13 3,21.5t1,15.5q0,50-35.5,78T349,659q-63,0-103-25.5T179,565l-41,32q32,49 83.5,81T355,710q40,0 74.5-10.5t59-30t38.5-48T541,556q0-72-43-122T375,368l-1-4q53-8 88.5-47T498,214q0-49-17.5-90.5T430.5,52T351,5T246-12q-44,0-78,9T108.5,21.5t-44,37T33,105l48,29q22-44 61-69.5T252,39q76,0 123,35.5T433,176q2,16 3,25.5t1,17.5q0,57-36,89.5T293,341H205l9,50h83Z" />
      <glyph unicode="4" glyph-name="four" horiz-adv-x="600" d="M349,0l25,146H21l9,55L444,698h78L438,195H547l-8-49H430L405,0H349ZM85,195H382l74,440h-4L85,195Z" />
      <glyph unicode="5" glyph-name="five" horiz-adv-x="600" d="M556,646H241L171,353l4-1q32,36 68,54.5T333,425q86,0 135-47.5T517,248q0-55-17-102.5T450,63T369,8T258-12q-75,0-128,32.5T52,102l50,32q23-46 62-70T264,40q81,0 127.5,40.5T450,193q4,20 4.5,30.5T455,245q0,60-35.5,95T314,375q-54,0-87-17t-64-46l-51,7l88,379H564l-8-52Z" />
      <glyph unicode="6" glyph-name="six" horiz-adv-x="600" d="M263-12q-96,0-145.5,54.5T68,189q0,82 29.5,158T175,489T284.5,608T410,698h81q-68-42-121.5-83T274,529t-73.5-96T145,321l5-2q32,52 80.5,80T343,427q83,0 133-48t50-131q0-53-18.5-100T455,65.5T372.5,9T263-12Zm6,50q78,0 128.5,43.5T461,198q2,17 3.5,27.5T466,246q0,61-36,96.5T323,378q-78,0-128.5-43.5T131,218q-2-17-3.5-27.5T126,170q0-61 36-96.5T269,38Z" />
      <glyph unicode="7" glyph-name="seven" horiz-adv-x="600" d="M136,0L524,646H187L162,503H109l33,195H595l-8-52L201,0H136Z" />
      <glyph unicode="8" glyph-name="eight" horiz-adv-x="600" d="M258-12Q154-12 101,35.5T48,158q0,78 47.5,133T228,365v7q-48,15-74,50t-26,86q0,41 16.5,78t48,64.5T269,694t103,16q92,0 141.5-41.5T563,557q0-66-40.5-117T410,369v-6q57-16 87.5-54T528,207q0-46-18.5-86t-53-69.5T372,5T258-12Zm8,50q83,0 134.5,38T463,177q3,18 4,27t1,18q0,56-40.5,88.5T312,343q-83,0-134.5-38T115,204q-3-18-4-27t-1-18q0-56 40.5-88.5T266,38Zm60,353q74,0 119.5,33.5T500,514q2,15 2.5,23.5T503,553q0,51-36.5,79T364,660q-74,0-119.5-33.5T190,537q-2-15-2.5-23.5T187,498q0-51 36.5-79T326,391Z" />
      <glyph unicode="9" glyph-name="nine" horiz-adv-x="600" d="M553,509q0-82-29.5-158T446,209T336.5,90T211,0H130q68,42 121.5,83T347,169t73.5,95.5T476,377l-5,2q-32-52-80.5-80T278,271q-83,0-133,48T95,450q0,52 18.5,99.5t52.5,83T248.5,689T358,710q96,0 145.5-54.5T553,509ZM298,320q78,0 128.5,43.5T490,480q2,17 3.5,27.5T495,528q0,61-36,96.5T352,660q-78,0-128.5-43.5T160,500q-2-17-3.5-27.5T155,452q0-61 36-96.5T298,320Z" />
      <glyph unicode=":" glyph-name="colon" horiz-adv-x="600" d="M257-7Q229-7 217.5,3T206,29q0,10 3,25q4,21 19,33.5T273,100q28,0 39.5-10T324,64q0-10-3-25q-4-21-19-33.5T257-7Zm70,424q-28,0-39.5,10T276,453q0,10 3,25q4,21 19,33.5T343,524q28,0 39.5-10T394,488q0-10-3-25q-4-21-19-33.5T327,417Z" />
      <glyph unicode=";" glyph-name="semicolon" horiz-adv-x="600" d="M243,113h94L194-153H146l97,266Zm84,304q-28,0-39.5,10T276,453q0,10 3,25q4,21 19,33.5T343,524q28,0 39.5-10T394,488q0-10-3-25q-4-21-19-33.5T327,417Z" />
      <glyph unicode="&lt;" glyph-name="less" horiz-adv-x="600" d="M89,279l9,53L568,585l-10-62L148,305l-1-6L484,81l-9-54L89,279Z" />
      <glyph unicode="=" glyph-name="equal" horiz-adv-x="600" d="M84,377l8,48H564l-8-48H84ZM52,187l8,48H532l-8-48H52Z" />
      <glyph unicode="&gt;" glyph-name="greater" horiz-adv-x="600" d="M59,89L469,307l1,5L132,531l10,54L528,333l-9-53L49,27L59,89Z" />
      <glyph unicode="?" glyph-name="question" horiz-adv-x="600" d="M241,200l27,163q107,11 157.5,45.5T487,512q2,10 2.5,21t0.5,15q0,51-34,81t-95,30q-69,0-109.5-34.5T188,533l-51,21q13,33 33,61.5T218,665t65,33t83,12q87,0 136-44t49-119q0-98-63.5-155.5T317,321L297,200H241ZM237-7Q209-7 197.5,3T186,29q0,10 3,25q4,21 19,33.5T253,100q28,0 39.5-10T304,64q0-10-3-25q-4-21-19-33.5T237-7Z" />
      <glyph unicode="@" glyph-name="at" horiz-adv-x="600" d="M410-110H285q-60,0-101.5,16T116-46.5t-37.5,78T67,138q0,38 5,84.5T86,325q17,103 41,176.5T185,621t78,67.5T364,710q49,0 84.5-13.5T507,659t33.5-57T551,531q0-17-1.5-33.5T546,463L485,93H434l14,82h-4q-17-38-45-65.5T326,82q-51,0-79,35T219,227q0,37 7,72t16,67q39,138 146,138q42,0 66.5-21.5T486,428h4l5,34q6,33 6,65q0,64-31,101T362,665q-41,0-74.5-16T227,597.5t-47.5-93T146,365L128,255q-5-32-8-69t-3-60q0-45 8.5-80.5t28-59.5T206-51t82-13H417l-7-46ZM345,125q22,0 41,11.5T420,168q33,41 42,93l17,107q6,36-13,64.5T398,461q-45,0-73.5-32.5T284,322l-8-49q-2-15-3.5-28T271,221q0-51 19.5-73.5T345,125Z" />
      <glyph unicode="A" glyph-name="A" horiz-adv-x="600" d="M458,0L428,213H163L61,0H-2L335,698h79L519,0H458ZM368,637h-7L185,265H421L368,637Z" />
      <glyph unicode="B" glyph-name="B" horiz-adv-x="600" d="M167,698H384q80,0 121.5-41.5T547,542q0-69-34-116t-96-64v-3q48-13 76.5-46.5T522,220q0-47-15-87.5t-42.5-70T398,16.5T310,0H51L167,698ZM300,52q66,0 105.5,30T454,167l5,31q2,10 3,18.5t1,17.5q0,44-29.5,72T345,334H165L118,52H300Zm40,331q62,0 97,29.5T480,491l5,31q2,10 2,16.5t0,14.5q0,45-28,69t-83,24H217L173,383H340Z" />
      <glyph unicode="C" glyph-name="C" horiz-adv-x="600" d="M284-12Q184-12 133.5,49T83,232q0,48 6.5,102t21,107T148,543t57,86t79,59t103,22q44,0 76-12t53.5-33t35-48.5T572,559l-53-17q-6,25-16,46.5t-26,37t-38.5,24T383,658q-87,0-143.5-68.5T163,398l-14-82q-5-26-6.5-50T141,219q0-85 36.5-132T290,40q62,0 102.5,34.5T472,180l47-24Q477,74 423,31T284-12Z" />
      <glyph unicode="D" glyph-name="D" horiz-adv-x="600" d="M175,698H343q51,0 91.5-16T503,636.5T545.5,565T560,471q0-110-19.5-197T482,126T385.5,32.5T253,0H59L175,698ZM257,52q89,0 146.5,60.5T481,293l13,81q5,23 6.5,48t1.5,48q0,86-43,131T337,646H225L126,52H257Z" />
      <glyph unicode="E" glyph-name="E" horiz-adv-x="600" d="M54,0L170,698H590l-8-52H220L176,380H525l-9-52H168L122,52H483L475,0H54Z" />
      <glyph unicode="F" glyph-name="F" horiz-adv-x="600" d="M54,0L170,698H598l-9-52H220L176,380H516l-9-52H168L113,0H54Z" />
      <glyph unicode="G" glyph-name="G" horiz-adv-x="600" d="M439,102h-5q-14-23-30-44T368,21.5T321.5-3T261-12q-92,0-139,60T75,232q0,48 6,102t20,107t36.5,102t56,86T272,688t103,22q45,0 77.5-12T508,665t37-48.5T566,559l-53-17q-6,25-16.5,46.5t-27,37t-39.5,24T374,658q-90,0-144.5-69.5T155,397l-14-81q-5-26-6-51t-1-42q0-88 33-136.5T277,38q37,0 67,13.5t53,37T435.5,144T457,213l12,72H310l8,48H532L476,0H421l18,102Z" />
      <glyph unicode="H" glyph-name="H" horiz-adv-x="600" d="M465,328H159L104,0H45L161,698h59L168,380H473l53,318h59L469,0H410l55,328Z" />
      <glyph unicode="I" glyph-name="I" horiz-adv-x="600" d="M44,0l8,48H236L337,650H153l8,48H587l-8-48H395L294,48H478L470,0H44Z" />
      <glyph unicode="J" glyph-name="J" horiz-adv-x="600" d="M546,698L459,177Q443,82 386,35T243-12q-78,0-125.5,39.5T64,139l56,11q5-50 34.5-80T244,40q133,0 159,154l76,452H214l9,52H546Z" />
      <glyph unicode="K" glyph-name="K" horiz-adv-x="600" d="M286,361L149,228L111,0H52L168,698h59L163,316h4L310,456L560,698h74L329,402L519,0H455L286,361Z" />
      <glyph unicode="L" glyph-name="L" horiz-adv-x="600" d="M88,0L204,698h59L156,52H498L489,0H88Z" />
      <glyph unicode="M" glyph-name="M" horiz-adv-x="600" d="M529,610h-5L294,226L193,610h-6L86,0H32L148,698h73l91-346h4L520,698h77L481,0H427L529,610Z" />
      <glyph unicode="N" glyph-name="N" horiz-adv-x="600" d="M210,629h-6L100,0H45L161,698h85L420,69h6L530,698h55L469,0H384L210,629Z" />
      <glyph unicode="O" glyph-name="O" horiz-adv-x="600" d="M262-12Q67-12 67,223q0,50 6,105.5t20.5,110t37,103.5t56,86.5T265,688t103,22q195,0 195-235q0-50-6-105.5t-20.5-110T499.5,156t-56-86.5T365,10T262-12Zm3,52q87,0 142,68t75,190l16,93q4,26 5.5,49.5T505,484q0,85-33,129.5T365,658q-87,0-142-68T148,400l-16-93q-4-26-5.5-49.5T125,214q0-85 33-129.5T265,40Z" />
      <glyph unicode="P" glyph-name="P" horiz-adv-x="600" d="M54,0L170,698H414q82,0 123.5-44.5T579,539q0-108-56-170.5T361,306H164L113,0H54ZM172,358H366q65,0 101,32.5T511,474l6,37q1,8 2,16.5t1,17.5q0,45-28.5,73T408,646H220L172,358Z" />
      <glyph unicode="Q" glyph-name="Q" horiz-adv-x="600" d="M381-177q-17,0-28,9t-22,24L240-11Q67,1 67,223q0,50 6,105.5t20.5,110t37,103.5t56,86.5T265,688t103,22q195,0 195-235q0-71-13-150.5t-43-150t-80-121T303-9l80-120l9-1L501-35l29-30l-81-74q-23-20-36-29t-32-9ZM265,40q87,0 142,68t75,190l16,93q4,26 5.5,49.5T505,484q0,85-33,129.5T365,658q-87,0-142-68T148,400l-16-93q-4-26-5.5-49.5T125,214q0-85 33-129.5T265,40Z" />
      <glyph unicode="R" glyph-name="R" horiz-adv-x="600" d="M113,0H54L170,698H414q82,0 123.5-44.5T579,539q0-104-53.5-164.5T373,310H355L492,0H428L296,308H164L113,0ZM366,358q62,0 99,31t46,85l6,37q1,8 2,16.5t1,17.5q0,45-28.5,73T408,646H220L172,358H366Z" />
      <glyph unicode="S" glyph-name="S" horiz-adv-x="600" d="M269-12q-93,0-150.5,33T30,107l44,35q32-50 78-76.5T272,39q88,0 139,43t51,119q0,50-27,79t-92,43l-79,19q-80,18-116.5,59.5T111,509q0,48 17.5,85t49,63t76,39.5T351,710q92,0 145-30.5T576,602l-44-32q-29,46-72,67.5T348,659q-82,0-129.5-38T171,512q0-52 29.5-79.5T290,391l78-18q83-20 118.5-61.5T522,206q0-50-18-90T453,47.5t-79.5-44T269-12Z" />
      <glyph unicode="T" glyph-name="T" horiz-adv-x="600" d="M394,646L286,0H227L335,646H96l9,52H642l-9-52H394Z" />
      <glyph unicode="U" glyph-name="U" horiz-adv-x="600" d="M220,698L151,287q-8-48-11-75t-3-48q0-63 27.5-93.5T264,40q51,0 83,14t53,42.5T433,169t22,104l71,425h59L516,283q-13-79-30-135T441.5,56.5t-70-52T265-12Q165-12 121.5,30T78,159q0,30 5,68.5T95,305l66,393h59Z" />
      <glyph unicode="V" glyph-name="V" horiz-adv-x="600" d="M217,0L116,698h57L263,60h4L567,698h61L297,0H217Z" />
      <glyph unicode="W" glyph-name="W" horiz-adv-x="600" d="M60,0l56,698h53L115,59h7L305,504h68L409,59h7L575,698h53L452,0H364L332,434h-6L149,0H60Z" />
      <glyph unicode="X" glyph-name="X" horiz-adv-x="600" d="M524,0H461L315,308h-4L63,0H-7L287,358L121,698h63L324,406h4L563,698h70L353,354L524,0Z" />
      <glyph unicode="Y" glyph-name="Y" horiz-adv-x="600" d="M227,0l47,281L94,698h63L308,340h3L582,698h70L334,285L286,0H227Z" />
      <glyph unicode="Z" glyph-name="Z" horiz-adv-x="600" d="M508,0H5l9,54L531,646H134l9,52H607l-9-54L81,52H517L508,0Z" />
      <glyph unicode="[" glyph-name="bracketleft" horiz-adv-x="600" d="M175-138L325,760H586l-7-44H366L231-94H443l-7-44H175Z" />
      <glyph unicode="\" glyph-name="backslash" horiz-adv-x="600" d="M392-138L189,760h45L437-138H392Z" />
      <glyph unicode="]" glyph-name="bracketright" horiz-adv-x="600" d="M429,760L279-138H18l7,44H238L373,716H160l8,44H429Z" />
      <glyph unicode="^" glyph-name="asciicircum" horiz-adv-x="600" d="M515,304L371,648h-3L113,304L72,330L345,698h62L561,324l-46-20Z" />
      <glyph unicode="_" glyph-name="underscore" horiz-adv-x="600" d="M-1-157l9,51H485l-9-51H-1Z" />
      <glyph unicode="`" glyph-name="grave" horiz-adv-x="600" d="M234,751l53,21l65-167l-37-15L234,751Z" />
      <glyph unicode="a" glyph-name="a" horiz-adv-x="600" d="M225-12q-81,0-122,52.5T62,187q0,61 14,121.5T119.5,418t75,79.5T302,528q61,0 100-27t55-75h3l15,90h56L454,50h76L521,0H456q-35,0-48,18t-8,46l9,55h-3q-30-59-72-95T225-12Zm16,50q32,0 62,11.5T359,88q23,24 41.5,57.5T426,221l22,129q4,26-2.5,49.5t-23,41T379,468t-63,10q-39,0-70-14t-53.5-38.5T155,367t-22-74l-11-63q-2-14-3-25.5T118,182q0-63 29.5-103.5T241,38Z" />
      <glyph unicode="b" glyph-name="b" horiz-adv-x="600" d="M187,740h56L186,397h3q15,29 32.5,53T261,491.5t49.5,27T372,528q81,0 123.5-52.5T538,329q0-61-14.5-122T479,97.5t-75.5-79T295-12q-62,0-101.5,27T138,90h-3L120,0H64L187,740ZM281,38q39,0 70.5,14T406,90.5T444.5,149T467,223l11,63q2,14 3,25.5t1,22.5q0,63-30.5,103.5T356,478q-32,0-62-12t-56-38q-23-24-42.5-57.5T169,295L147,166q-5-26 2-49.5t24-41T217.5,48T281,38Z" />
      <glyph unicode="c" glyph-name="c" horiz-adv-x="600" d="M268-12q-47,0-82.5,16T126,48.5t-36,68T78,204q0,75 20,135t55.5,102t83,64.5T339,528q74,0 116-34.5T510,408l-48-18q-14,48-46.5,68.5T333,479q-74,0-122.5-47.5T148,297l-9-56q-3-17-4-27.5T134,191q0-72 36-113T274,37q23,0 44.5,6T362,64t45,40.5T456,168l41-23q-23-37-47-66T398.5,29.5T339-1.5T268-12Z" />
      <glyph unicode="d" glyph-name="d" horiz-adv-x="600" d="M414,119h-3q-30-59-72.5-95T228-12q-81,0-123.5,52.5T62,187q0,61 14.5,121.5T121,418t75.5,79.5T305,528q62,0 101.5-27T462,426h3l52,314h56L450,0H394l20,119ZM244,38q32,0 62,12t56,38q23,24 42.5,57.5T431,221l22,129q4,26-2.5,49.5t-23.5,41T382.5,468T319,478q-39,0-70.5-13.5t-55-38.5T155,367t-22-74l-11-63q-2-14-3-25.5T118,182q0-63 30.5-103.5T244,38Z" />
      <glyph unicode="e" glyph-name="e" horiz-adv-x="600" d="M275-12q-96,0-147,55.5T77,210q0,68 20,126t56.5,101t87,67T352,528q76,0 122.5-34.5T521,395q0-26-12.5-55T456,286T339.5,243T136,222q-1-8-1-15t0-9q0-33 6.5-62t23-51.5T209,49t71-13q60,0 102,31t81,95l41-25Q461,62 407,25T275-12Zm71,493q-79,0-134-51.5T143,281l-3-18q104,3 167.5,15T406,308.5T452.5,349T464,393q0,37-27,62.5T346,481Z" />
      <glyph unicode="f" glyph-name="f" horiz-adv-x="600" d="M203-212q-11,0-21,4t-21.5,13t-26,23T99-137L-16-24L22,11L197-162l13,3L315,468H127l8,48H323l23,141q6,38 28.5,60.5T439,740H630l-8-48H408L378,516H594l-8-48H371L270-135q-5-32-20-54.5T203-212Z" />
      <glyph unicode="g" glyph-name="g" horiz-adv-x="600" d="M210-212q-60,0-103,18T38-143l39,38q21-27 53.5-42T213-162q75,0 121.5,38T395,4l21,126h-3q-29-60-72.5-96T229-2Q147-2 104.5,51T62,195q0,60 15,119.5t45,107t75.5,77T305,528t101.5-27.5T462,425h3l15,91h56L449-7q-19-108-81.5-156.5T210-212ZM245,48q33,0 63,11.5T364,99q20,20 40.5,53.5T433,231l20,119q4,26-2.5,49.5t-24,41T382,468t-63,10q-78,0-125-51T133,295l-9-53q-2-14-3.5-25T119,195q0-66 30.5-106.5T245,48Z" />
      <glyph unicode="h" glyph-name="h" horiz-adv-x="600" d="M194,740h56L192,397h4q29,61 70.5,96T372,528q66,0 102.5-38.5T511,382q0-14-1.5-30.5T505,319L452,0H396l52,313q3,17 4,32t1,26q0,52-24.5,79.5T355,478q-69,0-119-59q-15-18-34-48.5T175,296L126,0H70L194,740Z" />
      <glyph unicode="i" glyph-name="i" horiz-adv-x="600" d="M346,654q-26,0-36,10t-10,22q0,5 1,11.5t2,11.5q3,17 14.5,27.5T354,747q26,0 36-10t10-22q0-5-1-11.5T397,692q-3-17-14.5-27.5T346,654ZM253-12q-26,0-40,14T199,38q0,7 1.5,15.5T204,76l76,392H86l8,48H345L254,45l15-6L494,212l30-36L376,62q-26-20-43.5-34T301,5T276-8t-23-4Z" />
      <glyph unicode="j" glyph-name="j" horiz-adv-x="600" d="M298-212q-11,0-20.5,4T256-195t-27.5,24T191-134L78-24l38,35L291-162l14,4L409,468H158l8,48H472L364-135q-5-32-19.5-54.5T298-212ZM478,747q26,0 36-10t10-22q0-5-1-11.5T521,692q-3-17-14.5-27.5T470,654q-26,0-36,10t-10,22q0,5 1,11.5t2,11.5q3,17 14.5,27.5T478,747Z" />
      <glyph unicode="k" glyph-name="k" horiz-adv-x="600" d="M190,740h56L189,397h4q31,63 76.5,97T378,528q66,0 101-34t35-89q0-24-9-50t-33.5-51.5t-68.5-48T290,217L381,39l10-1L541,175l31-32L474,48Q441,16 421,2T380-12q-19,0-32,11T323,36L225,229q67,16 111.5,35T408,304.5T446,349t11,48q0,38-23.5,60.5T360,480q-38,0-67.5-14.5T240,426q-56-57-68-130L123,0H67L190,740Z" />
      <glyph unicode="l" glyph-name="l" horiz-adv-x="600" d="M235-12q-26,0-39.5,14T182,39q0,14 4,33L305,692H114l8,48H371L237,46l17-6L483,215l30-35L357,59q-26-20-44-34T281,3T256.5-8.5T235-12Z" />
      <glyph unicode="m" glyph-name="m" horiz-adv-x="600" d="M24,0l86,516h52l-13-80h3q18,39 45,65.5T269,528q43,0 63.5-26.5T350,431h3q19,45 50,71t76,26q42,0 65-26.5T567,430q0-12-1.5-28T561,371L499,0H447l60,359q2,16 4,32t2,28q0,29-13,46t-41,17q-23,0-40-11t-33-31t-26-45t-15-51L288,0H236l59,356q3,17 5,32t2,28q0,66-53,66q-24,0-42-11.5T175,440q-14-20-25.5-44.5T133,344L76,0H24Z" />
      <glyph unicode="n" glyph-name="n" horiz-adv-x="600" d="M70,0l86,516h56L192,397h4q29,61 70.5,96T372,528q66,0 102.5-38.5T511,382q0-14-1.5-30.5T505,319L452,0H396l52,313q3,17 4,32t1,26q0,52-24.5,79.5T355,478q-69,0-119-59q-15-18-34-48.5T175,296L126,0H70Z" />
      <glyph unicode="o" glyph-name="o" horiz-adv-x="600" d="M265-12q-48,0-84.5,15.5T120,46.5t-36.5,66T71,196q0,77 20,138.5T146,439t83.5,66T335,528q48,0 84.5-15.5t60.5-43t36.5-66T529,320q0-77-20-138.5T454,77T370.5,11T265-12Zm4,49q79,0 127.5,50T459,225l9,56q3,17 4,28t1,24q0,69-36,107.5T331,479q-79,0-127.5-50T141,291l-9-56q-3-17-4-28t-1-24q0-69 36-107.5T269,37Z" />
      <glyph unicode="p" glyph-name="p" horiz-adv-x="600" d="M150,516h56L186,397h3q15,29 32.5,53T261,491.5t49.5,27T372,528q81,0 123.5-52.5T538,329q0-61-14.5-122T479,97.5t-75.5-79T295-12q-62,0-101.5,27T138,90h-3L86-200H30L150,516ZM281,38q39,0 70.5,14T406,90.5T444.5,149T467,223l11,63q2,14 3,25.5t1,22.5q0,63-30.5,103.5T356,478q-32,0-62-12t-56-38q-23-24-42.5-57.5T169,295L147,166q-5-26 2-49.5t24-41T217.5,48T281,38Z" />
      <glyph unicode="q" glyph-name="q" horiz-adv-x="600" d="M414,119h-3q-30-59-72.5-95T228-12q-81,0-123.5,52.5T62,187q0,61 14.5,121.5T121,418t75.5,79.5T305,528q62,0 101.5-27T462,426h3l15,90h56L417-200H361l53,319ZM244,38q32,0 62,12t56,38q23,24 42.5,57.5T431,221l22,129q4,26-2.5,49.5t-23.5,41T382.5,468T319,478q-39,0-70.5-14t-55-38.5T155,367t-22-74l-11-63q-2-14-3-25.5T118,182q0-63 30.5-103.5T244,38Z" />
      <glyph unicode="r" glyph-name="r" horiz-adv-x="600" d="M192,0l79,468H113l8,48H334L314,398h5q13,27 29.5,48.5t38,37t49,24T499,516h94l-9-55H484q-76,0-121-44q-17-14-37-42.5T299,304L248,0H192Z" />
      <glyph unicode="s" glyph-name="s" horiz-adv-x="600" d="M275-12Q123-12 54,87l42,33q31-43 75-63.5T279,36q76,0 120.5,30T444,153q0,42-26,59t-69,22l-76,9q-29,4-56,11.5t-47.5,22t-32.5,37T125,370q0,40 16.5,70T187,489.5t67,29t82,9.5q73,0 120-22.5T530,448l-40-35q-8,12-21,24t-32.5,21.5T391,474t-61,6q-72,0-111-27.5T180,374q0-21 7-35.5T207,315t31-14t39-8l75-10q27-3 53.5-10t47-20.5T486,216t13-58q0-41-16.5-72.5T436,32T365-1T275-12Z" />
      <glyph unicode="t" glyph-name="t" horiz-adv-x="600" d="M229-12q-52,0-52,52q0,14 3,38l67,390H78l8,48H217q21,0 32,9t15,31l24,142h53L311,516H544l-8-48H303L232,47l14-8L493,196l28-36L352,49Q304,16 277.5,2T229-12Z" />
      <glyph unicode="u" glyph-name="u" horiz-adv-x="600" d="M408,119h-4q-29-61-70.5-96T228-12q-66,0-102.5,38.5T89,134q0,31 6,63l53,319h56L152,203q-3-17-4-32t-1-26q0-52 24.5-79.5T245,38q35,0 65,15t54,44q15,18 34,48.5T425,220l49,296h56L444,0H388l20,119Z" />
      <glyph unicode="v" glyph-name="v" horiz-adv-x="600" d="M252,516L183,45l10-8q67,5 120.5,36.5t90.5,80t56.5,109T480,386q0,32-6,62.5T456,505l54,16q13-28 20-63t7-70q0-80-27.5-151.5T434.5,111t-111-85.5T189-6q-60,0-60,52q0,6 1,14.5T133,78l57,390H73l8,48H252Z" />
      <glyph unicode="w" glyph-name="w" horiz-adv-x="600" d="M144-12Q99-12 77,15T55,86q0,17 2,35t5,38l59,357h51L114,166q-4-22-5.5-37.5T107,98q0-32 14.5-47.5T161,35q24,0 43,13t33,34q14,20 22.5,46.5T272,178l57,338h50L322,170q-3-19-4-35.5T317,102q0-67 54-67q33,0 60,27.5T476.5,135t29,102.5T516,355q0,42-6.5,83T490,506l48,14q13-29 21-71t8-92q0-85-18-162.5T496,65Q470,28 436.5,8T361-12q-40,0-64.5,24.5T275,95h-4q-20-50-50-78.5T144-12Z" />
      <glyph unicode="x" glyph-name="x" horiz-adv-x="600" d="M116-12Q69-12 41.5,17.5T14,110q0,14 1.5,30.5T21,174l52,3q-2-14-4-30.5T67,114q0-81 59-81q39,0 68,31.5t47.5,76t27.5,93t9,83.5q0,21-3,45.5t-8,48T255,453t-14,29l-11,1L67,392L45,426l99,64q36,23 53.5,30.5T231,528q27,0 44-14.5t26.5-39t13.5-58t7-70.5h5q22,95 63,138.5T487,528q47,0 74.5-29.5T589,406q0-14-1.5-30.5T582,342l-52-3q2,14 4,30.5t2,32.5q0,81-59,81q-26,0-47.5-14.5T391,430t-29.5-54.5t-20.5-62t-12-62T325,198q0-20 3-44t8-47t11.5-42.5T362,35l12-2l155,99l24-34L462,33Q421,4 400-4t-34-8q-24,0-39.5,14.5t-25,39T287.5,99T281,170h-5Q254,75 213,31.5T116-12Z" />
      <glyph unicode="y" glyph-name="y" horiz-adv-x="600" d="M203-212q-60,0-102.5,18T31-143l40,38q20-27 53-42t83-15q75,0 121.5,38.5T389,4l21,124h-3q-29-60-71-95.5T230-3Q164-3 127.5,35.5T91,143q0,14 1.5,28.5T96,204l52,312h56L153,209q-3-16-4-30t-1-28q0-49 25-76.5T247,47q71,0 119,59q6,7 14.5,18.5T398,152t16.5,35T426,228l48,288h56L443-7q-18-108-81.5-156.5T203-212Z" />
      <glyph unicode="z" glyph-name="z" horiz-adv-x="600" d="M439-12q-17,0-36.5,4T357,3L122,65l-5-4L107,0H51L64,77L449,420q-73,34-118,46.5T252,479q-57,0-78-34T152,344H105v15q0,169 148,169q81,0 200-62l29-15l5,4l10,61h56l-13-77L157,98L450,33l9,9L428,195l43,13l18-63q8-29 14-53.5T509,49q0-23-17.5-42T439-12Z" />
      <glyph unicode="{" glyph-name="braceleft" horiz-adv-x="600" d="M243-138q-27,0-40,13.5T190-91q0,2 0.5,6t2,13.5T197-44t8,48q4,28 12.5,49t19,36.5t22,27T279,138q27,28 37,44t10,36q0,71-125,71H116l7,44h86q74,0 112.5,22.5T360,423q0,14-5.5,28T338,485q-10,17-23.5,37.5T301,580q0,5 1,12t3,20.5t5.5,34T320,699q5,27 22.5,44T392,760H573l-7-44H372q-7-42-11-66t-6-37t-2.5-19T352,584q0-25 9.5-43T379,510q13-22 22-42.5t9-43.5q0-47-33.5-76T280,311v-3q45-5 70.5-27T376,222q0-32-17-55.5T313,112q-17-18-34.5-41.5T253,0L237-94H431l-8-44H243Z" />
      <glyph unicode="|" glyph-name="bar" horiz-adv-x="600" d="M209-138L359,760h50L259-138H209Z" />
      <glyph unicode="}" glyph-name="braceright" horiz-adv-x="600" d="M376,760q27,0 40-13.5T429,713q0-2-0.5-6t-2-13.5T422,666t-8-48q-4-28-12.5-49t-19-36.5t-22-27T340,484q-27-28-37-44t-10-36q0-71 125-71h85l-7-44H410q-74,0-112.5-22.5T259,199q0-14 5.5-28T281,137q10-17 23.5-37.5T318,42q0-5-1-12T314,9.5t-5.5-34T299-77q-5-27-22.5-44T227-138H46l7,44H247q7,42 11,66t6,37t2.5,18.5T267,38q0,25-9.5,43T240,112q-13,22-22,42.5T209,198q0,47 33.5,76T339,311v3q-45,5-70.5,27T243,400q0,32 17,55.5T306,510q8,9 17,19t17,22.5T355,581t11,41l16,94H188l8,44H376Z" />
      <glyph unicode="~" glyph-name="asciitilde" horiz-adv-x="600" d="M404,205q-35,0-60,19t-49,55q-22,35-42,56t-44,21q-35-1-63-37T93,213L49,226q28,81 69,129.5T212,404q35,0 60-19t49-55q22-35 42-56t44-21q35,1 63,37t53,106l44-13q-28-81-69-129.5T404,205Z" />
      <glyph unicode="&#xa0;" glyph-name="uni00A0" horiz-adv-x="600" />
      <glyph unicode="&#xa1;" glyph-name="exclamdown" horiz-adv-x="600" d="M196-182L235,52l61,253h24L296,52L257-182H196ZM327,416q-28,0-39.5,10T276,452q0,10 3,25q4,21 19,33.5T343,523q28,0 39.5-10T394,487q0-10-3-25q-4-21-19-33.5T327,416Z" />
      <glyph unicode="&#xa2;" glyph-name="cent" horiz-adv-x="600" d="M228-9Q153,4 115.5,61.5T78,204q0,72 18,129.5T146,433t76,66t96,28l17,103h45L363,526q62-5 98.5-38T510,408l-48-18q-13,42-40.5,63.5T353,478L280,37h5q44,2 83.5,31.5T456,168l41-23q-22-36-45.5-64T402,32.5T345.5,1T279-11h-6L256-114H211L228-9ZM134,191q0-62 26.5-101T238,40l72,438q-64-7-106-54.5T148,297l-9-56q-3-17-4-27.5T134,191Z" />
      <glyph unicode="&#xa3;" glyph-name="sterling" horiz-adv-x="600" d="M479-12q-19,0-44,5.5T378,6L97,62L87,0H29L41,78q28,13 51,28.5T131.5,144t26,51.5T167,265q0,14-1,26.5T163,316H60l8,49h86q-5,27-10,53t-5,55q0,53 16.5,97T202,645t72,48t93,17q42,0 74.5-10.5t57-29T539,628t24-51l-51-21q-17,48-52.5,76T364,660q-78,0-122-50T198,468q0-28 4.5-52.5T212,365H405l-8-49H221q2-11 3-24t1-25q0-26-6-52t-19-47.5T167,130t-47-22l-1-3L478,40l9,8L457,199l44,13l17-64q9-30 14.5-56T538,48q0-26-15-43T479-12Z" />
      <glyph unicode="&#xa4;" glyph-name="currency" horiz-adv-x="600" d="M281,123q-60,0-97,26L86,32L45,63L147,182q-32,46-32,115q0,14 1.5,27.5T120,354q9,57 30.5,99.5T200,522L140,640l45,26l58-115q43,24 100,24q60,0 97-26l98,117l41-31L477,516q32-46 32-115q0-14-1.5-27.5T504,344q-9-57-30.5-99.5T424,176L484,58L439,32L381,147q-44-24-100-24Zm1,48q63,0 105,40t54,111l9,53q3,21 3,39q0,56-29,84.5T342,527q-63,0-105-40T183,376l-9-53q-3-21-3-39q0-56 29-84.5T282,171Z" />
      <glyph unicode="&#xa5;" glyph-name="yen" horiz-adv-x="600" d="M47,49H237l37,222H83l8,49H250L99,698h62L306,321h3L581,698h68L370,320H529l-8-49H330L293,49H484L476,0H39l8,49Z" />
      <glyph unicode="&#xa6;" glyph-name="brokenbar" horiz-adv-x="600" d="M299,400l60,360h50L349,400H299ZM209-138l60,360h50L259-138H209Z" />
      <glyph unicode="&#xa7;" glyph-name="section" horiz-adv-x="600" d="M441,13q0-38-14.5-69t-41-53t-63-34T241-155q-49,0-92.5,14.5T78-97l36,37q23-22 54.5-34T241-106q67,0 105,30.5T384,8q0,41-24.5,64T290,109l-67,20q-70,20-96.5,54T100,264q0,118 141,157v6q-31,20-46,49.5T180,543q0,38 14.5,69T235,664.5T298,698t82,12q48,0 91.5-14.5T542,653l-36-37q-23,21-54.5,33T379,661q-67,0-105-30.5T236,548q0-42 24.5-65T330,446l67-19q70-21 97-55t27-80q0-118-142-158v-5q62-41 62-116Zm24,268q0,38-22.5,62T362,384l-66,19q-8,2-14.5,4T269,411q-54-21-84-55t-30-82q0-38 23-62t80-41l67-19q14-3 26-9q54,21 84,55.5T465,281Z" />
      <glyph unicode="&#xa8;" glyph-name="dieresis" horiz-adv-x="600" d="M229,631q-23,0-32.5,9T187,660q0,9 3,20q4,17 14.5,26t33.5,9t32.5-9t9.5-20q0-10-3-20q-4-17-14.5-26T229,631Zm184,0q-23,0-32.5,9T371,660q0,9 3,20q4,17 14.5,26t33.5,9t32.5-9t9.5-20q0-10-3-20q-4-17-14.5-26T413,631Z" />
      <glyph unicode="&#xa9;" glyph-name="copyright" horiz-adv-x="600" d="M273,18q-57,0-105,19.5t-82.5,56T31.5,182T12,299q0,85 25.5,155T109,574.5t108.5,78T355,680q57,0 105-19.5t82.5-56t54-88.5T616,399q0-85-25.5-155T519,123.5t-108.5-78T273,18Zm3,40q56,0 104,18.5T465,128t62,78.5T561,305q4,21 6,36t3,25.5t1.5,18T572,399q0,49-13.5,93T518,569t-68.5,52T352,640T248,621.5T163,570t-62-78.5T67,393q-8-42-9.5-61.5T56,299q0-50 13.5-93.5T110,129t68.5-52T276,58Zm15,120q-55,0-87.5,36T171,316q0,43 12.5,80.5t35,65.5t54,43.5T342,521q45,0 71.5-21T451,446l-42-17q-8,25-24,38t-48,13q-45,0-72-27t-36-78l-7-42q-3-17-3-31q0-40 19.5-61.5T294,219q32,0 55.5,15T390,274l33-22q-20-32-53.5-53T291,178Z" />
      <glyph unicode="&#xaa;" glyph-name="ordfeminine" horiz-adv-x="600" d="M387,362l9,54h-6q-14-23-40.5-41.5T281,356q-51,0-76.5,23T179,440q0,53 37,82t120,29h83l6,38q2,7 2,13t0,11q0,30-20,44.5T350,672q-32,0-58.5-14.5T249,617l-29,25q18,28 52,48t83,20q56,0 87-24t31-68q0-6-0.5-14T470,588L433,362H387ZM331,516q-50,0-73.5-13T229,465q-4-20-4-26q0-45 64-45q21,0 40.5,5t35,14.5t26.5,23T405,468l8,48H331Z" />
      <glyph unicode="&#xab;" glyph-name="guillemotleft" horiz-adv-x="600" d="M254,64L76,242l9,55L322,474l12-43L139,265L279,101L254,64Zm223,0L299,242l9,55L545,474l12-43L362,265L502,101L477,64Z" />
      <glyph unicode="&#xac;" glyph-name="logicalnot" horiz-adv-x="600" d="M446,88l32,193H67l8,48H535L495,88H446Z" />
      <glyph unicode="&#xad;" glyph-name="uni00AD" horiz-adv-x="600" d="M164,275l10,58H451l-10-58H164Z" />
      <glyph unicode="&#xae;" glyph-name="registered" horiz-adv-x="600" d="M317,346q-36,0-66,11.5T199,390t-34.5,50.5T152,506q0,43 15.5,80.5t42.5,65t64,43T354,710q36,0 66-11.5T472,666t34.5-50.5T519,550q0-44-15.5-81T461,404.5t-64-43T317,346Zm-1,30q66,0 108.5,35T478,503q4,20 5,29.5t1,17.5q0,59-33,94.5T355,680q-66,0-108.5-35T193,553q-4-20-5-29.5T187,506q0-59 33-94.5T316,376Zm-30,62H257l31,185h78q49,0 49-46q0-27-14-42t-37-20l36-77H367l-32,73H299l-13-73Zm59,96q32,0 36,28q2,6 2,9t0,5q0,23-27,23H313l-11-65h43Z" />
      <glyph unicode="&#xaf;" glyph-name="macron" horiz-adv-x="600" d="M195,698H464l-8-48H187l8,48Z" />
      <glyph unicode="&#xb0;" glyph-name="degree" horiz-adv-x="600" d="M331,382q-66,0-107.5,39.5T182,529q0,38 13.5,71t38,57.5t58,38.5T364,710q66,0 107.5-39.5T513,563q0-38-13.5-71t-38-57.5t-58-38.5T331,382Zm2,46q28,0 52,10t41,28t27,42.5T463,561q0,46-26,74.5T362,664q-28,0-52-10t-41-28t-27-42.5T232,531q0-46 26-74.5T333,428Z" />
      <glyph unicode="&#xb1;" glyph-name="plusminus" horiz-adv-x="600" d="M253,137l36,213H79l8,48H297l36,213h53L350,398H560l-8-48H342L306,137H253ZM20,0l8,48H502L494,0H20Z" />
      <glyph unicode="&#xb2;" glyph-name="twosuperior" horiz-adv-x="600" d="M441,329H182l7,44L331,476q43,31 66.5,54.5T426,584q2,7 2,12t0,10q0,26-20,42.5T356,665q-38,0-60.5-20T262,598l-38,16q17,38 48.5,64T359,704q50,0 83.5-25.5T476,606q0-26-10-48t-27-40.5T400,482t-45-34L240,366H447l-6-37Z" />
      <glyph unicode="&#xb3;" glyph-name="threesuperior" horiz-adv-x="600" d="M335,539q47,0 66,16t24,41q1,6 1.5,10.5T427,615q0,23-17,37.5T360,667q-61,0-97-47l-28,25q20,26 51,42.5T361,704q54,0 83-25.5T473,613q0-38-24.5-62.5T386,520v-2q31-5 48-24.5T451,440q0-52-36.5-84.5T312,323q-52,0-83.5,19T183,387l33,23q13-23 34.5-36.5T313,360q79,0 91,64q3,13 3,21q0,26-19.5,41.5T330,502H283l6,37h46Z" />
      <glyph unicode="&#xb4;" glyph-name="acute" horiz-adv-x="600" d="M311,590l-34,21L396,772l49-29L311,590Z" />
      <glyph unicode="&#xb5;" glyph-name="mu" horiz-adv-x="600" d="M33-200L151,516h56L154,200q-2-16-3-31.5T150,142q0-52 26-78t76-26q34,0 62,15t54,45q6,7 14.5,18.5T400,144t16.5,35T428,220l49,296h56L447,0H391l20,119h-3q-12-26-28-49.5T344,28T298-1T239-12q-44,0-72,20T130,66h-3L115-39L88-200H33Z" />
      <glyph unicode="&#xb6;" glyph-name="paragraph" horiz-adv-x="600" d="M282,246q-44,0-79.5,14t-61,39.5T102,361T88,442q0,57 21,104.5t57.5,81t84.5,52T353,698H563L422-149H371L504,652H400L267-149H216l66,395Z" />
      <glyph unicode="&#xb7;" glyph-name="periodcentered" horiz-adv-x="600" d="M299,251q-28,0-39.5,10T248,287q0,10 3,25q4,21 19,33.5T315,358q28,0 39.5-10T366,322q0-10-3-25q-4-21-19-33.5T299,251Z" />
      <glyph unicode="&#xb8;" glyph-name="cedilla" horiz-adv-x="600" d="M281-205q-35,0-56.5,11.5T193-168l30,30q8-12 22.5-19.5T281-165q26,0 42.5,11.5T340-122q0,13-11.5,24.5T282-82l-32,3l35,92h38L293-66l2-2q9,2 18.5,2.5T329-65q28,0 43.5-14.5T388-122q0-41-31-62t-76-21Z" />
      <glyph unicode="&#xb9;" glyph-name="onesuperior" horiz-adv-x="600" d="M202,329l6,37H323l48,289L248,593l-15,32l142,73h47L367,366H470l-6-37H202Z" />
      <glyph unicode="&#xba;" glyph-name="ordmasculine" horiz-adv-x="600" d="M320,356q-58,0-94,38t-36,98q0,48 13,88t36.5,69t57,45T372,710q58,0 94-38t36-98q0-48-13-88t-36.5-69t-57-45T320,356Zm5,40q51,0 80.5,31T443,504l9,50q2,9 2,15.5t0,12.5q0,38-21.5,63T367,670q-51,0-80.5-31T249,562l-9-50q-2-9-2-15.5t0-12.5q0-38 21.5-63T325,396Z" />
      <glyph unicode="&#xbb;" glyph-name="guillemotright" horiz-adv-x="600" d="M48,107L243,273L103,438l25,36L306,297l-9-55L60,64L48,107Zm223,0L466,273L326,438l25,36L529,297l-9-55L283,64l-12,43Z" />
      <glyph unicode="&#xbc;" glyph-name="onequarter" horiz-adv-x="600" d="M64,400H166l43,257L99,604L85,637l126,61h50L211,400h92l-7-37H58l6,37ZM597,698h52L433,398H381L597,698ZM198,300h52L34,0H-18L198,300ZM458,70H283l8,43L482,335h64L508,106h51l-6-36H502L491,0H447l11,70Zm6,36l31,190h-3L329,106H464Z" />
      <glyph unicode="&#xbd;" glyph-name="onehalf" horiz-adv-x="600" d="M64,400H166l43,257L99,604L85,637l126,61h50L211,400h92l-7-37H58l6,37ZM597,698h52L433,398H381L597,698ZM198,300h52L34,0H-18L198,300ZM299,42l134,97q37,27 54,48.5T509,232q2,7 2,12.5t0,7.5q0,23-14,37t-45,14q-32,0-52.5-16T365,242l-37,16q17,36 47,59.5T456,341t76.5-25.5T558,254q0-44-27.5-75T455,113L349,37H536L530,0H291l8,42Z" />
      <glyph unicode="&#xbe;" glyph-name="threequarters" horiz-adv-x="600" d="M169,357q-51,0-78,19T53,420l35,22q10-21 28-34.5T169,394q36,0 57,15.5T252,451q1,5 1.5,10t0.5,9q0,23-16.5,36.5T186,520H145l6,35h38q38,0 58,13.5T271,602q2,7 2,11.5t0,8.5q0,20-16,32.5T209,667q-27,0-46-11t-36-31L99,651q22,26 49,39.5T216,704q48,0 76-21t28-56q0-37-23-58.5T239,540v-4q28-5 44.5-22.5T300,467q0-49-36-79.5T169,357ZM597,698h52L433,398H381L597,698ZM198,300h52L34,0H-18L198,300ZM458,70H283l8,43L482,335h64L508,106h51l-6-36H502L491,0H447l11,70Zm6,36l31,190h-3L329,106H464Z" />
      <glyph unicode="&#xbf;" glyph-name="questiondown" horiz-adv-x="600" d="M232-194q-87,0-136,44T47-31q0,98 63.5,155.5T281,195l20,121h56L330,153q-107-11-157.5-45.5T111,4q-2-10-2.5-21T108-32q0-51 34-81t95-30q69,0 109.5,34.5T410-17l51-21q-13-33-33-61.5T380-149t-65-33t-83-12ZM361,523q28,0 39.5-10T412,487q0-10-3-25q-4-21-19-33.5T345,416q-28,0-39.5,10T294,452q0,10 3,25q4,21 19,33.5T361,523Z" />
      <glyph unicode="&#xc0;" glyph-name="Agrave" horiz-adv-x="600" d="M458,0L428,213H163L61,0H-2L335,698h79L519,0H458ZM368,637h-7L185,265H421L368,637ZM309,919l52,23l65-167l-37-15L309,919Z" />
      <glyph unicode="&#xc1;" glyph-name="Aacute" horiz-adv-x="600" d="M458,0L428,213H163L61,0H-2L335,698h79L519,0H458ZM368,637h-7L185,265H421L368,637Zm17,123l-34,21L470,942l49-29L385,760Z" />
      <glyph unicode="&#xc2;" glyph-name="Acircumflex" horiz-adv-x="600" d="M458,0L428,213H163L61,0H-2L335,698h79L519,0H458ZM368,637h-7L185,265H421L368,637Zm81,293l94-142l-34-20L410,889L269,768l-29,25L379,930h70Z" />
      <glyph unicode="&#xc3;" glyph-name="Atilde" horiz-adv-x="600" d="M458,0L428,213H163L61,0H-2L335,698h79L519,0H458ZM368,637h-7L185,265H421L368,637Zm97,155q-23,0-39,8.5T391,821q-18,12-33,18t-31,6q-17,0-32.5-8.5T262,814l-22,30q19,20 42.5,33.5T334,891q23,0 39-8.5T408,862q18-12 33-18t31-6q17,0 32.5,8.5T537,869l22-30q-19-20-42.5-33.5T465,792Z" />
      <glyph unicode="&#xc4;" glyph-name="Adieresis" horiz-adv-x="600" d="M458,0L428,213H163L61,0H-2L335,698h79L519,0H458ZM368,637h-7L185,265H421L368,637ZM303,801q-23,0-32.5,9T261,830q0,9 3,20q4,17 14.5,26t33.5,9t32.5-9t9.5-20q0-10-3-20q-4-17-14.5-26T303,801Zm184,0q-23,0-32.5,9T445,830q0,9 3,20q4,17 14.5,26t33.5,9t32.5-9t9.5-20q0-10-3-20q-4-17-14.5-26T487,801Z" />
      <glyph unicode="&#xc5;" glyph-name="Aring" horiz-adv-x="600" d="M458,0L428,213H163L61,0H-2L335,698h79L519,0H458ZM368,637h-7L185,265H421L368,637Zm20,119q-42,0-67,25t-25,65q0,25 9.5,47t26,38t38,25t46.5,9q42,0 67-25t25-65q0-26-9.5-47.5t-26-37.5t-38-25T388,756Zm4,36q29,0 47.5,15.5T463,852q4,19 4,30q0,22-14.5,34.5T412,929q-29,0-47.5-15.5T341,869q-4-19-4-30q0-22 14.5-34.5T392,792Z" />
      <glyph unicode="&#xc6;" glyph-name="AE" horiz-adv-x="600" d="M306,214H142L43,0H-18L309,698H623l-8-50H434L390,379H558l-9-50H381L335,50H516L508,0H271l35,214Zm37,440L163,263H315l64,391H343Z" />
      <glyph unicode="&#xc7;" glyph-name="Ccedilla" horiz-adv-x="600" d="M383,658q-87,0-143.5-68.5T163,398l-14-82q-5-26-6.5-50T141,219q0-85 36.5-132T290,40q62,0 102.5,34.5T472,180l47-24q-20-39-42.5-69.5T427.5,35t-58-33T299-11L278-66l2-2q9,2 18.5,2.5T314-65q28,0 43.5-14.5T373-122q0-41-30.5-62T267-205q-35,0-57,11.5T179-168l29,30q9-12 23-19.5t36-7.5q26,0 42,11.5T325-122q0,13-11,24.5T268-82l-33,3l26,68Q173-4 128,56.5T83,232q0,48 6.5,102t21,107T148,543t57,86t79,59t103,22q44,0 76-12t53.5-33t35-48.5T572,559l-53-17q-6,25-16,46.5t-26,37t-38.5,24T383,658Z" />
      <glyph unicode="&#xc8;" glyph-name="Egrave" horiz-adv-x="600" d="M54,0L170,698H590l-8-52H220L176,380H525l-9-52H168L122,52H483L475,0H54ZM316,919l52,23l65-167l-37-15L316,919Z" />
      <glyph unicode="&#xc9;" glyph-name="Eacute" horiz-adv-x="600" d="M54,0L170,698H590l-8-52H220L176,380H525l-9-52H168L122,52H483L475,0H54ZM392,760l-34,21L477,942l49-29L392,760Z" />
      <glyph unicode="&#xca;" glyph-name="Ecircumflex" horiz-adv-x="600" d="M54,0L170,698H590l-8-52H220L176,380H525l-9-52H168L122,52H483L475,0H54ZM456,930l94-142l-34-20L417,889L276,768l-29,25L386,930h70Z" />
      <glyph unicode="&#xcb;" glyph-name="Edieresis" horiz-adv-x="600" d="M54,0L170,698H590l-8-52H220L176,380H525l-9-52H168L122,52H483L475,0H54ZM310,801q-23,0-32.5,9T268,830q0,9 3,20q4,17 14.5,26t33.5,9t32.5-9t9.5-20q0-10-3-20q-4-17-14.5-26T310,801Zm184,0q-23,0-32.5,9T452,830q0,9 3,20q4,17 14.5,26t33.5,9t32.5-9t9.5-20q0-10-3-20q-4-17-14.5-26T494,801Z" />
      <glyph unicode="&#xcc;" glyph-name="Igrave" horiz-adv-x="600" d="M44,0l8,48H236L337,650H153l8,48H587l-8-48H395L294,48H478L470,0H44ZM308,919l52,23l65-167l-37-15L308,919Z" />
      <glyph unicode="&#xcd;" glyph-name="Iacute" horiz-adv-x="600" d="M44,0l8,48H236L337,650H153l8,48H587l-8-48H395L294,48H478L470,0H44ZM384,760l-34,21L469,942l49-29L384,760Z" />
      <glyph unicode="&#xce;" glyph-name="Icircumflex" horiz-adv-x="600" d="M44,0l8,48H236L337,650H153l8,48H587l-8-48H395L294,48H478L470,0H44ZM448,930l94-142l-34-20L409,889L268,768l-29,25L378,930h70Z" />
      <glyph unicode="&#xcf;" glyph-name="Idieresis" horiz-adv-x="600" d="M44,0l8,48H236L337,650H153l8,48H587l-8-48H395L294,48H478L470,0H44ZM302,801q-23,0-32.5,9T260,830q0,9 3,20q4,17 14.5,26t33.5,9t32.5-9t9.5-20q0-10-3-20q-4-17-14.5-26T302,801Zm184,0q-23,0-32.5,9T444,830q0,9 3,20q4,17 14.5,26t33.5,9t32.5-9t9.5-20q0-10-3-20q-4-17-14.5-26T486,801Z" />
      <glyph unicode="&#xd0;" glyph-name="Eth" horiz-adv-x="600" d="M117,346H38l7,45h80l50,307H343q51,0 91.5-16T503,636.5T545.5,565T560,471q0-110-19.5-197T482,126T385.5,32.5T253,0H59l58,346ZM257,52q89,0 146.5,60T481,293l13,81q4,23 6,48t2,48q0,86-43,131T337,646H225L183,391H344l-7-45H176L126,52H257Z" />
      <glyph unicode="&#xd1;" glyph-name="Ntilde" horiz-adv-x="600" d="M210,629h-6L100,0H45L161,698h85L420,69h6L530,698h55L469,0H384L210,629ZM463,792q-23,0-39,8.5T389,821q-18,12-33,18t-31,6q-17,0-32.5-8.5T260,814l-22,30q19,20 42.5,33.5T332,891q23,0 39-8.5T406,862q18-12 33-18t31-6q17,0 32.5,8.5T535,869l22-30q-19-20-42.5-33.5T463,792Z" />
      <glyph unicode="&#xd2;" glyph-name="Ograve" horiz-adv-x="600" d="M262-12Q67-12 67,223q0,50 6,105.5t20.5,110t37,103.5t56,86.5T265,688t103,22q195,0 195-235q0-50-6-105.5t-20.5-110T499.5,156t-56-86.5T365,10T262-12Zm3,52q87,0 142,68t75,190l16,93q4,26 5.5,49.5T505,484q0,85-33,129.5T365,658q-87,0-142-68T148,400l-16-93q-4-26-5.5-49.5T125,214q0-85 33-129.5T265,40Zm37,879l52,23l65-167l-37-15L302,919Z" />
      <glyph unicode="&#xd3;" glyph-name="Oacute" horiz-adv-x="600" d="M262-12Q67-12 67,223q0,50 6,105.5t20.5,110t37,103.5t56,86.5T265,688t103,22q195,0 195-235q0-50-6-105.5t-20.5-110T499.5,156t-56-86.5T365,10T262-12Zm3,52q87,0 142,68t75,190l16,93q4,26 5.5,49.5T505,484q0,85-33,129.5T365,658q-87,0-142-68T148,400l-16-93q-4-26-5.5-49.5T125,214q0-85 33-129.5T265,40ZM378,760l-34,21L463,942l49-29L378,760Z" />
      <glyph unicode="&#xd4;" glyph-name="Ocircumflex" horiz-adv-x="600" d="M262-12Q67-12 67,223q0,50 6,105.5t20.5,110t37,103.5t56,86.5T265,688t103,22q195,0 195-235q0-50-6-105.5t-20.5-110T499.5,156t-56-86.5T365,10T262-12Zm3,52q87,0 142,68t75,190l16,93q4,26 5.5,49.5T505,484q0,85-33,129.5T365,658q-87,0-142-68T148,400l-16-93q-4-26-5.5-49.5T125,214q0-85 33-129.5T265,40ZM442,930l94-142l-34-20L403,889L262,768l-29,25L372,930h70Z" />
      <glyph unicode="&#xd5;" glyph-name="Otilde" horiz-adv-x="600" d="M262-12Q67-12 67,223q0,50 6,105.5t20.5,110t37,103.5t56,86.5T265,688t103,22q195,0 195-235q0-50-6-105.5t-20.5-110T499.5,156t-56-86.5T365,10T262-12Zm3,52q87,0 142,68t75,190l16,93q4,26 5.5,49.5T505,484q0,85-33,129.5T365,658q-87,0-142-68T148,400l-16-93q-4-26-5.5-49.5T125,214q0-85 33-129.5T265,40ZM458,792q-23,0-39,8.5T384,821q-18,12-33,18t-31,6q-17,0-32.5-8.5T255,814l-22,30q19,20 42.5,33.5T327,891q23,0 39-8.5T401,862q18-12 33-18t31-6q17,0 32.5,8.5T530,869l22-30q-19-20-42.5-33.5T458,792Z" />
      <glyph unicode="&#xd6;" glyph-name="Odieresis" horiz-adv-x="600" d="M262-12Q67-12 67,223q0,50 6,105.5t20.5,110t37,103.5t56,86.5T265,688t103,22q195,0 195-235q0-50-6-105.5t-20.5-110T499.5,156t-56-86.5T365,10T262-12Zm3,52q87,0 142,68t75,190l16,93q4,26 5.5,49.5T505,484q0,85-33,129.5T365,658q-87,0-142-68T148,400l-16-93q-4-26-5.5-49.5T125,214q0-85 33-129.5T265,40Zm31,761q-23,0-32.5,9T254,830q0,9 3,20q4,17 14.5,26t33.5,9t32.5-9t9.5-20q0-10-3-20q-4-17-14.5-26T296,801Zm184,0q-23,0-32.5,9T438,830q0,9 3,20q4,17 14.5,26t33.5,9t32.5-9t9.5-20q0-10-3-20q-4-17-14.5-26T480,801Z" />
      <glyph unicode="&#xd7;" glyph-name="multiply" horiz-adv-x="600" d="M305,273L105,101L75,136L275,309L134,479l36,31L312,339L512,510l30-35L342,303L484,132l-37-31L305,273Z" />
      <glyph unicode="&#xd8;" glyph-name="Oslash" horiz-adv-x="600" d="M261-12q-95,0-143,57L63-29L22-3L91,89q-11,26-17.5,59.5T67,223q0,50 6,105.5t20.5,110T131,542t56.5,86.5T266,688t103,22q95,0 143-57l55,74l41-26l-69-92q11-26 17.5-59.5T563,475q0-50-6-105.5t-20.5-110T499,156T442.5,69.5T364,10T261-12ZM132,307q-4-26-5.5-49.5T125,214q0-21 2-38.5t7-31.5L477,606q-34,52-112,52q-87,0-142-68T148,400l-16-93ZM265,40q87,0 142,68t75,190l16,93q4,26 5.5,49.5T505,484q0,21-2,38.5T496,554L153,92q34-52 112-52Z" />
      <glyph unicode="&#xd9;" glyph-name="Ugrave" horiz-adv-x="600" d="M220,698L151,287q-8-48-11-75t-3-48q0-63 27.5-93.5T264,40q51,0 83,14t53,42.5T433,169t22,104l71,425h59L516,283q-13-79-30-135T441.5,56.5t-70-52T265-12Q165-12 121.5,30T78,159q0,30 5,68.5T95,305l66,393h59Zm84,221l52,23l65-167l-37-15L304,919Z" />
      <glyph unicode="&#xda;" glyph-name="Uacute" horiz-adv-x="600" d="M220,698L151,287q-8-48-11-75t-3-48q0-63 27.5-93.5T264,40q51,0 83,14t53,42.5T433,169t22,104l71,425h59L516,283q-13-79-30-135T441.5,56.5t-70-52T265-12Q165-12 121.5,30T78,159q0,30 5,68.5T95,305l66,393h59Zm160,62l-34,21L465,942l49-29L380,760Z" />
      <glyph unicode="&#xdb;" glyph-name="Ucircumflex" horiz-adv-x="600" d="M220,698L151,287q-8-48-11-75t-3-48q0-63 27.5-93.5T264,40q51,0 83,14t53,42.5T433,169t22,104l71,425h59L516,283q-13-79-30-135T441.5,56.5t-70-52T265-12Q165-12 121.5,30T78,159q0,30 5,68.5T95,305l66,393h59ZM444,930l94-142l-34-20L405,889L264,768l-29,25L374,930h70Z" />
      <glyph unicode="&#xdc;" glyph-name="Udieresis" horiz-adv-x="600" d="M220,698L151,287q-8-48-11-75t-3-48q0-63 27.5-93.5T264,40q51,0 83,14t53,42.5T433,169t22,104l71,425h59L516,283q-13-79-30-135T441.5,56.5t-70-52T265-12Q165-12 121.5,30T78,159q0,30 5,68.5T95,305l66,393h59Zm78,103q-23,0-32.5,9T256,830q0,9 3,20q4,17 14.5,26t33.5,9t32.5-9t9.5-20q0-10-3-20q-4-17-14.5-26T298,801Zm184,0q-23,0-32.5,9T440,830q0,9 3,20q4,17 14.5,26t33.5,9t32.5-9t9.5-20q0-10-3-20q-4-17-14.5-26T482,801Z" />
      <glyph unicode="&#xdd;" glyph-name="Yacute" horiz-adv-x="600" d="M227,0l47,281L94,698h63L308,340h3L582,698h70L334,285L286,0H227ZM379,760l-34,21L464,942l49-29L379,760Z" />
      <glyph unicode="&#xde;" glyph-name="Thorn" horiz-adv-x="600" d="M54,0L171,698h59L205,551H389q83,0 124.5-45T555,391q0-107-56.5-169.5T336,159H140L113,0H54Zm94,211H341q65,0 101.5,32T487,327l6,36q3,16 3,36q0,45-29,72.5T383,499H197L148,211Z" />
      <glyph unicode="&#xdf;" glyph-name="germandbls" horiz-adv-x="600" d="M78,0L186,657q8,49 33.5,66T279,740H448l-8-48H248L219,516H570l-9-55L329,209q93-5 148-45.5T532,45q0-113-71-179T245-200H170l8,48h71q97,0 152.5,35T468-8q5,29 5.5,40.5T474,52q0,63-48.5,89T286,167H264l8,49L504,468H211L134,0H78Z" />
      <glyph unicode="&#xe0;" glyph-name="agrave" horiz-adv-x="600" d="M225-12q-81,0-122,52.5T62,187q0,61 14,121.5T119.5,418t75,79.5T302,528q61,0 100-27t55-75h3l15,90h56L454,50h76L521,0H456q-35,0-48,18t-8,46l9,55h-3q-30-59-72-95T225-12Zm16,50q32,0 62,11.5T359,88q23,24 41.5,57.5T426,221l22,129q4,26-2.5,49.5t-23,41T379,468t-63,10q-39,0-70-14t-53.5-38.5T155,367t-22-74l-11-63q-2-14-3-25.5T118,182q0-63 29.5-103.5T241,38Zm11,713l53,21l65-167l-37-15L252,751Z" />
      <glyph unicode="&#xe1;" glyph-name="aacute" horiz-adv-x="600" d="M225-12q-81,0-122,52.5T62,187q0,61 14,121.5T119.5,418t75,79.5T302,528q61,0 100-27t55-75h3l15,90h56L454,50h76L521,0H456q-35,0-48,18t-8,46l9,55h-3q-30-59-72-95T225-12Zm16,50q32,0 62,11.5T359,88q23,24 41.5,57.5T426,221l22,129q4,26-2.5,49.5t-23,41T379,468t-63,10q-39,0-70-14t-53.5-38.5T155,367t-22-74l-11-63q-2-14-3-25.5T118,182q0-63 29.5-103.5T241,38Zm88,552l-34,21L414,772l49-29L329,590Z" />
      <glyph unicode="&#xe2;" glyph-name="acircumflex" horiz-adv-x="600" d="M225-12q-81,0-122,52.5T62,187q0,61 14,121.5T119.5,418t75,79.5T302,528q61,0 100-27t55-75h3l15,90h56L454,50h76L521,0H456q-35,0-48,18t-8,46l9,55h-3q-30-59-72-95T225-12Zm16,50q32,0 62,11.5T359,88q23,24 41.5,57.5T426,221l22,129q4,26-2.5,49.5t-23,41T379,468t-63,10q-39,0-70-14t-53.5-38.5T155,367t-22-74l-11-63q-2-14-3-25.5T118,182q0-63 29.5-103.5T241,38ZM393,760l94-142l-34-20L354,719L213,598l-29,25L323,760h70Z" />
      <glyph unicode="&#xe3;" glyph-name="atilde" horiz-adv-x="600" d="M225-12q-81,0-122,52.5T62,187q0,61 14,121.5T119.5,418t75,79.5T302,528q61,0 100-27t55-75h3l15,90h56L454,50h76L521,0H456q-35,0-48,18t-8,46l9,55h-3q-30-59-72-95T225-12Zm16,50q32,0 62,11.5T359,88q23,24 41.5,57.5T426,221l22,129q4,26-2.5,49.5t-23,41T379,468t-63,10q-39,0-70-14t-53.5-38.5T155,367t-22-74l-11-63q-2-14-3-25.5T118,182q0-63 29.5-103.5T241,38ZM409,622q-23,0-39,8.5T335,651q-18,12-33,18t-31,6q-17,0-32.5-8.5T206,644l-22,30q19,20 42.5,33.5T278,721q23,0 39-8.5T352,692q18-12 33-18t31-6q17,0 32.5,8.5T481,699l22-30q-19-20-42.5-33.5T409,622Z" />
      <glyph unicode="&#xe4;" glyph-name="adieresis" horiz-adv-x="600" d="M225-12q-81,0-122,52.5T62,187q0,61 14,121.5T119.5,418t75,79.5T302,528q61,0 100-27t55-75h3l15,90h56L454,50h76L521,0H456q-35,0-48,18t-8,46l9,55h-3q-30-59-72-95T225-12Zm16,50q32,0 62,11.5T359,88q23,24 41.5,57.5T426,221l22,129q4,26-2.5,49.5t-23,41T379,468t-63,10q-39,0-70-14t-53.5-38.5T155,367t-22-74l-11-63q-2-14-3-25.5T118,182q0-63 29.5-103.5T241,38Zm6,593q-23,0-32.5,9T205,660q0,9 3,20q4,17 14.5,26t33.5,9t32.5-9t9.5-20q0-10-3-20q-4-17-14.5-26T247,631Zm184,0q-23,0-32.5,9T389,660q0,9 3,20q4,17 14.5,26t33.5,9t32.5-9t9.5-20q0-10-3-20q-4-17-14.5-26T431,631Z" />
      <glyph unicode="&#xe5;" glyph-name="aring" horiz-adv-x="600" d="M225-12q-81,0-122,52.5T62,187q0,61 14,121.5T119.5,418t75,79.5T302,528q61,0 100-27t55-75h3l15,90h56L454,50h76L521,0H456q-35,0-48,18t-8,46l9,55h-3q-30-59-72-95T225-12Zm16,50q32,0 62,11.5T359,88q23,24 41.5,57.5T426,221l22,129q4,26-2.5,49.5t-23,41T379,468t-63,10q-39,0-70-14t-53.5-38.5T155,367t-22-74l-11-63q-2-14-3-25.5T118,182q0-63 29.5-103.5T241,38Zm91,548q-42,0-67,25t-25,65q0,25 9.5,47t26,38t38,25t46.5,9q42,0 67-25t25-65q0-26-9.5-47.5t-26-37.5t-38-25T332,586Zm4,36q29,0 47.5,15.5T407,682q4,19 4,30q0,22-14.5,34.5T356,759q-29,0-47.5-15.5T285,699q-4-19-4-30q0-22 14.5-34.5T336,622Z" />
      <glyph unicode="&#xe6;" glyph-name="ae" horiz-adv-x="600" d="M118-12Q65-12 33.5,18.5T2,106Q1,187 55,228.5T208,275l69,4l12,72q2,13 3,24t1,19q0,48-21.5,69.5T211,485q-43,0-70.5-21.5T90,404L55,428q23,42 62.5,71T214,528q61,0 89-31t27-77h4q50,108 147,108q51,0 81.5-30.5T593,415q0-36-14-67t-46-54t-83.5-37T322,241l-3-19q-3-18-4.5-35T313,156q0-63 22-93t62-30q42,0 69.5,28T516,134l40-20q-11-24-26.5-47T494,26.5t-45-28T394-12q-53,0-86,33.5T272,120h-5q-16-61-52-96.5T118-12Zm11,43q25,0 46.5,9.5t38,26.5T241,106.5T256,155l14,84l-61-3q-34-2-60.5-7T103,212.5T72,183T55,137q-3-14-3.5-21.5T51,103q0-34 20-53t58-19ZM477,485q-28,0-52.5-14t-43-39T350,372.5T331,297l-3-17q117,3 167,38t50,95q0,34-18,53t-50,19Z" />
      <glyph unicode="&#xe7;" glyph-name="ccedilla" horiz-adv-x="600" d="M339,528q74,0 116-34.5T510,408l-48-18q-14,48-46.5,68.5T333,479q-74,0-122.5-47.5T148,297l-9-56q-3-17-4-27.5T134,191q0-72 36-113T274,37q23,0 44.5,6T362,64t45,40.5T456,168l41-23Q453,73 403,32.5T281-11h-3L257-66l2-2q9,2 18.5,2.5T293-65q28,0 43.5-14.5T352-122q0-41-30.5-62T246-205q-35,0-57,11.5T157-168l30,30q9-12 23-19.5t36-7.5q26,0 42,11.5T304-122q0,13-11,24.5T247-82l-33,3l26,69Q160-1 119,57.5T78,204q0,75 20,135t55.5,102t83,64.5T339,528Z" />
      <glyph unicode="&#xe8;" glyph-name="egrave" horiz-adv-x="600" d="M275-12q-96,0-147,55.5T77,210q0,68 20,126t56.5,101t87,67T352,528q76,0 122.5-34.5T521,395q0-26-12.5-55T456,286T339.5,243T136,222q-1-8-1-15t0-9q0-33 6.5-62t23-51.5T209,49t71-13q60,0 102,31t81,95l41-25Q461,62 407,25T275-12Zm71,493q-79,0-134-51.5T143,281l-3-18q104,3 167.5,15T406,308.5T452.5,349T464,393q0,37-27,62.5T346,481ZM283,751l53,21l65-167l-37-15L283,751Z" />
      <glyph unicode="&#xe9;" glyph-name="eacute" horiz-adv-x="600" d="M275-12q-96,0-147,55.5T77,210q0,68 20,126t56.5,101t87,67T352,528q76,0 122.5-34.5T521,395q0-26-12.5-55T456,286T339.5,243T136,222q-1-8-1-15t0-9q0-33 6.5-62t23-51.5T209,49t71-13q60,0 102,31t81,95l41-25Q461,62 407,25T275-12Zm71,493q-79,0-134-51.5T143,281l-3-18q104,3 167.5,15T406,308.5T452.5,349T464,393q0,37-27,62.5T346,481Zm14,109l-34,21L445,772l49-29L360,590Z" />
      <glyph unicode="&#xea;" glyph-name="ecircumflex" horiz-adv-x="600" d="M275-12q-96,0-147,55.5T77,210q0,68 20,126t56.5,101t87,67T352,528q76,0 122.5-34.5T521,395q0-26-12.5-55T456,286T339.5,243T136,222q-1-8-1-15t0-9q0-33 6.5-62t23-51.5T209,49t71-13q60,0 102,31t81,95l41-25Q461,62 407,25T275-12Zm71,493q-79,0-134-51.5T143,281l-3-18q104,3 167.5,15T406,308.5T452.5,349T464,393q0,37-27,62.5T346,481Zm78,279l94-142l-34-20L385,719L244,598l-29,25L354,760h70Z" />
      <glyph unicode="&#xeb;" glyph-name="edieresis" horiz-adv-x="600" d="M275-12q-96,0-147,55.5T77,210q0,68 20,126t56.5,101t87,67T352,528q76,0 122.5-34.5T521,395q0-26-12.5-55T456,286T339.5,243T136,222q-1-8-1-15t0-9q0-33 6.5-62t23-51.5T209,49t71-13q60,0 102,31t81,95l41-25Q461,62 407,25T275-12Zm71,493q-79,0-134-51.5T143,281l-3-18q104,3 167.5,15T406,308.5T452.5,349T464,393q0,37-27,62.5T346,481ZM278,631q-23,0-32.5,9T236,660q0,9 3,20q4,17 14.5,26t33.5,9t32.5-9t9.5-20q0-10-3-20q-4-17-14.5-26T278,631Zm184,0q-23,0-32.5,9T420,660q0,9 3,20q4,17 14.5,26t33.5,9t32.5-9t9.5-20q0-10-3-20q-4-17-14.5-26T462,631Z" />
      <glyph unicode="&#xec;" glyph-name="igrave" horiz-adv-x="600" d="M253-12q-26,0-40,14T199,38q0,7 1.5,15.5T204,76l76,392H86l7,48H345L254,45l15-6L494,212l30-36L376,62q-26-20-43.5-34T301,5T276-8t-23-4Zm-4,763l53,21l65-167l-37-15L249,751Z" />
      <glyph unicode="&#xed;" glyph-name="iacute" horiz-adv-x="600" d="M253-12q-26,0-40,14T199,38q0,7 1.5,15.5T204,76l76,392H86l7,48H345L254,45l15-6L494,212l30-36L376,62q-26-20-43.5-34T301,5T276-8t-23-4Zm73,602l-34,21L411,772l49-29L326,590Z" />
      <glyph unicode="&#xee;" glyph-name="icircumflex" horiz-adv-x="600" d="M253-12q-26,0-40,14T199,38q0,7 1.5,15.5T204,76l76,392H86l7,48H345L254,45l15-6L494,212l30-36L376,62q-26-20-43.5-34T301,5T276-8t-23-4ZM390,760l94-142l-34-20L351,719L210,598l-29,25L320,760h70Z" />
      <glyph unicode="&#xef;" glyph-name="idieresis" horiz-adv-x="600" d="M253-12q-26,0-40,14T199,38q0,7 1.5,15.5T204,76l76,392H86l7,48H345L254,45l15-6L494,212l30-36L376,62q-26-20-43.5-34T301,5T276-8t-23-4Zm-9,643q-23,0-32.5,9T202,660q0,9 3,20q4,17 14.5,26t33.5,9t32.5-9t9.5-20q0-10-3-20q-4-17-14.5-26T244,631Zm184,0q-23,0-32.5,9T386,660q0,9 3,20q4,17 14.5,26t33.5,9t32.5-9t9.5-20q0-10-3-20q-4-17-14.5-26T428,631Z" />
      <glyph unicode="&#xf0;" glyph-name="eth" horiz-adv-x="600" d="M416,650q22-27 42.5-59.5t36-72T519,433t9-100q0-81-19-145T455,79.5t-85.5-68T256-12q-43,0-78,14.5t-59.5,41t-38,64T67,191q0,68 19,126t53,100t80.5,65.5T321,506q51,0 91-24.5T470,415l4,2q-10,54-36,106.5T373,623L265,555l-23,33l103,65q-25,25-53.5,46.5T231,740h89q15-11 33-26t36-34l109,70l23-34L416,650ZM265,37q72,0 124,44.5T457,213l9,50q3,17 3.5,30t0.5,23q0,69-38.5,105T329,457q-72,0-124-44.5T137,281l-9-50q-3-17-3.5-30T124,178q0-69 38.5-105T265,37Z" />
      <glyph unicode="&#xf1;" glyph-name="ntilde" horiz-adv-x="600" d="M70,0l86,516h56L192,397h4q29,61 70.5,96T372,528q66,0 102.5-38.5T511,382q0-14-1.5-30.5T505,319L452,0H396l52,313q3,17 4,32t1,26q0,52-24.5,79.5T355,478q-69,0-119-59q-15-18-34-48.5T175,296L126,0H70ZM433,622q-23,0-39,8.5T359,651q-18,12-33,18t-31,6q-17,0-32.5-8.5T230,644l-22,30q19,20 42.5,33.5T302,721q23,0 39-8.5T376,692q18-12 33-18t31-6q17,0 32.5,8.5T505,699l22-30q-19-20-42.5-33.5T433,622Z" />
      <glyph unicode="&#xf2;" glyph-name="ograve" horiz-adv-x="600" d="M265-12q-48,0-84.5,15.5T120,46.5t-36.5,66T71,196q0,77 20,138.5T146,439t83.5,66T335,528q48,0 84.5-15.5t60.5-43t36.5-66T529,320q0-77-20-138.5T454,77T370.5,11T265-12Zm4,49q79,0 127.5,50T459,225l9,56q3,17 4,28t1,24q0,69-36,107.5T331,479q-79,0-127.5-50T141,291l-9-56q-3-17-4-28t-1-24q0-69 36-107.5T269,37Zm4,714l53,21l65-167l-37-15L273,751Z" />
      <glyph unicode="&#xf3;" glyph-name="oacute" horiz-adv-x="600" d="M265-12q-48,0-84.5,15.5T120,46.5t-36.5,66T71,196q0,77 20,138.5T146,439t83.5,66T335,528q48,0 84.5-15.5t60.5-43t36.5-66T529,320q0-77-20-138.5T454,77T370.5,11T265-12Zm4,49q79,0 127.5,50T459,225l9,56q3,17 4,28t1,24q0,69-36,107.5T331,479q-79,0-127.5-50T141,291l-9-56q-3-17-4-28t-1-24q0-69 36-107.5T269,37Zm81,553l-34,21L435,772l49-29L350,590Z" />
      <glyph unicode="&#xf4;" glyph-name="ocircumflex" horiz-adv-x="600" d="M265-12q-48,0-84.5,15.5T120,46.5t-36.5,66T71,196q0,77 20,138.5T146,439t83.5,66T335,528q48,0 84.5-15.5t60.5-43t36.5-66T529,320q0-77-20-138.5T454,77T370.5,11T265-12Zm4,49q79,0 127.5,50T459,225l9,56q3,17 4,28t1,24q0,69-36,107.5T331,479q-79,0-127.5-50T141,291l-9-56q-3-17-4-28t-1-24q0-69 36-107.5T269,37ZM414,760l94-142l-34-20L375,719L234,598l-29,25L344,760h70Z" />
      <glyph unicode="&#xf5;" glyph-name="otilde" horiz-adv-x="600" d="M265-12q-48,0-84.5,15.5T120,46.5t-36.5,66T71,196q0,77 20,138.5T146,439t83.5,66T335,528q48,0 84.5-15.5t60.5-43t36.5-66T529,320q0-77-20-138.5T454,77T370.5,11T265-12Zm4,49q79,0 127.5,50T459,225l9,56q3,17 4,28t1,24q0,69-36,107.5T331,479q-79,0-127.5-50T141,291l-9-56q-3-17-4-28t-1-24q0-69 36-107.5T269,37ZM430,622q-23,0-39,8.5T356,651q-18,12-33,18t-31,6q-17,0-32.5-8.5T227,644l-22,30q19,20 42.5,33.5T299,721q23,0 39-8.5T373,692q18-12 33-18t31-6q17,0 32.5,8.5T502,699l22-30q-19-20-42.5-33.5T430,622Z" />
      <glyph unicode="&#xf6;" glyph-name="odieresis" horiz-adv-x="600" d="M265-12q-48,0-84.5,15.5T120,46.5t-36.5,66T71,196q0,77 20,138.5T146,439t83.5,66T335,528q48,0 84.5-15.5t60.5-43t36.5-66T529,320q0-77-20-138.5T454,77T370.5,11T265-12Zm4,49q79,0 127.5,50T459,225l9,56q3,17 4,28t1,24q0,69-36,107.5T331,479q-79,0-127.5-50T141,291l-9-56q-3-17-4-28t-1-24q0-69 36-107.5T269,37Zm-1,594q-23,0-32.5,9T226,660q0,9 3,20q4,17 14.5,26t33.5,9t32.5-9t9.5-20q0-10-3-20q-4-17-14.5-26T268,631Zm184,0q-23,0-32.5,9T410,660q0,9 3,20q4,17 14.5,26t33.5,9t32.5-9t9.5-20q0-10-3-20q-4-17-14.5-26T452,631Z" />
      <glyph unicode="&#xf7;" glyph-name="divide" horiz-adv-x="600" d="M67,281l8,48H548l-8-48H67ZM269,63q-26,0-36,9.5T223,96q0,6 0.5,11.5T225,118q4,19 17,29.5T281,158t36-9.5T327,125q0-6-0.5-11.5T325,103q-4-19-17-29.5T269,63Zm65,389q-26,0-36,9.5T288,485q0,6 0.5,11.5T290,507q4,19 17,29.5T346,547t36-9.5T392,514q0-6-0.5-11.5T390,492q-4-19-17-29.5T334,452Z" />
      <glyph unicode="&#xf8;" glyph-name="oslash" horiz-adv-x="600" d="M18-5L99,79Q71,129 71,196q0,77 20,138.5T146,439t83.5,66T335,528q48,0 83-15.5T478,471l73,76l31-26l-81-84q28-50 28-117q0-77-20-138.5T454,77T370.5,11T265-12q-48,0-83,15.5T122,45L49-31L18-5ZM331,479q-79,0-127.5-50T141,291l-9-56q-3-17-4-28t-1-24q0-18 2.5-34.5T139,118L442,435q-18,21-45.5,32.5T331,479ZM269,37q79,0 127.5,50T459,225l9,56q3,17 4,28t1,24q0,18-2.5,34.5T461,398L158,81q38-44 111-44Z" />
      <glyph unicode="&#xf9;" glyph-name="ugrave" horiz-adv-x="600" d="M408,119h-4q-29-61-70.5-96T228-12q-66,0-102.5,38.5T89,134q0,31 6,63l53,319h56L152,203q-3-17-4-32t-1-26q0-52 24.5-79.5T245,38q35,0 65,15t54,44q15,18 34,48.5T425,220l49,296h56L444,0H388l20,119ZM273,751l53,21l65-167l-37-15L273,751Z" />
      <glyph unicode="&#xfa;" glyph-name="uacute" horiz-adv-x="600" d="M408,119h-4q-29-61-70.5-96T228-12q-66,0-102.5,38.5T89,134q0,31 6,63l53,319h56L152,203q-3-17-4-32t-1-26q0-52 24.5-79.5T245,38q35,0 65,15t54,44q15,18 34,48.5T425,220l49,296h56L444,0H388l20,119ZM350,590l-34,21L435,772l49-29L350,590Z" />
      <glyph unicode="&#xfb;" glyph-name="ucircumflex" horiz-adv-x="600" d="M408,119h-4q-29-61-70.5-96T228-12q-66,0-102.5,38.5T89,134q0,31 6,63l53,319h56L152,203q-3-17-4-32t-1-26q0-52 24.5-79.5T245,38q35,0 65,15t54,44q15,18 34,48.5T425,220l49,296h56L444,0H388l20,119Zm6,641l94-142l-34-20L375,719L234,598l-29,25L344,760h70Z" />
      <glyph unicode="&#xfc;" glyph-name="udieresis" horiz-adv-x="600" d="M408,119h-4q-29-61-70.5-96T228-12q-66,0-102.5,38.5T89,134q0,31 6,63l53,319h56L152,203q-3-17-4-32t-1-26q0-52 24.5-79.5T245,38q35,0 65,15t54,44q15,18 34,48.5T425,220l49,296h56L444,0H388l20,119ZM268,631q-23,0-32.5,9T226,660q0,9 3,20q4,17 14.5,26t33.5,9t32.5-9t9.5-20q0-10-3-20q-4-17-14.5-26T268,631Zm184,0q-23,0-32.5,9T410,660q0,9 3,20q4,17 14.5,26t33.5,9t32.5-9t9.5-20q0-10-3-20q-4-17-14.5-26T452,631Z" />
      <glyph unicode="&#xfd;" glyph-name="yacute" horiz-adv-x="600" d="M203-212q-60,0-102.5,18T31-143l40,38q20-27 53-42t83-15q75,0 121.5,38.5T389,4l21,124h-3q-29-60-71-95.5T230-3Q164-3 127.5,35.5T91,143q0,14 1.5,28.5T96,204l52,312h56L153,209q-3-16-4-30t-1-28q0-49 25-76.5T247,47q71,0 119,59q6,7 14.5,18.5T398,152t16.5,35T426,228l48,288h56L443-7q-18-108-81.5-156.5T203-212ZM351,590l-34,21L436,772l49-29L351,590Z" />
      <glyph unicode="&#xfe;" glyph-name="thorn" horiz-adv-x="600" d="M187,740h56L186,397h3q15,29 32.5,53T261,491.5t49.5,27T372,528q81,0 123.5-52.5T538,329q0-61-14.5-122T479,97.5t-75.5-79T295-12q-62,0-101.5,27T138,90h-3L86-200H30L187,740ZM281,38q39,0 70.5,14T406,90.5T444.5,149T467,223l11,63q2,14 3,25.5t1,22.5q0,63-30.5,103.5T356,478q-32,0-62-12t-56-38q-23-24-42.5-57.5T169,295L147,166q-5-26 2-49.5t24-41T217.5,48T281,38Z" />
      <glyph unicode="&#xff;" glyph-name="ydieresis" horiz-adv-x="600" d="M203-212q-60,0-102.5,18T31-143l40,38q20-27 53-42t83-15q75,0 121.5,38.5T389,4l21,124h-3q-29-60-71-95.5T230-3Q164-3 127.5,35.5T91,143q0,14 1.5,28.5T96,204l52,312h56L153,209q-3-16-4-30t-1-28q0-49 25-76.5T247,47q71,0 119,59q6,7 14.5,18.5T398,152t16.5,35T426,228l48,288h56L443-7q-18-108-81.5-156.5T203-212Zm66,843q-23,0-32.5,9T227,660q0,9 3,20q4,17 14.5,26t33.5,9t32.5-9t9.5-20q0-10-3-20q-4-17-14.5-26T269,631Zm184,0q-23,0-32.5,9T411,660q0,9 3,20q4,17 14.5,26t33.5,9t32.5-9t9.5-20q0-10-3-20q-4-17-14.5-26T453,631Z" />
      <glyph unicode="&#x2013;" glyph-name="endash" horiz-adv-x="600" d="M64,279l9,51H550l-9-51H64Z" />
      <glyph unicode="&#x2014;" glyph-name="emdash" horiz-adv-x="600" d="M5,279l9,51H610l-9-51H5Z" />
      <glyph unicode="&#x2018;" glyph-name="quoteleft" horiz-adv-x="600" d="M395,740h47L345,474H252L395,740Z" />
      <glyph unicode="&#x2019;" glyph-name="quoteright" horiz-adv-x="600" d="M373,740h94L323,474H276l97,266Z" />
      <glyph unicode="&#x201a;" glyph-name="quotesinglbase" horiz-adv-x="600" d="M243,113h94L194-153H146l97,266Z" />
      <glyph unicode="&#x201c;" glyph-name="quotedblleft" horiz-adv-x="600" d="M294,740h47L244,474H151L294,740Zm210,0h47L454,474H361L504,740Z" />
      <glyph unicode="&#x201d;" glyph-name="quotedblright" horiz-adv-x="600" d="M272,740h94L222,474H175l97,266Zm210,0h94L432,474H385l97,266Z" />
      <glyph unicode="&#x201e;" glyph-name="quotedblbase" horiz-adv-x="600" d="M154,113h94L105-153H57l97,266Zm209,0h94L314-153H266l97,266Z" />
      <glyph unicode="&#x2022;" glyph-name="bullet" horiz-adv-x="600" d="M290,199q-51,0-71.5,21T198,273q0,5 1,13t5,30q7,41 35,67.5T326,410q51,0 71.5-21T418,336q0-5-1-13t-5-30q-7-41-35-67.5T290,199Z" />
      <glyph unicode="&#x2039;" glyph-name="guilsinglleft" horiz-adv-x="600" d="M345,64L167,242l9,55L413,474l12-43L230,265L370,101L345,64Z" />
      <glyph unicode="&#x203a;" glyph-name="guilsinglright" horiz-adv-x="600" d="M179,107L374,273L234,438l25,36L437,297l-9-55L191,64l-12,43Z" />
    </font>
</defs>
</svg>
