<?xml version="1.0" standalone="no"?>
<!DOCTYPE svg PUBLIC "-//W3C//DTD SVG 1.1//EN" "http://www.w3.org/Graphics/SVG/1.1/DTD/svg11.dtd">
<svg xmlns="http://www.w3.org/2000/svg">
  <defs>
    <font id="IBMPlexMono" horiz-adv-x="600">
      <font-face font-family="IBM Plex Mono Medium" units-per-em="1000" panose-1="2 11 6 9 5 2 3 0 2 3" ascent="1025" descent="-275" alphabetic="0" />
      <glyph unicode=" " glyph-name="space" horiz-adv-x="600" />
      <glyph unicode="!" glyph-name="exclam" horiz-adv-x="600" d="M275,237l5,258l34,203H431L397,495L315,237H275ZM257-10q-41,0-58,15T182,42q0,5 1,13.5T187,82q5,27 25,46t66,19q41,0 58-15t17-37q0-5-1-13.5T348,55q-5-27-25-46T257-10Z" />
      <glyph unicode="&quot;" glyph-name="quotedbl" horiz-adv-x="600" d="M186,443l49,297h98L284,443H186Zm194,0l49,297h98L478,443H380Z" />
      <glyph unicode="#" glyph-name="numbersign" horiz-adv-x="600" d="M128,208H7l14,82H156l40,118H75l14,82H224l72,208h90L148,0H57l71,208ZM484,698h90L503,490H624l-14-82H475L435,290H556l-14-82H407L336,0H245L484,698Z" />
      <glyph unicode="$" glyph-name="dollar" horiz-adv-x="600" d="M218-8Q149,0 98,31T21,107l74,67q53-79 142-92l39,234l-18,5Q97,362 97,495q0,47 17,85t48.5,66T238,690t99,19l17,102h82L419,705q61-10 103.5-38T588,601l-74-63q-21,31-49.5,50T398,614L362,396l21-5q81-21 122-63t41-110q0-48-17-88.5T480,59T402.5,11T299-11L282-113H200L218-8ZM205,505q0-38 22-57.5T293,416l33,200q-58-6-89.5-35.5T205,505ZM437,208q0,35-21.5,56T345,298L310,82q60,8 93.5,41T437,208Z" />
      <glyph unicode="%" glyph-name="percent" horiz-adv-x="600" d="M190,349q-62,0-97,37T58,494q0,48 13.5,87.5t37,68T165,694t72,16q62,0 97-37t35-108q0-48-13.5-88t-37-68.5t-56.5-44T190,349Zm4,67q40,0 59,25.5T278,503q5,32 8,48.5t3,27.5q0,64-56,64q-40,0-59-25.5T149,556q-5-32-8-48.5T138,480q0-64 56-64ZM575,698h88L457,398H369L575,698ZM176,300h88L58,0H-30L176,300ZM396-12q-62,0-97,37T264,133q0,48 13.5,87.5t37,68T371,333t72,16q62,0 97-37t35-108q0-48-13.5-88t-37-68.5T468,3.5T396-12Zm4,67q40,0 59,25.5T484,142q5,32 8,48.5t3,27.5q0,64-56,64q-40,0-59-25.5T355,195q-5-32-8-48.5T344,119q0-64 56-64Z" />
      <glyph unicode="&amp;" glyph-name="ampersand" horiz-adv-x="600" d="M159-12Q87-12 46,37T5,171q0,39 9.5,77t31,68.5t58,51.5T194,393q-17,40-26,72.5T159,531q0,39 13.5,72t39,57t61,37T352,710q76,0 123-44t47-127q0-90-52.5-143.5T326,326L435,86l17-2l74,115l67-41L543,70Q518,25 493.5,6.5T435-12q-42,0-71.5,35T312,136h-5Q296,58 255,23T159-12Zm30,93q41,0 65,22t35,64L214,344q-29-5-46.5-16t-28-25.5t-15-31.5T117,237q-3-19-3.5-33.5T113,178q0-51 19.5-74T189,81ZM344,629q-40,0-62.5-25T259,532q0-33 9.5-65.5T298,390l8-16q46,13 72,37.5T414,473q5,20 7,36.5t2,30.5q0,46-22,67.5T344,629Z" />
      <glyph unicode="&apos;" glyph-name="quotesingle" horiz-adv-x="600" d="M282,443l49,297h98L380,443H282Z" />
      <glyph unicode="(" glyph-name="parenleft" horiz-adv-x="600" d="M191,226q0,85 23.5,165T278,541t91,126t107,93H586q-52-36-99-80t-84.5-95t-64-107.5T302,361l-15-89q-3-18-4-35t-1-34q0-51 12.5-100T328,10t49-81.5T437-138H337q-31,28-57.5,66.5t-46,85t-31,100T191,226Z" />
      <glyph unicode=")" glyph-name="parenright" horiz-adv-x="600" d="M429,397q0-85-23.5-165.5t-63-150t-91-126T144-138H35q51,36 98,80.5T217.5,38t64,107.5T318,262l15,88q3,18 4,35t1,34q0,51-12.5,100T292,612t-49.5,81.5T183,760H283q31-28 57.5-66t46-84.5t31-100.5T429,397Z" />
      <glyph unicode="*" glyph-name="asterisk" horiz-adv-x="600" d="M150,50L79,104L224,265L50,330l40,82l177-63l33,200h95L361,349l194,63l14-85L373,260l92-158L386,50L293,212L150,50Z" />
      <glyph unicode="+" glyph-name="plus" horiz-adv-x="600" d="M220,62l33,200H64l14,87H268l33,200h95L363,349H552l-14-87H348L315,62H220Z" />
      <glyph unicode="," glyph-name="comma" horiz-adv-x="600" d="M226,151H378L209-145H123L226,151Z" />
      <glyph unicode="-" glyph-name="hyphen" horiz-adv-x="600" d="M149,251l18,107H466L448,251H149Z" />
      <glyph unicode="." glyph-name="period" horiz-adv-x="600" d="M257-10q-42,0-59.5,15.5T180,44q0,8 1.5,17T185,84q5,32 28.5,50T279,152t59.5-15.5T356,98q0-8-1.5-17T351,58q-5-32-28.5-50T257-10Z" />
      <glyph unicode="/" glyph-name="slash" horiz-adv-x="600" d="M15-138L498,760h98L113-138H15Z" />
      <glyph unicode="0" glyph-name="zero" horiz-adv-x="600" d="M268-12Q155-12 103,53.5T51,238q0,50 6.5,104T79,448.5t38.5,100T176,632t81,57t105,21q113,0 165-65.5T579,460q0-50-6.5-104T551,249.5t-38.5-100T454,66T373,9T268-12Zm3,90q38,0 67,14.5t50.5,42t35.5,67T446,290l19,114q4,23 6,43.5t2,38.5q0,63-27,98.5T359,620q-38,0-67-14.5t-50.5-42t-35.5-67T184,408L165,294q-4-23-6-43.5T157,212q0-63 27-98.5T271,78Zm36,213q-31,0-44,11t-13,28q0,9 3,27q4,23 19.5,36.5T323,407q31,0 44-11t13-28q0-9-3-27q-4-23-19.5-36.5T307,291Z" />
      <glyph unicode="1" glyph-name="one" horiz-adv-x="600" d="M44,0L59,92H254l88,524h-9L146,442L84,505L290,698H465L364,92H533L518,0H44Z" />
      <glyph unicode="2" glyph-name="two" horiz-adv-x="600" d="M501,0H22L40,106L301,307q39,30 64.5,53.5T407,405t24.5,42T444,493q2,9 2.5,15.5T447,523q0,41-28,66.5T340,615q-29,0-51.5-9T248,582t-31.5-35.5T193,504L97,541q16,35 39,66t54,54t71,36t90,13t89.5-13.5t66.5-38T548.5,600T563,525q0-43-14-79.5t-40-70T445,309t-86-69L164,93H517L501,0Z" />
      <glyph unicode="3" glyph-name="three" horiz-adv-x="600" d="M293,410q65,0 102.5,26T441,507q4,23 4,30q0,38-28.5,59.5T340,618q-51,0-89-23t-67-64l-67,66q20,24 43.5,44.5T213,677t64,24t79,9q46,0 84.5-11T506,667.5t42-50T563,550q0-66-43.5-115T397,368l-1-4q54-9 89-47t35-103q0-47-18-88T449,54.5T363,6T246-12q-50,0-87,10.5T95,27T49.5,68T19,116l84,56q10-20 22.5-37t30-29t41-19T253,80q63,0 101.5,28T402,190q3,18 3,32q0,45-30.5,70T284,317H205l16,93h72Z" />
      <glyph unicode="4" glyph-name="four" horiz-adv-x="600" d="M321,0l23,136H11l17,99L403,698H543L463,223h99l-15-87H449L426,0H321ZM123,223H358l60,356h-6L123,223Z" />
      <glyph unicode="5" glyph-name="five" horiz-adv-x="600" d="M564,603H249L190,353h6q15,21 31,37.5T262,419t42,18t52,6q41,0 75.5-13t59-37T529,334.5T543,256q0-51-18-99.5t-53-86t-88-60T261-12q-47,0-83.5,10.5T113.5,27t-47,40.5T35,114l90,58q19-40 51.5-65.5T268,81q65,0 104,33.5T421,207q2,14 3,22t1,20q0,49-29.5,76T309,352q-46,0-76.5-17T179,297L90,309l90,389H580l-16-95Z" />
      <glyph unicode="6" glyph-name="six" horiz-adv-x="600" d="M265-12Q161-12 106,48T51,211q0,78 29,151.5T155.5,499T260,613t117,85H530q-67-42-121-82t-96.5-82.5T238,444T183,341l6-2q15,20 32.5,38.5T261,410t48,22.5t59,8.5q83,0 131.5-50.5T548,255q0-53-19-101T474,69T385,10T265-12Zm12,89q63,0 102.5,34T430,208q2,9 3,18.5t1,18.5q0,108-117,108q-62,0-102-33t-51-97q-2-9-3-18.5T160,186q0-54 30-81.5T277,77Z" />
      <glyph unicode="7" glyph-name="seven" horiz-adv-x="600" d="M122,0L479,606H209L187,477H91l37,221H608l-16-96L242,0H122Z" />
      <glyph unicode="8" glyph-name="eight" horiz-adv-x="600" d="M261-12q-57,0-99.5,13t-71,36T48,92T34,163q0,73 45.5,126.5T206,363l1,7q-46,17-70.5,51.5T112,507q0,37 16,73.5T176,646t81,46.5T371,710q102,0 154.5-43.5T578,551q0-61-38.5-109.5T430,369l-1-7q54-16 84.5-52.5T544,210q0-43-18-83T472.5,56T384,6.5T261-12Zm9,88q70,0 108.5,31T425,188q2,14 3.5,22t1.5,18q0,44-31.5,68.5T308,321q-70,0-108.5-31T153,209q-2-14-3.5-22T148,169q0-44 31.5-68.5T270,76Zm56,329q61,0 96,28t43,73q3,18 3,32q0,40-28,62t-82,22q-61,0-96-28t-43-73q-3-18-3-32q0-40 28-62t82-22Z" />
      <glyph unicode="9" glyph-name="nine" horiz-adv-x="600" d="M574,487q0-78-29-151.5T469.5,199T365,85T248,0H95q67,42 121,82t96.5,82.5T387,254t55,103l-6,2q-15-20-32.5-38.5T364,288t-48-22.5T257,257q-83,0-131.5,50.5T77,443q0,52 19,100.5T151,629t88.5,59T360,710q104,0 159-60t55-163ZM308,345q62,0 102,33t51,97q2,9 3,18.5t1,18.5q0,54-30,81.5T348,621q-63,0-102.5-34T195,490q-2-9-3-18.5T191,453q0-108 117-108Z" />
      <glyph unicode=":" glyph-name="colon" horiz-adv-x="600" d="M257-10q-42,0-59.5,15.5T180,44q0,8 1.5,17T185,84q5,32 28.5,50T279,152t59.5-15.5T356,98q0-8-1.5-17T351,58q-5-32-28.5-50T257-10Zm61,374q-42,0-59.5,15.5T241,418q0,8 1.5,17t3.5,23q5,32 28.5,50T340,526t59.5-15.5T417,472q0-8-1.5-17T412,432q-5-32-28.5-50T318,364Z" />
      <glyph unicode=";" glyph-name="semicolon" horiz-adv-x="600" d="M226,151H378L209-145H123L226,151Zm92,213q-42,0-59.5,15.5T241,418q0,8 1.5,17t3.5,23q5,32 28.5,50T340,526t59.5-15.5T417,472q0-8-1.5-17T412,432q-5-32-28.5-50T318,364Z" />
      <glyph unicode="&lt;" glyph-name="less" horiz-adv-x="600" d="M85,255l17,102L570,598L552,488L192,305l-1-8L490,113L473,15L85,255Z" />
      <glyph unicode="=" glyph-name="equal" horiz-adv-x="600" d="M82,368l14,87H569l-14-87H82ZM47,156l14,87H534l-14-87H47Z" />
      <glyph unicode="&gt;" glyph-name="greater" horiz-adv-x="600" d="M66,125L426,308l1,8L128,500l17,98L533,358L516,256L48,15L66,125Z" />
      <glyph unicode="?" glyph-name="question" horiz-adv-x="600" d="M219,223l25,155q46,4 81,12.5T384.5,414T423,451.5T443,508q1,5 1.5,10.5T445,532q0,40-28,62.5T344,617q-53,0-85.5-29T208,512l-89,40q12,32 32.5,60.5t50,50.5t68,34.5T357,710q96,0 149.5-48T560,532q0-50-19-88.5t-50-66t-71-44T339,311l-15-88H219ZM238-10q-41,0-58,15T163,42q0,5 1,13.5T168,82q5,27 25,46t66,19q41,0 58-15t17-37q0-5-1-13.5T329,55q-5-27-25-46T238-10Z" />
      <glyph unicode="@" glyph-name="at" horiz-adv-x="600" d="M407-112H289q-130,0-185.5,69.5T48,159q0,43 5,92t13,99q15,87 38.5,154t59,112.5T248,686t115,24q53,0 92.5-14.5t65.5-41t39-63T573,512q0-11-1-24.5T569,460L508,91H420l14,84h-4q-17-41-43-68.5T316,79Q213,79 213,237q0,52 11,101t32.5,87T309,485.5T380,508t63-22t29-57h4l5,33q2,14 3.5,27.5T486,516q0,57-30,88t-94,31q-34,0-64.5-10.5t-56-39t-45-78T164,380L141,239q-2-11-3-25t-2-27.5T135,161t0-19q0-42 8-75t26.5-56T219-24t77-12H418l-11-76ZM353,152q20,0 35.5,11T415,188q9,12 19.5,33.5T450,274l16,94q2,11 0,23.5t-9,23t-19.5,17T406,438q-72,0-90-112l-6-38q-4-26-5-42.5T304,221q0-69 49-69Z" />
      <glyph unicode="A" glyph-name="A" horiz-adv-x="600" d="M424,0L404,186H177L95,0H-21L300,698H450L538,0H424ZM362,588h-9L217,279H395L362,588Z" />
      <glyph unicode="B" glyph-name="B" horiz-adv-x="600" d="M158,698H388q86,0 131-43.5T564,537q0-71-36.5-115T427,361l-1-4q51-13 80.5-45T536,220q0-46-16-86T474.5,64T403,17T310,0H41L158,698ZM286,85q56,0 89.5,23T417,176l5,30q2,9 3,18.5t1,17.5q0,75-99,75H202L163,85H286Zm37,313q54,0 84,20.5T445,484l5,30q3,18 3,29q0,38-24.5,54T361,613H251L215,398H323Z" />
      <glyph unicode="C" glyph-name="C" horiz-adv-x="600" d="M288-12Q173-12 119.5,55T66,246q0,97 21,181.5T148.5,575t100,99T385,710q52,0 89-14.5T535.5,657t38-56.5T591,532L488,506q-4,24-10.5,44.5t-19,35.5t-32,23.5T377,618q-73,0-116-56T201,406L184,304q-4-23-6-42t-2-42q0-64 28-102t94-38q27,0 49,9t40,25.5T420.5,155T452,210l91-35q-20-45-44-79.5T444,37T374.5,0.5T288-12Z" />
      <glyph unicode="D" glyph-name="D" horiz-adv-x="600" d="M159,698H345q56,0 99-17t72-48t44-75t15-98q0-228-86-344T250,0H42L159,698ZM255,91q78,0 123.5,48.5T440,283l18,109q3,18 5,39t2,39q0,137-132,137H253L167,91h88Z" />
      <glyph unicode="E" glyph-name="E" horiz-adv-x="600" d="M42,0L159,698H595l-16-93H253L218,400H533l-16-93H203L167,93H495L479,0H42Z" />
      <glyph unicode="F" glyph-name="F" horiz-adv-x="600" d="M42,0L159,698H607l-16-93H253L218,400H527l-16-92H203L152,0H42Z" />
      <glyph unicode="G" glyph-name="G" horiz-adv-x="600" d="M408,102h-7q-14-23-28.5-44T339,21.5T296-3t-57-9q-88,0-135,64T57,242q0,96 20,181t59.5,149T236,673t140,37q50,0 86.5-14.5t60.5-39T560,600t18-68L475,506q-4,22-10.5,42.5t-19,36t-32,24.5T365,618q-74,0-115-57.5T193,407L176,307q-3-18-5-42t-2-40q0-67 25.5-106.5T279,79q32,0 57.5,11.5t44,31T411,167t17,55l9,51H300l14,83H549L490,0H391l17,102Z" />
      <glyph unicode="H" glyph-name="H" horiz-adv-x="600" d="M426,308H192L141,0H31L147,698H257L208,400H441l49,298H600L484,0H374l52,308Z" />
      <glyph unicode="I" glyph-name="I" horiz-adv-x="600" d="M38,0L52,84H216l89,530H141l14,84H593l-14-84H415L326,84H490L476,0H38Z" />
      <glyph unicode="J" glyph-name="J" horiz-adv-x="600" d="M566,698L480,186Q463,82 401.5,35T246-12q-91,0-143,46.5T46,165l104,21q2-22 7.5-41t17-33.5t30-22.5T252,81q100,0 120,117l68,407H195l16,93H566Z" />
      <glyph unicode="K" glyph-name="K" horiz-adv-x="600" d="M288,319L181,208L146,0H36L152,698H262L206,362h6L337,502L521,698H654L372,396L543,0H422L288,319Z" />
      <glyph unicode="L" glyph-name="L" horiz-adv-x="600" d="M67,0L183,698H293L192,93H511L495,0H67Z" />
      <glyph unicode="M" glyph-name="M" horiz-adv-x="600" d="M459,334l39,212h-8L288,187L207,546h-8L167,334L112,0H14L130,698H260l62-279h7L484,698H617L501,0H403l56,334Z" />
      <glyph unicode="N" glyph-name="N" horiz-adv-x="600" d="M228,546h-8L129,0H31L147,698H291L403,152h8l91,546h98L484,0H340L228,546Z" />
      <glyph unicode="O" glyph-name="O" horiz-adv-x="600" d="M268-12Q155-12 103,53T51,236q0,50 6.5,105t21,107.5t38.5,100T175.5,632T256,689t106,21q113,0 165-65t52-183q0-51-6.5-105.5t-21-107T513,149.5T454.5,66T374,9T268-12Zm3,92q73,0 114,55.5T443,291l19,115q4,23 5.5,42t1.5,37q0,63-26,98t-84,35q-73,0-114-55.5T187,407L168,292q-4-23-5.5-42T161,213q0-63 26-98t84-35Z" />
      <glyph unicode="P" glyph-name="P" horiz-adv-x="600" d="M43,0L159,698H410q45,0 78.5-12.5t56-35.5T578,595t11-70q0-115-62.5-180T352,280H200L153,0H43ZM215,372H347q105,0 120,90l6,36q1,5 2,15t1,19q0,74-91,74H254L215,372Z" />
      <glyph unicode="Q" glyph-name="Q" horiz-adv-x="600" d="M394-192q-29,0-48,14.5T313-141L224-9Q135,3 93,66T51,236q0,50 6.5,105T79,448.5t38.5,100T176,632t81,57t105,21q113,0 165-65t52-183q0-45-5.5-94t-17-97.5t-30.5-93T480,96T416.5,33T334-4l64-97l14-4l94,88l57-51l-55-56q-19-19-33.5-32T447-177t-25.5-11.5T394-192ZM271,80q73,0 114,55.5T443,291l19,115q4,23 5.5,42t1.5,37q0,63-26,98t-84,35q-73,0-114-55.5T187,407L168,292q-4-23-5.5-42T161,213q0-63 26-98t84-35Z" />
      <glyph unicode="R" glyph-name="R" horiz-adv-x="600" d="M152,0H43L159,698H410q90,0 134.5-48T589,525q0-100-50.5-160.5T397,291L511,0H394L292,283H199L152,0ZM347,372q105,0 120,90l6,36q1,5 2,15t1,19q0,74-89,74H254L215,372H347Z" />
      <glyph unicode="S" glyph-name="S" horiz-adv-x="600" d="M267-12q-90,0-153,31.5T20,104l75,68q63-92 178-92q72,0 112,34.5T425,208q0,40-22,62t-76,34l-72,17q-81,18-117.5,62T101,494q0,49 18.5,89T172,651.5T253.5,695T360,710q85,0 142-30.5T588,602l-76-63q-26,39-64.5,59.5T355,619q-67,0-104-31t-37-84q0-41 24.5-61.5T315,410l70-17q82-20 117.5-63T538,220q0-51-18.5-94T466,52.5T380.5,5T267-12Z" />
      <glyph unicode="T" glyph-name="T" horiz-adv-x="600" d="M413,605L312,0H202L303,605H83l16,93H649l-16-93H413Z" />
      <glyph unicode="U" glyph-name="U" horiz-adv-x="600" d="M253,698L184,285q-7-41-10-66t-3-41q0-23 4.5-41t16-31t31-19.5T271,80q43,0 69,12.5t41.5,36T405,186t15,76l73,436H603L534,284q-12-74-28-129.5T461.5,62T387,6.5T269-12q-57,0-96.5,12.5t-64,36t-35,57T63,170q0,29 4.5,66T78,309l65,389H253Z" />
      <glyph unicode="V" glyph-name="V" horiz-adv-x="600" d="M180,0L99,698H211l35-350l24-241h7L380,348L528,698H646L334,0H180Z" />
      <glyph unicode="W" glyph-name="W" horiz-adv-x="600" d="M31,0L97,698h96L151,295L132,105h9L288,529H400l9-424h9l41,183l94,410h94L481,0H331l-2,406h-9L181,0H31Z" />
      <glyph unicode="X" glyph-name="X" horiz-adv-x="600" d="M540,0H420L362,140L308,273h-6L206,140L101,0H-23L253,360L106,698H226l53-125l51-127h5l93,127l94,125H646L386,356L540,0Z" />
      <glyph unicode="Y" glyph-name="Y" horiz-adv-x="600" d="M203,0l43,261L85,698H202l62-175l47-151h6L417,523L535,698H661L357,266L313,0H203Z" />
      <glyph unicode="Z" glyph-name="Z" horiz-adv-x="600" d="M507,0H6L22,98L467,605H122l16,93H610l-16-98L150,93H523L507,0Z" />
      <glyph unicode="[" glyph-name="bracketleft" horiz-adv-x="600" d="M142-138L292,760H587l-13-77H368L244-61H450l-13-77H142Z" />
      <glyph unicode="\" glyph-name="backslash" horiz-adv-x="600" d="M359-138L173,760h87L446-138H359Z" />
      <glyph unicode="]" glyph-name="bracketright" horiz-adv-x="600" d="M463,760L313-138H18L31-61H237L361,683H155l13,77H463Z" />
      <glyph unicode="^" glyph-name="asciicircum" horiz-adv-x="600" d="M487,277L363,601h-7L132,276L52,318L315,698H432L574,313l-87-36Z" />
      <glyph unicode="_" glyph-name="underscore" horiz-adv-x="600" d="M-4-179L12-85H487l-16-94H-4Z" />
      <glyph unicode="`" glyph-name="grave" horiz-adv-x="600" d="M208,750l95,40l63-183l-67-28L208,750Z" />
      <glyph unicode="a" glyph-name="a" horiz-adv-x="600" d="M199-12Q122-12 85,40T48,188q0,62 14,123t43,109t73.5,78T284,528q57,0 91.5-27T424,423h5l15,93H551L480,86h63L528,0H463q-52,0-74.5,26T374,96l4,26h-4q-29-60-69-97T199-12Zm43,87q59,0 104,54q16,19 31,47t21,64l17,103q8,45-18.5,71.5T317,441q-65,0-99.5-40.5T172,297l-12-71q-2-9-3-20.5T156,183q0-49 20.5-78.5T242,75Z" />
      <glyph unicode="b" glyph-name="b" horiz-adv-x="600" d="M163,740H270L213,394h4q15,30 32,54.5T287,491t47.5,27.5T395,528q80,0 118.5-52T552,328q0-62-14.5-123T493,96T417.5,18T310-12q-59,0-94,27T167,93h-5L147,0H40L163,740ZM277,75q67,0 103.5,40.5T428,219l12,71q2,9 3,20.5t1,22.5q0,49-22,78.5T352,441q-60,0-106-54q-17-19-32-47t-21-64L176,173q-8-45 19.5-71.5T277,75Z" />
      <glyph unicode="c" glyph-name="c" horiz-adv-x="600" d="M271-12Q171-12 119,47T67,206q0,70 20,129.5t56.5,102t87,66.5T342,528q42,0 74-9.5t55-27T508.5,451T530,401l-89-39q-13,42-38,59.5T332,439q-55,0-92.5-35.5T190,296l-10-60q-2-14-3-25t-1-22q0-56 28.5-84T287,77q16,0 32.5,3.5t35,16t41.5,36T448,196l71-44q-25-40-51-70.5T413,30T349-1.5T271-12Z" />
      <glyph unicode="d" glyph-name="d" horiz-adv-x="600" d="M387,122h-4q-29-60-70-97T205-12Q125-12 86.5,40T48,188q0,62 14.5,123T107,420t75.5,78T290,528q59,0 94-27t49-78h5l52,317H597L474,0H367l20,122ZM248,75q59,0 106,54q17,19 32,47t21,64l17,103q8,45-19.5,71.5T323,441q-67,0-103.5-40.5T172,297l-12-71q-2-9-3-20.5T156,183q0-49 22-78.5T248,75Z" />
      <glyph unicode="e" glyph-name="e" horiz-adv-x="600" d="M279-12Q173-12 119.5,44T66,209q0,71 21.5,129.5t60,100.5t92,65.5T358,528q39,0 72-9t57.5-26.5t38.5-44T540,388q0-29-12.5-59T476,274T365,232T175,211q-1-7-1-12.5t0-7.5q0-24 5.5-45.5T198,108t35.5-25T291,74q25,0 45.5,5.5t39,17.5t37,31.5T452,177l70-45q-21-33-45-59.5t-53.5-45t-65-29T279-12Zm69,459q-66,0-108-39T185,289l-2-11q84,3 133.5,13.5t76,25t34,31.5t7.5,33q0,29-19.5,47.5T348,447Z" />
      <glyph unicode="f" glyph-name="f" horiz-adv-x="600" d="M188-212q-21,0-39,7.5T113.5-182T76-144.5T30-91L-22-28L51,29L182-123l16,4l91,548H115l14,87H303l16,96q9,54 46,91t106,37H646l-14-87H433L410,516H610l-14-87H396L310-86q-10-59-39-92.5T188-212Z" />
      <glyph unicode="g" glyph-name="g" horiz-adv-x="600" d="M216-212q-66,0-113.5,17T22-139L90-71q43-54 127-54q31,0 56.5,7t45,25T351-45.5T372,29l19,112h-5q-29-62-70-98.5T208,6Q127,6 88.5,59.5T50,204q0,58 14.5,116T108,424.5t74,75T289,528q60,0 95-27t49-78h5l15,93H560L477,18Q467-43 444.5-86.5t-56-71.5t-77-41T216-212ZM251,94q58,0 105,53q14,15 30.5,42T410,256l14,85q8,46-19.5,73T323,441q-66,0-103-40T172,296l-8-48q-2-12-3-23t-1-24q0-50 21.5-78.5T251,94Z" />
      <glyph unicode="h" glyph-name="h" horiz-adv-x="600" d="M168,740H275L217,394h5q29,62 68,98t102,36q69,0 104.5-41.5T532,379q0-18-1.5-37.5T524,296L475,0H368l50,300q2,14 4,29.5t2,28.5q0,35-17.5,59T349,441q-30,0-53.5-14T252,389q-10-12-28.5-42T198,276L152,0H45L168,740Z" />
      <glyph unicode="i" glyph-name="i" horiz-adv-x="600" d="M340,611q-38,0-53,14.5T272,660q0,6 1,14t3,17q5,27 22.5,42.5T354,749t53-14.5T422,700q0-6-1-14t-3-17q-5-27-22.5-42.5T340,611ZM282-12q-48,0-72,25T186,78q0,13 2,26t5,31l57,294H76l14,87H373L289,83l20-8L482,234l61-55l-78-78q-31-31-56-52.5t-46-35T322.5-6T282-12Z" />
      <glyph unicode="j" glyph-name="j" horiz-adv-x="600" d="M251-212q-21,0-39,7t-36.5,23T136-141.5T87-81L36-19l72,57L248-125l15,5l92,549H152l14,87H476L377-78q-11-63-40.5-98.5T251-212ZM442,611q-38,0-53,14.5T374,660q0,6 1,14t3,17q5,27 22.5,42.5T456,749t53-14.5T524,700q0-6-1-14t-3-17q-5-27-22.5-42.5T442,611Z" />
      <glyph unicode="k" glyph-name="k" horiz-adv-x="600" d="M168,740H275L217,394h5q13,29 30.5,53.5t39,42.5t48,28T399,528q63,0 99-35t36-90q0-29-9.5-56t-32-51.5t-60.5-45T338,215L397,79l14-2L522,181l55-55L514,61Q477,24 448,6T385-12q-35,0-56,19.5T291,67L223,227q110,28 156.5,65T426,376q0,31-19.5,49T349,443q-30,0-54-13.5T250,389q-18-23-32-49.5T198,277L152,0H45L168,740Z" />
      <glyph unicode="l" glyph-name="l" horiz-adv-x="600" d="M258-12q-50,0-72.5,25T163,80q0,20 6,52L269,653H99l15,87H393L266,82l21-7L465,236l60-55L439,97q-32-31-57-52T336,11.5t-40-18T258-12Z" />
      <glyph unicode="m" glyph-name="m" horiz-adv-x="600" d="M2,0L88,516h91l-14-85h5q18,42 44.5,69.5T283,528t62.5-27T362,428h4q19,45 48.5,72.5T490,528q44,0 66.5-25T579,430q0-15-2-36.5T572,354L513,0H422l57,341q2,14 4,30t2,26q0,49-39,49q-34,0-57-37q-11-18-20-39.5T356,325L302,0H211l58,346q2,14 3.5,26.5T274,396q0,50-36,50q-34,0-59-37q-13-19-20-39.5T148,330L93,0H2Z" />
      <glyph unicode="n" glyph-name="n" horiz-adv-x="600" d="M45,0l86,516H238L217,394h5q29,62 68,98t102,36q69,0 104.5-41.5T532,379q0-18-1.5-37.5T524,296L475,0H368l50,300q2,14 4,29.5t2,28.5q0,35-17.5,59T349,441q-30,0-53.5-14T252,389q-10-12-28.5-42T198,276L152,0H45Z" />
      <glyph unicode="o" glyph-name="o" horiz-adv-x="600" d="M265-12q-51,0-90,16T109.5,48.5T69,117.5T55,208q0,74 21,133t58.5,100.5t89,64T335,528q51,0 90-16t65.5-44.5T531,398t14-90q0-74-21-133T465.5,74.5t-89-64T265-12Zm7,85q63,0 101,38.5T422,218l11,66q2,14 3.5,26t1.5,21q0,57-29.5,84.5T328,443q-63,0-101-38.5T178,298l-11-66q-2-14-3.5-26T162,185q0-57 29.5-84.5T272,73Z" />
      <glyph unicode="p" glyph-name="p" horiz-adv-x="600" d="M126,516H233L213,394h4q15,30 32,54.5T287,491t47.5,27.5T395,528q80,0 118.5-52T552,328q0-62-14.5-123T493,96T417.5,18T310-12q-59,0-94,27T167,93h-5L114-200H7L126,516ZM277,75q67,0 103.5,40.5T428,219l12,71q2,9 3,20.5t1,22.5q0,49-22,78.5T352,441q-60,0-106-54q-17-19-32-47t-21-64L176,173q-8-45 19.5-71.5T277,75Z" />
      <glyph unicode="q" glyph-name="q" horiz-adv-x="600" d="M387,122h-4q-29-60-70-97T205-12Q125-12 86.5,40T48,188q0,62 14.5,123T107,420t75.5,78T290,528q59,0 94-27t49-78h5l15,93H560L440-200H333l54,322ZM248,75q59,0 106,54q17,19 32,47t21,64l17,103q8,45-19.5,71.5T323,441q-67,0-103.5-40.5T172,297l-12-71q-2-9-3-20.5T156,183q0-49 22-78.5T248,75Z" />
      <glyph unicode="r" glyph-name="r" horiz-adv-x="600" d="M165,0l71,429H103l15,87H358L333,370h6q29,67 74,106.5T533,516h60L575,409H485q-43,0-70.5-11.5T366,360q-10-12-27.5-39T315,258L272,0H165Z" />
      <glyph unicode="s" glyph-name="s" horiz-adv-x="600" d="M264-12q-76,0-132,23.5T45,80l68,60q55-70 159-70q59,0 92.5,21T398,151q0,30-18.5,41.5T333,209l-75,13q-29,5-55.5,14T156,260.5T123.5,300T111,359q0,42 17.5,73.5t48,53t71.5,32T337,528q69,0 119.5-20.5T536,452l-66-63q-15,21-49,39t-90,18t-85.5-20T216,370q0-31 19.5-42T283,312l75-14q28-5 54-13.5t46.5-23t33-38T504,165q0-41-17-74T438.5,35t-76-35T264-12Z" />
      <glyph unicode="t" glyph-name="t" horiz-adv-x="600" d="M255-12q-48,0-72,26T159,85q0,9 2,21.5t4,26.5l49,296H72l14,87h96q29,0 43,11.5T244,568l22,130H366L336,516H544l-14-87H321L264,87l20-10L480,216l53-64L442,84q-34-26-59.5-44T335,10.5t-41-17T255-12Z" />
      <glyph unicode="u" glyph-name="u" horiz-adv-x="600" d="M384,122h-5q-29-62-68-98T209-12q-69,0-104.5,41.5T69,137q0,18 1.5,37.5T77,220l49,296H233L183,216q-2-14-4-29.5T177,158q0-35 17.5-59T252,75q30,0 53.5,14T349,127q10,12 28.5,42T403,240l46,276H556L470,0H363l21,122Z" />
      <glyph unicode="v" glyph-name="v" horiz-adv-x="600" d="M273,516L206,76l13-8q56,12 97,41t68,69t40.5,88T438,363q0,70-31,129l98,33q20-31 30.5-71.5T546,366q0-78-28-146.5T442.5,100T333,19.5T203-10q-50,0-74,25T105,84q0,11 1,22t3,25l46,298H54l14,87H273Z" />
      <glyph unicode="w" glyph-name="w" horiz-adv-x="600" d="M123-11Q75-11 52.5,17.5T30,94q0,15 2,36t6,43L95,516h90L127,179q-2-14-4-28.5T121,124q0-48 40-48q18,0 32,11t26,29q11,16 18,39t10,41l53,320h87L332,177q-2-15-3.5-29T327,123q0-48 38-48q24,0 45.5,25.5t37,67t25,93.5T482,367q0,36-5,71.5T461,498l81,24q14-27 22-66.5t8-87.5q0-90-21.5-168.5T490,69Q430-11 345-11q-47,0-70,27T255,96h-5q-20-51-50.5-79T123-11Z" />
      <glyph unicode="x" glyph-name="x" horiz-adv-x="600" d="M106-12Q55-12 28.5,20T2,116q0,13 1,25.5T6,174l91,9q-2-11-2-20.5T95,145q0-40 9-58.5T136,68q33,0 55,31t35.5,75t19,93t5.5,85q0,24-1.5,48T243,441l-14,7L82,353L39,414l68,51q38,28 72,45.5T246,528q30,0 47.5-13.5T321,478t13-53.5t3-63.5h7q21,90 58.5,128.5T495,528q50,0 76.5-33T598,401q0-11-0.5-25T595,342l-91-9q1,12 1.5,22t0.5,18q0,38-9,56.5T465,448q-33,0-55-30.5t-35.5-74t-19-91T350,171q0-26 2.5-51.5T360,75l13-7L515,168l45-59L510,65Q459,20 422.5,4T357-12q-27,0-45,12.5t-28,35t-14,53T266,154l-7,1Q238,65 200,26.5T106-12Z" />
      <glyph unicode="y" glyph-name="y" horiz-adv-x="600" d="M211-212q-67,0-114.5,17T17-139L85-71q43-54 127-54q64,0 103.5,34T369,31l17,107h-4q-29-62-68-98T212,4Q143,4 107.5,45.5T72,153q0,18 1.5,37.5T80,236l46,280H233L186,232q-2-14-4-29.5T180,174q0-35 17.5-59T255,91q30,0 53.5,14T352,143q10,12 28.5,42T406,256l43,260H556L472,14q-20-119-88-172.5T211-212Z" />
      <glyph unicode="z" glyph-name="z" horiz-adv-x="600" d="M420-11q-27,0-57,6T297,16L151,73l-5-4L135,0H36L52,96L394,393q-48,28-80.5,38.5T252,442q-45,0-62-28.5T173,340H91v11q0,86 42,131.5T250,528q44,0 90-17t101-59l13-8l5,5l11,67h99l-16-94L210,123L440,73l11,12L420,201l69,27l16-35q13-27 20-52.5T532,92q0-20-7.5-38.5t-22-33T467-2.5T420-11Z" />
      <glyph unicode="{" glyph-name="braceleft" horiz-adv-x="600" d="M259-138q-49,0-67,21T174-67q0,10 2.5,29T184,8q4,27 13,47t19.5,35.5t22,28T261,142q25,26 33.5,41.5T303,214q0,59-103,59H106l13,76h93q61,0 93.5,19T338,424q0,25-20,56q-11,18-23.5,40.5T282,577q0,11 3,34.5t8,56.5q6,40 35,66t80,26H584l-13-77H384q-7-38-10-62.5T371,589q0-25 7-41t18-33q11-19 21-40.5T427,427q0-46-32-76t-97-38l-1-6q48-5 72-27.5T393,222t-19.5-61.5T328,107q-20-20-35-41.5T271,4L260-61H447l-13-77H259Z" />
      <glyph unicode="|" glyph-name="bar" horiz-adv-x="600" d="M189-138L339,760h91L280-138H189Z" />
      <glyph unicode="}" glyph-name="braceright" horiz-adv-x="600" d="M360,760q24,0 40.5-6T427,738.5t14-22t4-24.5t-2.5-31.5T435,614t-13.5-47t-19-36t-22-28T358,480q-26-26-34-41.5T316,408q0-59 103-59h94l-13-76H407q-61,0-93.5-19T281,198q0-14 4.5-27T301,142q14-19 25-41t11-56q0-11-3-34.5T326-46q-6-40-35-66t-80-26H35L48-61H235q7,38 10,62.5T248,33q0,25-7,40t-18,34q-12,20-21.5,41T192,195q0,46 32,76t97,38l1,6q-48,5-72,27.5T226,400t19.5,62T291,515q10,10 18.5,20t16,21.5T339,583t9,35l11,65H172l13,77H360Z" />
      <glyph unicode="~" glyph-name="asciitilde" horiz-adv-x="600" d="M396,187q-36,0-63.5,16.5T282,258q-25,42-39,58t-34,16q-26,0-49-32T113,198L34,217q34,114 80.5,160T215,423q36,0 63.5-16.5T329,352q25-42 39-58t34-16q26,0 49,32t47,102l79-19q-34-114-80.5-160T396,187Z" />
      <glyph unicode="&#xa0;" glyph-name="uni00A0" horiz-adv-x="600" />
      <glyph unicode="&#xa1;" glyph-name="exclamdown" horiz-adv-x="600" d="M166-182L200,21l82,258h41L318,21L284-182H166ZM320,369q-41,0-58,15t-17,37q0,5 1,13.5t4,26.5q5,27 25,46t66,19q41,0 58-15t17-37q0-5-1-13.5T411,434q-5-27-25-46t-66-19Z" />
      <glyph unicode="&#xa2;" glyph-name="cent" horiz-adv-x="600" d="M222-7Q146,8 106.5,63.5T67,206q0,66 17.5,122t50,98T212,494t99,32l17,104h83L393,523q61-10 95.5-43T535,402l-85-34q-20,59-75,72L314,75q13,2 27,8.5t30,19T406,136t42,52l69-41Q473,76 424,36.5T304-10L287-114H204L222-7ZM172,189q0-88 70-110l60,361q-46-9-75.5-45.5T187,297l-10-61q-3-16-4-26t-1-21Z" />
      <glyph unicode="&#xa3;" glyph-name="sterling" horiz-adv-x="600" d="M467-12q-29,0-64.5,8.5T329,17L134,72L122,0H21L38,105q27,12 48.5,26.5t37.5,34t24.5,45T157,270q0,9-0.5,16.5T155,302H51l14,82h76q-4,19-6.5,39T132,464q0,54 18.5,99t52,78T282,692t100,18q43,0 77.5-11t60-29.5t43-43.5T589,574l-89-46q-14,38-43,63.5T377,617q-64,0-100.5-41.5T240,456q0-20 2-37.5t6-34.5H427l-14-82H263q2-5 2-13t0-13q0-45-23-78t-68-41l-3-6L460,84l11,12L445,208l78,22l13-34q11-30 17.5-56.5T560,89q0-42-24-71.5T467-12Z" />
      <glyph unicode="&#xa4;" glyph-name="currency" horiz-adv-x="600" d="M283,114q-27,0-50,5t-42,13L105,20L31,67l93,122Q92,236 92,304q0,11 1.5,24T97,355q17,105 77,164L125,635l80,43l47-110q20,8 43.5,12t49.5,4q27,0 50-5t42-13l86,112l74-47L504,509q32-47 32-115q0-11-1.5-24T531,343q-17-105-77-164L503,63L423,20L376,130q-20-8-43.5-12T283,114Zm6,83q48,0 82.5,31T416,319l10,58q3,18 3,34q0,45-24,67.5T339,501q-48,0-82.5-31T212,379l-10-58q-3-18-3-34q0-45 24-67.5T289,197Z" />
      <glyph unicode="&#xa5;" glyph-name="yen" horiz-adv-x="600" d="M41,86H220l25,152H67l14,86H217L88,698H201L309,352h5L538,698H660L406,324H543l-14-86H349L324,86H503L489,0H27L41,86Z" />
      <glyph unicode="&#xa6;" glyph-name="brokenbar" horiz-adv-x="600" d="M279,400l60,360h91L370,400H279ZM189-138l60,360h91L280-138H189Z" />
      <glyph unicode="&#xa7;" glyph-name="section" horiz-adv-x="600" d="M455,17q0-40-15-73t-43-57t-68-37.5T239-164q-26,0-52.5,4t-51,12t-46,20T52-99l62,67q22-23 55-35.5T240-80q51,0 83.5,23T356,4q0,29-19.5,48T271,85l-65,21q-75,24-103.5,59T74,242q0,58 34,97.5T215,398l1,9q-32,23-47.5,55T153,529q0,40 15,73t43,57t68,37.5T369,710q26,0 52.5-4t51-12t46-20T556,645l-62-67q-22,23-55,35.5T368,626q-51,0-83.5-23T252,542q0-29 19.5-48T337,461l65-21q75-24 103.5-59T534,304q0-58-34-97.5T393,148l-1-9q32-23 47.5-55T455,17ZM434,270q0,29-19,51.5T344,359l-66,20q-10,3-23,8q-81-41-81-111q0-29 19-51.5T264,187l66-20q10-3 23-8q81,41 81,111Z" />
      <glyph unicode="&#xa8;" glyph-name="dieresis" horiz-adv-x="600" d="M218,608q-34,0-47.5,12.5T157,651q0,5 0.5,10.5T160,676q4,23 19,39t53,16q34,0 47.5-12.5T293,688q0-5-0.5-10.5T290,663q-4-23-19-39t-53-16Zm200,0q-34,0-47.5,12.5T357,651q0,5 0.5,10.5T360,676q4,23 19,39t53,16q34,0 47.5-12.5T493,688q0-5-0.5-10.5T490,663q-4-23-19-39t-53-16Z" />
      <glyph unicode="&#xa9;" glyph-name="copyright" horiz-adv-x="600" d="M271,18q-57,0-105,19.5t-82.5,56T30,182T11,300q0,84 26,154t71.5,120t109,78T356,680q57,0 104.5-19.5t82-56t54-88.5T616,398q0-84-26-154T518.5,124t-109-78T271,18Zm5,54q52,0 97,17t80,48.5t59,75T545,309q7,41 9,59.5t2,29.5q0,44-11.5,85.5t-36,73T445,607t-94,19q-52,0-97-17t-80-48.5t-59-75T82,389q-8-41-9.5-59.5T71,300q0-44 11.5-85.5t36-73T182,91t94-19Zm17,92q-69,0-106.5,41.5T149,318q0,43 14,82.5T202.5,470T263,517.5T340,535q56,0 87-25t45-67l-72-31q-6,24-20.5,38T336,464q-38,0-59-23t-27-59l-10-60q-2-9-2-14.5t0-10.5q0-29 15-45t46-16q29,0 49.5,15T385,289l61-36q-23-37-60.5-63T293,164Z" />
      <glyph unicode="&#xaa;" glyph-name="ordfeminine" horiz-adv-x="600" d="M373,349l10,60h-8q-14-29-39.5-48T272,342q-51,0-79,24t-28,65q0,61 44,91t129,30h67l4,23q1,7 1.5,12.5T411,598q0,26-17.5,38T344,648t-55-14t-39-35l-42,44q19,26 55,46.5T355,710q62,0 98.5-27T490,605q0-23-3-41L451,349H373ZM331,501q-36,0-58-10t-27-37q-1-5-1.5-10.5T244,436q0-36 53-36q34,0 61,15.5T390,460l7,41H331Z" />
      <glyph unicode="&#xab;" glyph-name="guillemotleft" horiz-adv-x="600" d="M236,51L63,223l17,99L305,491l25-74L165,266L280,117L236,51Zm234,0L297,223l17,99L539,491l25-74L399,266L514,117L470,51Z" />
      <glyph unicode="&#xac;" glyph-name="logicalnot" horiz-adv-x="600" d="M403,68l32,194H65l14,87H539L492,68H403Z" />
      <glyph unicode="&#xad;" glyph-name="uni00AD" horiz-adv-x="600" d="M149,251l18,107H466L448,251H149Z" />
      <glyph unicode="&#xae;" glyph-name="registered" horiz-adv-x="600" d="M309,346q-36,0-65.5,11.5T192,390t-34,50.5T146,507q0,41 15.5,78T204,649.5t64.5,44T351,710q36,0 65.5-11.5T468,666t34-50.5T514,549q0-41-15.5-78T456,406t-64.5-44T309,346Zm0,40q34,0 60.5,10t46,27.5t31,40T462,511q2,14 3.5,22.5T467,550q0,52-28,86t-88,34q-34,0-60.5-10t-46-27.5t-31-40T198,545q-2-14-3.5-22.5T193,506q0-52 28-86t88-34Zm-21,53H242l31,185h88q27,0 41-13.5T416,574q0-24-13-40t-34-24l32-71H350l-25,63H299l-11-63Zm47,97q13,0 20.5,6.5T365,558q1,5 1,7.5t0,4.5q0,18-22,18H313l-9-52h31Z" />
      <glyph unicode="&#xaf;" glyph-name="macron" horiz-adv-x="600" d="M187,710H476l-14-81H173l14,81Z" />
      <glyph unicode="&#xb0;" glyph-name="degree" horiz-adv-x="600" d="M329,354q-36,0-66,11.5T211.5,398T178,449t-12,66q0,41 15,76.5t41.5,62t63,41.5T364,710q36,0 65.5-11.5t51-32.5T514,615t12-66q0-41-15-77t-41.5-62T407,369t-78-15Zm4,76q50,0 80,34t30,83q0,38-22.5,62.5T359,634q-50,0-80-34t-30-83q0-38 22.5-62.5T333,430Z" />
      <glyph unicode="&#xb1;" glyph-name="plusminus" horiz-adv-x="600" d="M237,164l31,187H79l14,87H283l31,187h95L378,438H567l-14-87H363L332,164H237ZM21,0L35,87H509L495,0H21Z" />
      <glyph unicode="&#xb2;" glyph-name="twosuperior" horiz-adv-x="600" d="M447,329H177l12,70l134,93q29,20 51,40t27,47q1,5 1.5,9.5T403,597q0,20-15,31t-37,11q-29,0-45.5-17T281,585l-65,26q16,38 49.5,65.5T356,704q26,0 49.5-6.5t41-20t27.5-33T484,599t-10.5-47.5t-28-40T406,477t-45-31l-84-55H457l-10-62Z" />
      <glyph unicode="&#xb3;" glyph-name="threesuperior" horiz-adv-x="600" d="M333,550q37,0 51.5,13T401,590q1,5 1.5,9t0.5,8q0,17-13,27t-37,10q-50,0-84-46l-45,45q24,28 56,44.5T359,704q60,0 91-26t31-67q0-35-23-59t-63-32v-2q31-6 48.5-26T461,439q0-49-39-82.5T311,323q-57,0-89.5,20.5T175,394l54,38q11-22 30-35.5T312,383q31,0 48,13t21,36q1,5 1.5,8t0.5,7q0,19-16,30.5T322,489H281l10,61h42Z" />
      <glyph unicode="&#xb4;" glyph-name="acute" horiz-adv-x="600" d="M321,579l-63,35L369,790l87-47L321,579Z" />
      <glyph unicode="&#xb5;" glyph-name="mu" horiz-adv-x="600" d="M9-200L128,516H235L185,216q-2-14-4-29.5T179,158q0-35 17.5-59T254,75q30,0 53.5,14T351,127q10,12 28.5,42T405,240l46,276H558L472,0H365l21,122h-5q-11-26-25.5-50t-33-43T280-1T226-12q-29,0-50.5,13.5T145,45h-4L137-68L116-200H9Z" />
      <glyph unicode="&#xb6;" glyph-name="paragraph" horiz-adv-x="600" d="M265,246q-41,0-75.5,13.5t-60,38.5T90,359.5T76,441q0,58 22,105.5T157,628t84.5,52T340,698H601L459-149H370L498,615H416L288-149H199l66,395Z" />
      <glyph unicode="&#xb7;" glyph-name="periodcentered" horiz-adv-x="600" d="M297,224q-42,0-59.5,15.5T220,278q0,8 1.5,17t3.5,23q5,32 28.5,50T319,386t59.5-15.5T396,332q0-8-1.5-17T391,292q-5-32-28.5-50T297,224Z" />
      <glyph unicode="&#xb8;" glyph-name="cedilla" horiz-adv-x="600" d="M285-209q-42,0-68,13t-37,30l44,45q8-10 22.5-18.5T284-148q20,0 34,8t14,24q0,11-11.5,22T269-78l-26,3l37,99h57L307-58l2-4q11,3 21,4t18,1q28,0 45.5-14.5T411-117q0-23-10-40t-27-28.5T334-203t-49-6Z" />
      <glyph unicode="&#xb9;" glyph-name="onesuperior" horiz-adv-x="600" d="M202,329l10,60h95l40,237l-94-49l-24,55l127,66h79L383,389h85l-10-60H202Z" />
      <glyph unicode="&#xba;" glyph-name="ordmasculine" horiz-adv-x="600" d="M320,342q-68,0-107,40.5T174,489q0,49 14,89.5t39.5,70t62,45.5T371,710q68,0 107-40.5T517,563q0-49-14-89.5t-39.5-70t-62-45.5T320,342Zm9,63q40,0 64,24.5T424,495l10,59q1,8 1.5,13t0.5,11q0,32-19,50.5T362,647q-40,0-64-24.5T267,557l-10-59q-1-8-1.5-13T255,474q0-32 19-50.5T329,405Z" />
      <glyph unicode="&#xbb;" glyph-name="guillemotright" horiz-adv-x="600" d="M40,125L205,276L90,425l44,66L307,319l-17-99L65,51L40,125Zm234,0L439,276L324,425l44,66L541,319l-17-99L299,51l-25,74Z" />
      <glyph unicode="&#xbc;" glyph-name="onequarter" horiz-adv-x="600" d="M439,64H279l11,65L460,335h95L519,117h45l-9-53H510L499,0H428l11,64Zm9,53l25,152h-3L346,117H448ZM66,421h90l36,213l-90-43L83,643l114,55h78L229,421h80l-10-58H57l9,58ZM577,698h87L449,398H362L577,698ZM183,300h87L55,0H-32L183,300Z" />
      <glyph unicode="&#xbd;" glyph-name="onehalf" horiz-adv-x="600" d="M294,65l125,86q36,26 51,43.5T489,229q1,4 1,9t0,7q0,18-12.5,28T445,283q-23,0-39.5-14.5T377,230l-59,25q17,36 49,61t86,25q57,0 85-27t28-65q0-24-9.5-43T531,170t-36.5-31.5T452,109L374,57H544L535,0H283l11,65ZM66,421h90l36,213l-90-43L83,643l114,55h78L229,421h80l-10-58H57l9,58ZM577,698h87L449,398H362L577,698ZM183,300h87L55,0H-32L183,300Z" />
      <glyph unicode="&#xbe;" glyph-name="threequarters" horiz-adv-x="600" d="M439,64H279l11,65L460,335h95L519,117h45l-9-53H510L499,0H428l11,64Zm9,53l25,152h-3L346,117H448ZM171,357q-54,0-83,20.5T46,427l54,33q8-20 24-33t48-13q28,0 43.5,11T234,454q1,5 1.5,9.5T236,472q0,37-58,37H147l9,54h33q33,0 48,11t17,25q1,5 1,8.5t0,7.5q0,14-12.5,23T207,647q-43,0-76-41L91,647q25,26 54.5,41.5T218,704q53,0 83.5-22T332,624q0-35-24.5-57.5T248,539v-4q30-4 47-22t17-47q0-48-39-78.5T171,357ZM577,698h87L449,398H362L577,698ZM183,300h87L55,0H-32L183,300Z" />
      <glyph unicode="&#xbf;" glyph-name="questiondown" horiz-adv-x="600" d="M241-194q-96,0-149.5,48T38-16q0,49 19,88t50,66.5t71,44T259,205l15,88H379L354,138q-47-5-81.5-13t-59-23T175,64.5T155,8q-1-5-1.5-10.5T153-16q0-40 28-62.5T254-101q53,0 85.5,29T390,4l89-40q-12-32-32.5-60.5t-50-50.5t-68-34.5T241-194Zm98,563q-41,0-58,15t-17,37q0,5 1,13.5t4,26.5q5,27 25,46t66,19q41,0 58-15t17-37q0-5-1-13.5T430,434q-5-27-25-46t-66-19Z" />
      <glyph unicode="&#xc0;" glyph-name="Agrave" horiz-adv-x="600" d="M424,0L404,186H177L95,0H-21L300,698H450L538,0H424ZM362,588h-9L217,279H395L362,588ZM279,920l95,40l63-183l-67-28L279,920Z" />
      <glyph unicode="&#xc1;" glyph-name="Aacute" horiz-adv-x="600" d="M424,0L404,186H177L95,0H-21L300,698H450L538,0H424ZM362,588h-9L217,279H395L362,588Zm30,161l-63,35L440,960l87-47L392,749Z" />
      <glyph unicode="&#xc2;" glyph-name="Acircumflex" horiz-adv-x="600" d="M424,0L404,186H177L95,0H-21L300,698H450L538,0H424ZM362,588h-9L217,279H395L362,588ZM466,943l96-151l-59-40L403,868L267,752l-52,43L357,943H466Z" />
      <glyph unicode="&#xc3;" glyph-name="Atilde" horiz-adv-x="600" d="M424,0L404,186H177L95,0H-21L300,698H450L538,0H424ZM362,588h-9L217,279H395L362,588ZM470,774q-24,0-41,8t-34,17q-19,11-35,17t-33,6q-16,0-30.5-7T264,794l-33,52q19,23 47,40t63,17q24,0 41-8t34-17q19-11 35-17t33-6q16,0 30.5,7T547,883l33-52q-19-23-47-40t-63-17Z" />
      <glyph unicode="&#xc4;" glyph-name="Adieresis" horiz-adv-x="600" d="M424,0L404,186H177L95,0H-21L300,698H450L538,0H424ZM362,588h-9L217,279H395L362,588ZM289,778q-34,0-47.5,12.5T228,821q0,5 0.5,10.5T231,846q4,23 19,39t53,16q34,0 47.5-12.5T364,858q0-5-0.5-10.5T361,833q-4-23-19-39t-53-16Zm200,0q-34,0-47.5,12.5T428,821q0,5 0.5,10.5T431,846q4,23 19,39t53,16q34,0 47.5-12.5T564,858q0-5-0.5-10.5T561,833q-4-23-19-39t-53-16Z" />
      <glyph unicode="&#xc5;" glyph-name="Aring" horiz-adv-x="600" d="M424,0L404,186H177L95,0H-21L300,698H450L538,0H424ZM362,588h-9L217,279H395L362,588Zm20,148q-49,0-81,31t-32,79q0,30 11.5,56T312,946.5T358.5,976T415,987q49,0 81-31t32-79q0-30-11.5-56T485,776.5T438.5,747T382,736Zm6,59q26,0 42,13.5T451,849q2,14 3.5,22.5T456,886q0,20-12,31t-35,11q-26,0-42-13.5T346,874q-2-14-3.5-22.5T341,837q0-20 12-31t35-11Z" />
      <glyph unicode="&#xc6;" glyph-name="AE" horiz-adv-x="600" d="M303,188H173L95,0H-15L287,698H653l-14-86H477L441,396H592l-14-86H427L389,86H551L537,0H272l31,188Zm46,432L207,274H318l57,346H349Z" />
      <glyph unicode="&#xc7;" glyph-name="Ccedilla" horiz-adv-x="600" d="M377,618q-73,0-116-56T201,406L184,304q-4-23-6-42t-2-42q0-64 28-102t94-38q27,0 49,9t40,25.5T420.5,155T452,210l91-35Q505,92 452.5,44T315-11L298-58l2-4q11,3 21,4t18,1q28,0 45.5-14.5T402-117q0-23-10-40t-27-28.5T325-203t-49-6q-42,0-68,13t-37,30l44,45q8-10 22.5-18.5T275-148q20,0 34,8t14,24q0,11-11.5,22T260-78l-26,3l23,64Q158-1 112,65T66,246q0,97 21,181.5T148.5,575t100,99T385,710q52,0 89-14.5T535.5,657t38-56.5T591,532L488,506q-4,24-10.5,44.5t-19,35.5t-32,23.5T377,618Z" />
      <glyph unicode="&#xc8;" glyph-name="Egrave" horiz-adv-x="600" d="M283,920l95,40l63-183l-67-28L283,920ZM42,0L159,698H595l-16-93H253L218,400H533l-16-93H203L167,93H495L479,0H42Z" />
      <glyph unicode="&#xc9;" glyph-name="Eacute" horiz-adv-x="600" d="M42,0L159,698H595l-16-93H253L218,400H533l-16-93H203L167,93H495L479,0H42ZM396,749l-63,35L444,960l87-47L396,749Z" />
      <glyph unicode="&#xca;" glyph-name="Ecircumflex" horiz-adv-x="600" d="M470,943l96-151l-59-40L407,868L271,752l-52,43L361,943H470ZM42,0L159,698H595l-16-93H253L218,400H533l-16-93H203L167,93H495L479,0H42Z" />
      <glyph unicode="&#xcb;" glyph-name="Edieresis" horiz-adv-x="600" d="M42,0L159,698H595l-16-93H253L218,400H533l-16-93H203L167,93H495L479,0H42ZM293,778q-34,0-47.5,12.5T232,821q0,5 0.5,10.5T235,846q4,23 19,39t53,16q34,0 47.5-12.5T368,858q0-5-0.5-10.5T365,833q-4-23-19-39t-53-16Zm200,0q-34,0-47.5,12.5T432,821q0,5 0.5,10.5T435,846q4,23 19,39t53,16q34,0 47.5-12.5T568,858q0-5-0.5-10.5T565,833q-4-23-19-39t-53-16Z" />
      <glyph unicode="&#xcc;" glyph-name="Igrave" horiz-adv-x="600" d="M38,0L52,84H216l89,530H141l14,84H593l-14-84H415L326,84H490L476,0H38ZM279,920l95,40l63-183l-67-28L279,920Z" />
      <glyph unicode="&#xcd;" glyph-name="Iacute" horiz-adv-x="600" d="M38,0L52,84H216l89,530H141l14,84H593l-14-84H415L326,84H490L476,0H38ZM392,749l-63,35L440,960l87-47L392,749Z" />
      <glyph unicode="&#xce;" glyph-name="Icircumflex" horiz-adv-x="600" d="M38,0L52,84H216l89,530H141l14,84H593l-14-84H415L326,84H490L476,0H38ZM466,943l96-151l-59-40L403,868L267,752l-52,43L357,943H466Z" />
      <glyph unicode="&#xcf;" glyph-name="Idieresis" horiz-adv-x="600" d="M38,0L52,84H216l89,530H141l14,84H593l-14-84H415L326,84H490L476,0H38ZM289,778q-34,0-47.5,12.5T228,821q0,5 0.5,10.5T231,846q4,23 19,39t53,16q34,0 47.5-12.5T364,858q0-5-0.5-10.5T361,833q-4-23-19-39t-53-16Zm200,0q-34,0-47.5,12.5T428,821q0,5 0.5,10.5T431,846q4,23 19,39t53,16q34,0 47.5-12.5T564,858q0-5-0.5-10.5T561,833q-4-23-19-39t-53-16Z" />
      <glyph unicode="&#xd0;" glyph-name="Eth" horiz-adv-x="600" d="M97,327H26l14,83h71l48,288H345q56,0 99-17t72-48t44-75t15-98q0-228-86-344T250,0H42L97,327ZM255,91q78,0 123.5,48.5T440,283l18,109q3,18 5,39t2,39q0,137-132,137H253L220,407H347l-13-78H207L167,91h88Z" />
      <glyph unicode="&#xd1;" glyph-name="Ntilde" horiz-adv-x="600" d="M470,774q-24,0-41,8t-34,17q-19,11-35,17t-33,6q-16,0-30.5-7T264,794l-33,52q19,23 47,40t63,17q24,0 41-8t34-17q19-11 35-17t33-6q16,0 30.5,7T547,883l33-52q-19-23-47-40t-63-17ZM228,546h-8L129,0H31L147,698H291L403,152h8l91,546h98L484,0H340L228,546Z" />
      <glyph unicode="&#xd2;" glyph-name="Ograve" horiz-adv-x="600" d="M269,920l95,40l63-183l-67-28L269,920ZM268-12Q155-12 103,53T51,236q0,50 6.5,105t21,107.5t38.5,100T175.5,632T256,689t106,21q113,0 165-65t52-183q0-51-6.5-105.5t-21-107T513,149.5T454.5,66T374,9T268-12Zm3,92q73,0 114,55.5T443,291l19,115q4,23 5.5,42t1.5,37q0,63-26,98t-84,35q-73,0-114-55.5T187,407L168,292q-4-23-5.5-42T161,213q0-63 26-98t84-35Z" />
      <glyph unicode="&#xd3;" glyph-name="Oacute" horiz-adv-x="600" d="M382,749l-63,35L430,960l87-47L382,749ZM268-12Q155-12 103,53T51,236q0,50 6.5,105t21,107.5t38.5,100T175.5,632T256,689t106,21q113,0 165-65t52-183q0-51-6.5-105.5t-21-107T513,149.5T454.5,66T374,9T268-12Zm3,92q73,0 114,55.5T443,291l19,115q4,23 5.5,42t1.5,37q0,63-26,98t-84,35q-73,0-114-55.5T187,407L168,292q-4-23-5.5-42T161,213q0-63 26-98t84-35Z" />
      <glyph unicode="&#xd4;" glyph-name="Ocircumflex" horiz-adv-x="600" d="M456,943l96-151l-59-40L393,868L257,752l-52,43L347,943H456ZM268-12Q155-12 103,53T51,236q0,50 6.5,105t21,107.5t38.5,100T175.5,632T256,689t106,21q113,0 165-65t52-183q0-51-6.5-105.5t-21-107T513,149.5T454.5,66T374,9T268-12Zm3,92q73,0 114,55.5T443,291l19,115q4,23 5.5,42t1.5,37q0,63-26,98t-84,35q-73,0-114-55.5T187,407L168,292q-4-23-5.5-42T161,213q0-63 26-98t84-35Z" />
      <glyph unicode="&#xd5;" glyph-name="Otilde" horiz-adv-x="600" d="M268-12Q155-12 103,53T51,236q0,50 6.5,105t21,107.5t38.5,100T175.5,632T256,689t106,21q113,0 165-65t52-183q0-51-6.5-105.5t-21-107T513,149.5T454.5,66T374,9T268-12Zm3,92q73,0 114,55.5T443,291l19,115q4,23 5.5,42t1.5,37q0,63-26,98t-84,35q-73,0-114-55.5T187,407L168,292q-4-23-5.5-42T161,213q0-63 26-98t84-35ZM460,774q-24,0-41,8t-34,17q-19,11-35,17t-33,6q-16,0-30.5-7T254,794l-33,52q19,23 47,40t63,17q24,0 41-8t34-17q19-11 35-17t33-6q16,0 30.5,7T537,883l33-52q-19-23-47-40t-63-17Z" />
      <glyph unicode="&#xd6;" glyph-name="Odieresis" horiz-adv-x="600" d="M268-12Q155-12 103,53T51,236q0,50 6.5,105t21,107.5t38.5,100T175.5,632T256,689t106,21q113,0 165-65t52-183q0-51-6.5-105.5t-21-107T513,149.5T454.5,66T374,9T268-12Zm3,92q73,0 114,55.5T443,291l19,115q4,23 5.5,42t1.5,37q0,63-26,98t-84,35q-73,0-114-55.5T187,407L168,292q-4-23-5.5-42T161,213q0-63 26-98t84-35Zm8,698q-34,0-47.5,12.5T218,821q0,5 0.5,10.5T221,846q4,23 19,39t53,16q34,0 47.5-12.5T354,858q0-5-0.5-10.5T351,833q-4-23-19-39t-53-16Zm200,0q-34,0-47.5,12.5T418,821q0,5 0.5,10.5T421,846q4,23 19,39t53,16q34,0 47.5-12.5T554,858q0-5-0.5-10.5T551,833q-4-23-19-39t-53-16Z" />
      <glyph unicode="&#xd7;" glyph-name="multiply" horiz-adv-x="600" d="M302,243L119,87L63,153L247,310L119,465l69,59L316,368L499,524l56-66L371,301L499,146L430,87L302,243Z" />
      <glyph unicode="&#xd8;" glyph-name="Oslash" horiz-adv-x="600" d="M268-12q-90,0-143,44L64-49L-6-4L74,101q-12,27-17.5,61T51,236q0,50 6.5,105t21,107.5t38.5,100T175.5,632T256,689t106,21q90,0 143-44l61,81l70-45L556,597q12-27 17.5-61t5.5-74q0-51-6.5-105.5t-21-107T513,149.5T454.5,66T374,9T268-12ZM167,296q-3-18-5-35.5T160,229q0-6 0-11t1-10L445,582q-28,36-86,36q-72,0-114-54.5T186,410L167,296ZM271,80q72,0 114,54.5T444,288l19,114q3,18 5,35.5t2,31.5q0,6 0,11t-1,10L185,116q28-36 86-36Z" />
      <glyph unicode="&#xd9;" glyph-name="Ugrave" horiz-adv-x="600" d="M275,920l95,40l63-183l-67-28L275,920ZM253,698L184,285q-7-41-10-66t-3-41q0-23 4.5-41t16-31t31-19.5T271,80q43,0 69,12.5t41.5,36T405,186t15,76l73,436H603L534,284q-12-74-28-129.5T461.5,62T387,6.5T269-12q-57,0-96.5,12.5t-64,36t-35,57T63,170q0,29 4.5,66T78,309l65,389H253Z" />
      <glyph unicode="&#xda;" glyph-name="Uacute" horiz-adv-x="600" d="M253,698L184,285q-7-41-10-66t-3-41q0-23 4.5-41t16-31t31-19.5T271,80q43,0 69,12.5t41.5,36T405,186t15,76l73,436H603L534,284q-12-74-28-129.5T461.5,62T387,6.5T269-12q-57,0-96.5,12.5t-64,36t-35,57T63,170q0,29 4.5,66T78,309l65,389H253Zm135,51l-63,35L436,960l87-47L388,749Z" />
      <glyph unicode="&#xdb;" glyph-name="Ucircumflex" horiz-adv-x="600" d="M462,943l96-151l-59-40L399,868L263,752l-52,43L353,943H462ZM253,698L184,285q-7-41-10-66t-3-41q0-23 4.5-41t16-31t31-19.5T271,80q43,0 69,12.5t41.5,36T405,186t15,76l73,436H603L534,284q-12-74-28-129.5T461.5,62T387,6.5T269-12q-57,0-96.5,12.5t-64,36t-35,57T63,170q0,29 4.5,66T78,309l65,389H253Z" />
      <glyph unicode="&#xdc;" glyph-name="Udieresis" horiz-adv-x="600" d="M253,698L184,285q-7-41-10-66t-3-41q0-23 4.5-41t16-31t31-19.5T271,80q43,0 69,12.5t41.5,36T405,186t15,76l73,436H603L534,284q-12-74-28-129.5T461.5,62T387,6.5T269-12q-57,0-96.5,12.5t-64,36t-35,57T63,170q0,29 4.5,66T78,309l65,389H253Zm32,80q-34,0-47.5,12.5T224,821q0,5 0.5,10.5T227,846q4,23 19,39t53,16q34,0 47.5-12.5T360,858q0-5-0.5-10.5T357,833q-4-23-19-39t-53-16Zm200,0q-34,0-47.5,12.5T424,821q0,5 0.5,10.5T427,846q4,23 19,39t53,16q34,0 47.5-12.5T560,858q0-5-0.5-10.5T557,833q-4-23-19-39t-53-16Z" />
      <glyph unicode="&#xdd;" glyph-name="Yacute" horiz-adv-x="600" d="M203,0l43,261L85,698H202l62-175l47-151h6L417,523L535,698H661L357,266L313,0H203ZM385,749l-63,35L433,960l87-47L385,749Z" />
      <glyph unicode="&#xde;" glyph-name="Thorn" horiz-adv-x="600" d="M42,0L159,698H268L246,564H386q45,0 78.5-12.5t56-35.5T554,461t11-70q0-115-62.5-180T328,146H176L151,0H42ZM192,238H323q105,0 120,90l6,36q1,5 2,15t1,19q0,74-91,74H231L192,238Z" />
      <glyph unicode="&#xdf;" glyph-name="germandbls" horiz-adv-x="600" d="M43,0L145,611q11,67 50,98t99,31H432l-14-87H258L235,516H570l-15-89L365,209q78-10 122-50.5T531,44q0-57-20-102.5t-58-77t-92.5-48T237-200H167l14,86h63q75,0 120,26.5T417,2q3,23 4,33.5T422,52q0,48-36,67T273,138H253l15,86L448,429H220L149,0H43Z" />
      <glyph unicode="&#xe0;" glyph-name="agrave" horiz-adv-x="600" d="M199-12Q122-12 85,40T48,188q0,62 14,123t43,109t73.5,78T284,528q57,0 91.5-27T424,423h5l15,93H551L480,86h63L528,0H463q-52,0-74.5,26T374,96l4,26h-4q-29-60-69-97T199-12Zm43,87q59,0 104,54q16,19 31,47t21,64l17,103q8,45-18.5,71.5T317,441q-65,0-99.5-40.5T172,297l-12-71q-2-9-3-20.5T156,183q0-49 20.5-78.5T242,75ZM228,750l95,40l63-183l-67-28L228,750Z" />
      <glyph unicode="&#xe1;" glyph-name="aacute" horiz-adv-x="600" d="M199-12Q122-12 85,40T48,188q0,62 14,123t43,109t73.5,78T284,528q57,0 91.5-27T424,423h5l15,93H551L480,86h63L528,0H463q-52,0-74.5,26T374,96l4,26h-4q-29-60-69-97T199-12Zm43,87q59,0 104,54q16,19 31,47t21,64l17,103q8,45-18.5,71.5T317,441q-65,0-99.5-40.5T172,297l-12-71q-2-9-3-20.5T156,183q0-49 20.5-78.5T242,75Zm99,504l-63,35L389,790l87-47L341,579Z" />
      <glyph unicode="&#xe2;" glyph-name="acircumflex" horiz-adv-x="600" d="M199-12Q122-12 85,40T48,188q0,62 14,123t43,109t73.5,78T284,528q57,0 91.5-27T424,423h5l15,93H551L480,86h63L528,0H463q-52,0-74.5,26T374,96l4,26h-4q-29-60-69-97T199-12Zm43,87q59,0 104,54q16,19 31,47t21,64l17,103q8,45-18.5,71.5T317,441q-65,0-99.5-40.5T172,297l-12-71q-2-9-3-20.5T156,183q0-49 20.5-78.5T242,75ZM415,773l96-151l-59-40L352,698L216,582l-52,43L306,773H415Z" />
      <glyph unicode="&#xe3;" glyph-name="atilde" horiz-adv-x="600" d="M199-12Q122-12 85,40T48,188q0,62 14,123t43,109t73.5,78T284,528q57,0 91.5-27T424,423h5l15,93H551L480,86h63L528,0H463q-52,0-74.5,26T374,96l4,26h-4q-29-60-69-97T199-12Zm43,87q59,0 104,54q16,19 31,47t21,64l17,103q8,45-18.5,71.5T317,441q-65,0-99.5-40.5T172,297l-12-71q-2-9-3-20.5T156,183q0-49 20.5-78.5T242,75ZM410,604q-24,0-41,7.5T335,629q-17,11-34,17t-34,6q-16,0-30.5-7T204,624l-33,52q19,23 47,40t63,17q24,0 41-7.5T356,708q17-11 34-17t34-6q16,0 30.5,7T487,713l33-52q-19-23-47-40t-63-17Z" />
      <glyph unicode="&#xe4;" glyph-name="adieresis" horiz-adv-x="600" d="M199-12Q122-12 85,40T48,188q0,62 14,123t43,109t73.5,78T284,528q57,0 91.5-27T424,423h5l15,93H551L480,86h63L528,0H463q-52,0-74.5,26T374,96l4,26h-4q-29-60-69-97T199-12Zm43,87q59,0 104,54q16,19 31,47t21,64l17,103q8,45-18.5,71.5T317,441q-65,0-99.5-40.5T172,297l-12-71q-2-9-3-20.5T156,183q0-49 20.5-78.5T242,75Zm-4,533q-34,0-47.5,12.5T177,651q0,5 0.5,10.5T180,676q4,23 19,39t53,16q34,0 47.5-12.5T313,688q0-5-0.5-10.5T310,663q-4-23-19-39t-53-16Zm200,0q-34,0-47.5,12.5T377,651q0,5 0.5,10.5T380,676q4,23 19,39t53,16q34,0 47.5-12.5T513,688q0-5-0.5-10.5T510,663q-4-23-19-39t-53-16Z" />
      <glyph unicode="&#xe5;" glyph-name="aring" horiz-adv-x="600" d="M199-12Q122-12 85,40T48,188q0,62 14,123t43,109t73.5,78T284,528q57,0 91.5-27T424,423h5l15,93H551L480,86h63L528,0H463q-52,0-74.5,26T374,96l4,26h-4q-29-60-69-97T199-12Zm43,87q59,0 104,54q16,19 31,47t21,64l17,103q8,45-18.5,71.5T317,441q-65,0-99.5-40.5T172,297l-12-71q-2-9-3-20.5T156,183q0-49 20.5-78.5T242,75Zm89,491q-49,0-81,31t-32,79q0,30 11.5,56T261,776.5T307.5,806T364,817q49,0 81-31t32-79q0-30-11.5-56T434,606.5T387.5,577T331,566Zm6,59q26,0 42,13.5T400,679q2,14 3.5,22.5T405,716q0,20-12,31t-35,11q-26,0-42-13.5T295,704q-2-14-3.5-22.5T290,667q0-20 12-31t35-11Z" />
      <glyph unicode="&#xe6;" glyph-name="ae" horiz-adv-x="600" d="M116-12Q64-12 30.5,20T-3,118q0,82 55.5,127T205,293l53,2l8,50q2,11 3,21t1,18q0,72-64,72q-33,0-56-19.5T107,381L47,421q26,51 66,79t98,28q57,0 86-25t31-65h4q22,42 56.5,66T472,528q57,0 91.5-33.5T598,402q0-29-11.5-58.5T546,290t-79.5-40T338,232l-3-19q-2-14-3-27.5T331,162q0-48 17.5-73T399,64q35,0 55,24.5T491,148l70-32q-24-55-65-91.5T393-12q-55,0-92.5,31T258,115h-5Q222-12 116-12Zm25,72q35,0 60.5,27T235,162l12,69l-44-1q-51-2-81-19T85,149q-2-14-2.5-21.5T82,116q0-28 16.5-42T141,60ZM462,456q-45,0-73-41.5T350,308l-2-13q48,1 80,10t51.5,23t28,32.5T516,399q0,57-54,57Z" />
      <glyph unicode="&#xe7;" glyph-name="ccedilla" horiz-adv-x="600" d="M342,528q42,0 74-9.5t55-27T508.5,451T530,401l-89-39q-13,42-38,59.5T332,439q-55,0-92.5-35.5T190,296l-10-60q-2-14-3-25t-1-22q0-56 28.5-84T287,77q16,0 32.5,3.5t35,16t41.5,36T448,196l71-44Q473,78 422,36.5T298-11L281-58l2-4q11,3 21,4t18,1q28,0 45.5-14.5T385-117q0-23-10-40t-27-28.5T308-203t-49-6q-42,0-68,13t-37,30l44,45q8-10 22.5-18.5T258-148q20,0 34,8t14,24q0,11-11.5,22T243-78l-26,3l24,65Q155-1 111,56.5T67,206q0,70 20,129.5t56.5,102t87,66.5T342,528Z" />
      <glyph unicode="&#xe8;" glyph-name="egrave" horiz-adv-x="600" d="M279-12Q173-12 119.5,44T66,209q0,71 21.5,129.5t60,100.5t92,65.5T358,528q39,0 72-9t57.5-26.5t38.5-44T540,388q0-29-12.5-59T476,274T365,232T175,211q-1-7-1-12.5t0-7.5q0-24 5.5-45.5T198,108t35.5-25T291,74q25,0 45.5,5.5t39,17.5t37,31.5T452,177l70-45q-21-33-45-59.5t-53.5-45t-65-29T279-12Zm69,459q-66,0-108-39T185,289l-2-11q84,3 133.5,13.5t76,25t34,31.5t7.5,33q0,29-19.5,47.5T348,447ZM257,750l95,40l63-183l-67-28L257,750Z" />
      <glyph unicode="&#xe9;" glyph-name="eacute" horiz-adv-x="600" d="M370,579l-63,35L418,790l87-47L370,579ZM279-12Q173-12 119.5,44T66,209q0,71 21.5,129.5t60,100.5t92,65.5T358,528q39,0 72-9t57.5-26.5t38.5-44T540,388q0-29-12.5-59T476,274T365,232T175,211q-1-7-1-12.5t0-7.5q0-24 5.5-45.5T198,108t35.5-25T291,74q25,0 45.5,5.5t39,17.5t37,31.5T452,177l70-45q-21-33-45-59.5t-53.5-45t-65-29T279-12Zm69,459q-66,0-108-39T185,289l-2-11q84,3 133.5,13.5t76,25t34,31.5t7.5,33q0,29-19.5,47.5T348,447Z" />
      <glyph unicode="&#xea;" glyph-name="ecircumflex" horiz-adv-x="600" d="M444,773l96-151l-59-40L381,698L245,582l-52,43L335,773H444ZM279-12Q173-12 119.5,44T66,209q0,71 21.5,129.5t60,100.5t92,65.5T358,528q39,0 72-9t57.5-26.5t38.5-44T540,388q0-29-12.5-59T476,274T365,232T175,211q-1-7-1-12.5t0-7.5q0-24 5.5-45.5T198,108t35.5-25T291,74q25,0 45.5,5.5t39,17.5t37,31.5T452,177l70-45q-21-33-45-59.5t-53.5-45t-65-29T279-12Zm69,459q-66,0-108-39T185,289l-2-11q84,3 133.5,13.5t76,25t34,31.5t7.5,33q0,29-19.5,47.5T348,447Z" />
      <glyph unicode="&#xeb;" glyph-name="edieresis" horiz-adv-x="600" d="M267,608q-34,0-47.5,12.5T206,651q0,5 0.5,10.5T209,676q4,23 19,39t53,16q34,0 47.5-12.5T342,688q0-5-0.5-10.5T339,663q-4-23-19-39t-53-16Zm200,0q-34,0-47.5,12.5T406,651q0,5 0.5,10.5T409,676q4,23 19,39t53,16q34,0 47.5-12.5T542,688q0-5-0.5-10.5T539,663q-4-23-19-39t-53-16ZM279-12Q173-12 119.5,44T66,209q0,71 21.5,129.5t60,100.5t92,65.5T358,528q39,0 72-9t57.5-26.5t38.5-44T540,388q0-29-12.5-59T476,274T365,232T175,211q-1-7-1-12.5t0-7.5q0-24 5.5-45.5T198,108t35.5-25T291,74q25,0 45.5,5.5t39,17.5t37,31.5T452,177l70-45q-21-33-45-59.5t-53.5-45t-65-29T279-12Zm69,459q-66,0-108-39T185,289l-2-11q84,3 133.5,13.5t76,25t34,31.5t7.5,33q0,29-19.5,47.5T348,447Z" />
      <glyph unicode="&#xec;" glyph-name="igrave" horiz-adv-x="600" d="M282-12q-48,0-72,25T186,78q0,23 7,57l57,294H76l14,87H373L289,83l20-8L482,234l61-55l-78-78q-31-31-56-52.5t-46-35T322.5-6T282-12ZM224,750l95,40l63-183l-67-28L224,750Z" />
      <glyph unicode="&#xed;" glyph-name="iacute" horiz-adv-x="600" d="M337,579l-63,35L385,790l87-47L337,579ZM282-12q-48,0-72,25T186,78q0,23 7,57l57,294H76l14,87H373L289,83l20-8L482,234l61-55l-78-78q-31-31-56-52.5t-46-35T322.5-6T282-12Z" />
      <glyph unicode="&#xee;" glyph-name="icircumflex" horiz-adv-x="600" d="M411,773l96-151l-59-40L348,698L212,582l-52,43L302,773H411ZM282-12q-48,0-72,25T186,78q0,23 7,57l57,294H76l14,87H373L289,83l20-8L482,234l61-55l-78-78q-31-31-56-52.5t-46-35T322.5-6T282-12Z" />
      <glyph unicode="&#xef;" glyph-name="idieresis" horiz-adv-x="600" d="M234,608q-34,0-47.5,12.5T173,651q0,5 0.5,10.5T176,676q4,23 19,39t53,16q34,0 47.5-12.5T309,688q0-5-0.5-10.5T306,663q-4-23-19-39t-53-16Zm200,0q-34,0-47.5,12.5T373,651q0,5 0.5,10.5T376,676q4,23 19,39t53,16q34,0 47.5-12.5T509,688q0-5-0.5-10.5T506,663q-4-23-19-39t-53-16ZM282-12q-48,0-72,25T186,78q0,23 7,57l57,294H76l14,87H373L289,83l20-8L482,234l61-55l-78-78q-31-31-56-52.5t-46-35T322.5-6T282-12Z" />
      <glyph unicode="&#xf0;" glyph-name="eth" horiz-adv-x="600" d="M448,646q43-54 73-129t30-174q0-86-20.5-152t-59-111t-93-68.5T256-12q-48,0-86.5,15T104,46T62.5,113.5T48,201q0,64 19,119t52.5,95.5t80,63.5T301,502q54,0 91-25.5T446,409l6,3q-15,95-90,185L259,536l-35,52l94,56q-29,26-62.5,50.5T184,740H350q13-10 27-21.5T405,693l100,60l35-52l-92-55ZM271,73q62,0 102,36t51,104l9,54q2,14 3.5,24.5T438,310q0,54-31,80t-84,26q-62,0-102-36T170,276l-9-54q-2-14-3.5-24.5T156,179q0-54 31-80t84-26Z" />
      <glyph unicode="&#xf1;" glyph-name="ntilde" horiz-adv-x="600" d="M45,0l86,516H238L217,394h5q29,62 68,98t102,36q69,0 104.5-41.5T532,379q0-18-1.5-37.5T524,296L475,0H368l50,300q2,14 4,29.5t2,28.5q0,35-17.5,59T349,441q-30,0-53.5-14T252,389q-10-12-28.5-42T198,276L152,0H45ZM424,604q-24,0-41,7.5T349,629q-17,11-34,17t-34,6q-16,0-30.5-7T218,624l-33,52q19,23 47,40t63,17q24,0 41-7.5T370,708q17-11 34-17t34-6q16,0 30.5,7T501,713l33-52q-19-23-47-40t-63-17Z" />
      <glyph unicode="&#xf2;" glyph-name="ograve" horiz-adv-x="600" d="M265-12q-51,0-90,16T109.5,48.5T69,117.5T55,208q0,74 21,133t58.5,100.5t89,64T335,528q51,0 90-16t65.5-44.5T531,398t14-90q0-74-21-133T465.5,74.5t-89-64T265-12Zm7,85q63,0 101,38.5T422,218l11,66q2,14 3.5,26t1.5,21q0,57-29.5,84.5T328,443q-63,0-101-38.5T178,298l-11-66q-2-14-3.5-26T162,185q0-57 29.5-84.5T272,73ZM251,750l95,40l63-183l-67-28L251,750Z" />
      <glyph unicode="&#xf3;" glyph-name="oacute" horiz-adv-x="600" d="M364,579l-63,35L412,790l87-47L364,579ZM265-12q-51,0-90,16T109.5,48.5T69,117.5T55,208q0,74 21,133t58.5,100.5t89,64T335,528q51,0 90-16t65.5-44.5T531,398t14-90q0-74-21-133T465.5,74.5t-89-64T265-12Zm7,85q63,0 101,38.5T422,218l11,66q2,14 3.5,26t1.5,21q0,57-29.5,84.5T328,443q-63,0-101-38.5T178,298l-11-66q-2-14-3.5-26T162,185q0-57 29.5-84.5T272,73Z" />
      <glyph unicode="&#xf4;" glyph-name="ocircumflex" horiz-adv-x="600" d="M438,773l96-151l-59-40L375,698L239,582l-52,43L329,773H438ZM265-12q-51,0-90,16T109.5,48.5T69,117.5T55,208q0,74 21,133t58.5,100.5t89,64T335,528q51,0 90-16t65.5-44.5T531,398t14-90q0-74-21-133T465.5,74.5t-89-64T265-12Zm7,85q63,0 101,38.5T422,218l11,66q2,14 3.5,26t1.5,21q0,57-29.5,84.5T328,443q-63,0-101-38.5T178,298l-11-66q-2-14-3.5-26T162,185q0-57 29.5-84.5T272,73Z" />
      <glyph unicode="&#xf5;" glyph-name="otilde" horiz-adv-x="600" d="M265-12q-51,0-90,16T109.5,48.5T69,117.5T55,208q0,74 21,133t58.5,100.5t89,64T335,528q51,0 90-16t65.5-44.5T531,398t14-90q0-74-21-133T465.5,74.5t-89-64T265-12Zm7,85q63,0 101,38.5T422,218l11,66q2,14 3.5,26t1.5,21q0,57-29.5,84.5T328,443q-63,0-101-38.5T178,298l-11-66q-2-14-3.5-26T162,185q0-57 29.5-84.5T272,73ZM433,604q-24,0-41,7.5T358,629q-17,11-34,17t-34,6q-16,0-30.5-7T227,624l-33,52q19,23 47,40t63,17q24,0 41-7.5T379,708q17-11 34-17t34-6q16,0 30.5,7T510,713l33-52q-19-23-47-40t-63-17Z" />
      <glyph unicode="&#xf6;" glyph-name="odieresis" horiz-adv-x="600" d="M261,608q-34,0-47.5,12.5T200,651q0,5 0.5,10.5T203,676q4,23 19,39t53,16q34,0 47.5-12.5T336,688q0-5-0.5-10.5T333,663q-4-23-19-39t-53-16Zm200,0q-34,0-47.5,12.5T400,651q0,5 0.5,10.5T403,676q4,23 19,39t53,16q34,0 47.5-12.5T536,688q0-5-0.5-10.5T533,663q-4-23-19-39t-53-16ZM265-12q-51,0-90,16T109.5,48.5T69,117.5T55,208q0,74 21,133t58.5,100.5t89,64T335,528q51,0 90-16t65.5-44.5T531,398t14-90q0-74-21-133T465.5,74.5t-89-64T265-12Zm7,85q63,0 101,38.5T422,218l11,66q2,14 3.5,26t1.5,21q0,57-29.5,84.5T328,443q-63,0-101-38.5T178,298l-11-66q-2-14-3.5-26T162,185q0-57 29.5-84.5T272,73Z" />
      <glyph unicode="&#xf7;" glyph-name="divide" horiz-adv-x="600" d="M64,262l14,87H552l-14-87H64ZM267,43q-36,0-51,13.5T201,89q0,13 3,31q5,27 23,42.5T283,178q36,0 51-13.5T349,132q0-13-3-31q-5-27-23-42.5T267,43Zm65,390q-36,0-51,13.5T266,479q0,13 3,31q5,27 23,42.5T348,568q36,0 51-13.5T414,522q0-13-3-31q-5-27-23-42.5T332,433Z" />
      <glyph unicode="&#xf8;" glyph-name="oslash" horiz-adv-x="600" d="M-3,1L82,88q-13,25-20,55t-7,65q0,74 21,133t58.5,100.5t89,64T335,528q85,0 139-45l75,77l54-45l-85-87q13-25 20-55t7-65q0-74-21-133T465.5,74.5t-89-64T265-12q-85,0-139,45L51-44L-3,1ZM328,443q-63,0-101-38.5T178,299l-11-67q-2-14-3.5-26T162,185q0-5 0-10t1-10L407,416q-29,27-79,27ZM272,73q63,0 101,38.5T422,217l11,67q2,14 3.5,26t1.5,21q0,5 0,10t-1,10L193,100q28-27 79-27Z" />
      <glyph unicode="&#xf9;" glyph-name="ugrave" horiz-adv-x="600" d="M384,122h-5q-29-62-68-98T209-12q-69,0-104.5,41.5T69,137q0,18 1.5,37.5T77,220l49,296H233L183,216q-2-14-4-29.5T177,158q0-35 17.5-59T252,75q30,0 53.5,14T349,127q10,12 28.5,42T403,240l46,276H556L470,0H363l21,122ZM247,750l95,40l63-183l-67-28L247,750Z" />
      <glyph unicode="&#xfa;" glyph-name="uacute" horiz-adv-x="600" d="M360,579l-63,35L408,790l87-47L360,579Zm24-457h-5q-29-62-68-98T209-12q-69,0-104.5,41.5T69,137q0,18 1.5,37.5T77,220l49,296H233L183,216q-2-14-4-29.5T177,158q0-35 17.5-59T252,75q30,0 53.5,14T349,127q10,12 28.5,42T403,240l46,276H556L470,0H363l21,122Z" />
      <glyph unicode="&#xfb;" glyph-name="ucircumflex" horiz-adv-x="600" d="M434,773l96-151l-59-40L371,698L235,582l-52,43L325,773H434ZM384,122h-5q-29-62-68-98T209-12q-69,0-104.5,41.5T69,137q0,18 1.5,37.5T77,220l49,296H233L183,216q-2-14-4-29.5T177,158q0-35 17.5-59T252,75q30,0 53.5,14T349,127q10,12 28.5,42T403,240l46,276H556L470,0H363l21,122Z" />
      <glyph unicode="&#xfc;" glyph-name="udieresis" horiz-adv-x="600" d="M257,608q-34,0-47.5,12.5T196,651q0,5 0.5,10.5T199,676q4,23 19,39t53,16q34,0 47.5-12.5T332,688q0-5-0.5-10.5T329,663q-4-23-19-39t-53-16Zm200,0q-34,0-47.5,12.5T396,651q0,5 0.5,10.5T399,676q4,23 19,39t53,16q34,0 47.5-12.5T532,688q0-5-0.5-10.5T529,663q-4-23-19-39t-53-16ZM384,122h-5q-29-62-68-98T209-12q-69,0-104.5,41.5T69,137q0,18 1.5,37.5T77,220l49,296H233L183,216q-2-14-4-29.5T177,158q0-35 17.5-59T252,75q30,0 53.5,14T349,127q10,12 28.5,42T403,240l46,276H556L470,0H363l21,122Z" />
      <glyph unicode="&#xfd;" glyph-name="yacute" horiz-adv-x="600" d="M211-212q-67,0-114.5,17T17-139L85-71q43-54 127-54q64,0 103.5,34T369,31l17,107h-4q-29-62-68-98T212,4Q143,4 107.5,45.5T72,153q0,18 1.5,37.5T80,236l46,280H233L186,232q-2-14-4-29.5T180,174q0-35 17.5-59T255,91q30,0 53.5,14T352,143q10,12 28.5,42T406,256l43,260H556L472,14q-20-119-88-172.5T211-212ZM367,579l-63,35L415,790l87-47L367,579Z" />
      <glyph unicode="&#xfe;" glyph-name="thorn" horiz-adv-x="600" d="M163,740H270L213,394h4q15,30 32,54.5T287,491t47.5,27.5T395,528q80,0 118.5-52T552,328q0-62-14.5-123T493,96T417.5,18T310-12q-59,0-94,27T167,93h-5L114-200H7L163,740ZM277,75q67,0 103.5,40.5T428,219l12,71q2,9 3,20.5t1,22.5q0,49-22,78.5T352,441q-60,0-106-54q-17-19-32-47t-21-64L176,173q-8-45 19.5-71.5T277,75Z" />
      <glyph unicode="&#xff;" glyph-name="ydieresis" horiz-adv-x="600" d="M211-212q-67,0-114.5,17T17-139L85-71q43-54 127-54q64,0 103.5,34T369,31l17,107h-4q-29-62-68-98T212,4Q143,4 107.5,45.5T72,153q0,18 1.5,37.5T80,236l46,280H233L186,232q-2-14-4-29.5T180,174q0-35 17.5-59T255,91q30,0 53.5,14T352,143q10,12 28.5,42T406,256l43,260H556L472,14q-20-119-88-172.5T211-212Zm53,820q-34,0-47.5,12.5T203,651q0,5 0.5,10.5T206,676q4,23 19,39t53,16q34,0 47.5-12.5T339,688q0-5-0.5-10.5T336,663q-4-23-19-39t-53-16Zm200,0q-34,0-47.5,12.5T403,651q0,5 0.5,10.5T406,676q4,23 19,39t53,16q34,0 47.5-12.5T539,688q0-5-0.5-10.5T536,663q-4-23-19-39t-53-16Z" />
      <glyph unicode="&#x2013;" glyph-name="endash" horiz-adv-x="600" d="M63,258l15,92H553l-15-92H63Z" />
      <glyph unicode="&#x2014;" glyph-name="emdash" horiz-adv-x="600" d="M3,258l15,92H612l-15-92H3Z" />
      <glyph unicode="&#x2018;" glyph-name="quoteleft" horiz-adv-x="600" d="M381,740h84L362,444H209L381,740Z" />
      <glyph unicode="&#x2019;" glyph-name="quoteright" horiz-adv-x="600" d="M345,740H498L326,444H242L345,740Z" />
      <glyph unicode="&#x201a;" glyph-name="quotesinglbase" horiz-adv-x="600" d="M234,151H387L215-145H131L234,151Z" />
      <glyph unicode="&#x201c;" glyph-name="quotedblleft" horiz-adv-x="600" d="M268,740h84L249,444H96L268,740Zm245,0h84L494,444H341L513,740Z" />
      <glyph unicode="&#x201d;" glyph-name="quotedblright" horiz-adv-x="600" d="M227,740H380L208,444H124L227,740Zm244,0H624L452,444H368L471,740Z" />
      <glyph unicode="&#x201e;" glyph-name="quotedblbase" horiz-adv-x="600" d="M124,151H277L105-145H21L124,151Zm245,0H522L350-145H266L369,151Z" />
      <glyph unicode="&#x2022;" glyph-name="bullet" horiz-adv-x="600" d="M289,174q-65,0-92,26.5T170,267q0,6 1,17t5,34q4,25 14.5,46T219,400.5T264,425t63,9q65,0 92-26.5T446,341q0-6-1-17t-5-34q-4-25-14.5-46T397,207.5T352,183t-63-9Z" />
      <glyph unicode="&#x2039;" glyph-name="guilsinglleft" horiz-adv-x="600" d="M338,51L165,223l17,99L407,491l25-74L267,266L382,117L338,51Z" />
      <glyph unicode="&#x203a;" glyph-name="guilsinglright" horiz-adv-x="600" d="M171,125L336,276L221,425l44,66L438,319l-17-99L196,51l-25,74Z" />
    </font>
</defs>
</svg>
