<?xml version="1.0" standalone="no"?>
<!DOCTYPE svg PUBLIC "-//W3C//DTD SVG 1.1//EN" "http://www.w3.org/Graphics/SVG/1.1/DTD/svg11.dtd">
<svg xmlns="http://www.w3.org/2000/svg">
  <defs>
    <font id="IBMPlexMono" horiz-adv-x="600">
      <font-face font-family="IBM Plex Mono" units-per-em="1000" panose-1="2 11 8 9 5 2 3 0 2 3" ascent="1025" descent="-275" alphabetic="0" />
      <glyph unicode=" " glyph-name="space" horiz-adv-x="600" />
      <glyph unicode="!" glyph-name="exclam" horiz-adv-x="600" d="M269,243L257,495l33,203H451L417,495L321,243H269ZM256-12q-47,0-67.5,18.5T168,51q0,6 1,15.5T174,99q5,32 30,53.5T279,174q47,0 67.5-18.5T367,111q0-6-1-15.5T361,63q-5-32-30-53.5T256-12Z" />
      <glyph unicode="&quot;" glyph-name="quotedbl" horiz-adv-x="600" d="M151,415l54,325H335L281,415H151Zm223,0l54,325H558L504,415H374Z" />
      <glyph unicode="#" glyph-name="numbersign" horiz-adv-x="600" d="M109,195H-1L17,303H146l31,92H70L88,503H214l67,195H396L157,0H42l67,195ZM475,698H590L523,503H633L615,395H486l-31-92H562L544,195H418L351,0H236L475,698Z" />
      <glyph unicode="$" glyph-name="dollar" horiz-adv-x="600" d="M210-7Q144,2 94,29T18,98l90,92q23-33 58-52t73-27l32,190l-20,6Q90,354 90,485q0,94 63.5,154T329,708l17,103H458L440,702q50-11 89-34.5T591,611l-92-90q-17,23-38.5,38T410,582L381,408l14-4q75-23 121-64.5T562,227q0-49-16-90T499,65.5t-75.5-50T321-10L304-113H192L210-7Zm22,508q0-27 15-40.5T294,436l24,148q-45-8-65.5-31T232,501ZM419,211q0,24-15,38.5T358,275L332,113q87,19 87,98Z" />
      <glyph unicode="%" glyph-name="percent" horiz-adv-x="600" d="M187,339q-66,0-101.5,39T50,485q0,50 13,91.5t37,71t58.5,46T235,710q66,0 101.5-39T372,564q0-50-13-91.5t-37-71t-58.5-46T187,339Zm9,86q31,0 44.5,19.5T259,496q1,7 3,17.5t4,21.5t3.5,21.5T271,573q0,51-45,51q-31,0-44.5-19.5T163,553q-1-7-3-17.5t-4-22T152.5,492T151,476q0-51 45-51ZM561,698H672L471,398H360L561,698ZM162,300H273L72,0H-39L162,300ZM398-12q-66,0-101.5,39T261,134q0,50 13,91.5t37,71t58.5,46T446,359q66,0 101.5-39T583,213q0-50-13-91.5t-37-71t-58.5-46T398-12Zm9,86q31,0 44.5,19.5T470,145q1,7 3,17.5t4,21.5t3.5,21.5T482,222q0,51-45,51q-31,0-44.5-19.5T374,202q-1-7-3-17.5t-4-22T363.5,141T362,125q0-51 45-51Z" />
      <glyph unicode="&amp;" glyph-name="ampersand" horiz-adv-x="600" d="M153-12Q90-12 50,34T10,171q0,45 10.5,85.5t33.5,71T113,377t87,22q-11,32-18,66t-7,66q0,37 13.5,70T228,658t64,38t87,14q40,0 72.5-12.5T507,662t36-55.5T556,535q0-83-51-138.5T360,324l72-201l17-4l68,95l82-59L551,74Q522,25 493,6.5T424-12q-20,0-38,8T351.5,21.5t-30,46T298,137h-6q-8-64-42-106.5T153-12Zm54,127q9,0 18.5,1.5t18.5,7t17.5,16T277,169L220,338q-20-6-32-16t-19-22.5T159,272t-4-30q-2-24-2.5-37T152,183q0-32 15-50t40-18ZM368,606q-34,0-48.5-22.5T305,530q0-32 7.5-63.5T334,396l3-9q41,15 60.5,37.5T423,483q3,18 4,31.5t1,27.5q0,27-16.5,45.5T368,606Z" />
      <glyph unicode="&apos;" glyph-name="quotesingle" horiz-adv-x="600" d="M262,415l54,325H446L392,415H262Z" />
      <glyph unicode="(" glyph-name="parenleft" horiz-adv-x="600" d="M170,239q0,83 23,160.5t61.5,145t90,122.5T453,760H596q-54-38-101.5-82.5t-85-94T346.5,480T312,370l-16-95q-3-18-4-32t-1-30q0-49 13-98.5T339,19t50-86t58-70H316q-30,30-57,70T212.5,21.5T181.5,125T170,239Z" />
      <glyph unicode=")" glyph-name="parenright" horiz-adv-x="600" d="M452,384q0-83-23-160.5t-61.5-145T277.5-44T169-137H26Q80-99 127.5-54.5t85,94t63,103.5T310,253l16,95q3,18 4,32t1,30q0,49-13,98.5T283,604t-50,86t-58,70H306q30-30 57-70t46.5-88.5t31-103.5T452,384Z" />
      <glyph unicode="*" glyph-name="asterisk" horiz-adv-x="600" d="M157,40L61,109L198,259L40,320L95,431l158-61l30,178H409L379,370l178,61l21-114L397,252l88-143L376,40L288,190L157,40Z" />
      <glyph unicode="+" glyph-name="plus" horiz-adv-x="600" d="M205,62l31,185H61L81,363H255l31,185H412L381,363H557L537,247H362L331,62H205Z" />
      <glyph unicode="," glyph-name="comma" horiz-adv-x="600" d="M211,173H398L215-151H102L211,173Z" />
      <glyph unicode="-" glyph-name="hyphen" horiz-adv-x="600" d="M139,235l23,140H479L456,235H139Z" />
      <glyph unicode="." glyph-name="period" horiz-adv-x="600" d="M255-12q-50,0-71,19.5T163,55q0,15 6,51q5,32 32.5,56T284,186q50,0 71-19.5T376,119q0-15-6-51q-5-32-32.5-56T255-12Z" />
      <glyph unicode="/" glyph-name="slash" horiz-adv-x="600" d="M1-138L465,760H599L135-138H1Z" />
      <glyph unicode="0" glyph-name="zero" horiz-adv-x="600" d="M278-12Q153-12 94.5,59.5T36,256q0,86 17.5,168T109,569.5t97.5,102T350,710q63,0 108.5-18.5t75.5-53t44-84T592,442q0-86-17.5-168T519,128.5t-97.5-102T278-12Zm0,115q34,0 57.5,12t40,35T402,206t17,76l21,127q4,23 5.5,40t1.5,34q0,53-23.5,82.5T350,595q-34,0-57.5-12t-40-35T226,492t-17-76L188,289q-4-23-5.5-40T181,215q0-53 23.5-82.5T278,103Zm29,187q-31,0-44.5,12T249,332q0,10 3,28q4,23 20,35.5T321,408q31,0 44.5-12T379,366q0-10-3-28q-4-23-20-35.5T307,290Z" />
      <glyph unicode="1" glyph-name="one" horiz-adv-x="600" d="M47,0L67,120H254l78,469h-9L154,403L66,478L266,698H498L402,120H551L531,0H47Z" />
      <glyph unicode="2" glyph-name="two" horiz-adv-x="600" d="M512,0H12L34,136L287,323q33,24 56.5,45T383,408t25,38t12,39q1,5 1.5,11.5T422,511q0,31-21.5,51T338,582q-25,0-44.5-8t-35-22t-27-32T212,483L84,533q18,37 42.5,69.5T184,659t74,37.5T350,710q109,0 169.5-53.5T580,515q0-45-15.5-81t-44-68.5T451,301t-92-69L209,124H533L512,0Z" />
      <glyph unicode="3" glyph-name="three" horiz-adv-x="600" d="M294,422q61,0 89.5,21T417,491q2,9 2.5,14.5T420,518q0,33-25,52t-67,19t-79.5-18.5T178,507L96,599q23,25 49,45.5t57,35T270.5,702t83.5,8q52,0 93.5-11.5t71-33.5T564,612.5T580,544q0-69-43.5-114.5T416,367l-1-5q56-10 90-47t34-100q0-49-18.5-90.5T466,52.5T377,5T255-12q-53,0-93,11T92.5,28.5T43.5,71T12,122l106,77q19-40 51.5-65T261,109q53,0 83,22.5T381,195q1,5 1.5,12t0.5,14q0,36-27.5,56.5T281,298H206l21,124h67Z" />
      <glyph unicode="4" glyph-name="four" horiz-adv-x="600" d="M298,0l22,134H6L28,264L379,698H558L483,249h89L553,134H464L442,0H298ZM151,249H339l47,281h-8L151,249Z" />
      <glyph unicode="5" glyph-name="five" horiz-adv-x="600" d="M571,569H248L196,346h8q15,26 31,46.5T270.5,427T315,448.5t58,7.5q41,0 75.5-13t60-38t40-61T563,262q0-51-18.5-100T489,74T396.5,11.5T268-12q-57,0-98.5,11.5t-71,30t-49,43T18,124l117,75q16-38 49-64t87-26q56,0 87.5,29T398,212q3,18 3,40q0,40-25,62t-70,22q-42,0-71-16.5T188,287L70,303l92,395H593L571,569Z" />
      <glyph unicode="6" glyph-name="six" horiz-adv-x="600" d="M274-12Q158-12 97,52T36,224q0,76 27,146.5T135,502T237.5,613T357,698H568q-71-44-128.5-85t-102-83t-77-86.5T209,348l8-3q13,20 29,39t36.5,33.5t47,23.5t59.5,9q40,0 73-14t55.5-39t35-60.5T565,258q0-53-19-102T490,69.5T398.5,10T274-12Zm11,116q51,0 82.5,26.5T407,207q3,18 3,33q0,48-25.5,72T311,336q-51,0-82.5-26.5T189,233q-3-18-3-33q0-48 25.5-72T285,104Z" />
      <glyph unicode="7" glyph-name="seven" horiz-adv-x="600" d="M110,0L446,577H221L200,450H74l41,248H617L595,569L270,0H110Z" />
      <glyph unicode="8" glyph-name="eight" horiz-adv-x="600" d="M269-12Q148-12 86,37.5T24,166q0,73 45,125t124,70l1,7q-44,17-69,51.5T100,506q0,37 15.5,73.5T164,645t83.5,47T367,710q110,0 165.5-46T588,543q0-63-38.5-107.5T443,367l-1-7q53-15 83.5-52.5T556,213q0-41-18-81.5T484,59T394.5,7.5T269-12Zm6,114q54,0 84.5,24.5T397,192q2,14 2.5,20.5T400,227q0,35-24.5,55T303,302q-54,0-84.5-24.5T181,212q-2-14-2.5-20.5T178,177q0-35 24.5-55T275,102Zm54,309q49,0 77,22t35,63q3,18 3,31q0,32-23.5,50.5T352,596q-49,0-77-22t-35-63q-3-18-3-31q0-32 23.5-50.5T329,411Z" />
      <glyph unicode="9" glyph-name="nine" horiz-adv-x="600" d="M592,474q0-76-27-146.5T493,196T390,85T271,0H60q70,43 128,84.5T290.5,168T367,254.5T419,350l-8,3q-13-20-29-39t-36.5-33.5t-47-23.5T239,248q-41,0-73.5,14t-55,39t-35,60.5T63,440q0,53 19,102t56,86.5T229,688t125,22q58,0 102.5-16.5T531,646t45.5-74.5T592,474ZM317,362q51,0 82.5,26.5T439,465q3,18 3,33q0,48-25.5,72T343,594q-51,0-82.5-26.5T221,491q-3-18-3-33q0-48 25.5-72T317,362Z" />
      <glyph unicode=":" glyph-name="colon" horiz-adv-x="600" d="M255-12q-50,0-71,19.5T163,55q0,15 6,51q5,32 32.5,56T284,186q50,0 71-19.5T376,119q0-15-6-51q-5-32-32.5-56T255-12Zm55,341q-50,0-71,19.5T218,396q0,15 6,51q5,32 32.5,56T339,527q50,0 71-19.5T431,460q0-15-6-51q-5-32-32.5-56T310,329Z" />
      <glyph unicode=";" glyph-name="semicolon" horiz-adv-x="600" d="M211,173H398L215-151H102L211,173Zm99,156q-50,0-71,19.5T218,396q0,15 6,51q5,32 32.5,56T339,527q50,0 71-19.5T431,460q0-15-6-51q-5-32-32.5-56T310,329Z" />
      <glyph unicode="&lt;" glyph-name="less" horiz-adv-x="600" d="M81,237l23,138L572,604L548,461L225,304l-1-8L495,138L473,7L81,237Z" />
      <glyph unicode="=" glyph-name="equal" horiz-adv-x="600" d="M80,362l20,116H576L556,362H80ZM42,132L62,248H538L518,132H42Z" />
      <glyph unicode="&gt;" glyph-name="greater" horiz-adv-x="600" d="M69,151L393,308l1,8L122,473l22,131L537,375L514,237L45,6L69,151Z" />
      <glyph unicode="?" glyph-name="question" horiz-adv-x="600" d="M198,234l25,152q85,4 130,27t54,77q2,9 2,17.5t0,10.5q0,34-23.5,51T328,586q-38,0-65-23t-43-61L106,555q13,32 34.5,60T192,664t69,33.5T350,710q101,0 158.5-50T566,524q0-46-16.5-83.5t-45-65.5t-67-46T356,305l-12-71H198ZM237-12q-47,0-67.5,18.5T149,51q0,6 1,15.5T155,99q5,32 30,53.5T260,174q47,0 67.5-18.5T348,111q0-6-1-15.5T342,63q-5-32-30-53.5T237-12Z" />
      <glyph unicode="@" glyph-name="at" horiz-adv-x="600" d="M404-113H285Q151-113 93-41.5T35,170q0,47 5.5,98.5T54,366q13,72 37,134.5t62,109T244.5,683T372,710q54,0 95-15t68-42t40.5-65T589,505q0-11-1-23.5T585,455L524,91H411l14,82h-4q-19-41-43.5-67T314,80q-57,0-80.5,40T210,234q0,59 11.5,109t33,87t52,57.5T374,508q38,0 61-21.5T463,428h4l6,35q2,13 3,25t1,21q0,59-29.5,83T366,616q-35,0-64.5-11.5t-54-40.5T204,485T172,358L151,232q-4-23-5-45.5T145,147q0-80 35-122.5T297-18H419l-15-95ZM361,172q16,0 28,8.5T410,200q8,11 18,31t15,49l14,85q4,24-8,41t-39,17q-32,0-49-25t-25-70l-8-48q-1-6-1.5-14t-1-16.5T325,234t0-11q0-51 36-51Z" />
      <glyph unicode="A" glyph-name="A" horiz-adv-x="600" d="M400,0L383,169H187L118,0H-37L270,698H476L552,0H400ZM356,553h-9L237,289H377L356,553Z" />
      <glyph unicode="B" glyph-name="B" horiz-adv-x="600" d="M152,698H389q91,0 139-44t48-117q0-146-145-182l-1-5q55-11 84.5-44T544,217q0-49-16.5-89T480,59.5t-75.5-44T305,0H35L152,698ZM273,104q50,0 79,17t36,58l4,24q2,9 3.5,19t1.5,16q0,35-20,50t-65,15H230L197,104h76Zm31,298q53,0 80,15.5T419,478l4,24q1,5 2,14.5t1,16.5q0,34-21.5,47.5T343,594H279L247,402h57Z" />
      <glyph unicode="C" glyph-name="C" horiz-adv-x="600" d="M290-12Q167-12 108.5,58.5T50,254q0,102 23,186t65,144t101.5,93T373,710q58,0 100.5-15T544,653t42.5-65T604,505L461,476q-2,25-6.5,46t-15,36t-28,23.5T367,590q-62,0-95-49T225,408L207,299q-3-18-5.5-36T199,221q0-53 23-83t78-30q24,0 44,9.5T380,143t29,37.5T432,227l127-38Q518,91 454.5,39.5T290-12Z" />
      <glyph unicode="D" glyph-name="D" horiz-adv-x="600" d="M142,698H347q118,0 179.5-66T588,441q0-103-22-185T501.5,117T396,30T252,0H25L142,698ZM255,117q67,0 105,38.5T412,275l21,126q3,18 4.5,36t1.5,32q0,112-105,112H269L192,117h63Z" />
      <glyph unicode="E" glyph-name="E" horiz-adv-x="600" d="M38,0L155,698H601L581,576H281L254,414H540L520,292H233L205,122H504L484,0H38Z" />
      <glyph unicode="F" glyph-name="F" horiz-adv-x="600" d="M38,0L155,698H617L597,576H281L254,414H536L516,292H234L185,0H38Z" />
      <glyph unicode="G" glyph-name="G" horiz-adv-x="600" d="M390,101h-9q-13-23-27-43.5t-31.5-36T282.5-3T230-12Q144-12 94.5,53T45,245q0,99 20.5,184.5t61,147.5t101,97.5T368,710q54,0 94-15t67-42.5T571,587t18-83L446,476q-2,22-6.5,43t-15,36.5t-27,25T355,590q-57,0-88.5-48T221,413L204,311q-3-18-5.5-42.5T196,224q0-53 22.5-84.5T289,108q53,0 83,33t38,78l8,48H295l17,105H566L504,0H373l17,101Z" />
      <glyph unicode="H" glyph-name="H" horiz-adv-x="600" d="M397,293H217L168,0H20L136,698H284L237,414H417l47,284H612L496,0H348l49,293Z" />
      <glyph unicode="I" glyph-name="I" horiz-adv-x="600" d="M32,0L50,110H201l80,478H130l18,110H598L580,588H429L349,110H500L482,0H32Z" />
      <glyph unicode="J" glyph-name="J" horiz-adv-x="600" d="M583,698L500,202Q464-12 243-12Q138-12 84.5,42.5T29,185l139,26q2-44 20-73.5T254,108q40,0 65.5,24T353,206l62,370H181l20,122H583Z" />
      <glyph unicode="K" glyph-name="K" horiz-adv-x="600" d="M289,282l-82-91L175,0H27L143,698H291L241,399h8L361,536L493,698H667L407,388L562,0H398L289,282Z" />
      <glyph unicode="L" glyph-name="L" horiz-adv-x="600" d="M51,0L167,698H315L219,122H521L501,0H51Z" />
      <glyph unicode="M" glyph-name="M" horiz-adv-x="600" d="M442,311l40,197h-9L282,149L212,508h-9L178,311L126,0H-2L115,698H284l48-237h9L467,698H635L518,0H390l52,311Z" />
      <glyph unicode="N" glyph-name="N" horiz-adv-x="600" d="M237,468H227L149,0H20L136,698H314l81-468h10l78,468H612L496,0H318L237,468Z" />
      <glyph unicode="O" glyph-name="O" horiz-adv-x="600" d="M279-12Q216-12 170,6T94,58T50,141T36,251q0,89 17.5,172T109,569.5t97.5,102T349,710q63,0 109-18t76-52t44-83t14-110q0-89-17.5-172T519,128.5t-97.5-102T279-12Zm0,120q63,0 92.5,47T415,288l20,120q6,36 6,72q0,52-22,81t-70,29q-63,0-92.5-47T213,410L193,290q-6-36-6-72q0-52 22-81t70-29Z" />
      <glyph unicode="P" glyph-name="P" horiz-adv-x="600" d="M37,0L154,698H406q46,0 81.5-13.5T547,646t36.5-59T596,513q0-60-17.5-107.5t-50-80.5T450,274T347,256H228L185,0H37ZM248,376h78q51,0 76,19t33,64l5,30q1,5 1.5,12t0.5,15q0,34-18.5,48.5T360,579H282L248,376Z" />
      <glyph unicode="Q" glyph-name="Q" horiz-adv-x="600" d="M406-205q-38,0-59.5,17.5T308-146L215-6Q122,11 79,78T36,251q0,89 17.5,172T109,569.5t97.5,102T349,710q63,0 109-18t76-52t44-83t14-110q0-78-13.5-151t-42-133.5t-73-104T357-2l54-82l16-4L512-4l76-69l-48-53q-22-24-39.5-39.5t-33-24.5t-30-12T406-205ZM279,108q63,0 92.5,47T415,288l20,120q6,36 6,72q0,52-22,81t-70,29q-63,0-92.5-47T213,410L193,290q-6-36-6-72q0-52 22-81t70-29Z" />
      <glyph unicode="R" glyph-name="R" horiz-adv-x="600" d="M181,0H35L152,698H404q46,0 81.5-13.5t59.5-38T581.5,588T594,512q0-93-44.5-154T427,275L522,0H366L289,260H225L181,0ZM324,376q54,0 78,18t31,62l4,24q3,18 3,33q0,35-21,50.5T361,579H278L244,376h80Z" />
      <glyph unicode="S" glyph-name="S" horiz-adv-x="600" d="M268-12q-87,0-155.5,28T12,95l93,94q31-40 78-59.5T277,110q57,0 86.5,27.5T393,213q0,35-19.5,51.5T312,291l-69,16q-76,17-110.5,63.5T98,482q0,52 18.5,94T170,648t85,46t112,16q75,0 136-26t91-72l-97-89q-23,32-57.5,49.5T360,590q-55,0-82-25t-27-67q0-30 18.5-46T335,424l66-17q146-37 146-177q0-54-18.5-98.5T474,55T386,5.5T268-12Z" />
      <glyph unicode="T" glyph-name="T" horiz-adv-x="600" d="M427,576L331,0H183l96,576H77L97,698H649L629,576H427Z" />
      <glyph unicode="U" glyph-name="U" horiz-adv-x="600" d="M275,698L202,260q-5-27-6.5-45T194,186q0-38 18.5-58T277,108q33,0 54,10.5T364.5,148T384,194t13,61l74,443H618L547,272q-12-70-28.5-123t-47-89t-79-54T269-12Q207-12 164.5,1.5t-68,38T60,98.5T49,176q0,26 3,54.5T60,291l68,407H275Z" />
      <glyph unicode="V" glyph-name="V" horiz-adv-x="600" d="M152,0L85,698H243l24-351l9-205h9l78,205L499,698H661L363,0H152Z" />
      <glyph unicode="W" glyph-name="W" horiz-adv-x="600" d="M10,0L84,698H211L163,280L146,136h9L282,546H417l-6-410h9l27,138l93,424H661L502,0H312l15,386H317L200,0H10Z" />
      <glyph unicode="X" glyph-name="X" horiz-adv-x="600" d="M550,0H385L336,139L302,249h-9L227,139L130,0H-33L223,361L94,698H260l39-111l33-112h8l70,112l78,111H650L413,359L550,0Z" />
      <glyph unicode="Y" glyph-name="Y" horiz-adv-x="600" d="M184,0l41,246L78,698H236l49-164l31-137h9l78,137L503,698H668L373,249L332,0H184Z" />
      <glyph unicode="Z" glyph-name="Z" horiz-adv-x="600" d="M507,0H8L30,130L417,576H113l20,122H612L591,568L204,122H527L507,0Z" />
      <glyph unicode="[" glyph-name="bracketleft" horiz-adv-x="600" d="M118-138L268,760H588l-16-98H369L252-40H455l-17-98H118Z" />
      <glyph unicode="\" glyph-name="backslash" horiz-adv-x="600" d="M330-138L161,760H280L449-138H330Z" />
      <glyph unicode="]" glyph-name="bracketright" horiz-adv-x="600" d="M501,760L351-138H31L47-40H250L367,662H164l17,98H501Z" />
      <glyph unicode="^" glyph-name="asciicircum" horiz-adv-x="600" d="M459,256L353,562H342L144,252L34,304L289,698H445L578,304L459,256Z" />
      <glyph unicode="_" glyph-name="underscore" horiz-adv-x="600" d="M-12-191L8-72H483L463-191H-12Z" />
      <glyph unicode="`" glyph-name="grave" horiz-adv-x="600" d="M179,747l124,59l77-196l-87-39L179,747Z" />
      <glyph unicode="a" glyph-name="a" horiz-adv-x="600" d="M181-12q-41,0-68,14.5t-44,41T45,108t-7,85q0,75 16,136.5T100,435t73.5,68.5T271,528q59,0 87.5-28.5T398,420h7l16,96H567L499,107h53L534,0H459q-57,0-85.5,28T353,110l2,13h-5q-15-30-30.5-54.5T284.5,26T240-2T181-12Zm66,113q26,0 47,13t38,35q11,14 25,40t19,58l14,83q7,41-9.5,63T317,415q-55,0-81-31.5T200,293l-10-60q-2-9-3-20.5T186,187q0-36 13-61t48-25Z" />
      <glyph unicode="b" glyph-name="b" horiz-adv-x="600" d="M144,740H290L233,393h5q15,30 31.5,54.5t37,42.5t46,28T411,528q41,0 69.5-14T527,473.5T553.5,410t8.5-82q0-77-17-139.5t-48-107t-74.5-69T325-12q-61,0-92.5,28.5T190,96h-7L167,0H21L144,740ZM278,101q54,0 83,31.5T400,223l10,60q2,9 3,20.5t1,24.5q-1,37-15.5,62T346,415q-27,0-48-13t-39-36q-12-14-27-39.5T212,269l-14-83q-7-41 12.5-63T278,101Z" />
      <glyph unicode="c" glyph-name="c" horiz-adv-x="600" d="M273-12Q167-12 112,45T57,206q0,66 19,124.5T131,433t89.5,69.5T343,528q89,0 136-36t64-95L424,341q-11,32-30,51t-63,19q-43,0-72.5-28T220,301l-10-60q-2-9-3-22t-1-25q0-40 20.5-64.5T297,105q16,0 30,3.5T357.5,124t37,33.5T442,215l91-59q-26-41-52-72T424,31.5T356-1T273-12Z" />
      <glyph unicode="d" glyph-name="d" horiz-adv-x="600" d="M367,123h-5q-15-30-31.5-54.5T293.5,26t-46-28T189-12q-41,0-69.5,14T73,42.5T46.5,106T38,188q0,77 17,139.5t48,107t74.5,69T275,528q61,0 92.5-28.5T410,420h7l53,320H616L493,0H347l20,123ZM254,101q27,0 48,13t39,36q12,14 27,39.5T388,247l14,83q7,41-12.5,63T322,415q-54,0-83-31.5T200,293l-10-60q-2-9-3-20.5T186,188q1-37 15.5-62T254,101Z" />
      <glyph unicode="e" glyph-name="e" horiz-adv-x="600" d="M281-12Q166-12 111,46.5T56,208q0,72 22,131t61.5,101T235,505t125,23q39,0 73.5-9T494,492.5t41-44T550,386q0-31-13-62t-50.5-56.5t-106-43T202,203q-1-6-1-9.5t0-7.5q0-42 23-64t76-22q21,0 38.5,4t34,14.5t33,27T442,188l91-59q-20-29-43.5-54.5T436,29.5T368-1T281-12Zm64,437q-48,0-82-28.5T215,301l-3-14q69,4 108.5,13t59,21T404,347t5,26q0,52-64,52Z" />
      <glyph unicode="f" glyph-name="f" horiz-adv-x="600" d="M173-212q-27,0-49,9T83-178T46-139.5T9-89L-32-30L68,39L171-97l12,5l82,494H102l19,114H284l13,78q11,65 54,105.5T475,740H653L634,626H448L430,516H616L597,402H410L334-53q-14-84-56-121.5T173-212Z" />
      <glyph unicode="g" glyph-name="g" horiz-adv-x="600" d="M224-212q-72,0-122,15T13-136l87,90q24-29 54.5-41T220-99q28,0 50,6t39.5,23T339-23t20,77l15,89h-6q-14-30-30.5-54.5T301,46T255,18T196,8q-42,0-71,15T77,65T49.5,128.5T41,208q0,70 16,129t46.5,101.5t74,66T275,528q63,0 94-28.5T411,420h8l16,96H581L501,36Q480-90 409.5-151T224-212Zm36,334q27,0 47,12.5T345,168q12,14 27.5,38T394,266l11,67q6,36-12.5,59T325,415q-56,0-85-34t-38-88l-7-42q-2-9-3-21t-1-28q0-33 15.5-56.5T260,122Z" />
      <glyph unicode="h" glyph-name="h" horiz-adv-x="600" d="M148,740H294L237,393h5q29,63 67.5,99T410,528q38,0 64.5-12T518,483.5T543,436t8-57q0-22-2.5-45T540,275L494,0H348l49,293q2,14 4.5,28.5T404,355q0,10-3,21t-10,20t-18.5,14.5T344,416q-26,0-45-12t-36-35q-11-15-26.5-41.5T216,269L171,0H25L148,740Z" />
      <glyph unicode="i" glyph-name="i" horiz-adv-x="600" d="M339,584q-45,0-63.5,17.5T257,645q0,5 1,13.5t4,26.5q5,32 27,49t67,17t63.5-17.5T438,690q0-5-1-13.5T433,650q-5-32-27-49t-67-17ZM298-12q-62,0-93,32.5T174,108q0,17 2,33t8,47l40,214H68L87,516H391L314,106l17-5L471,244l80-71l-61-70q-51-57-95.5-86T298-12Z" />
      <glyph unicode="j" glyph-name="j" horiz-adv-x="600" d="M216-212q-30,0-53,9.5T119.5-174T79-128T36-65L4-15L104,54L217-101l13,5l83,498H124l19,114H478L386-37q-16-94-57-134.5T216-212ZM422,584q-45,0-63.5,17.5T340,645q0,5 1,13.5t4,26.5q5,32 27,49t67,17t63.5-17.5T521,690q0-5-1-13.5T516,650q-5-32-27-49t-67-17Z" />
      <glyph unicode="k" glyph-name="k" horiz-adv-x="600" d="M147,740H293L236,393h6q26,58 69,96.5T420,528q64,0 99-35.5T554,406q0-72-45-117T377,218l42-110l15-3l82,80l70-69L534,60Q502,25 468,6.5T394-12q-48,0-75,27T275,90L225,227q90,26 136.5,56T408,361q0,26-17.5,42T341,419q-19,0-38-9.5T261,371q-15-19-27.5-42.5T215,269L170,0H24L147,740Z" />
      <glyph unicode="l" glyph-name="l" horiz-adv-x="600" d="M270-12q-62,0-92,32.5T148,108q0,17 2,33t8,47l81,438H87l19,114H405L288,106l15-5L443,244l80-71l-61-70q-51-57-95.5-86T270-12Z" />
      <glyph unicode="m" glyph-name="m" horiz-adv-x="600" d="M-12,0L74,516H192l-15-90h6q17,45 45,73.5T297,528q40,0 61.5-25.5T375,426h5q9,22 21,40.5t27,32T461.5,520t42.5,8q88,0 88-96q0-17-2-37.5T585,356L526,0H408l57,341q2,9 3,20t1,21q0,18-7.5,28.5T440,421q-13,0-24.5-6.5T393,389q-9-15-14.5-32.5T368,312L316,0H198l57,341q2,9 3,20t1,22q0,38-29,38q-11,0-22.5-6T184,389q-11-17-16.5-34T160,324L106,0H-12Z" />
      <glyph unicode="n" glyph-name="n" horiz-adv-x="600" d="M25,0l86,516H257L237,393h5q29,63 67.5,99T410,528q38,0 64.5-12T518,483.5T543,436t8-57q0-22-2.5-45T540,275L494,0H348l49,293q2,14 4.5,28.5T404,355q0,10-3,21t-10,20t-18.5,14.5T344,416q-26,0-45-12t-36-35q-11-15-26.5-41.5T216,269L171,0H25Z" />
      <glyph unicode="o" glyph-name="o" horiz-adv-x="600" d="M265-12Q159-12 101,47.5T43,210q0,74 21.5,133t60,100t92,63T335,528q106,0 164-59.5T557,306q0-74-21.5-133t-60-100t-92-63T265-12ZM276,97q48,0 78.5,29T394,209l13,78q2,9 3.5,20.5T412,328q0,46-23.5,68.5T324,419q-48,0-78.5-29T206,307l-13-78q-2-9-3.5-20.5T188,188q0-46 23.5-68.5T276,97Z" />
      <glyph unicode="p" glyph-name="p" horiz-adv-x="600" d="M107,516H253L233,393h5q15,30 31.5,54.5t37,42.5t46,28T411,528q41,0 69.5-14T527,473.5T553.5,410t8.5-82q0-77-17-139.5t-48-107t-74.5-69T325-12q-61,0-92.5,28.5T190,96h-7L133-200H-13L107,516ZM278,101q54,0 83,31.5T400,223l10,60q2,9 3,20.5t1,24.5q-1,37-15.5,62T346,415q-27,0-48-13t-39-36q-12-14-27-39.5T212,269l-14-83q-7-41 12.5-63T278,101Z" />
      <glyph unicode="q" glyph-name="q" horiz-adv-x="600" d="M367,123h-5q-15-30-31.5-54.5T293.5,26t-46-28T189-12q-41,0-69.5,14T73,42.5T46.5,106T38,188q0,77 17,139.5t48,107t74.5,69T275,528q61,0 92.5-28.5T410,420h7l16,96H579L460-200H314l53,323ZM254,101q27,0 48,13t39,36q12,14 27,39.5T388,247l14,83q7,41-12.5,63T322,415q-54,0-83-31.5T200,293l-10-60q-2-9-3-20.5T186,188q1-37 15.5-62T254,101Z" />
      <glyph unicode="r" glyph-name="r" horiz-adv-x="600" d="M146,0l67,402H95l19,114H378L351,360h6q32,74 81,115t125,41h34L571,370H480q-41,0-65.5-11T372,325q-10-12-23-37t-18-52L292,0H146Z" />
      <glyph unicode="s" glyph-name="s" horiz-adv-x="600" d="M258-12Q180-12 123.5,9.5T41,72l82,81q22-31 60.5-46.5T268,91q45,0 71.5,14.5T366,148q0,21-15,30.5T313,193l-74,16q-29,6-54.5,16T140,251.5T110.5,292T100,350q0,43 17.5,76.5t49,56t74.5,34T334,528q69,0 124-19.5T539,455l-80-82q-17,22-51,37t-78,15q-39,0-62.5-14T244,369q0-21 13.5-29.5T295,326l77-17q65-14 102-45t37-94q0-43-18-76.5t-51-57t-79.5-36T258-12Z" />
      <glyph unicode="t" glyph-name="t" horiz-adv-x="600" d="M278-12q-66,0-96.5,35T151,116q0,14 1.5,28.5T158,182l37,220H63L82,516h83q32,0 48.5,13T235,576l20,122H391L361,516H563L544,402H342L294,114l20-7L470,230l72-82L482,96q-32-27-58-47.5t-49.5-34T328-5.5T278-12Z" />
      <glyph unicode="u" glyph-name="u" horiz-adv-x="600" d="M362,123h-5q-29-63-67.5-99T189-12q-38,0-64.5,12T81,32.5T56,80t-8,57q0,22 2.5,45T59,241l46,275H251L202,224q-2-14-4.5-29T195,161q0-10 3-21t10-20t18.5-14.5T255,100q26,0 45,12t36,35q11,15 26.5,41.5T383,247l45,269H574L488,0H342l20,123Z" />
      <glyph unicode="v" glyph-name="v" horiz-adv-x="600" d="M286,516L221,96l12-8q48,17 81,45t53.5,62.5t29.5,74t9,80.5q0,34-9,67.5T372,480l130,48q26-32 38.5-77.5T553,350q0-77-29-143T447,92.5T337.5,16T211-12q-64,0-95.5,33T84,111q0,17 1.5,29.5T90,172l35,230H36L55,516H286Z" />
      <glyph unicode="w" glyph-name="w" horiz-adv-x="600" d="M108-12Q58-12 35.5,18T13,97q0,14 2.5,42.5T22,192L76,516H194L133,187q-2-8-3-22t-1-23q0-16 7-25.5t24-9.5q15,0 27.5,10.5T211,146q7,11 12.5,27t7.5,33l48,310H392L338,182q-2-8-3.5-22T333,139q0-14 6.5-25T363,103q18,0 36,22t31.5,58.5t22,84T461,366q0,35-4.5,69T443,494l102,30q15-28 24.5-68t9.5-91q0-90-23.5-166T491,72Q459,31 419,9.5T337-12q-27,0-45.5,9t-30,24t-16,35T242,98h-7Q199-12 108-12Z" />
      <glyph unicode="x" glyph-name="x" horiz-adv-x="600" d="M106-12Q55-12 25.5,24T-4,129q0,18 0.5,26.5T-2,173l116,14V176q0-43 7.5-62.5T150,94q17,0 30,14.5t23,38t17,53T231,260t6,60.5t2,52.5q0,12-0.5,22.5T237,417l-12,5L94,331L33,412l71,53q38,29 72,46t71,17q54,0 80-36t26-102V375h7q22,83 55,118t82,35t78.5-38T605,390q0-15 0-27t-1-20L488,329v16q0,38-8.5,57.5T451,422q-26,0-42.5-28.5t-26.5-70t-14-89T364,149q0-14 0.5-26t1.5-23l12-6l134,93l61-77L522,65Q476,24 436,6T359-12q-48,0-77,35.5T253,139h-7Q225,57 190.5,22.5T106-12Z" />
      <glyph unicode="y" glyph-name="y" horiz-adv-x="600" d="M217-212q-72,0-122,15T6-136L93-46q24-29 54.5-41T213-99q28,0 50,6.5T302-69t29,46.5T351,54l14,86h-5q-29-63-67.5-99T192,5q-38,0-64.5,12T84,49.5T59,97t-8,57q0,22 2.5,45T62,258l43,258H251L205,241q-2-14-4.5-29T198,178q0-10 3-21t10-20t18.5-14.5T258,117q26,0 45,12t36,35q11,15 26.5,41.5T386,264l42,252H574L494,36Q473-90 402.5-151T217-212Z" />
      <glyph unicode="z" glyph-name="z" horiz-adv-x="600" d="M414-12q-36,0-74.5,7.5T260,24L159,76l-4-3L143,0H18L38,120L358,374q-29,23-54,32t-57,9q-26,0-45-16.5T183,339H75v9q0,87 44,133.5T238,528q47,0 96.5-18T436,440l2-2l6,5l12,73H581L561,396L237,138l196-37l11,13l-30,88l85,37l15-27q17-29 23.5-52t6.5-46q0-24-9-47T509.5,26.5t-41-28T414-12Z" />
      <glyph unicode="{" glyph-name="braceleft" horiz-adv-x="600" d="M115,360h89q57,0 87.5,16.5T322,425q0,25-20,55q-14,21-25.5,43T265,579q0,5 1.5,15.5t3,22t3,21.5t2.5,15q8,48 41.5,77.5T417,760H594l-17-98H394q-6-36-8-50.5T384,589q0-25 6.5-39.5T409,515q11-18 21-39t10-47q0-47-32.5-76.5T306,315l-2-8q102-12 102-85q0-18-6-34t-15-29.5T364.5,132T341,107q-19-20-34.5-40T285,9l-8-49H460l-16-98H268q-59,0-84,23T159-55q0,6 1.5,20.5T169,15q5,25 13.5,44t19,34T223,119.5T245,142q26,26 34,41t8,30q0,49-99,49H99l16,98Z" />
      <glyph unicode="|" glyph-name="bar" horiz-adv-x="600" d="M173-138L323,760H447L297-138H173Z" />
      <glyph unicode="}" glyph-name="braceright" horiz-adv-x="600" d="M414,262q-57,0-87.5-16.5T296,197q0-25 20-55q14-21 25.5-43T353,43q0-5-1.5-15.5t-3-22t-3-22T343-31q-8-48-41.5-77.5T201-138H24L41-40H224q6,36 8,50.5T234,33q0,25-6.5,39.5T209,107q-11,18-21,39t-10,47q0,47 32.5,76.5T312,307l2,8q-102,12-102,85q0,18 6,34t15,29.5T253.5,490T277,515q19,20 34.5,40T333,613l8,49H158l16,98H350q59,0 84-23t25-60q0-6-1.5-20.5T449,607q-5-25-13.5-44t-19-34t-22-27T373,480q-26-26-34-41t-8-30q0-49 99-49h89l-16-98H414Z" />
      <glyph unicode="~" glyph-name="asciitilde" horiz-adv-x="600" d="M394,173q-40,0-71.5,17T268,245q-21,35-33,51.5T203,313q-45,0-81-128L19,206q11,50 28.5,91.5t42,72.5t56,48.5T213,436q40,0 71.5-17T339,364q21-35 33-51.5T404,296q45,0 81,128l103-21q-11-50-28.5-91.5t-42-72.5t-56-48.5T394,173Z" />
      <glyph unicode="&#xa0;" glyph-name="uni00A0" horiz-adv-x="600" />
      <glyph unicode="&#xa1;" glyph-name="exclamdown" horiz-adv-x="600" d="M143-182L177,21l96,253h53L338,21L304-182H143ZM315,342q-47,0-67.5,18.5T227,405q0,6 1,15.5t5,32.5q5,32 30,53.5T338,528q47,0 67.5-18.5T426,465q0-6-1-15.5T420,417q-5-32-30-53.5T315,342Z" />
      <glyph unicode="&#xa2;" glyph-name="cent" horiz-adv-x="600" d="M216-6Q138,11 97.5,64.5T57,206q0,61 16.5,116t48,98T199,491t106,35l17,104H434L416,521q57-13 91.5-45T555,399L444,353q-8,22-20,37.5T389,414L337,100q21,7 45.5,27.5T443,196l86-52Q488,78 441.5,39.5T327-9L310-114H198L216-6ZM197,194q0-32 11-55t36-34l52,311q-34-11-56-40t-29-74l-10-62q-2-12-3-23t-1-23Z" />
      <glyph unicode="&#xa3;" glyph-name="sterling" horiz-adv-x="600" d="M472-12q-35,0-73.5,9.5T317,24L165,82L153,0H28L50,141q50,20 79,52.5T158,278q0,5 0,9t-1,9H50L67,397h74q-3,17-5.5,36.5T133,473q0,52 20.5,96T209,644t83,48.5T394,710q77,0 130.5-33T610,583L496,512q-17,34-42.5,52.5T390,583q-50,0-82-29.5T276,465q0-18 2.5-34.5T285,397H462L445,296H304v-8q0-39-25.5-61.5T221,195l-4-7l237-74l11,13l-17,89l99,26l10-30q11-35 16-57t5-46q0-23-7-45T550.5,25T517-2T472-12Z" />
      <glyph unicode="&#xa4;" glyph-name="currency" horiz-adv-x="600" d="M286,107q-53,0-93,15L112,16L18,77l87,115q-15,23-23,51t-8,63q0,11 1,23.5T78,356q8,53 27.5,93T153,518L107,625l104,57l44-103q40,12 90,12q52,0 93-15l81,106l94-61L526,506q15-23 23-51t8-63q0-11-1-23.5T553,342q-8-53-27.5-93T478,180L524,73L420,16L376,119q-41-12-90-12Zm7,105q42,0 71.5,29T402,321l9,54q3,16 3,31q0,38-20,59t-56,21q-42,0-71.5-29T229,377l-9-54q-3-17-3-31q0-38 20-59t56-21Z" />
      <glyph unicode="&#xa5;" glyph-name="yen" horiz-adv-x="600" d="M38,112H207l16,100H55L74,324H201L75,698H225l89-307h8L514,698H673L423,324H551L532,212H363L347,112H516L497,0H19L38,112Z" />
      <glyph unicode="&#xa6;" glyph-name="brokenbar" horiz-adv-x="600" d="M263,400l60,360H447L387,400H263ZM173-138l60,359H357L297-138H173Z" />
      <glyph unicode="&#xa7;" glyph-name="section" horiz-adv-x="600" d="M464,14q0-42-14.5-76.5t-43-60T336-162t-97-14q-58,0-114.5,17T31-104l78,88q22-26 57.5-40.5T240-71q39,0 68,18T337-5q0,22-15,37.5T259,65L187,90q-68,23-100,56.5T55,221q0,60 34,98t108,57l2,13q-36,27-52.5,61T130,520q0,42 14.5,76.5t43,60T258,696t97,14q58,0 114.5-17T563,638l-78-88q-22,26-57.5,40.5T354,605q-39,0-68-18t-29-48q0-22 15-37.5T335,469l72-25q68-23 100-56.5T539,313q0-60-34-98T397,158l-2-13q36-27 52.5-61T464,14ZM410,255q0,22-15,44t-56,35l-73,23q-10,3-22,8q-35-23-47.5-42T184,279q0-22 15-44t56-35l73-23q10-3 22-8q35,23 47.5,42T410,255Z" />
      <glyph unicode="&#xa8;" glyph-name="dieresis" horiz-adv-x="600" d="M208,592q-41,0-57.5,15.5T134,646q0,5 1.5,13t3.5,22q5,27 23,43.5T224,741q41,0 57.5-15.5T298,687q0-5-1.5-13T293,652q-5-27-23-43.5T208,592Zm218,0q-41,0-57.5,15.5T352,646q0,5 1.5,13t3.5,22q5,27 23,43.5T442,741q41,0 57.5-15.5T516,687q0-5-1.5-13T511,652q-5-27-23-43.5T426,592Z" />
      <glyph unicode="&#xa9;" glyph-name="copyright" horiz-adv-x="600" d="M271,18q-57,0-105,19.5t-82.5,56T30,182T11,300q0,84 26,154t71.5,120t109,78T356,680q57,0 104.5-19.5t82-56t54-88.5T616,398q0-84-26-154T518.5,124t-109-78T271,18Zm5,54q52,0 97,17t80,48.5t59,75T545,309q7,41 9,59.5t2,29.5q0,44-11.5,85.5t-36,73T445,607t-94,19q-52,0-97-17t-80-48.5t-59-75T82,389q-8-41-9.5-59.5T71,300q0-44 11.5-85.5t36-73T182,91t94-19Zm20,81q-75,0-120,45.5T131,319q0,45 15.5,85.5t43,72t65,50T337,545q67,0 100.5-29.5T486,441l-90-41q-5,23-19.5,37.5T336,452q-29,0-48.5-18.5T263,386l-11-65q-1-6-1.5-11T250,299q0-23 14-38t41-15q26,0 44.5,15T382,298l81-43q-12-20-27.5-38.5t-36-32.5t-46-22.5T296,153Z" />
      <glyph unicode="&#xaa;" glyph-name="ordfeminine" horiz-adv-x="600" d="M366,341l10,63h-8q-32-71-105-71q-48,0-78,24t-30,68q0,63 46.5,94.5T337,551h57l3,18q1,5 1.5,9.5T399,588q0,23-16,35t-44,12q-32,0-52.5-12.5T248,590l-48,55q21,27 58,46t98,19q66,0 106-27.5T502,600q0-7 0-14.5T500,569L462,341H366ZM331,495q-32,0-51-11t-22-32q-2-8-2-12t0-6q0-17 13.5-25.5T306,400q27,0 47,13t25,39l7,43H331Z" />
      <glyph unicode="&#xab;" glyph-name="guillemotleft" horiz-adv-x="600" d="M221,43L51,211L73,341L287,501l39-92L174,268L280,130L221,43Zm243,0L294,211l22,130L530,501l39-92L417,268L523,130L464,43Z" />
      <glyph unicode="&#xac;" glyph-name="logicalnot" horiz-adv-x="600" d="M370,55l32,192H61L81,363H541L489,55H370Z" />
      <glyph unicode="&#xad;" glyph-name="uni00AD" horiz-adv-x="600" d="M139,235l23,140H479L456,235H139Z" />
      <glyph unicode="&#xae;" glyph-name="registered" horiz-adv-x="600" d="M310,346q-35,0-65,11.5T193,390t-34.5,50.5T146,507q0,41 15.5,78T204,649.5t64.5,44T350,710q35,0 65-11.5T467,666t34.5-50.5T514,549q0-41-15.5-78T456,406t-64.5-44T310,346Zm1,40q60,0 100.5,33T462,511q2,14 3.5,23t1.5,16q0,52-28,86t-90,34q-60,0-100.5-33T198,545q-2-14-3.5-23T193,506q0-52 28-86t90-34Zm-18,52H237l31,185h92q32,0 47-14.5T422,571q0-26-12.5-43T377,503l29-65H345l-21,55H302l-9-55Zm40,95q26,0 29,20q1,6 1,8t0,3q0,16-22,16H317l-8-47h24Z" />
      <glyph unicode="&#xaf;" glyph-name="macron" horiz-adv-x="600" d="M181,718H486L469,616H164l17,102Z" />
      <glyph unicode="&#xb0;" glyph-name="degree" horiz-adv-x="600" d="M326,335q-38,0-69.5,13t-54,35.5t-34.5,54T156,505q0,44 16.5,81.5t45,65t67,43T367,710q38,0 69.5-13t54-35.5t34.5-54T537,540q0-44-16.5-81.5t-45-65t-67-43T326,335Zm8,93q23,0 42,9t32,24t20,35t7,43q0,32-20.5,55T359,617q-23,0-42-9t-32-24t-20-35.5T258,506q0-32 20.5-55T334,428Z" />
      <glyph unicode="&#xb1;" glyph-name="plusminus" horiz-adv-x="600" d="M226,183l28,167H78L98,466H273l28,167H427L399,466H574L554,350H380L352,183H226ZM20,0L40,116H516L496,0H20Z" />
      <glyph unicode="&#xb2;" glyph-name="twosuperior" horiz-adv-x="600" d="M453,329H172l14,84l138,92q8,5 18.5,12t20,15.5t17,18.5t9.5,22q1,5 1.5,8.5T391,589q0,17-12,25.5T350,623q-25,0-39-15t-20-32l-83,31q18,40 53.5,68.5T357,704q58,0 97-29t39-82q0-47-32.5-79T371,448l-68-40H466l-13-79Z" />
      <glyph unicode="&#xb3;" glyph-name="threesuperior" horiz-adv-x="600" d="M327,556q32,0 45.5,9.5T388,584q1,5 1.5,8t0.5,6q0,14-12.5,22T345,628t-38.5-10T269,585l-54,60q27,28 60,43.5T357,704q63,0 98-25.5T490,610q0-31-20.5-55.5T403,522v-2q67-15 67-79q0-50-41.5-84T311,323q-60,0-93,21t-47,52l68,49q9-20 25.5-33T310,399q21,0 37,9t19,27q1,5 1.5,8t0.5,6q0,30-49,30H279l13,77h35Z" />
      <glyph unicode="&#xb4;" glyph-name="acute" horiz-adv-x="600" d="M323,570l-86,46L352,806l114-60L323,570Z" />
      <glyph unicode="&#xb5;" glyph-name="mu" horiz-adv-x="600" d="M-9-200L111,516H257L206,212q-3-20-3-37q0-74 64-74q21,0 42,11.5T347,144q14,17 23.5,38T384,228l48,288H578L492,0H346l20,116h-6q-22-59-56-93.5T219-12q-20,0-37,8.5T153,30h-6l6-131l-16-99H-9Z" />
      <glyph unicode="&#xb6;" glyph-name="paragraph" horiz-adv-x="600" d="M257,246q-40,0-74,13.5t-59.5,38t-40,60T69,438q0,57 22,105t58.5,82.5t84,54T332,699H635L494-148H378L500,585H429L307-148H191l66,394Z" />
      <glyph unicode="&#xb7;" glyph-name="periodcentered" horiz-adv-x="600" d="M295,207q-50,0-71,19.5T203,274q0,15 6,51q5,32 32.5,56T324,405q50,0 71-19.5T416,338q0-15-6-51q-5-32-32.5-56T295,207Z" />
      <glyph unicode="&#xb8;" glyph-name="cedilla" horiz-adv-x="600" d="M285-212q-45,0-74.5,13.5T167-166l51,53q8-9 23-18.5t41-9.5q19,0 33,7t14,22q0,11-13.5,21.5T261-76l-23,2L278,30h67L314-55l3-4q21,7 41,7q27,0 47-14.5T425-114q0-23-11-41t-29.5-31t-44-19.5T285-212Z" />
      <glyph unicode="&#xb9;" glyph-name="onesuperior" horiz-adv-x="600" d="M204,329l13,76h81l34,203l-79-38l-30,71l120,57H444L395,405h72l-13-76H204Z" />
      <glyph unicode="&#xba;" glyph-name="ordmasculine" horiz-adv-x="600" d="M320,333q-77,0-117.5,41T162,486q0,51 14.5,92T218,648.5T283.5,694T370,710q77,0 117.5-41T528,557q0-51-14.5-92T472,394.5T406.5,349T320,333Zm10,76q33,0 55.5,23T414,491l10,60q1,5 1.5,10.5T426,572q0,30-17,46t-49,16q-33,0-55.5-23T276,552l-10-60q-1-5-1.5-10.5T264,471q0-30 17-46t49-16Z" />
      <glyph unicode="&#xbb;" glyph-name="guillemotright" horiz-adv-x="600" d="M31,135L183,276L77,414l59,87L306,333L284,203L70,43L31,135Zm243,0L426,276L320,414l59,87L549,333L527,203L313,43l-39,92Z" />
      <glyph unicode="&#xbc;" glyph-name="onequarter" horiz-adv-x="600" d="M65,432h86l32,192l-83-39L78,645l111,53h94L239,432h75l-11-69H54l11,69ZM568,698H674L451,398H345L568,698ZM181,300H287L64,0H-42L181,300ZM429,63H276l12,74L452,335H558L523,124h44L557,63H513L503,0H419l10,63Zm10,61l21,126h-5L351,124h88Z" />
      <glyph unicode="&#xbd;" glyph-name="onehalf" horiz-adv-x="600" d="M65,432h86l32,192l-83-39L78,645l111,53h94L239,432h75l-11-69H54l11,69ZM568,698H674L451,398H345L568,698ZM181,300H287L64,0H-42L181,300ZM291,75l120,80q41,27 56,44t17,31q1,5 1,7.5t0,4.5q0,14-12,22.5T445,273q-22,0-38-14.5T380,224l-68,30q17,36 50,61.5T454,341q60,0 91-27t31-66q0-26-12-46.5T533,164t-41-31t-43-27L386,67H552L541,0H279l12,75Z" />
      <glyph unicode="&#xbe;" glyph-name="threequarters" horiz-adv-x="600" d="M174,357q-54,0-84.5,19T43,426l62,36q7-18 24-28.5T175,423q26,0 38.5,8.5T228,454q1,5 1.5,9.5T230,471q0,15-15,23.5T176,503H149l11,63h31q29,0 42,8.5T248,597q1,5 1.5,8t0.5,6q0,12-11,19.5T208,638q-23,0-43.5-11T127,597L83,647q29,27 60,42t76,15q58,0 91.5-23.5T344,619q0-32-23.5-54.5T259,537l-1-4q35-3 50.5-22.5T324,464q0-47-40.5-77T174,357ZM568,698H674L451,398H345L568,698ZM181,300H287L64,0H-42L181,300ZM429,63H276l12,74L452,335H558L523,124h44L557,63H513L503,0H419l10,63Zm10,61l21,126h-5L351,124h88Z" />
      <glyph unicode="&#xbf;" glyph-name="questiondown" horiz-adv-x="600" d="M244-194q-101,0-158.5,50T28-8q0,46 16.5,83.5t45,65.5t67,46T238,211l12,71H396L371,130q-85-4-130-27T187,26q-2-9-2-17.5T185-2q0-34 23.5-51T266-70q38,0 65,23t43,61L488-39q-13-32-34.5-60T402-148t-69.5-33.5T244-194Zm90,536q-47,0-67.5,18.5T246,405q0,6 1,15.5t5,32.5q5,32 30,53.5T357,528q47,0 67.5-18.5T445,465q0-6-1-15.5T439,417q-5-32-30-53.5T334,342Z" />
      <glyph unicode="&#xc0;" glyph-name="Agrave" horiz-adv-x="600" d="M400,0L383,169H187L118,0H-37L270,698H476L552,0H400ZM356,553h-9L237,289H377L356,553ZM247,917l124,59l77-196l-87-39L247,917Z" />
      <glyph unicode="&#xc1;" glyph-name="Aacute" horiz-adv-x="600" d="M400,0L383,169H187L118,0H-37L270,698H476L552,0H400ZM356,553h-9L237,289H377L356,553Zm35,187l-86,46L420,976l114-60L391,740Z" />
      <glyph unicode="&#xc2;" glyph-name="Acircumflex" horiz-adv-x="600" d="M400,0L383,169H187L118,0H-37L270,698H476L552,0H400ZM356,553h-9L237,289H377L356,553ZM471,955L579,797l-76-57L397,855L263,740l-70,57L347,955H471Z" />
      <glyph unicode="&#xc3;" glyph-name="Atilde" horiz-adv-x="600" d="M400,0L383,169H187L118,0H-37L270,698H476L552,0H400ZM356,553h-9L237,289H377L356,553ZM457,762q-23,0-39.5,6.5T384,783q-20,9-37.5,15.5T309,805q-17,0-31-6t-32-19l-40,67q22,27 53,45.5T330,911q23,0 39.5-6.5T403,890q20-9 37.5-15.5T478,868q17,0 31,6t32,19l40-67q-22-27-53-45.5T457,762Z" />
      <glyph unicode="&#xc4;" glyph-name="Adieresis" horiz-adv-x="600" d="M400,0L383,169H187L118,0H-37L270,698H476L552,0H400ZM356,553h-9L237,289H377L356,553ZM276,762q-41,0-57.5,15.5T202,816q0,5 1,12.5t4,23.5q5,26 23,42.5T292,911q41,0 57.5-15.5T366,857q0-5-1-12.5T361,821q-5-26-23-42.5T276,762Zm218,0q-41,0-57.5,15.5T420,816q0,5 1,12.5t4,23.5q5,26 23,42.5T510,911q41,0 57.5-15.5T584,857q0-5-1-12.5T579,821q-5-26-23-42.5T494,762Z" />
      <glyph unicode="&#xc5;" glyph-name="Aring" horiz-adv-x="600" d="M400,0L383,169H187L118,0H-37L270,698H476L552,0H400ZM356,553h-9L237,289H377L356,553Zm21,167q-27,0-51,9.5t-41.5,26T257,795t-10,49q0,35 13.5,64.5t36,50.5t53,33t65.5,12q27,0 51-9.5t41.5-26T535,929t10-49q0-35-13.5-64.5t-36-50.5T442,732t-65-12Zm8,74q26,0 40.5,14T444,845q3,18 4.5,27.5T450,890q0,40-43,40q-26,0-40.5-14T348,879q-3-18-4.5-27.5T342,834q0-40 43-40Z" />
      <glyph unicode="&#xc6;" glyph-name="AE" horiz-adv-x="600" d="M308,169H204L141,0H-3L273,698H688L670,588H514L484,408H629L611,298H466L434,110H589L571,0H280l28,169Zm49,426L243,279h84l53,316H357Z" />
      <glyph unicode="&#xc7;" glyph-name="Ccedilla" horiz-adv-x="600" d="M367,590q-62,0-95-49T225,408L207,299q-3-18-5.5-36T199,221q0-53 23-83t78-30q24,0 44,9.5T380,143t29,37.5T432,227l127-38Q521,99 465,48T323-11L307-55l3-4q21,7 42,7q28,0 47-15.5T418-110q0-51-41-76.5T275-212q-42,0-71.5,13.5T160-166l51,53q8-9 23-18.5t38-9.5q22,0 36,7t14,22q0,13-14.5,22.5T254-76l-23,2l24,63Q150,0 100,69T50,254q0,102 23,186t65,144t101.5,93T373,710q58,0 100.5-15T544,653t42.5-65T604,505L461,476q-2,25-6.5,46t-15,36t-28,23.5T367,590Z" />
      <glyph unicode="&#xc8;" glyph-name="Egrave" horiz-adv-x="600" d="M38,0L155,698H601L581,576H281L254,414H540L520,292H233L205,122H504L484,0H38ZM250,917l124,59l77-196l-87-39L250,917Z" />
      <glyph unicode="&#xc9;" glyph-name="Eacute" horiz-adv-x="600" d="M38,0L155,698H601L581,576H281L254,414H540L520,292H233L205,122H504L484,0H38ZM394,740l-86,46L423,976l114-60L394,740Z" />
      <glyph unicode="&#xca;" glyph-name="Ecircumflex" horiz-adv-x="600" d="M38,0L155,698H601L581,576H281L254,414H540L520,292H233L205,122H504L484,0H38ZM474,955L582,797l-76-57L400,855L266,740l-70,57L350,955H474Z" />
      <glyph unicode="&#xcb;" glyph-name="Edieresis" horiz-adv-x="600" d="M38,0L155,698H601L581,576H281L254,414H540L520,292H233L205,122H504L484,0H38ZM279,762q-41,0-57.5,15.5T205,816q0,5 1,12.5t4,23.5q5,26 23,42.5T295,911q41,0 57.5-15.5T369,857q0-5-1-12.5T364,821q-5-26-23-42.5T279,762Zm218,0q-41,0-57.5,15.5T423,816q0,5 1,12.5t4,23.5q5,26 23,42.5T513,911q41,0 57.5-15.5T587,857q0-5-1-12.5T582,821q-5-26-23-42.5T497,762Z" />
      <glyph unicode="&#xcc;" glyph-name="Igrave" horiz-adv-x="600" d="M32,0L50,110H201l80,478H130l18,110H598L580,588H429L349,110H500L482,0H32ZM251,917l124,59l77-196l-87-39L251,917Z" />
      <glyph unicode="&#xcd;" glyph-name="Iacute" horiz-adv-x="600" d="M32,0L50,110H201l80,478H130l18,110H598L580,588H429L349,110H500L482,0H32ZM395,740l-86,46L424,976l114-60L395,740Z" />
      <glyph unicode="&#xce;" glyph-name="Icircumflex" horiz-adv-x="600" d="M32,0L50,110H201l80,478H130l18,110H598L580,588H429L349,110H500L482,0H32ZM475,955L583,797l-76-57L401,855L267,740l-70,57L351,955H475Z" />
      <glyph unicode="&#xcf;" glyph-name="Idieresis" horiz-adv-x="600" d="M32,0L50,110H201l80,478H130l18,110H598L580,588H429L349,110H500L482,0H32ZM280,762q-41,0-57.5,15.5T206,816q0,5 1,12.5t4,23.5q5,26 23,42.5T296,911q41,0 57.5-15.5T370,857q0-5-1-12.5T365,821q-5-26-23-42.5T280,762Zm218,0q-41,0-57.5,15.5T424,816q0,5 1,12.5t4,23.5q5,26 23,42.5T514,911q41,0 57.5-15.5T588,857q0-5-1-12.5T583,821q-5-26-23-42.5T498,762Z" />
      <glyph unicode="&#xd0;" glyph-name="Eth" horiz-adv-x="600" d="M77,312H20L39,424H97l45,274H347q118,0 179.5-66T588,441q0-103-22-185T501.5,117T396,30T252,0H25L77,312ZM255,117q67,0 105,38.5T412,275l21,126q3,18 4.5,36t1.5,32q0,112-105,112H269L242,419H352L335,317H225L192,117h63Z" />
      <glyph unicode="&#xd1;" glyph-name="Ntilde" horiz-adv-x="600" d="M237,468H227L149,0H20L136,698H314l81-468h10l78,468H612L496,0H318L237,468ZM461,762q-23,0-39.5,6.5T388,783q-20,9-37.5,15.5T313,805q-17,0-31-6t-32-19l-40,67q22,27 53,45.5T334,911q23,0 39.5-6.5T407,890q20-9 37.5-15.5T482,868q17,0 31,6t32,19l40-67q-22-27-53-45.5T461,762Z" />
      <glyph unicode="&#xd2;" glyph-name="Ograve" horiz-adv-x="600" d="M279-12Q216-12 170,6T94,58T50,141T36,251q0,89 17.5,172T109,569.5t97.5,102T349,710q63,0 109-18t76-52t44-83t14-110q0-89-17.5-172T519,128.5t-97.5-102T279-12Zm0,120q63,0 92.5,47T415,288l20,120q6,36 6,72q0,52-22,81t-70,29q-63,0-92.5-47T213,410L193,290q-6-36-6-72q0-52 22-81t70-29ZM235,917l124,59l77-196l-87-39L235,917Z" />
      <glyph unicode="&#xd3;" glyph-name="Oacute" horiz-adv-x="600" d="M279-12Q216-12 170,6T94,58T50,141T36,251q0,89 17.5,172T109,569.5t97.5,102T349,710q63,0 109-18t76-52t44-83t14-110q0-89-17.5-172T519,128.5t-97.5-102T279-12Zm0,120q63,0 92.5,47T415,288l20,120q6,36 6,72q0,52-22,81t-70,29q-63,0-92.5-47T213,410L193,290q-6-36-6-72q0-52 22-81t70-29ZM379,740l-86,46L408,976l114-60L379,740Z" />
      <glyph unicode="&#xd4;" glyph-name="Ocircumflex" horiz-adv-x="600" d="M279-12Q216-12 170,6T94,58T50,141T36,251q0,89 17.5,172T109,569.5t97.5,102T349,710q63,0 109-18t76-52t44-83t14-110q0-89-17.5-172T519,128.5t-97.5-102T279-12Zm0,120q63,0 92.5,47T415,288l20,120q6,36 6,72q0,52-22,81t-70,29q-63,0-92.5-47T213,410L193,290q-6-36-6-72q0-52 22-81t70-29ZM459,955L567,797l-76-57L385,855L251,740l-70,57L335,955H459Z" />
      <glyph unicode="&#xd5;" glyph-name="Otilde" horiz-adv-x="600" d="M279-12Q216-12 170,6T94,58T50,141T36,251q0,89 17.5,172T109,569.5t97.5,102T349,710q63,0 109-18t76-52t44-83t14-110q0-89-17.5-172T519,128.5t-97.5-102T279-12Zm0,120q63,0 92.5,47T415,288l20,120q6,36 6,72q0,52-22,81t-70,29q-63,0-92.5-47T213,410L193,290q-6-36-6-72q0-52 22-81t70-29ZM445,762q-23,0-39.5,6.5T372,783q-20,9-37.5,15.5T297,805q-17,0-31-6t-32-19l-40,67q22,27 53,45.5T318,911q23,0 39.5-6.5T391,890q20-9 37.5-15.5T466,868q17,0 31,6t32,19l40-67q-22-27-53-45.5T445,762Z" />
      <glyph unicode="&#xd6;" glyph-name="Odieresis" horiz-adv-x="600" d="M279-12Q216-12 170,6T94,58T50,141T36,251q0,89 17.5,172T109,569.5t97.5,102T349,710q63,0 109-18t76-52t44-83t14-110q0-89-17.5-172T519,128.5t-97.5-102T279-12Zm0,120q63,0 92.5,47T415,288l20,120q6,36 6,72q0,52-22,81t-70,29q-63,0-92.5-47T213,410L193,290q-6-36-6-72q0-52 22-81t70-29ZM264,762q-41,0-57.5,15.5T190,816q0,5 1,12.5t4,23.5q5,26 23,42.5T280,911q41,0 57.5-15.5T354,857q0-5-1-12.5T349,821q-5-26-23-42.5T264,762Zm218,0q-41,0-57.5,15.5T408,816q0,5 1,12.5t4,23.5q5,26 23,42.5T498,911q41,0 57.5-15.5T572,857q0-5-1-12.5T567,821q-5-26-23-42.5T482,762Z" />
      <glyph unicode="&#xd7;" glyph-name="multiply" horiz-adv-x="600" d="M298,220L129,76L53,164L225,310L106,453l95,81L320,390L489,534l75-87L393,301L512,157L417,76L298,220Z" />
      <glyph unicode="&#xd8;" glyph-name="Oslash" horiz-adv-x="600" d="M279-12q-91,0-147,38L61-67L-27-10L63,107q-14,29-20.5,65.5T36,251q0,89 17.5,172T109,569.5t97.5,102T349,710q91,0 147-38l71,93l88-57L565,591q14-29 20.5-65.5T592,447q0-89-17.5-172T519,128.5t-97.5-102T279-12ZM191,302q-3-17-4.5-27.5T185,255v-1L421,562q-26,29-72,29q-63,0-94.5-47.5T209,410L191,302Zm88-195q63,0 94.5,47.5T419,288l18,108q3,17 4.5,27.5T443,443v1L207,136q26-29 72-29Z" />
      <glyph unicode="&#xd9;" glyph-name="Ugrave" horiz-adv-x="600" d="M275,698L202,260q-5-27-6.5-45T194,186q0-38 18.5-58T277,108q33,0 54,10.5T364.5,148T384,194t13,61l74,443H618L547,272q-12-70-28.5-123t-47-89t-79-54T269-12Q207-12 164.5,1.5t-68,38T60,98.5T49,176q0,26 3,54.5T60,291l68,407H275ZM248,917l124,59l77-196l-87-39L248,917Z" />
      <glyph unicode="&#xda;" glyph-name="Uacute" horiz-adv-x="600" d="M275,698L202,260q-5-27-6.5-45T194,186q0-38 18.5-58T277,108q33,0 54,10.5T364.5,148T384,194t13,61l74,443H618L547,272q-12-70-28.5-123t-47-89t-79-54T269-12Q207-12 164.5,1.5t-68,38T60,98.5T49,176q0,26 3,54.5T60,291l68,407H275Zm117,42l-86,46L421,976l114-60L392,740Z" />
      <glyph unicode="&#xdb;" glyph-name="Ucircumflex" horiz-adv-x="600" d="M275,698L202,260q-5-27-6.5-45T194,186q0-38 18.5-58T277,108q33,0 54,10.5T364.5,148T384,194t13,61l74,443H618L547,272q-12-70-28.5-123t-47-89t-79-54T269-12Q207-12 164.5,1.5t-68,38T60,98.5T49,176q0,26 3,54.5T60,291l68,407H275ZM472,955L580,797l-76-57L398,855L264,740l-70,57L348,955H472Z" />
      <glyph unicode="&#xdc;" glyph-name="Udieresis" horiz-adv-x="600" d="M275,698L202,260q-5-27-6.5-45T194,186q0-38 18.5-58T277,108q33,0 54,10.5T364.5,148T384,194t13,61l74,443H618L547,272q-12-70-28.5-123t-47-89t-79-54T269-12Q207-12 164.5,1.5t-68,38T60,98.5T49,176q0,26 3,54.5T60,291l68,407H275Zm2,64q-41,0-57.5,15.5T203,816q0,5 1,12.5t4,23.5q5,26 23,42.5T293,911q41,0 57.5-15.5T367,857q0-5-1-12.5T362,821q-5-26-23-42.5T277,762Zm218,0q-41,0-57.5,15.5T421,816q0,5 1,12.5t4,23.5q5,26 23,42.5T511,911q41,0 57.5-15.5T585,857q0-5-1-12.5T580,821q-5-26-23-42.5T495,762Z" />
      <glyph unicode="&#xdd;" glyph-name="Yacute" horiz-adv-x="600" d="M184,0l41,246L78,698H236l49-164l31-137h9l78,137L503,698H668L373,249L332,0H184ZM388,740l-86,46L417,976l114-60L388,740Z" />
      <glyph unicode="&#xde;" glyph-name="Thorn" horiz-adv-x="600" d="M33,0L150,698H298L278,576H381q46,0 81.5-13.5T522,524t36.5-59T571,391q0-60-17.5-107.5t-50-80.5T425,152T322,134H203L181,0H33ZM223,254h78q51,0 76,19t33,64l5,30q1,5 1.5,12t0.5,15q0,34-18.5,48.5T335,457H257L223,254Z" />
      <glyph unicode="&#xdf;" glyph-name="germandbls" horiz-adv-x="600" d="M17,0l96,595q11,63 54,104t122,41H429L410,628H263L244,516H574L556,411L386,208q67-14 104.5-55.5T528,41q0-59-21-104t-60-75.5t-93.5-46T233-200H163L182-88h57q63,0 96,21.5T376,5q4,23 4.5,29.5T381,46q0,38-28.5,55T267,118H243l19,112L407,404H226L159,0H17Z" />
      <glyph unicode="&#xe0;" glyph-name="agrave" horiz-adv-x="600" d="M181-12q-41,0-68,14.5t-44,41T45,108t-7,85q0,75 16,136.5T100,435t73.5,68.5T271,528q59,0 87.5-28.5T398,420h7l16,96H567L499,107h53L534,0H459q-57,0-85.5,28T353,110l2,13h-5q-15-30-30.5-54.5T284.5,26T240-2T181-12Zm66,113q26,0 47,13t38,35q11,14 25,40t19,58l14,83q7,41-9.5,63T317,415q-55,0-81-31.5T200,293l-10-60q-2-9-3-20.5T186,187q0-36 13-61t48-25ZM205,747l124,59l77-196l-87-39L205,747Z" />
      <glyph unicode="&#xe1;" glyph-name="aacute" horiz-adv-x="600" d="M181-12q-41,0-68,14.5t-44,41T45,108t-7,85q0,75 16,136.5T100,435t73.5,68.5T271,528q59,0 87.5-28.5T398,420h7l16,96H567L499,107h53L534,0H459q-57,0-85.5,28T353,110l2,13h-5q-15-30-30.5-54.5T284.5,26T240-2T181-12Zm66,113q26,0 47,13t38,35q11,14 25,40t19,58l14,83q7,41-9.5,63T317,415q-55,0-81-31.5T200,293l-10-60q-2-9-3-20.5T186,187q0-36 13-61t48-25ZM349,570l-86,46L378,806l114-60L349,570Z" />
      <glyph unicode="&#xe2;" glyph-name="acircumflex" horiz-adv-x="600" d="M181-12q-41,0-68,14.5t-44,41T45,108t-7,85q0,75 16,136.5T100,435t73.5,68.5T271,528q59,0 87.5-28.5T398,420h7l16,96H567L499,107h53L534,0H459q-57,0-85.5,28T353,110l2,13h-5q-15-30-30.5-54.5T284.5,26T240-2T181-12Zm66,113q26,0 47,13t38,35q11,14 25,40t19,58l14,83q7,41-9.5,63T317,415q-55,0-81-31.5T200,293l-10-60q-2-9-3-20.5T186,187q0-36 13-61t48-25ZM429,785L537,627l-76-57L355,685L221,570l-70,57L305,785H429Z" />
      <glyph unicode="&#xe3;" glyph-name="atilde" horiz-adv-x="600" d="M181-12q-41,0-68,14.5t-44,41T45,108t-7,85q0,75 16,136.5T100,435t73.5,68.5T271,528q59,0 87.5-28.5T398,420h7l16,96H567L499,107h53L534,0H459q-57,0-85.5,28T353,110l2,13h-5q-15-30-30.5-54.5T284.5,26T240-2T181-12Zm66,113q26,0 47,13t38,35q11,14 25,40t19,58l14,83q7,41-9.5,63T317,415q-55,0-81-31.5T200,293l-10-60q-2-9-3-20.5T186,187q0-36 13-61t48-25ZM415,592q-23,0-39.5,6.5T342,613q-20,9-37.5,15.5T267,635q-17,0-31-6t-32-19l-40,67q22,27 53,45.5T288,741q23,0 39.5-6.5T361,720q20-9 37.5-15.5T436,698q17,0 31,6t32,19l40-67q-22-27-53-45.5T415,592Z" />
      <glyph unicode="&#xe4;" glyph-name="adieresis" horiz-adv-x="600" d="M181-12q-41,0-68,14.5t-44,41T45,108t-7,85q0,75 16,136.5T100,435t73.5,68.5T271,528q59,0 87.5-28.5T398,420h7l16,96H567L499,107h53L534,0H459q-57,0-85.5,28T353,110l2,13h-5q-15-30-30.5-54.5T284.5,26T240-2T181-12Zm66,113q26,0 47,13t38,35q11,14 25,40t19,58l14,83q7,41-9.5,63T317,415q-55,0-81-31.5T200,293l-10-60q-2-9-3-20.5T186,187q0-36 13-61t48-25ZM234,592q-41,0-57.5,15.5T160,646q0,5 1.5,13t3.5,22q5,27 23,43.5T250,741q41,0 57.5-15.5T324,687q0-5-1.5-13T319,652q-5-27-23-43.5T234,592Zm218,0q-41,0-57.5,15.5T378,646q0,5 1.5,13t3.5,22q5,27 23,43.5T468,741q41,0 57.5-15.5T542,687q0-5-1.5-13T537,652q-5-27-23-43.5T452,592Z" />
      <glyph unicode="&#xe5;" glyph-name="aring" horiz-adv-x="600" d="M181-12q-41,0-68,14.5t-44,41T45,108t-7,85q0,75 16,136.5T100,435t73.5,68.5T271,528q59,0 87.5-28.5T398,420h7l16,96H567L499,107h53L534,0H459q-57,0-85.5,28T353,110l2,13h-5q-15-30-30.5-54.5T284.5,26T240-2T181-12Zm66,113q26,0 47,13t38,35q11,14 25,40t19,58l14,83q7,41-9.5,63T317,415q-55,0-81-31.5T200,293l-10-60q-2-9-3-20.5T186,187q0-36 13-61t48-25Zm88,449q-27,0-51,9.5t-41.5,26T215,625t-10,49q0,35 13.5,64.5t36,50.5t53,33T373,834q27,0 51-9.5t41.5-26T493,759t10-49q0-35-13.5-64.5t-36-50.5T400,562t-65-12Zm8,74q26,0 40.5,14T402,675q3,18 4.5,27.5T408,720q0,40-43,40q-26,0-40.5-14T306,709q-3-18-4.5-27.5T300,664q0-40 43-40Z" />
      <glyph unicode="&#xe6;" glyph-name="ae" horiz-adv-x="600" d="M110-12Q58-12 25,20T-8,121q0,85 55,134.5T203,305h40l7,42q3,18 3,31q0,29-13.5,44T203,437q-27,0-46-18.5T124,365L44,411q29,65 68.5,91T208,528q44,0 77-17.5T324,449h3q20,35 55,57t84,22q63,0 99-37.5T601,394q0-27-10-56t-37.5-53.5t-77.5-41T347,226l-2-11q-2-14-3-26.5T341,167q0-39 14-61.5T397,83q27,0 43.5,21T470,157l91-39q-28-66-69-98T388-12q-27,0-51.5,6.5T293,15T261.5,51T245,105h-4q-14-59-47.5-88T110-12Zm36,89q59,0 76,102l8,49H201q-40,0-65-17t-32-54q-2-14-2.5-22T101,125q0-26 12.5-37T146,77ZM450,439q-32,0-55-31t-34-97l-1-8q38,1 64,9t42,19.5T489,358t7,32q0,24-12.5,36.5T450,439Z" />
      <glyph unicode="&#xe7;" glyph-name="ccedilla" horiz-adv-x="600" d="M343,528q89,0 136-36t64-95L424,341q-11,32-30,51t-63,19t-73-28t-38-82l-10-60q-2-9-3-22t-1-25q0-40 20.5-64.5T297,105q16,0 30,3.5T357.5,124t37,33.5T442,215l91-59q-23-37-47-66T435,39.5t-58.5-34T306-11L290-55l3-4q21,7 42,7q28,0 47-15.5T401-110q0-51-41-76.5T258-212q-42,0-71.5,13.5T143-166l51,53q8-9 23-18.5t38-9.5q22,0 36,7t14,22q0,13-14.5,22.5T237-76l-23,2l25,64Q150-1 103.5,55T57,206q0,66 19,124.5T131,433t89.5,69.5T343,528Z" />
      <glyph unicode="&#xe8;" glyph-name="egrave" horiz-adv-x="600" d="M281-12Q166-12 111,46.5T56,208q0,72 22,131t61.5,101T235,505t125,23q39,0 73.5-9T494,492.5t41-44T550,386q0-31-13-62t-50.5-56.5t-106-43T202,203q-1-6-1-9.5t0-7.5q0-42 23-64t76-22q21,0 38.5,4t34,14.5t33,27T442,188l91-59q-20-29-43.5-54.5T436,29.5T368-1T281-12Zm64,437q-48,0-82-28.5T215,301l-3-14q69,4 108.5,13t59,21T404,347t5,26q0,52-64,52ZM222,747l124,59l77-196l-87-39L222,747Z" />
      <glyph unicode="&#xe9;" glyph-name="eacute" horiz-adv-x="600" d="M281-12Q166-12 111,46.5T56,208q0,72 22,131t61.5,101T235,505t125,23q39,0 73.5-9T494,492.5t41-44T550,386q0-31-13-62t-50.5-56.5t-106-43T202,203q-1-6-1-9.5t0-7.5q0-42 23-64t76-22q21,0 38.5,4t34,14.5t33,27T442,188l91-59q-20-29-43.5-54.5T436,29.5T368-1T281-12Zm64,437q-48,0-82-28.5T215,301l-3-14q69,4 108.5,13t59,21T404,347t5,26q0,52-64,52Zm21,145l-86,46L395,806l114-60L366,570Z" />
      <glyph unicode="&#xea;" glyph-name="ecircumflex" horiz-adv-x="600" d="M281-12Q166-12 111,46.5T56,208q0,72 22,131t61.5,101T235,505t125,23q39,0 73.5-9T494,492.5t41-44T550,386q0-31-13-62t-50.5-56.5t-106-43T202,203q-1-6-1-9.5t0-7.5q0-42 23-64t76-22q21,0 38.5,4t34,14.5t33,27T442,188l91-59q-20-29-43.5-54.5T436,29.5T368-1T281-12Zm64,437q-48,0-82-28.5T215,301l-3-14q69,4 108.5,13t59,21T404,347t5,26q0,52-64,52ZM446,785L554,627l-76-57L372,685L238,570l-70,57L322,785H446Z" />
      <glyph unicode="&#xeb;" glyph-name="edieresis" horiz-adv-x="600" d="M281-12Q166-12 111,46.5T56,208q0,72 22,131t61.5,101T235,505t125,23q39,0 73.5-9T494,492.5t41-44T550,386q0-31-13-62t-50.5-56.5t-106-43T202,203q-1-6-1-9.5t0-7.5q0-42 23-64t76-22q21,0 38.5,4t34,14.5t33,27T442,188l91-59q-20-29-43.5-54.5T436,29.5T368-1T281-12Zm64,437q-48,0-82-28.5T215,301l-3-14q69,4 108.5,13t59,21T404,347t5,26q0,52-64,52ZM251,592q-41,0-57.5,15.5T177,646q0,5 1.5,13t3.5,22q5,27 23,43.5T267,741q41,0 57.5-15.5T341,687q0-5-1.5-13T336,652q-5-27-23-43.5T251,592Zm218,0q-41,0-57.5,15.5T395,646q0,5 1.5,13t3.5,22q5,27 23,43.5T485,741q41,0 57.5-15.5T559,687q0-5-1.5-13T554,652q-5-27-23-43.5T469,592Z" />
      <glyph unicode="&#xec;" glyph-name="igrave" horiz-adv-x="600" d="M298-12q-62,0-93,32.5T174,108q0,17 2,33t8,47l40,214H68L87,516H391L314,106l17-5L471,244l80-71l-61-70q-51-57-95.5-86T298-12ZM197,747l124,59l77-196l-87-39L197,747Z" />
      <glyph unicode="&#xed;" glyph-name="iacute" horiz-adv-x="600" d="M298-12q-62,0-93,32.5T174,108q0,17 2,33t8,47l40,214H68L87,516H391L314,106l17-5L471,244l80-71l-61-70q-51-57-95.5-86T298-12Zm43,582l-86,46L370,806l114-60L341,570Z" />
      <glyph unicode="&#xee;" glyph-name="icircumflex" horiz-adv-x="600" d="M298-12q-62,0-93,32.5T174,108q0,17 2,33t8,47l40,214H68L87,516H391L314,106l17-5L471,244l80-71l-61-70q-51-57-95.5-86T298-12ZM421,785L529,627l-76-57L347,685L213,570l-70,57L297,785H421Z" />
      <glyph unicode="&#xef;" glyph-name="idieresis" horiz-adv-x="600" d="M298-12q-62,0-93,32.5T174,108q0,17 2,33t8,47l40,214H68L87,516H391L314,106l17-5L471,244l80-71l-61-70q-51-57-95.5-86T298-12ZM226,592q-41,0-57.5,15.5T152,646q0,5 1.5,13t3.5,22q5,27 23,43.5T242,741q41,0 57.5-15.5T316,687q0-5-1.5-13T311,652q-5-27-23-43.5T226,592Zm218,0q-41,0-57.5,15.5T370,646q0,5 1.5,13t3.5,22q5,27 23,43.5T460,741q41,0 57.5-15.5T534,687q0-5-1.5-13T529,652q-5-27-23-43.5T444,592Z" />
      <glyph unicode="&#xf0;" glyph-name="eth" horiz-adv-x="600" d="M468,648q45-56 72.5-129T568,353q0-94-23-163T480.5,76t-99-66.5T255-12Q147-12 89.5,46T32,204q0,64 19,118.5t52,94T181.5,478T280,500q57,0 91.5-25.5T423,404l8,4q-6,46-28,90t-56,85L245,528l-41,60l91,48q-31,29-67.5,55T150,740H373q11-9 22.5-18T418,702l95,51l39-60l-84-45ZM271,97q51,0 84.5,31T399,218l9,54q3,18 3,31q0,43-24.5,64.5T319,389q-51,0-84.5-31T191,268l-9-54q-3-18-3-31q0-43 24.5-64.5T271,97Z" />
      <glyph unicode="&#xf1;" glyph-name="ntilde" horiz-adv-x="600" d="M25,0l86,516H257L237,393h5q29,63 67.5,99T410,528q38,0 64.5-12T518,483.5T543,436t8-57q0-22-2.5-45T540,275L494,0H348l49,293q2,14 4.5,28.5T404,355q0,10-3,21t-10,20t-18.5,14.5T344,416q-26,0-45-12t-36-35q-11-15-26.5-41.5T216,269L171,0H25ZM421,592q-23,0-39.5,6.5T348,613q-20,9-37.5,15.5T273,635q-17,0-31-6t-32-19l-40,67q22,27 53,45.5T294,741q23,0 39.5-6.5T367,720q20-9 37.5-15.5T442,698q17,0 31,6t32,19l40-67q-22-27-53-45.5T421,592Z" />
      <glyph unicode="&#xf2;" glyph-name="ograve" horiz-adv-x="600" d="M265-12Q159-12 101,47.5T43,210q0,74 21.5,133t60,100t92,63T335,528q106,0 164-59.5T557,306q0-74-21.5-133t-60-100t-92-63T265-12ZM276,97q48,0 78.5,29T394,209l13,78q2,9 3.5,20.5T412,328q0,46-23.5,68.5T324,419q-48,0-78.5-29T206,307l-13-78q-2-9-3.5-20.5T188,188q0-46 23.5-68.5T276,97ZM222,747l124,59l77-196l-87-39L222,747Z" />
      <glyph unicode="&#xf3;" glyph-name="oacute" horiz-adv-x="600" d="M265-12Q159-12 101,47.5T43,210q0,74 21.5,133t60,100t92,63T335,528q106,0 164-59.5T557,306q0-74-21.5-133t-60-100t-92-63T265-12ZM276,97q48,0 78.5,29T394,209l13,78q2,9 3.5,20.5T412,328q0,46-23.5,68.5T324,419q-48,0-78.5-29T206,307l-13-78q-2-9-3.5-20.5T188,188q0-46 23.5-68.5T276,97Zm90,473l-86,46L395,806l114-60L366,570Z" />
      <glyph unicode="&#xf4;" glyph-name="ocircumflex" horiz-adv-x="600" d="M265-12Q159-12 101,47.5T43,210q0,74 21.5,133t60,100t92,63T335,528q106,0 164-59.5T557,306q0-74-21.5-133t-60-100t-92-63T265-12ZM276,97q48,0 78.5,29T394,209l13,78q2,9 3.5,20.5T412,328q0,46-23.5,68.5T324,419q-48,0-78.5-29T206,307l-13-78q-2-9-3.5-20.5T188,188q0-46 23.5-68.5T276,97ZM446,785L554,627l-76-57L372,685L238,570l-70,57L322,785H446Z" />
      <glyph unicode="&#xf5;" glyph-name="otilde" horiz-adv-x="600" d="M265-12Q159-12 101,47.5T43,210q0,74 21.5,133t60,100t92,63T335,528q106,0 164-59.5T557,306q0-74-21.5-133t-60-100t-92-63T265-12ZM276,97q48,0 78.5,29T394,209l13,78q2,9 3.5,20.5T412,328q0,46-23.5,68.5T324,419q-48,0-78.5-29T206,307l-13-78q-2-9-3.5-20.5T188,188q0-46 23.5-68.5T276,97ZM432,592q-23,0-39.5,6.5T359,613q-20,9-37.5,15.5T284,635q-17,0-31-6t-32-19l-40,67q22,27 53,45.5T305,741q23,0 39.5-6.5T378,720q20-9 37.5-15.5T453,698q17,0 31,6t32,19l40-67q-22-27-53-45.5T432,592Z" />
      <glyph unicode="&#xf6;" glyph-name="odieresis" horiz-adv-x="600" d="M265-12Q159-12 101,47.5T43,210q0,74 21.5,133t60,100t92,63T335,528q106,0 164-59.5T557,306q0-74-21.5-133t-60-100t-92-63T265-12ZM276,97q48,0 78.5,29T394,209l13,78q2,9 3.5,20.5T412,328q0,46-23.5,68.5T324,419q-48,0-78.5-29T206,307l-13-78q-2-9-3.5-20.5T188,188q0-46 23.5-68.5T276,97ZM251,592q-41,0-57.5,15.5T177,646q0,5 1.5,13t3.5,22q5,27 23,43.5T267,741q41,0 57.5-15.5T341,687q0-5-1.5-13T336,652q-5-27-23-43.5T251,592Zm218,0q-41,0-57.5,15.5T395,646q0,5 1.5,13t3.5,22q5,27 23,43.5T485,741q41,0 57.5-15.5T559,687q0-5-1.5-13T554,652q-5-27-23-43.5T469,592Z" />
      <glyph unicode="&#xf7;" glyph-name="divide" horiz-adv-x="600" d="M61,247L81,363H557L537,247H61ZM266,30q-42,0-60,15.5T188,84q0,6 1.5,16.5T193,125q5,27 27,46t67,19q42,0 60-15.5T365,136q0-6-1.5-16.5T360,95q-5-27-27-46T266,30Zm64,390q-42,0-60,15.5T252,474q0,6 1.5,16.5T257,515q5,27 27,46t67,19q42,0 60-15.5T429,526q0-6-1.5-16.5T424,485q-5-27-27-46t-67-19Z" />
      <glyph unicode="&#xf8;" glyph-name="oslash" horiz-adv-x="600" d="M-18,3L69,92Q43,142 43,210q0,74 21.5,133t60,100t92,63T335,528q80,0 134-36l81,82l68-61l-87-89q26-50 26-118q0-74-21.5-133t-60-100t-92-63T265-12q-80,0-134,36L50-58L-18,3ZM324,419q-48,0-78.5-29T206,307l-13-78q-1-5-2.5-14T189,204L381,403q-22,16-57,16ZM276,97q49,0 79,29t39,83l13,78q1,5 2.5,14t1.5,11L219,113q22-16 57-16Z" />
      <glyph unicode="&#xf9;" glyph-name="ugrave" horiz-adv-x="600" d="M362,123h-5q-29-63-67.5-99T189-12q-38,0-64.5,12T81,32.5T56,80t-8,57q0,22 2.5,45T59,241l46,275H251L202,224q-2-14-4.5-29T195,161q0-10 3-21t10-20t18.5-14.5T255,100q26,0 45,12t36,35q11,15 26.5,41.5T383,247l45,269H574L488,0H342l20,123ZM217,747l124,59l77-196l-87-39L217,747Z" />
      <glyph unicode="&#xfa;" glyph-name="uacute" horiz-adv-x="600" d="M362,123h-5q-29-63-67.5-99T189-12q-38,0-64.5,12T81,32.5T56,80t-8,57q0,22 2.5,45T59,241l46,275H251L202,224q-2-14-4.5-29T195,161q0-10 3-21t10-20t18.5-14.5T255,100q26,0 45,12t36,35q11,15 26.5,41.5T383,247l45,269H574L488,0H342l20,123Zm-1,447l-86,46L390,806l114-60L361,570Z" />
      <glyph unicode="&#xfb;" glyph-name="ucircumflex" horiz-adv-x="600" d="M362,123h-5q-29-63-67.5-99T189-12q-38,0-64.5,12T81,32.5T56,80t-8,57q0,22 2.5,45T59,241l46,275H251L202,224q-2-14-4.5-29T195,161q0-10 3-21t10-20t18.5-14.5T255,100q26,0 45,12t36,35q11,15 26.5,41.5T383,247l45,269H574L488,0H342l20,123Zm79,662L549,627l-76-57L367,685L233,570l-70,57L317,785H441Z" />
      <glyph unicode="&#xfc;" glyph-name="udieresis" horiz-adv-x="600" d="M362,123h-5q-29-63-67.5-99T189-12q-38,0-64.5,12T81,32.5T56,80t-8,57q0,22 2.5,45T59,241l46,275H251L202,224q-2-14-4.5-29T195,161q0-10 3-21t10-20t18.5-14.5T255,100q26,0 45,12t36,35q11,15 26.5,41.5T383,247l45,269H574L488,0H342l20,123ZM246,592q-41,0-57.5,15.5T172,646q0,5 1.5,13t3.5,22q5,27 23,43.5T262,741q41,0 57.5-15.5T336,687q0-5-1.5-13T331,652q-5-27-23-43.5T246,592Zm218,0q-41,0-57.5,15.5T390,646q0,5 1.5,13t3.5,22q5,27 23,43.5T480,741q41,0 57.5-15.5T554,687q0-5-1.5-13T549,652q-5-27-23-43.5T464,592Z" />
      <glyph unicode="&#xfd;" glyph-name="yacute" horiz-adv-x="600" d="M217-212q-72,0-122,15T6-136L93-46q24-29 54.5-41T213-99q28,0 50,6.5T302-69t29,46.5T351,54l14,86h-5q-29-63-67.5-99T192,5q-38,0-64.5,12T84,49.5T59,97t-8,57q0,22 2.5,45T62,258l43,258H251L205,241q-2-14-4.5-29T198,178q0-10 3-21t10-20t18.5-14.5T258,117q26,0 45,12t36,35q11,15 26.5,41.5T386,264l42,252H574L494,36Q473-90 402.5-151T217-212ZM372,570l-86,46L401,806l114-60L372,570Z" />
      <glyph unicode="&#xfe;" glyph-name="thorn" horiz-adv-x="600" d="M144,740H290L233,393h5q15,30 31.5,54.5t37,42.5t46,28T411,528q41,0 69.5-14T527,473.5T553.5,410t8.5-82q0-77-17-139.5t-48-107t-74.5-69T325-12q-61,0-92.5,28.5T190,96h-7L133-200H-13L144,740ZM278,101q54,0 83,31.5T400,223l10,60q2,9 3,20.5t1,24.5q-1,37-15.5,62T346,415q-27,0-48-13t-39-36q-12-14-27-39.5T212,269l-14-83q-7-41 12.5-63T278,101Z" />
      <glyph unicode="&#xff;" glyph-name="ydieresis" horiz-adv-x="600" d="M217-212q-72,0-122,15T6-136L93-46q24-29 54.5-41T213-99q28,0 50,6.5T302-69t29,46.5T351,54l14,86h-5q-29-63-67.5-99T192,5q-38,0-64.5,12T84,49.5T59,97t-8,57q0,22 2.5,45T62,258l43,258H251L205,241q-2-14-4.5-29T198,178q0-10 3-21t10-20t18.5-14.5T258,117q26,0 45,12t36,35q11,15 26.5,41.5T386,264l42,252H574L494,36Q473-90 402.5-151T217-212Zm40,804q-41,0-57.5,15.5T183,646q0,5 1.5,13t3.5,22q5,27 23,43.5T273,741q41,0 57.5-15.5T347,687q0-5-1.5-13T342,652q-5-27-23-43.5T257,592Zm218,0q-41,0-57.5,15.5T401,646q0,5 1.5,13t3.5,22q5,27 23,43.5T491,741q41,0 57.5-15.5T565,687q0-5-1.5-13T560,652q-5-27-23-43.5T475,592Z" />
      <glyph unicode="&#x2013;" glyph-name="endash" horiz-adv-x="600" d="M62,245L82,364H557L537,245H62Z" />
      <glyph unicode="&#x2014;" glyph-name="emdash" horiz-adv-x="600" d="M2,245L22,364H616L596,245H2Z" />
      <glyph unicode="&#x2018;" glyph-name="quoteleft" horiz-adv-x="600" d="M368,740H475L365,415H177L368,740Z" />
      <glyph unicode="&#x2019;" glyph-name="quoteright" horiz-adv-x="600" d="M326,740H514L324,415H216L326,740Z" />
      <glyph unicode="&#x201a;" glyph-name="quotesinglbase" horiz-adv-x="600" d="M230,173H418L229-151H120L230,173Z" />
      <glyph unicode="&#x201c;" glyph-name="quotedblleft" horiz-adv-x="600" d="M253,740H360L250,415H62L253,740Zm256,0H616L506,415H318L509,740Z" />
      <glyph unicode="&#x201d;" glyph-name="quotedblright" horiz-adv-x="600" d="M199,740H387L197,415H89L199,740Zm255,0H642L452,415H344L454,740Z" />
      <glyph unicode="&#x201e;" glyph-name="quotedblbase" horiz-adv-x="600" d="M97,173H285L96-151H-13L97,173Zm255,0H540L351-151H242L352,173Z" />
      <glyph unicode="&#x2022;" glyph-name="bullet" horiz-adv-x="600" d="M291,157q-78,0-109,30t-31,76q0,7 0.5,19t5.5,39q10,59 49.5,94.5T326,451q78,0 109-30t31-76q0-7-0.5-19T460,287q-10-59-49.5-94.5T291,157Z" />
      <glyph unicode="&#x2039;" glyph-name="guilsinglleft" horiz-adv-x="600" d="M333,43L163,211l22,130L399,501l39-92L286,268L392,130L333,43Z" />
      <glyph unicode="&#x203a;" glyph-name="guilsinglright" horiz-adv-x="600" d="M161,135L313,276L207,414l59,87L436,333L414,203L200,43l-39,92Z" />
    </font>
</defs>
</svg>
